<?xml version="1.0" encoding="utf-8" standalone="no"?>
<!DOCTYPE svg PUBLIC "-//W3C//DTD SVG 1.1//EN"
  "http://www.w3.org/Graphics/SVG/1.1/DTD/svg11.dtd">
<svg xmlns:xlink="http://www.w3.org/1999/xlink" width="720pt" height="576pt" viewBox="0 0 720 576" xmlns="http://www.w3.org/2000/svg" version="1.1">
 <metadata>
  <rdf:RDF xmlns:dc="http://purl.org/dc/elements/1.1/" xmlns:cc="http://creativecommons.org/ns#" xmlns:rdf="http://www.w3.org/1999/02/22-rdf-syntax-ns#">
   <cc:Work>
    <dc:type rdf:resource="http://purl.org/dc/dcmitype/StillImage"/>
    <dc:date>2024-12-04T04:34:37.126525</dc:date>
    <dc:format>image/svg+xml</dc:format>
    <dc:creator>
     <cc:Agent>
      <dc:title>Matplotlib v3.8.1, https://matplotlib.org/</dc:title>
     </cc:Agent>
    </dc:creator>
   </cc:Work>
  </rdf:RDF>
 </metadata>
 <defs>
  <style type="text/css">*{stroke-linejoin: round; stroke-linecap: butt}</style>
 </defs>
 <g id="figure_1">
  <g id="patch_1">
   <path d="M 0 576 
L 720 576 
L 720 0 
L 0 0 
z
" style="fill: #ffffff"/>
  </g>
  <g id="axes_1">
   <g id="patch_2">
    <path d="M 90 512.64 
L 648 512.64 
L 648 69.12 
L 90 69.12 
z
" style="fill: #ffffff"/>
   </g>
   <g id="PathCollection_1">
    <defs>
     <path id="m0a6927c54d" d="M 0 3 
C 0.795609 3 1.55874 2.683901 2.12132 2.12132 
C 2.683901 1.55874 3 0.795609 3 0 
C 3 -0.795609 2.683901 -1.55874 2.12132 -2.12132 
C 1.55874 -2.683901 0.795609 -3 0 -3 
C -0.795609 -3 -1.55874 -2.683901 -2.12132 -2.12132 
C -2.683901 -1.55874 -3 -0.795609 -3 0 
C -3 0.795609 -2.683901 1.55874 -2.12132 2.12132 
C -1.55874 2.683901 -0.795609 3 0 3 
z
" style="stroke: #0000ff"/>
    </defs>
    <g clip-path="url(#pacb2841b22)">
     <use xlink:href="#m0a6927c54d" x="498.807692" y="370.08" style="fill: #0000ff; stroke: #0000ff"/>
     <use xlink:href="#m0a6927c54d" x="433.754642" y="229.3152" style="fill: #0000ff; stroke: #0000ff"/>
     <use xlink:href="#m0a6927c54d" x="224.547337" y="224.88" style="fill: #0000ff; stroke: #0000ff"/>
     <use xlink:href="#m0a6927c54d" x="551.423077" y="290.88" style="fill: #0000ff; stroke: #0000ff"/>
     <use xlink:href="#m0a6927c54d" x="476.307692" y="444.8448" style="fill: #0000ff; stroke: #0000ff"/>
     <use xlink:href="#m0a6927c54d" x="388.162088" y="365.6448" style="fill: #0000ff; stroke: #0000ff"/>
     <use xlink:href="#m0a6927c54d" x="474.681818" y="260.0448" style="fill: #0000ff; stroke: #0000ff"/>
     <use xlink:href="#m0a6927c54d" x="381.774725" y="396.48" style="fill: #0000ff; stroke: #0000ff"/>
     <use xlink:href="#m0a6927c54d" x="637.269231" y="150.1152" style="fill: #0000ff; stroke: #0000ff"/>
     <use xlink:href="#m0a6927c54d" x="428.615385" y="304.08" style="fill: #0000ff; stroke: #0000ff"/>
     <use xlink:href="#m0a6927c54d" x="402.533654" y="220.4448" style="fill: #0000ff; stroke: #0000ff"/>
     <use xlink:href="#m0a6927c54d" x="525.490385" y="352.4448" style="fill: #0000ff; stroke: #0000ff"/>
     <use xlink:href="#m0a6927c54d" x="403.991639" y="255.7152" style="fill: #0000ff; stroke: #0000ff"/>
     <use xlink:href="#m0a6927c54d" x="496.074899" y="282.1152" style="fill: #0000ff; stroke: #0000ff"/>
     <use xlink:href="#m0a6927c54d" x="334.008361" y="277.68" style="fill: #0000ff; stroke: #0000ff"/>
     <use xlink:href="#m0a6927c54d" x="580.791498" y="396.48" style="fill: #0000ff; stroke: #0000ff"/>
     <use xlink:href="#m0a6927c54d" x="464.81044" y="339.2448" style="fill: #0000ff; stroke: #0000ff"/>
     <use xlink:href="#m0a6927c54d" x="398.807692" y="194.0448" style="fill: #0000ff; stroke: #0000ff"/>
     <use xlink:href="#m0a6927c54d" x="336.807692" y="277.68" style="fill: #0000ff; stroke: #0000ff"/>
     <use xlink:href="#m0a6927c54d" x="250.961538" y="260.0448" style="fill: #0000ff; stroke: #0000ff"/>
     <use xlink:href="#m0a6927c54d" x="393.388112" y="383.28" style="fill: #0000ff; stroke: #0000ff"/>
     <use xlink:href="#m0a6927c54d" x="369" y="370.08" style="fill: #0000ff; stroke: #0000ff"/>
     <use xlink:href="#m0a6927c54d" x="288.519231" y="449.28" style="fill: #0000ff; stroke: #0000ff"/>
     <use xlink:href="#m0a6927c54d" x="464.192308" y="361.3152" style="fill: #0000ff; stroke: #0000ff"/>
     <use xlink:href="#m0a6927c54d" x="411.3583" y="414.1152" style="fill: #0000ff; stroke: #0000ff"/>
     <use xlink:href="#m0a6927c54d" x="240.697324" y="497.6448" style="fill: #0000ff; stroke: #0000ff"/>
     <use xlink:href="#m0a6927c54d" x="511.024887" y="145.68" style="fill: #0000ff; stroke: #0000ff"/>
     <use xlink:href="#m0a6927c54d" x="213.686235" y="246.8448" style="fill: #0000ff; stroke: #0000ff"/>
     <use xlink:href="#m0a6927c54d" x="567.285953" y="251.28" style="fill: #0000ff; stroke: #0000ff"/>
     <use xlink:href="#m0a6927c54d" x="353.219457" y="418.4448" style="fill: #0000ff; stroke: #0000ff"/>
     <use xlink:href="#m0a6927c54d" x="309.384615" y="260.0448" style="fill: #0000ff; stroke: #0000ff"/>
     <use xlink:href="#m0a6927c54d" x="428.615385" y="255.7152" style="fill: #0000ff; stroke: #0000ff"/>
     <use xlink:href="#m0a6927c54d" x="492.816568" y="304.08" style="fill: #0000ff; stroke: #0000ff"/>
     <use xlink:href="#m0a6927c54d" x="476.307692" y="317.28" style="fill: #0000ff; stroke: #0000ff"/>
     <use xlink:href="#m0a6927c54d" x="297.025328" y="216.1152" style="fill: #0000ff; stroke: #0000ff"/>
     <use xlink:href="#m0a6927c54d" x="297.025328" y="484.4448" style="fill: #0000ff; stroke: #0000ff"/>
     <use xlink:href="#m0a6927c54d" x="240.697324" y="304.08" style="fill: #0000ff; stroke: #0000ff"/>
     <use xlink:href="#m0a6927c54d" x="359.749337" y="295.3152" style="fill: #0000ff; stroke: #0000ff"/>
     <use xlink:href="#m0a6927c54d" x="309.384615" y="141.2448" style="fill: #0000ff; stroke: #0000ff"/>
     <use xlink:href="#m0a6927c54d" x="286.455621" y="422.88" style="fill: #0000ff; stroke: #0000ff"/>
     <use xlink:href="#m0a6927c54d" x="353.219457" y="400.9152" style="fill: #0000ff; stroke: #0000ff"/>
     <use xlink:href="#m0a6927c54d" x="275.105769" y="277.68" style="fill: #0000ff; stroke: #0000ff"/>
     <use xlink:href="#m0a6927c54d" x="586.17033" y="488.88" style="fill: #0000ff; stroke: #0000ff"/>
     <use xlink:href="#m0a6927c54d" x="344.611888" y="308.5152" style="fill: #0000ff; stroke: #0000ff"/>
     <use xlink:href="#m0a6927c54d" x="386.884615" y="343.68" style="fill: #0000ff; stroke: #0000ff"/>
     <use xlink:href="#m0a6927c54d" x="369" y="260.0448" style="fill: #0000ff; stroke: #0000ff"/>
     <use xlink:href="#m0a6927c54d" x="386.884615" y="312.8448" style="fill: #0000ff; stroke: #0000ff"/>
     <use xlink:href="#m0a6927c54d" x="426.486264" y="229.3152" style="fill: #0000ff; stroke: #0000ff"/>
    </g>
   </g>
   <g id="PathCollection_2">
    <defs>
     <path id="m0854478a75" d="M 0 3 
C 0.795609 3 1.55874 2.683901 2.12132 2.12132 
C 2.683901 1.55874 3 0.795609 3 0 
C 3 -0.795609 2.683901 -1.55874 2.12132 -2.12132 
C 1.55874 -2.683901 0.795609 -3 0 -3 
C -0.795609 -3 -1.55874 -2.683901 -2.12132 -2.12132 
C -2.683901 -1.55874 -3 -0.795609 -3 0 
C -3 0.795609 -2.683901 1.55874 -2.12132 2.12132 
C -1.55874 2.683901 -0.795609 3 0 3 
z
" style="stroke: #008000"/>
    </defs>
    <g clip-path="url(#pacb2841b22)">
     <use xlink:href="#m0854478a75" x="208.038462" y="383.28" style="fill: #008000; stroke: #008000"/>
     <use xlink:href="#m0854478a75" x="356.225275" y="422.88" style="fill: #008000; stroke: #008000"/>
     <use xlink:href="#m0854478a75" x="427.319398" y="277.68" style="fill: #008000; stroke: #008000"/>
     <use xlink:href="#m0854478a75" x="529.961538" y="462.48" style="fill: #008000; stroke: #008000"/>
     <use xlink:href="#m0854478a75" x="513.452663" y="339.2448" style="fill: #008000; stroke: #008000"/>
     <use xlink:href="#m0854478a75" x="588.493007" y="282.1152" style="fill: #008000; stroke: #008000"/>
     <use xlink:href="#m0854478a75" x="439.597166" y="330.48" style="fill: #008000; stroke: #008000"/>
     <use xlink:href="#m0854478a75" x="100.730769" y="317.28" style="fill: #008000; stroke: #008000"/>
     <use xlink:href="#m0854478a75" x="391.994505" y="92.88" style="fill: #008000; stroke: #008000"/>
     <use xlink:href="#m0854478a75" x="230.240053" y="295.3152" style="fill: #008000; stroke: #008000"/>
     <use xlink:href="#m0854478a75" x="529.961538" y="198.48" style="fill: #008000; stroke: #008000"/>
     <use xlink:href="#m0854478a75" x="305.877828" y="387.7152" style="fill: #008000; stroke: #008000"/>
     <use xlink:href="#m0854478a75" x="434.576923" y="251.28" style="fill: #008000; stroke: #008000"/>
     <use xlink:href="#m0854478a75" x="407.324176" y="238.08" style="fill: #008000; stroke: #008000"/>
     <use xlink:href="#m0854478a75" x="609.030364" y="339.2448" style="fill: #008000; stroke: #008000"/>
     <use xlink:href="#m0854478a75" x="468.642857" y="387.7152" style="fill: #008000; stroke: #008000"/>
     <use xlink:href="#m0854478a75" x="381.774725" y="119.28" style="fill: #008000; stroke: #008000"/>
     <use xlink:href="#m0854478a75" x="536.668269" y="299.6448" style="fill: #008000; stroke: #008000"/>
     <use xlink:href="#m0854478a75" x="386.884615" y="268.9152" style="fill: #008000; stroke: #008000"/>
     <use xlink:href="#m0854478a75" x="520.206294" y="361.3152" style="fill: #008000; stroke: #008000"/>
     <use xlink:href="#m0854478a75" x="507.759947" y="286.4448" style="fill: #008000; stroke: #008000"/>
     <use xlink:href="#m0854478a75" x="429.576923" y="198.48" style="fill: #008000; stroke: #008000"/>
     <use xlink:href="#m0854478a75" x="353.219457" y="242.5152" style="fill: #008000; stroke: #008000"/>
     <use xlink:href="#m0854478a75" x="295.835664" y="418.4448" style="fill: #008000; stroke: #008000"/>
     <use xlink:href="#m0854478a75" x="534.088757" y="383.28" style="fill: #008000; stroke: #008000"/>
     <use xlink:href="#m0854478a75" x="422.653846" y="427.3152" style="fill: #008000; stroke: #008000"/>
     <use xlink:href="#m0854478a75" x="564.104895" y="273.2448" style="fill: #008000; stroke: #008000"/>
     <use xlink:href="#m0854478a75" x="445.648352" y="493.3152" style="fill: #008000; stroke: #008000"/>
     <use xlink:href="#m0854478a75" x="539.716783" y="251.28" style="fill: #008000; stroke: #008000"/>
     <use xlink:href="#m0854478a75" x="321.658371" y="211.68" style="fill: #008000; stroke: #008000"/>
     <use xlink:href="#m0854478a75" x="487.038462" y="224.88" style="fill: #008000; stroke: #008000"/>
     <use xlink:href="#m0854478a75" x="379.730769" y="312.8448" style="fill: #008000; stroke: #008000"/>
     <use xlink:href="#m0854478a75" x="436.067308" y="343.68" style="fill: #008000; stroke: #008000"/>
     <use xlink:href="#m0854478a75" x="348.363905" y="229.3152" style="fill: #008000; stroke: #008000"/>
     <use xlink:href="#m0854478a75" x="342.173077" y="277.68" style="fill: #008000; stroke: #008000"/>
     <use xlink:href="#m0854478a75" x="515.328671" y="348.1152" style="fill: #008000; stroke: #008000"/>
     <use xlink:href="#m0854478a75" x="509.521978" y="290.88" style="fill: #008000; stroke: #008000"/>
     <use xlink:href="#m0854478a75" x="534.088757" y="334.9152" style="fill: #008000; stroke: #008000"/>
     <use xlink:href="#m0854478a75" x="424.67852" y="198.48" style="fill: #008000; stroke: #008000"/>
     <use xlink:href="#m0854478a75" x="369" y="273.2448" style="fill: #008000; stroke: #008000"/>
     <use xlink:href="#m0854478a75" x="428.615385" y="361.3152" style="fill: #008000; stroke: #008000"/>
     <use xlink:href="#m0854478a75" x="307.091716" y="79.68" style="fill: #008000; stroke: #008000"/>
     <use xlink:href="#m0854478a75" x="299.448718" y="154.4448" style="fill: #008000; stroke: #008000"/>
     <use xlink:href="#m0854478a75" x="234.865385" y="405.2448" style="fill: #008000; stroke: #008000"/>
     <use xlink:href="#m0854478a75" x="149.506993" y="308.5152" style="fill: #008000; stroke: #008000"/>
    </g>
   </g>
   <g id="matplotlib.axis_1">
    <g id="xtick_1">
     <g id="line2d_1">
      <defs>
       <path id="m3bf6bf3956" d="M 0 0 
L 0 3.5 
" style="stroke: #000000; stroke-width: 0.8"/>
      </defs>
      <g>
       <use xlink:href="#m3bf6bf3956" x="100.730769" y="512.64" style="stroke: #000000; stroke-width: 0.8"/>
      </g>
     </g>
     <g id="text_1">
      <!-- 0.0 -->
      <g transform="translate(84.827644 534.836875) scale(0.2 -0.2)">
       <defs>
        <path id="DejaVuSans-30" d="M 2034 4250 
Q 1547 4250 1301 3770 
Q 1056 3291 1056 2328 
Q 1056 1369 1301 889 
Q 1547 409 2034 409 
Q 2525 409 2770 889 
Q 3016 1369 3016 2328 
Q 3016 3291 2770 3770 
Q 2525 4250 2034 4250 
z
M 2034 4750 
Q 2819 4750 3233 4129 
Q 3647 3509 3647 2328 
Q 3647 1150 3233 529 
Q 2819 -91 2034 -91 
Q 1250 -91 836 529 
Q 422 1150 422 2328 
Q 422 3509 836 4129 
Q 1250 4750 2034 4750 
z
" transform="scale(0.015625)"/>
        <path id="DejaVuSans-2e" d="M 684 794 
L 1344 794 
L 1344 0 
L 684 0 
L 684 794 
z
" transform="scale(0.015625)"/>
       </defs>
       <use xlink:href="#DejaVuSans-30"/>
       <use xlink:href="#DejaVuSans-2e" x="63.623047"/>
       <use xlink:href="#DejaVuSans-30" x="95.410156"/>
      </g>
     </g>
    </g>
    <g id="xtick_2">
     <g id="line2d_2">
      <g>
       <use xlink:href="#m3bf6bf3956" x="208.038462" y="512.64" style="stroke: #000000; stroke-width: 0.8"/>
      </g>
     </g>
     <g id="text_2">
      <!-- 0.2 -->
      <g transform="translate(192.135337 534.836875) scale(0.2 -0.2)">
       <defs>
        <path id="DejaVuSans-32" d="M 1228 531 
L 3431 531 
L 3431 0 
L 469 0 
L 469 531 
Q 828 903 1448 1529 
Q 2069 2156 2228 2338 
Q 2531 2678 2651 2914 
Q 2772 3150 2772 3378 
Q 2772 3750 2511 3984 
Q 2250 4219 1831 4219 
Q 1534 4219 1204 4116 
Q 875 4013 500 3803 
L 500 4441 
Q 881 4594 1212 4672 
Q 1544 4750 1819 4750 
Q 2544 4750 2975 4387 
Q 3406 4025 3406 3419 
Q 3406 3131 3298 2873 
Q 3191 2616 2906 2266 
Q 2828 2175 2409 1742 
Q 1991 1309 1228 531 
z
" transform="scale(0.015625)"/>
       </defs>
       <use xlink:href="#DejaVuSans-30"/>
       <use xlink:href="#DejaVuSans-2e" x="63.623047"/>
       <use xlink:href="#DejaVuSans-32" x="95.410156"/>
      </g>
     </g>
    </g>
    <g id="xtick_3">
     <g id="line2d_3">
      <g>
       <use xlink:href="#m3bf6bf3956" x="315.346154" y="512.64" style="stroke: #000000; stroke-width: 0.8"/>
      </g>
     </g>
     <g id="text_3">
      <!-- 0.4 -->
      <g transform="translate(299.443029 534.836875) scale(0.2 -0.2)">
       <defs>
        <path id="DejaVuSans-34" d="M 2419 4116 
L 825 1625 
L 2419 1625 
L 2419 4116 
z
M 2253 4666 
L 3047 4666 
L 3047 1625 
L 3713 1625 
L 3713 1100 
L 3047 1100 
L 3047 0 
L 2419 0 
L 2419 1100 
L 313 1100 
L 313 1709 
L 2253 4666 
z
" transform="scale(0.015625)"/>
       </defs>
       <use xlink:href="#DejaVuSans-30"/>
       <use xlink:href="#DejaVuSans-2e" x="63.623047"/>
       <use xlink:href="#DejaVuSans-34" x="95.410156"/>
      </g>
     </g>
    </g>
    <g id="xtick_4">
     <g id="line2d_4">
      <g>
       <use xlink:href="#m3bf6bf3956" x="422.653846" y="512.64" style="stroke: #000000; stroke-width: 0.8"/>
      </g>
     </g>
     <g id="text_4">
      <!-- 0.6 -->
      <g transform="translate(406.750721 534.836875) scale(0.2 -0.2)">
       <defs>
        <path id="DejaVuSans-36" d="M 2113 2584 
Q 1688 2584 1439 2293 
Q 1191 2003 1191 1497 
Q 1191 994 1439 701 
Q 1688 409 2113 409 
Q 2538 409 2786 701 
Q 3034 994 3034 1497 
Q 3034 2003 2786 2293 
Q 2538 2584 2113 2584 
z
M 3366 4563 
L 3366 3988 
Q 3128 4100 2886 4159 
Q 2644 4219 2406 4219 
Q 1781 4219 1451 3797 
Q 1122 3375 1075 2522 
Q 1259 2794 1537 2939 
Q 1816 3084 2150 3084 
Q 2853 3084 3261 2657 
Q 3669 2231 3669 1497 
Q 3669 778 3244 343 
Q 2819 -91 2113 -91 
Q 1303 -91 875 529 
Q 447 1150 447 2328 
Q 447 3434 972 4092 
Q 1497 4750 2381 4750 
Q 2619 4750 2861 4703 
Q 3103 4656 3366 4563 
z
" transform="scale(0.015625)"/>
       </defs>
       <use xlink:href="#DejaVuSans-30"/>
       <use xlink:href="#DejaVuSans-2e" x="63.623047"/>
       <use xlink:href="#DejaVuSans-36" x="95.410156"/>
      </g>
     </g>
    </g>
    <g id="xtick_5">
     <g id="line2d_5">
      <g>
       <use xlink:href="#m3bf6bf3956" x="529.961538" y="512.64" style="stroke: #000000; stroke-width: 0.8"/>
      </g>
     </g>
     <g id="text_5">
      <!-- 0.8 -->
      <g transform="translate(514.058413 534.836875) scale(0.2 -0.2)">
       <defs>
        <path id="DejaVuSans-38" d="M 2034 2216 
Q 1584 2216 1326 1975 
Q 1069 1734 1069 1313 
Q 1069 891 1326 650 
Q 1584 409 2034 409 
Q 2484 409 2743 651 
Q 3003 894 3003 1313 
Q 3003 1734 2745 1975 
Q 2488 2216 2034 2216 
z
M 1403 2484 
Q 997 2584 770 2862 
Q 544 3141 544 3541 
Q 544 4100 942 4425 
Q 1341 4750 2034 4750 
Q 2731 4750 3128 4425 
Q 3525 4100 3525 3541 
Q 3525 3141 3298 2862 
Q 3072 2584 2669 2484 
Q 3125 2378 3379 2068 
Q 3634 1759 3634 1313 
Q 3634 634 3220 271 
Q 2806 -91 2034 -91 
Q 1263 -91 848 271 
Q 434 634 434 1313 
Q 434 1759 690 2068 
Q 947 2378 1403 2484 
z
M 1172 3481 
Q 1172 3119 1398 2916 
Q 1625 2713 2034 2713 
Q 2441 2713 2670 2916 
Q 2900 3119 2900 3481 
Q 2900 3844 2670 4047 
Q 2441 4250 2034 4250 
Q 1625 4250 1398 4047 
Q 1172 3844 1172 3481 
z
" transform="scale(0.015625)"/>
       </defs>
       <use xlink:href="#DejaVuSans-30"/>
       <use xlink:href="#DejaVuSans-2e" x="63.623047"/>
       <use xlink:href="#DejaVuSans-38" x="95.410156"/>
      </g>
     </g>
    </g>
    <g id="xtick_6">
     <g id="line2d_6">
      <g>
       <use xlink:href="#m3bf6bf3956" x="637.269231" y="512.64" style="stroke: #000000; stroke-width: 0.8"/>
      </g>
     </g>
     <g id="text_6">
      <!-- 1.0 -->
      <g transform="translate(621.366106 534.836875) scale(0.2 -0.2)">
       <defs>
        <path id="DejaVuSans-31" d="M 794 531 
L 1825 531 
L 1825 4091 
L 703 3866 
L 703 4441 
L 1819 4666 
L 2450 4666 
L 2450 531 
L 3481 531 
L 3481 0 
L 794 0 
L 794 531 
z
" transform="scale(0.015625)"/>
       </defs>
       <use xlink:href="#DejaVuSans-31"/>
       <use xlink:href="#DejaVuSans-2e" x="63.623047"/>
       <use xlink:href="#DejaVuSans-30" x="95.410156"/>
      </g>
     </g>
    </g>
   </g>
   <g id="matplotlib.axis_2">
    <g id="ytick_1">
     <g id="line2d_7">
      <defs>
       <path id="m6df6a1d76c" d="M 0 0 
L -3.5 0 
" style="stroke: #000000; stroke-width: 0.8"/>
      </defs>
      <g>
       <use xlink:href="#m6df6a1d76c" x="90" y="502.08" style="stroke: #000000; stroke-width: 0.8"/>
      </g>
     </g>
     <g id="text_7">
      <!-- 1 -->
      <g transform="translate(70.275 509.678438) scale(0.2 -0.2)">
       <use xlink:href="#DejaVuSans-31"/>
      </g>
     </g>
    </g>
    <g id="ytick_2">
     <g id="line2d_8">
      <g>
       <use xlink:href="#m6df6a1d76c" x="90" y="396.48" style="stroke: #000000; stroke-width: 0.8"/>
      </g>
     </g>
     <g id="text_8">
      <!-- 2 -->
      <g transform="translate(70.275 404.078438) scale(0.2 -0.2)">
       <use xlink:href="#DejaVuSans-32"/>
      </g>
     </g>
    </g>
    <g id="ytick_3">
     <g id="line2d_9">
      <g>
       <use xlink:href="#m6df6a1d76c" x="90" y="290.88" style="stroke: #000000; stroke-width: 0.8"/>
      </g>
     </g>
     <g id="text_9">
      <!-- 3 -->
      <g transform="translate(70.275 298.478437) scale(0.2 -0.2)">
       <defs>
        <path id="DejaVuSans-33" d="M 2597 2516 
Q 3050 2419 3304 2112 
Q 3559 1806 3559 1356 
Q 3559 666 3084 287 
Q 2609 -91 1734 -91 
Q 1441 -91 1130 -33 
Q 819 25 488 141 
L 488 750 
Q 750 597 1062 519 
Q 1375 441 1716 441 
Q 2309 441 2620 675 
Q 2931 909 2931 1356 
Q 2931 1769 2642 2001 
Q 2353 2234 1838 2234 
L 1294 2234 
L 1294 2753 
L 1863 2753 
Q 2328 2753 2575 2939 
Q 2822 3125 2822 3475 
Q 2822 3834 2567 4026 
Q 2313 4219 1838 4219 
Q 1578 4219 1281 4162 
Q 984 4106 628 3988 
L 628 4550 
Q 988 4650 1302 4700 
Q 1616 4750 1894 4750 
Q 2613 4750 3031 4423 
Q 3450 4097 3450 3541 
Q 3450 3153 3228 2886 
Q 3006 2619 2597 2516 
z
" transform="scale(0.015625)"/>
       </defs>
       <use xlink:href="#DejaVuSans-33"/>
      </g>
     </g>
    </g>
    <g id="ytick_4">
     <g id="line2d_10">
      <g>
       <use xlink:href="#m6df6a1d76c" x="90" y="185.28" style="stroke: #000000; stroke-width: 0.8"/>
      </g>
     </g>
     <g id="text_10">
      <!-- 4 -->
      <g transform="translate(70.275 192.878437) scale(0.2 -0.2)">
       <use xlink:href="#DejaVuSans-34"/>
      </g>
     </g>
    </g>
    <g id="ytick_5">
     <g id="line2d_11">
      <g>
       <use xlink:href="#m6df6a1d76c" x="90" y="79.68" style="stroke: #000000; stroke-width: 0.8"/>
      </g>
     </g>
     <g id="text_11">
      <!-- 5 -->
      <g transform="translate(70.275 87.278437) scale(0.2 -0.2)">
       <defs>
        <path id="DejaVuSans-35" d="M 691 4666 
L 3169 4666 
L 3169 4134 
L 1269 4134 
L 1269 2991 
Q 1406 3038 1543 3061 
Q 1681 3084 1819 3084 
Q 2600 3084 3056 2656 
Q 3513 2228 3513 1497 
Q 3513 744 3044 326 
Q 2575 -91 1722 -91 
Q 1428 -91 1123 -41 
Q 819 9 494 109 
L 494 744 
Q 775 591 1075 516 
Q 1375 441 1709 441 
Q 2250 441 2565 725 
Q 2881 1009 2881 1497 
Q 2881 1984 2565 2268 
Q 2250 2553 1709 2553 
Q 1456 2553 1204 2497 
Q 953 2441 691 2322 
L 691 4666 
z
" transform="scale(0.015625)"/>
       </defs>
       <use xlink:href="#DejaVuSans-35"/>
      </g>
     </g>
    </g>
   </g>
   <g id="line2d_12">
    <path d="M 498.807692 312.7998 
L 433.754642 311.562058 
L 224.547337 307.58154 
L 551.423077 313.800896 
L 476.307692 312.3717 
L 388.162088 310.694584 
L 474.681818 312.340765 
L 381.774725 310.573053 
L 637.269231 315.434262 
L 428.615385 311.464275 
L 402.533654 310.968026 
L 525.490385 313.307483 
L 403.991639 310.995767 
L 496.074899 312.747804 
L 334.008361 309.664219 
L 580.791498 314.359679 
L 464.81044 312.152946 
L 398.807692 310.897134 
L 336.807692 309.717481 
L 250.961538 308.084115 
L 393.388112 310.794017 
L 369 310.329993 
L 288.519231 308.798712 
L 464.192308 312.141185 
L 411.3583 311.13593 
L 240.697324 307.888821 
L 511.024887 313.032253 
L 213.686235 307.37489 
L 567.285953 314.102713 
L 353.219457 310.029742 
L 309.384615 309.195711 
L 428.615385 311.464275 
L 492.816568 312.685809 
L 476.307692 312.3717 
L 297.025328 308.960555 
L 297.025328 308.960555 
L 240.697324 307.888821 
L 359.749337 310.153984 
L 309.384615 309.195711 
L 286.455621 308.759449 
L 353.219457 310.029742 
L 275.105769 308.543499 
L 586.17033 314.46202 
L 344.611888 309.865968 
L 386.884615 310.670277 
L 369 310.329993 
L 386.884615 310.670277 
L 426.486264 311.423765 
" clip-path="url(#pacb2841b22)" style="fill: none; stroke: #0000ff; stroke-width: 1.5; stroke-linecap: square"/>
   </g>
   <g id="line2d_13">
    <path d="M 208.038462 299.536441 
L 356.225275 300.184695 
L 427.319398 300.495701 
L 529.961538 300.944717 
L 513.452663 300.872497 
L 588.493007 301.200767 
L 439.597166 300.549411 
L 100.730769 299.067016 
L 391.994505 300.34117 
L 230.240053 299.633563 
L 529.961538 300.944717 
L 305.877828 299.964446 
L 434.576923 300.52745 
L 407.324176 300.408231 
L 609.030364 301.290609 
L 468.642857 300.676474 
L 381.774725 300.296463 
L 536.668269 300.974056 
L 386.884615 300.318816 
L 520.206294 300.902042 
L 507.759947 300.847594 
L 429.576923 300.505577 
L 353.219457 300.171546 
L 295.835664 299.920516 
L 534.088757 300.962772 
L 422.653846 300.475291 
L 564.104895 301.094079 
L 445.648352 300.575883 
L 539.716783 300.987392 
L 321.658371 300.033479 
L 487.038462 300.756947 
L 379.730769 300.287521 
L 436.067308 300.53397 
L 348.363905 300.150305 
L 342.173077 300.123222 
L 515.328671 300.880704 
L 509.521978 300.855302 
L 534.088757 300.962772 
L 424.67852 300.484148 
L 369 300.240579 
L 428.615385 300.501371 
L 307.091716 299.969756 
L 299.448718 299.936322 
L 234.865385 299.653797 
L 149.506993 299.280391 
" clip-path="url(#pacb2841b22)" style="fill: none; stroke: #008000; stroke-width: 1.5; stroke-linecap: square"/>
   </g>
   <g id="patch_3">
    <path d="M 90 512.64 
L 90 69.12 
" style="fill: none; stroke: #000000; stroke-width: 0.8; stroke-linejoin: miter; stroke-linecap: square"/>
   </g>
   <g id="patch_4">
    <path d="M 648 512.64 
L 648 69.12 
" style="fill: none; stroke: #000000; stroke-width: 0.8; stroke-linejoin: miter; stroke-linecap: square"/>
   </g>
   <g id="patch_5">
    <path d="M 90 512.64 
L 648 512.64 
" style="fill: none; stroke: #000000; stroke-width: 0.8; stroke-linejoin: miter; stroke-linecap: square"/>
   </g>
   <g id="patch_6">
    <path d="M 90 69.12 
L 648 69.12 
" style="fill: none; stroke: #000000; stroke-width: 0.8; stroke-linejoin: miter; stroke-linecap: square"/>
   </g>
   <g id="legend_1">
    <g id="patch_7">
     <path d="M 637 82.12 
L 641 82.12 
Q 643 82.12 643 80.12 
L 643 76.12 
Q 643 74.12 641 74.12 
L 637 74.12 
Q 635 74.12 635 76.12 
L 635 80.12 
Q 635 82.12 637 82.12 
z
" style="fill: #ffffff; opacity: 0.8; stroke: #cccccc; stroke-linejoin: miter"/>
    </g>
   </g>
  </g>
 </g>
 <defs>
  <clipPath id="pacb2841b22">
   <rect x="90" y="69.12" width="558" height="443.52"/>
  </clipPath>
 </defs>
</svg>
