<?xml version="1.0" encoding="utf-8" standalone="no"?>
<!DOCTYPE svg PUBLIC "-//W3C//DTD SVG 1.1//EN"
  "http://www.w3.org/Graphics/SVG/1.1/DTD/svg11.dtd">
<svg xmlns:xlink="http://www.w3.org/1999/xlink" width="720pt" height="576pt" viewBox="0 0 720 576" xmlns="http://www.w3.org/2000/svg" version="1.1">
 <metadata>
  <rdf:RDF xmlns:dc="http://purl.org/dc/elements/1.1/" xmlns:cc="http://creativecommons.org/ns#" xmlns:rdf="http://www.w3.org/1999/02/22-rdf-syntax-ns#">
   <cc:Work>
    <dc:type rdf:resource="http://purl.org/dc/dcmitype/StillImage"/>
    <dc:date>2024-12-04T04:34:37.302119</dc:date>
    <dc:format>image/svg+xml</dc:format>
    <dc:creator>
     <cc:Agent>
      <dc:title>Matplotlib v3.8.1, https://matplotlib.org/</dc:title>
     </cc:Agent>
    </dc:creator>
   </cc:Work>
  </rdf:RDF>
 </metadata>
 <defs>
  <style type="text/css">*{stroke-linejoin: round; stroke-linecap: butt}</style>
 </defs>
 <g id="figure_1">
  <g id="patch_1">
   <path d="M 0 576 
L 720 576 
L 720 0 
L 0 0 
z
" style="fill: #ffffff"/>
  </g>
  <g id="axes_1">
   <g id="patch_2">
    <path d="M 90 512.64 
L 648 512.64 
L 648 69.12 
L 90 69.12 
z
" style="fill: #ffffff"/>
   </g>
   <g id="PathCollection_1">
    <defs>
     <path id="mf971dc054b" d="M 0 3 
C 0.795609 3 1.55874 2.683901 2.12132 2.12132 
C 2.683901 1.55874 3 0.795609 3 0 
C 3 -0.795609 2.683901 -1.55874 2.12132 -2.12132 
C 1.55874 -2.683901 0.795609 -3 0 -3 
C -0.795609 -3 -1.55874 -2.683901 -2.12132 -2.12132 
C -2.683901 -1.55874 -3 -0.795609 -3 0 
C -3 0.795609 -2.683901 1.55874 -2.12132 2.12132 
C -1.55874 2.683901 -0.795609 3 0 3 
z
" style="stroke: #0000ff"/>
    </defs>
    <g clip-path="url(#pe4da3b2426)">
     <use xlink:href="#mf971dc054b" x="498.807692" y="370.08" style="fill: #0000ff; stroke: #0000ff"/>
     <use xlink:href="#mf971dc054b" x="433.754642" y="458.0448" style="fill: #0000ff; stroke: #0000ff"/>
     <use xlink:href="#mf971dc054b" x="224.547337" y="440.5152" style="fill: #0000ff; stroke: #0000ff"/>
     <use xlink:href="#mf971dc054b" x="551.423077" y="449.28" style="fill: #0000ff; stroke: #0000ff"/>
     <use xlink:href="#mf971dc054b" x="476.307692" y="277.68" style="fill: #0000ff; stroke: #0000ff"/>
     <use xlink:href="#mf971dc054b" x="388.162088" y="387.7152" style="fill: #0000ff; stroke: #0000ff"/>
     <use xlink:href="#mf971dc054b" x="474.681818" y="488.88" style="fill: #0000ff; stroke: #0000ff"/>
     <use xlink:href="#mf971dc054b" x="381.774725" y="471.2448" style="fill: #0000ff; stroke: #0000ff"/>
     <use xlink:href="#mf971dc054b" x="637.269231" y="497.6448" style="fill: #0000ff; stroke: #0000ff"/>
     <use xlink:href="#mf971dc054b" x="428.615385" y="220.4448" style="fill: #0000ff; stroke: #0000ff"/>
     <use xlink:href="#mf971dc054b" x="402.533654" y="480.1152" style="fill: #0000ff; stroke: #0000ff"/>
     <use xlink:href="#mf971dc054b" x="525.490385" y="453.7152" style="fill: #0000ff; stroke: #0000ff"/>
     <use xlink:href="#mf971dc054b" x="403.991639" y="497.6448" style="fill: #0000ff; stroke: #0000ff"/>
     <use xlink:href="#mf971dc054b" x="496.074899" y="431.6448" style="fill: #0000ff; stroke: #0000ff"/>
     <use xlink:href="#mf971dc054b" x="334.008361" y="502.08" style="fill: #0000ff; stroke: #0000ff"/>
     <use xlink:href="#mf971dc054b" x="580.791498" y="224.88" style="fill: #0000ff; stroke: #0000ff"/>
     <use xlink:href="#mf971dc054b" x="464.81044" y="264.48" style="fill: #0000ff; stroke: #0000ff"/>
     <use xlink:href="#mf971dc054b" x="398.807692" y="273.2448" style="fill: #0000ff; stroke: #0000ff"/>
     <use xlink:href="#mf971dc054b" x="336.807692" y="444.8448" style="fill: #0000ff; stroke: #0000ff"/>
     <use xlink:href="#mf971dc054b" x="250.961538" y="440.5152" style="fill: #0000ff; stroke: #0000ff"/>
     <use xlink:href="#mf971dc054b" x="393.388112" y="422.88" style="fill: #0000ff; stroke: #0000ff"/>
     <use xlink:href="#mf971dc054b" x="369" y="449.28" style="fill: #0000ff; stroke: #0000ff"/>
     <use xlink:href="#mf971dc054b" x="288.519231" y="466.9152" style="fill: #0000ff; stroke: #0000ff"/>
     <use xlink:href="#mf971dc054b" x="464.192308" y="330.48" style="fill: #0000ff; stroke: #0000ff"/>
     <use xlink:href="#mf971dc054b" x="411.3583" y="493.3152" style="fill: #0000ff; stroke: #0000ff"/>
     <use xlink:href="#mf971dc054b" x="240.697324" y="462.48" style="fill: #0000ff; stroke: #0000ff"/>
     <use xlink:href="#mf971dc054b" x="511.024887" y="356.88" style="fill: #0000ff; stroke: #0000ff"/>
     <use xlink:href="#mf971dc054b" x="213.686235" y="453.7152" style="fill: #0000ff; stroke: #0000ff"/>
     <use xlink:href="#mf971dc054b" x="567.285953" y="502.08" style="fill: #0000ff; stroke: #0000ff"/>
     <use xlink:href="#mf971dc054b" x="353.219457" y="370.08" style="fill: #0000ff; stroke: #0000ff"/>
     <use xlink:href="#mf971dc054b" x="309.384615" y="378.8448" style="fill: #0000ff; stroke: #0000ff"/>
     <use xlink:href="#mf971dc054b" x="428.615385" y="365.6448" style="fill: #0000ff; stroke: #0000ff"/>
     <use xlink:href="#mf971dc054b" x="492.816568" y="502.08" style="fill: #0000ff; stroke: #0000ff"/>
     <use xlink:href="#mf971dc054b" x="476.307692" y="396.48" style="fill: #0000ff; stroke: #0000ff"/>
     <use xlink:href="#mf971dc054b" x="297.025328" y="387.7152" style="fill: #0000ff; stroke: #0000ff"/>
     <use xlink:href="#mf971dc054b" x="297.025328" y="185.28" style="fill: #0000ff; stroke: #0000ff"/>
     <use xlink:href="#mf971dc054b" x="240.697324" y="392.0448" style="fill: #0000ff; stroke: #0000ff"/>
     <use xlink:href="#mf971dc054b" x="359.749337" y="458.0448" style="fill: #0000ff; stroke: #0000ff"/>
     <use xlink:href="#mf971dc054b" x="309.384615" y="502.08" style="fill: #0000ff; stroke: #0000ff"/>
     <use xlink:href="#mf971dc054b" x="286.455621" y="444.8448" style="fill: #0000ff; stroke: #0000ff"/>
     <use xlink:href="#mf971dc054b" x="353.219457" y="246.8448" style="fill: #0000ff; stroke: #0000ff"/>
     <use xlink:href="#mf971dc054b" x="275.105769" y="352.4448" style="fill: #0000ff; stroke: #0000ff"/>
     <use xlink:href="#mf971dc054b" x="586.17033" y="502.08" style="fill: #0000ff; stroke: #0000ff"/>
     <use xlink:href="#mf971dc054b" x="344.611888" y="361.3152" style="fill: #0000ff; stroke: #0000ff"/>
     <use xlink:href="#mf971dc054b" x="386.884615" y="471.2448" style="fill: #0000ff; stroke: #0000ff"/>
     <use xlink:href="#mf971dc054b" x="369" y="414.1152" style="fill: #0000ff; stroke: #0000ff"/>
     <use xlink:href="#mf971dc054b" x="386.884615" y="502.08" style="fill: #0000ff; stroke: #0000ff"/>
     <use xlink:href="#mf971dc054b" x="426.486264" y="493.3152" style="fill: #0000ff; stroke: #0000ff"/>
    </g>
   </g>
   <g id="PathCollection_2">
    <defs>
     <path id="mf29eeeeecd" d="M 0 3 
C 0.795609 3 1.55874 2.683901 2.12132 2.12132 
C 2.683901 1.55874 3 0.795609 3 0 
C 3 -0.795609 2.683901 -1.55874 2.12132 -2.12132 
C 1.55874 -2.683901 0.795609 -3 0 -3 
C -0.795609 -3 -1.55874 -2.683901 -2.12132 -2.12132 
C -2.683901 -1.55874 -3 -0.795609 -3 0 
C -3 0.795609 -2.683901 1.55874 -2.12132 2.12132 
C -1.55874 2.683901 -0.795609 3 0 3 
z
" style="stroke: #008000"/>
    </defs>
    <g clip-path="url(#pe4da3b2426)">
     <use xlink:href="#mf29eeeeecd" x="208.038462" y="427.3152" style="fill: #008000; stroke: #008000"/>
     <use xlink:href="#mf29eeeeecd" x="356.225275" y="409.68" style="fill: #008000; stroke: #008000"/>
     <use xlink:href="#mf29eeeeecd" x="427.319398" y="497.6448" style="fill: #008000; stroke: #008000"/>
     <use xlink:href="#mf29eeeeecd" x="529.961538" y="502.08" style="fill: #008000; stroke: #008000"/>
     <use xlink:href="#mf29eeeeecd" x="513.452663" y="339.2448" style="fill: #008000; stroke: #008000"/>
     <use xlink:href="#mf29eeeeecd" x="588.493007" y="339.2448" style="fill: #008000; stroke: #008000"/>
     <use xlink:href="#mf29eeeeecd" x="439.597166" y="356.88" style="fill: #008000; stroke: #008000"/>
     <use xlink:href="#mf29eeeeecd" x="100.730769" y="471.2448" style="fill: #008000; stroke: #008000"/>
     <use xlink:href="#mf29eeeeecd" x="391.994505" y="436.08" style="fill: #008000; stroke: #008000"/>
     <use xlink:href="#mf29eeeeecd" x="230.240053" y="326.0448" style="fill: #008000; stroke: #008000"/>
     <use xlink:href="#mf29eeeeecd" x="529.961538" y="484.4448" style="fill: #008000; stroke: #008000"/>
     <use xlink:href="#mf29eeeeecd" x="305.877828" y="480.1152" style="fill: #008000; stroke: #008000"/>
     <use xlink:href="#mf29eeeeecd" x="434.576923" y="339.2448" style="fill: #008000; stroke: #008000"/>
     <use xlink:href="#mf29eeeeecd" x="407.324176" y="431.6448" style="fill: #008000; stroke: #008000"/>
     <use xlink:href="#mf29eeeeecd" x="609.030364" y="427.3152" style="fill: #008000; stroke: #008000"/>
     <use xlink:href="#mf29eeeeecd" x="468.642857" y="383.28" style="fill: #008000; stroke: #008000"/>
     <use xlink:href="#mf29eeeeecd" x="381.774725" y="502.08" style="fill: #008000; stroke: #008000"/>
     <use xlink:href="#mf29eeeeecd" x="536.668269" y="387.7152" style="fill: #008000; stroke: #008000"/>
     <use xlink:href="#mf29eeeeecd" x="386.884615" y="422.88" style="fill: #008000; stroke: #008000"/>
     <use xlink:href="#mf29eeeeecd" x="520.206294" y="361.3152" style="fill: #008000; stroke: #008000"/>
     <use xlink:href="#mf29eeeeecd" x="507.759947" y="304.08" style="fill: #008000; stroke: #008000"/>
     <use xlink:href="#mf29eeeeecd" x="429.576923" y="431.6448" style="fill: #008000; stroke: #008000"/>
     <use xlink:href="#mf29eeeeecd" x="353.219457" y="396.48" style="fill: #008000; stroke: #008000"/>
     <use xlink:href="#mf29eeeeecd" x="295.835664" y="453.7152" style="fill: #008000; stroke: #008000"/>
     <use xlink:href="#mf29eeeeecd" x="534.088757" y="440.5152" style="fill: #008000; stroke: #008000"/>
     <use xlink:href="#mf29eeeeecd" x="422.653846" y="321.7152" style="fill: #008000; stroke: #008000"/>
     <use xlink:href="#mf29eeeeecd" x="564.104895" y="145.68" style="fill: #008000; stroke: #008000"/>
     <use xlink:href="#mf29eeeeecd" x="445.648352" y="453.7152" style="fill: #008000; stroke: #008000"/>
     <use xlink:href="#mf29eeeeecd" x="539.716783" y="374.5152" style="fill: #008000; stroke: #008000"/>
     <use xlink:href="#mf29eeeeecd" x="321.658371" y="466.9152" style="fill: #008000; stroke: #008000"/>
     <use xlink:href="#mf29eeeeecd" x="487.038462" y="405.2448" style="fill: #008000; stroke: #008000"/>
     <use xlink:href="#mf29eeeeecd" x="379.730769" y="396.48" style="fill: #008000; stroke: #008000"/>
     <use xlink:href="#mf29eeeeecd" x="436.067308" y="502.08" style="fill: #008000; stroke: #008000"/>
     <use xlink:href="#mf29eeeeecd" x="348.363905" y="449.28" style="fill: #008000; stroke: #008000"/>
     <use xlink:href="#mf29eeeeecd" x="342.173077" y="374.5152" style="fill: #008000; stroke: #008000"/>
     <use xlink:href="#mf29eeeeecd" x="515.328671" y="154.4448" style="fill: #008000; stroke: #008000"/>
     <use xlink:href="#mf29eeeeecd" x="509.521978" y="471.2448" style="fill: #008000; stroke: #008000"/>
     <use xlink:href="#mf29eeeeecd" x="534.088757" y="493.3152" style="fill: #008000; stroke: #008000"/>
     <use xlink:href="#mf29eeeeecd" x="424.67852" y="449.28" style="fill: #008000; stroke: #008000"/>
     <use xlink:href="#mf29eeeeecd" x="369" y="466.9152" style="fill: #008000; stroke: #008000"/>
     <use xlink:href="#mf29eeeeecd" x="428.615385" y="493.3152" style="fill: #008000; stroke: #008000"/>
     <use xlink:href="#mf29eeeeecd" x="307.091716" y="502.08" style="fill: #008000; stroke: #008000"/>
     <use xlink:href="#mf29eeeeecd" x="299.448718" y="378.8448" style="fill: #008000; stroke: #008000"/>
     <use xlink:href="#mf29eeeeecd" x="234.865385" y="458.0448" style="fill: #008000; stroke: #008000"/>
     <use xlink:href="#mf29eeeeecd" x="149.506993" y="273.2448" style="fill: #008000; stroke: #008000"/>
    </g>
   </g>
   <g id="matplotlib.axis_1">
    <g id="xtick_1">
     <g id="line2d_1">
      <defs>
       <path id="m72dc0fada5" d="M 0 0 
L 0 3.5 
" style="stroke: #000000; stroke-width: 0.8"/>
      </defs>
      <g>
       <use xlink:href="#m72dc0fada5" x="100.730769" y="512.64" style="stroke: #000000; stroke-width: 0.8"/>
      </g>
     </g>
     <g id="text_1">
      <!-- 0.0 -->
      <g transform="translate(84.827644 534.836875) scale(0.2 -0.2)">
       <defs>
        <path id="DejaVuSans-30" d="M 2034 4250 
Q 1547 4250 1301 3770 
Q 1056 3291 1056 2328 
Q 1056 1369 1301 889 
Q 1547 409 2034 409 
Q 2525 409 2770 889 
Q 3016 1369 3016 2328 
Q 3016 3291 2770 3770 
Q 2525 4250 2034 4250 
z
M 2034 4750 
Q 2819 4750 3233 4129 
Q 3647 3509 3647 2328 
Q 3647 1150 3233 529 
Q 2819 -91 2034 -91 
Q 1250 -91 836 529 
Q 422 1150 422 2328 
Q 422 3509 836 4129 
Q 1250 4750 2034 4750 
z
" transform="scale(0.015625)"/>
        <path id="DejaVuSans-2e" d="M 684 794 
L 1344 794 
L 1344 0 
L 684 0 
L 684 794 
z
" transform="scale(0.015625)"/>
       </defs>
       <use xlink:href="#DejaVuSans-30"/>
       <use xlink:href="#DejaVuSans-2e" x="63.623047"/>
       <use xlink:href="#DejaVuSans-30" x="95.410156"/>
      </g>
     </g>
    </g>
    <g id="xtick_2">
     <g id="line2d_2">
      <g>
       <use xlink:href="#m72dc0fada5" x="208.038462" y="512.64" style="stroke: #000000; stroke-width: 0.8"/>
      </g>
     </g>
     <g id="text_2">
      <!-- 0.2 -->
      <g transform="translate(192.135337 534.836875) scale(0.2 -0.2)">
       <defs>
        <path id="DejaVuSans-32" d="M 1228 531 
L 3431 531 
L 3431 0 
L 469 0 
L 469 531 
Q 828 903 1448 1529 
Q 2069 2156 2228 2338 
Q 2531 2678 2651 2914 
Q 2772 3150 2772 3378 
Q 2772 3750 2511 3984 
Q 2250 4219 1831 4219 
Q 1534 4219 1204 4116 
Q 875 4013 500 3803 
L 500 4441 
Q 881 4594 1212 4672 
Q 1544 4750 1819 4750 
Q 2544 4750 2975 4387 
Q 3406 4025 3406 3419 
Q 3406 3131 3298 2873 
Q 3191 2616 2906 2266 
Q 2828 2175 2409 1742 
Q 1991 1309 1228 531 
z
" transform="scale(0.015625)"/>
       </defs>
       <use xlink:href="#DejaVuSans-30"/>
       <use xlink:href="#DejaVuSans-2e" x="63.623047"/>
       <use xlink:href="#DejaVuSans-32" x="95.410156"/>
      </g>
     </g>
    </g>
    <g id="xtick_3">
     <g id="line2d_3">
      <g>
       <use xlink:href="#m72dc0fada5" x="315.346154" y="512.64" style="stroke: #000000; stroke-width: 0.8"/>
      </g>
     </g>
     <g id="text_3">
      <!-- 0.4 -->
      <g transform="translate(299.443029 534.836875) scale(0.2 -0.2)">
       <defs>
        <path id="DejaVuSans-34" d="M 2419 4116 
L 825 1625 
L 2419 1625 
L 2419 4116 
z
M 2253 4666 
L 3047 4666 
L 3047 1625 
L 3713 1625 
L 3713 1100 
L 3047 1100 
L 3047 0 
L 2419 0 
L 2419 1100 
L 313 1100 
L 313 1709 
L 2253 4666 
z
" transform="scale(0.015625)"/>
       </defs>
       <use xlink:href="#DejaVuSans-30"/>
       <use xlink:href="#DejaVuSans-2e" x="63.623047"/>
       <use xlink:href="#DejaVuSans-34" x="95.410156"/>
      </g>
     </g>
    </g>
    <g id="xtick_4">
     <g id="line2d_4">
      <g>
       <use xlink:href="#m72dc0fada5" x="422.653846" y="512.64" style="stroke: #000000; stroke-width: 0.8"/>
      </g>
     </g>
     <g id="text_4">
      <!-- 0.6 -->
      <g transform="translate(406.750721 534.836875) scale(0.2 -0.2)">
       <defs>
        <path id="DejaVuSans-36" d="M 2113 2584 
Q 1688 2584 1439 2293 
Q 1191 2003 1191 1497 
Q 1191 994 1439 701 
Q 1688 409 2113 409 
Q 2538 409 2786 701 
Q 3034 994 3034 1497 
Q 3034 2003 2786 2293 
Q 2538 2584 2113 2584 
z
M 3366 4563 
L 3366 3988 
Q 3128 4100 2886 4159 
Q 2644 4219 2406 4219 
Q 1781 4219 1451 3797 
Q 1122 3375 1075 2522 
Q 1259 2794 1537 2939 
Q 1816 3084 2150 3084 
Q 2853 3084 3261 2657 
Q 3669 2231 3669 1497 
Q 3669 778 3244 343 
Q 2819 -91 2113 -91 
Q 1303 -91 875 529 
Q 447 1150 447 2328 
Q 447 3434 972 4092 
Q 1497 4750 2381 4750 
Q 2619 4750 2861 4703 
Q 3103 4656 3366 4563 
z
" transform="scale(0.015625)"/>
       </defs>
       <use xlink:href="#DejaVuSans-30"/>
       <use xlink:href="#DejaVuSans-2e" x="63.623047"/>
       <use xlink:href="#DejaVuSans-36" x="95.410156"/>
      </g>
     </g>
    </g>
    <g id="xtick_5">
     <g id="line2d_5">
      <g>
       <use xlink:href="#m72dc0fada5" x="529.961538" y="512.64" style="stroke: #000000; stroke-width: 0.8"/>
      </g>
     </g>
     <g id="text_5">
      <!-- 0.8 -->
      <g transform="translate(514.058413 534.836875) scale(0.2 -0.2)">
       <defs>
        <path id="DejaVuSans-38" d="M 2034 2216 
Q 1584 2216 1326 1975 
Q 1069 1734 1069 1313 
Q 1069 891 1326 650 
Q 1584 409 2034 409 
Q 2484 409 2743 651 
Q 3003 894 3003 1313 
Q 3003 1734 2745 1975 
Q 2488 2216 2034 2216 
z
M 1403 2484 
Q 997 2584 770 2862 
Q 544 3141 544 3541 
Q 544 4100 942 4425 
Q 1341 4750 2034 4750 
Q 2731 4750 3128 4425 
Q 3525 4100 3525 3541 
Q 3525 3141 3298 2862 
Q 3072 2584 2669 2484 
Q 3125 2378 3379 2068 
Q 3634 1759 3634 1313 
Q 3634 634 3220 271 
Q 2806 -91 2034 -91 
Q 1263 -91 848 271 
Q 434 634 434 1313 
Q 434 1759 690 2068 
Q 947 2378 1403 2484 
z
M 1172 3481 
Q 1172 3119 1398 2916 
Q 1625 2713 2034 2713 
Q 2441 2713 2670 2916 
Q 2900 3119 2900 3481 
Q 2900 3844 2670 4047 
Q 2441 4250 2034 4250 
Q 1625 4250 1398 4047 
Q 1172 3844 1172 3481 
z
" transform="scale(0.015625)"/>
       </defs>
       <use xlink:href="#DejaVuSans-30"/>
       <use xlink:href="#DejaVuSans-2e" x="63.623047"/>
       <use xlink:href="#DejaVuSans-38" x="95.410156"/>
      </g>
     </g>
    </g>
    <g id="xtick_6">
     <g id="line2d_6">
      <g>
       <use xlink:href="#m72dc0fada5" x="637.269231" y="512.64" style="stroke: #000000; stroke-width: 0.8"/>
      </g>
     </g>
     <g id="text_6">
      <!-- 1.0 -->
      <g transform="translate(621.366106 534.836875) scale(0.2 -0.2)">
       <defs>
        <path id="DejaVuSans-31" d="M 794 531 
L 1825 531 
L 1825 4091 
L 703 3866 
L 703 4441 
L 1819 4666 
L 2450 4666 
L 2450 531 
L 3481 531 
L 3481 0 
L 794 0 
L 794 531 
z
" transform="scale(0.015625)"/>
       </defs>
       <use xlink:href="#DejaVuSans-31"/>
       <use xlink:href="#DejaVuSans-2e" x="63.623047"/>
       <use xlink:href="#DejaVuSans-30" x="95.410156"/>
      </g>
     </g>
    </g>
   </g>
   <g id="matplotlib.axis_2">
    <g id="ytick_1">
     <g id="line2d_7">
      <defs>
       <path id="maef999d09d" d="M 0 0 
L -3.5 0 
" style="stroke: #000000; stroke-width: 0.8"/>
      </defs>
      <g>
       <use xlink:href="#maef999d09d" x="90" y="502.08" style="stroke: #000000; stroke-width: 0.8"/>
      </g>
     </g>
     <g id="text_7">
      <!-- 1 -->
      <g transform="translate(70.275 509.678438) scale(0.2 -0.2)">
       <use xlink:href="#DejaVuSans-31"/>
      </g>
     </g>
    </g>
    <g id="ytick_2">
     <g id="line2d_8">
      <g>
       <use xlink:href="#maef999d09d" x="90" y="396.48" style="stroke: #000000; stroke-width: 0.8"/>
      </g>
     </g>
     <g id="text_8">
      <!-- 2 -->
      <g transform="translate(70.275 404.078438) scale(0.2 -0.2)">
       <use xlink:href="#DejaVuSans-32"/>
      </g>
     </g>
    </g>
    <g id="ytick_3">
     <g id="line2d_9">
      <g>
       <use xlink:href="#maef999d09d" x="90" y="290.88" style="stroke: #000000; stroke-width: 0.8"/>
      </g>
     </g>
     <g id="text_9">
      <!-- 3 -->
      <g transform="translate(70.275 298.478437) scale(0.2 -0.2)">
       <defs>
        <path id="DejaVuSans-33" d="M 2597 2516 
Q 3050 2419 3304 2112 
Q 3559 1806 3559 1356 
Q 3559 666 3084 287 
Q 2609 -91 1734 -91 
Q 1441 -91 1130 -33 
Q 819 25 488 141 
L 488 750 
Q 750 597 1062 519 
Q 1375 441 1716 441 
Q 2309 441 2620 675 
Q 2931 909 2931 1356 
Q 2931 1769 2642 2001 
Q 2353 2234 1838 2234 
L 1294 2234 
L 1294 2753 
L 1863 2753 
Q 2328 2753 2575 2939 
Q 2822 3125 2822 3475 
Q 2822 3834 2567 4026 
Q 2313 4219 1838 4219 
Q 1578 4219 1281 4162 
Q 984 4106 628 3988 
L 628 4550 
Q 988 4650 1302 4700 
Q 1616 4750 1894 4750 
Q 2613 4750 3031 4423 
Q 3450 4097 3450 3541 
Q 3450 3153 3228 2886 
Q 3006 2619 2597 2516 
z
" transform="scale(0.015625)"/>
       </defs>
       <use xlink:href="#DejaVuSans-33"/>
      </g>
     </g>
    </g>
    <g id="ytick_4">
     <g id="line2d_10">
      <g>
       <use xlink:href="#maef999d09d" x="90" y="185.28" style="stroke: #000000; stroke-width: 0.8"/>
      </g>
     </g>
     <g id="text_10">
      <!-- 4 -->
      <g transform="translate(70.275 192.878437) scale(0.2 -0.2)">
       <use xlink:href="#DejaVuSans-34"/>
      </g>
     </g>
    </g>
    <g id="ytick_5">
     <g id="line2d_11">
      <g>
       <use xlink:href="#maef999d09d" x="90" y="79.68" style="stroke: #000000; stroke-width: 0.8"/>
      </g>
     </g>
     <g id="text_11">
      <!-- 5 -->
      <g transform="translate(70.275 87.278437) scale(0.2 -0.2)">
       <defs>
        <path id="DejaVuSans-35" d="M 691 4666 
L 3169 4666 
L 3169 4134 
L 1269 4134 
L 1269 2991 
Q 1406 3038 1543 3061 
Q 1681 3084 1819 3084 
Q 2600 3084 3056 2656 
Q 3513 2228 3513 1497 
Q 3513 744 3044 326 
Q 2575 -91 1722 -91 
Q 1428 -91 1123 -41 
Q 819 9 494 109 
L 494 744 
Q 775 591 1075 516 
Q 1375 441 1709 441 
Q 2250 441 2565 725 
Q 2881 1009 2881 1497 
Q 2881 1984 2565 2268 
Q 2250 2553 1709 2553 
Q 1456 2553 1204 2497 
Q 953 2441 691 2322 
L 691 4666 
z
" transform="scale(0.015625)"/>
       </defs>
       <use xlink:href="#DejaVuSans-35"/>
      </g>
     </g>
    </g>
   </g>
   <g id="line2d_12">
    <path d="M 498.807692 428.474079 
L 433.754642 426.151486 
L 224.547337 418.682144 
L 551.423077 430.35261 
L 476.307692 427.67076 
L 388.162088 424.523692 
L 474.681818 427.612712 
L 381.774725 424.295644 
L 637.269231 433.41758 
L 428.615385 425.967999 
L 402.533654 425.036801 
L 525.490385 429.426733 
L 403.991639 425.088856 
L 496.074899 428.37651 
L 334.008361 422.590238 
L 580.791498 431.401152 
L 464.81044 427.260273 
L 398.807692 424.903773 
L 336.807692 422.690183 
L 250.961538 419.625212 
L 393.388112 424.710277 
L 369 423.839547 
L 288.519231 420.966137 
L 464.192308 427.238204 
L 411.3583 425.351868 
L 240.697324 419.258748 
L 511.024887 428.91027 
L 213.686235 418.29437 
L 567.285953 430.918963 
L 353.219457 423.276133 
L 309.384615 421.711095 
L 428.615385 425.967999 
L 492.816568 428.260178 
L 476.307692 427.67076 
L 297.025328 421.269831 
L 297.025328 421.269831 
L 240.697324 419.258748 
L 359.749337 423.50927 
L 309.384615 421.711095 
L 286.455621 420.89246 
L 353.219457 423.276133 
L 275.105769 420.487235 
L 586.17033 431.593193 
L 344.611888 422.968817 
L 386.884615 424.478082 
L 369 423.839547 
L 386.884615 424.478082 
L 426.486264 425.891983 
" clip-path="url(#pe4da3b2426)" style="fill: none; stroke: #0000ff; stroke-width: 1.5; stroke-linecap: square"/>
   </g>
   <g id="line2d_13">
    <path d="M 208.038462 441.098332 
L 356.225275 425.528472 
L 427.319398 418.058674 
L 529.961538 407.274154 
L 513.452663 409.008727 
L 588.493007 401.124303 
L 439.597166 416.76866 
L 100.730769 452.373058 
L 391.994505 421.77023 
L 230.240053 438.76563 
L 529.961538 407.274154 
L 305.877828 430.818435 
L 434.576923 417.296132 
L 407.324176 420.159555 
L 609.030364 398.966461 
L 468.642857 413.716854 
L 381.774725 422.844014 
L 536.668269 406.569483 
L 386.884615 422.307122 
L 520.206294 408.299129 
L 507.759947 409.606856 
L 429.576923 417.821478 
L 353.219457 425.844291 
L 295.835664 431.873556 
L 534.088757 406.84051 
L 422.653846 418.54888 
L 564.104895 403.686741 
L 445.648352 416.132867 
L 539.716783 406.249178 
L 321.658371 429.160387 
L 487.038462 411.784044 
L 379.730769 423.05877 
L 436.067308 417.139539 
L 348.363905 426.354459 
L 342.173077 427.004924 
L 515.328671 408.811616 
L 509.521978 409.42172 
L 534.088757 406.84051 
L 424.67852 418.336149 
L 369 424.186243 
L 428.615385 417.922506 
L 307.091716 430.690893 
L 299.448718 431.493936 
L 234.865385 438.279651 
L 149.506993 447.248183 
" clip-path="url(#pe4da3b2426)" style="fill: none; stroke: #008000; stroke-width: 1.5; stroke-linecap: square"/>
   </g>
   <g id="patch_3">
    <path d="M 90 512.64 
L 90 69.12 
" style="fill: none; stroke: #000000; stroke-width: 0.8; stroke-linejoin: miter; stroke-linecap: square"/>
   </g>
   <g id="patch_4">
    <path d="M 648 512.64 
L 648 69.12 
" style="fill: none; stroke: #000000; stroke-width: 0.8; stroke-linejoin: miter; stroke-linecap: square"/>
   </g>
   <g id="patch_5">
    <path d="M 90 512.64 
L 648 512.64 
" style="fill: none; stroke: #000000; stroke-width: 0.8; stroke-linejoin: miter; stroke-linecap: square"/>
   </g>
   <g id="patch_6">
    <path d="M 90 69.12 
L 648 69.12 
" style="fill: none; stroke: #000000; stroke-width: 0.8; stroke-linejoin: miter; stroke-linecap: square"/>
   </g>
   <g id="legend_1">
    <g id="patch_7">
     <path d="M 637 82.12 
L 641 82.12 
Q 643 82.12 643 80.12 
L 643 76.12 
Q 643 74.12 641 74.12 
L 637 74.12 
Q 635 74.12 635 76.12 
L 635 80.12 
Q 635 82.12 637 82.12 
z
" style="fill: #ffffff; opacity: 0.8; stroke: #cccccc; stroke-linejoin: miter"/>
    </g>
   </g>
  </g>
 </g>
 <defs>
  <clipPath id="pe4da3b2426">
   <rect x="90" y="69.12" width="558" height="443.52"/>
  </clipPath>
 </defs>
</svg>
