<?xml version="1.0" encoding="utf-8" standalone="no"?>
<!DOCTYPE svg PUBLIC "-//W3C//DTD SVG 1.1//EN"
  "http://www.w3.org/Graphics/SVG/1.1/DTD/svg11.dtd">
<svg xmlns:xlink="http://www.w3.org/1999/xlink" width="720pt" height="576pt" viewBox="0 0 720 576" xmlns="http://www.w3.org/2000/svg" version="1.1">
 <metadata>
  <rdf:RDF xmlns:dc="http://purl.org/dc/elements/1.1/" xmlns:cc="http://creativecommons.org/ns#" xmlns:rdf="http://www.w3.org/1999/02/22-rdf-syntax-ns#">
   <cc:Work>
    <dc:type rdf:resource="http://purl.org/dc/dcmitype/StillImage"/>
    <dc:date>2024-12-04T04:34:37.988684</dc:date>
    <dc:format>image/svg+xml</dc:format>
    <dc:creator>
     <cc:Agent>
      <dc:title>Matplotlib v3.8.1, https://matplotlib.org/</dc:title>
     </cc:Agent>
    </dc:creator>
   </cc:Work>
  </rdf:RDF>
 </metadata>
 <defs>
  <style type="text/css">*{stroke-linejoin: round; stroke-linecap: butt}</style>
 </defs>
 <g id="figure_1">
  <g id="patch_1">
   <path d="M 0 576 
L 720 576 
L 720 0 
L 0 0 
z
" style="fill: #ffffff"/>
  </g>
  <g id="axes_1">
   <g id="patch_2">
    <path d="M 90 512.64 
L 648 512.64 
L 648 69.12 
L 90 69.12 
z
" style="fill: #ffffff"/>
   </g>
   <g id="PathCollection_1">
    <defs>
     <path id="m77d8639d8c" d="M 0 3 
C 0.795609 3 1.55874 2.683901 2.12132 2.12132 
C 2.683901 1.55874 3 0.795609 3 0 
C 3 -0.795609 2.683901 -1.55874 2.12132 -2.12132 
C 1.55874 -2.683901 0.795609 -3 0 -3 
C -0.795609 -3 -1.55874 -2.683901 -2.12132 -2.12132 
C -2.683901 -1.55874 -3 -0.795609 -3 0 
C -3 0.795609 -2.683901 1.55874 -2.12132 2.12132 
C -1.55874 2.683901 -0.795609 3 0 3 
z
" style="stroke: #0000ff"/>
    </defs>
    <g clip-path="url(#p352f568979)">
     <use xlink:href="#m77d8639d8c" x="498.807692" y="150.1152" style="fill: #0000ff; stroke: #0000ff"/>
     <use xlink:href="#m77d8639d8c" x="433.754642" y="114.8448" style="fill: #0000ff; stroke: #0000ff"/>
     <use xlink:href="#m77d8639d8c" x="224.547337" y="114.8448" style="fill: #0000ff; stroke: #0000ff"/>
     <use xlink:href="#m77d8639d8c" x="551.423077" y="185.28" style="fill: #0000ff; stroke: #0000ff"/>
     <use xlink:href="#m77d8639d8c" x="476.307692" y="431.6448" style="fill: #0000ff; stroke: #0000ff"/>
     <use xlink:href="#m77d8639d8c" x="388.162088" y="220.4448" style="fill: #0000ff; stroke: #0000ff"/>
     <use xlink:href="#m77d8639d8c" x="474.681818" y="79.68" style="fill: #0000ff; stroke: #0000ff"/>
     <use xlink:href="#m77d8639d8c" x="381.774725" y="150.1152" style="fill: #0000ff; stroke: #0000ff"/>
     <use xlink:href="#m77d8639d8c" x="637.269231" y="79.68" style="fill: #0000ff; stroke: #0000ff"/>
     <use xlink:href="#m77d8639d8c" x="428.615385" y="185.28" style="fill: #0000ff; stroke: #0000ff"/>
     <use xlink:href="#m77d8639d8c" x="402.533654" y="79.68" style="fill: #0000ff; stroke: #0000ff"/>
     <use xlink:href="#m77d8639d8c" x="525.490385" y="79.68" style="fill: #0000ff; stroke: #0000ff"/>
     <use xlink:href="#m77d8639d8c" x="403.991639" y="114.8448" style="fill: #0000ff; stroke: #0000ff"/>
     <use xlink:href="#m77d8639d8c" x="496.074899" y="220.4448" style="fill: #0000ff; stroke: #0000ff"/>
     <use xlink:href="#m77d8639d8c" x="334.008361" y="185.28" style="fill: #0000ff; stroke: #0000ff"/>
     <use xlink:href="#m77d8639d8c" x="580.791498" y="290.88" style="fill: #0000ff; stroke: #0000ff"/>
     <use xlink:href="#m77d8639d8c" x="464.81044" y="79.68" style="fill: #0000ff; stroke: #0000ff"/>
     <use xlink:href="#m77d8639d8c" x="398.807692" y="114.8448" style="fill: #0000ff; stroke: #0000ff"/>
     <use xlink:href="#m77d8639d8c" x="336.807692" y="185.28" style="fill: #0000ff; stroke: #0000ff"/>
     <use xlink:href="#m77d8639d8c" x="250.961538" y="150.1152" style="fill: #0000ff; stroke: #0000ff"/>
     <use xlink:href="#m77d8639d8c" x="393.388112" y="255.7152" style="fill: #0000ff; stroke: #0000ff"/>
     <use xlink:href="#m77d8639d8c" x="369" y="150.1152" style="fill: #0000ff; stroke: #0000ff"/>
     <use xlink:href="#m77d8639d8c" x="288.519231" y="185.28" style="fill: #0000ff; stroke: #0000ff"/>
     <use xlink:href="#m77d8639d8c" x="464.192308" y="150.1152" style="fill: #0000ff; stroke: #0000ff"/>
     <use xlink:href="#m77d8639d8c" x="411.3583" y="150.1152" style="fill: #0000ff; stroke: #0000ff"/>
     <use xlink:href="#m77d8639d8c" x="240.697324" y="466.9152" style="fill: #0000ff; stroke: #0000ff"/>
     <use xlink:href="#m77d8639d8c" x="511.024887" y="185.28" style="fill: #0000ff; stroke: #0000ff"/>
     <use xlink:href="#m77d8639d8c" x="213.686235" y="79.68" style="fill: #0000ff; stroke: #0000ff"/>
     <use xlink:href="#m77d8639d8c" x="567.285953" y="79.68" style="fill: #0000ff; stroke: #0000ff"/>
     <use xlink:href="#m77d8639d8c" x="353.219457" y="114.8448" style="fill: #0000ff; stroke: #0000ff"/>
     <use xlink:href="#m77d8639d8c" x="309.384615" y="220.4448" style="fill: #0000ff; stroke: #0000ff"/>
     <use xlink:href="#m77d8639d8c" x="428.615385" y="114.8448" style="fill: #0000ff; stroke: #0000ff"/>
     <use xlink:href="#m77d8639d8c" x="492.816568" y="150.1152" style="fill: #0000ff; stroke: #0000ff"/>
     <use xlink:href="#m77d8639d8c" x="476.307692" y="290.88" style="fill: #0000ff; stroke: #0000ff"/>
     <use xlink:href="#m77d8639d8c" x="297.025328" y="150.1152" style="fill: #0000ff; stroke: #0000ff"/>
     <use xlink:href="#m77d8639d8c" x="297.025328" y="185.28" style="fill: #0000ff; stroke: #0000ff"/>
     <use xlink:href="#m77d8639d8c" x="240.697324" y="255.7152" style="fill: #0000ff; stroke: #0000ff"/>
     <use xlink:href="#m77d8639d8c" x="359.749337" y="220.4448" style="fill: #0000ff; stroke: #0000ff"/>
     <use xlink:href="#m77d8639d8c" x="309.384615" y="114.8448" style="fill: #0000ff; stroke: #0000ff"/>
     <use xlink:href="#m77d8639d8c" x="286.455621" y="220.4448" style="fill: #0000ff; stroke: #0000ff"/>
     <use xlink:href="#m77d8639d8c" x="353.219457" y="185.28" style="fill: #0000ff; stroke: #0000ff"/>
     <use xlink:href="#m77d8639d8c" x="275.105769" y="79.68" style="fill: #0000ff; stroke: #0000ff"/>
     <use xlink:href="#m77d8639d8c" x="586.17033" y="150.1152" style="fill: #0000ff; stroke: #0000ff"/>
     <use xlink:href="#m77d8639d8c" x="344.611888" y="150.1152" style="fill: #0000ff; stroke: #0000ff"/>
     <use xlink:href="#m77d8639d8c" x="386.884615" y="220.4448" style="fill: #0000ff; stroke: #0000ff"/>
     <use xlink:href="#m77d8639d8c" x="369" y="79.68" style="fill: #0000ff; stroke: #0000ff"/>
     <use xlink:href="#m77d8639d8c" x="386.884615" y="255.7152" style="fill: #0000ff; stroke: #0000ff"/>
     <use xlink:href="#m77d8639d8c" x="426.486264" y="220.4448" style="fill: #0000ff; stroke: #0000ff"/>
    </g>
   </g>
   <g id="PathCollection_2">
    <defs>
     <path id="m93ebcdcbc5" d="M 0 3 
C 0.795609 3 1.55874 2.683901 2.12132 2.12132 
C 2.683901 1.55874 3 0.795609 3 0 
C 3 -0.795609 2.683901 -1.55874 2.12132 -2.12132 
C 1.55874 -2.683901 0.795609 -3 0 -3 
C -0.795609 -3 -1.55874 -2.683901 -2.12132 -2.12132 
C -2.683901 -1.55874 -3 -0.795609 -3 0 
C -3 0.795609 -2.683901 1.55874 -2.12132 2.12132 
C -1.55874 2.683901 -0.795609 3 0 3 
z
" style="stroke: #008000"/>
    </defs>
    <g clip-path="url(#p352f568979)">
     <use xlink:href="#m93ebcdcbc5" x="208.038462" y="255.7152" style="fill: #008000; stroke: #008000"/>
     <use xlink:href="#m93ebcdcbc5" x="356.225275" y="150.1152" style="fill: #008000; stroke: #008000"/>
     <use xlink:href="#m93ebcdcbc5" x="427.319398" y="185.28" style="fill: #008000; stroke: #008000"/>
     <use xlink:href="#m93ebcdcbc5" x="529.961538" y="150.1152" style="fill: #008000; stroke: #008000"/>
     <use xlink:href="#m93ebcdcbc5" x="513.452663" y="326.0448" style="fill: #008000; stroke: #008000"/>
     <use xlink:href="#m93ebcdcbc5" x="588.493007" y="150.1152" style="fill: #008000; stroke: #008000"/>
     <use xlink:href="#m93ebcdcbc5" x="439.597166" y="290.88" style="fill: #008000; stroke: #008000"/>
     <use xlink:href="#m93ebcdcbc5" x="100.730769" y="150.1152" style="fill: #008000; stroke: #008000"/>
     <use xlink:href="#m93ebcdcbc5" x="391.994505" y="220.4448" style="fill: #008000; stroke: #008000"/>
     <use xlink:href="#m93ebcdcbc5" x="230.240053" y="185.28" style="fill: #008000; stroke: #008000"/>
     <use xlink:href="#m93ebcdcbc5" x="529.961538" y="185.28" style="fill: #008000; stroke: #008000"/>
     <use xlink:href="#m93ebcdcbc5" x="305.877828" y="150.1152" style="fill: #008000; stroke: #008000"/>
     <use xlink:href="#m93ebcdcbc5" x="434.576923" y="220.4448" style="fill: #008000; stroke: #008000"/>
     <use xlink:href="#m93ebcdcbc5" x="407.324176" y="185.28" style="fill: #008000; stroke: #008000"/>
     <use xlink:href="#m93ebcdcbc5" x="609.030364" y="185.28" style="fill: #008000; stroke: #008000"/>
     <use xlink:href="#m93ebcdcbc5" x="468.642857" y="220.4448" style="fill: #008000; stroke: #008000"/>
     <use xlink:href="#m93ebcdcbc5" x="381.774725" y="114.8448" style="fill: #008000; stroke: #008000"/>
     <use xlink:href="#m93ebcdcbc5" x="536.668269" y="185.28" style="fill: #008000; stroke: #008000"/>
     <use xlink:href="#m93ebcdcbc5" x="386.884615" y="150.1152" style="fill: #008000; stroke: #008000"/>
     <use xlink:href="#m93ebcdcbc5" x="520.206294" y="114.8448" style="fill: #008000; stroke: #008000"/>
     <use xlink:href="#m93ebcdcbc5" x="507.759947" y="150.1152" style="fill: #008000; stroke: #008000"/>
     <use xlink:href="#m93ebcdcbc5" x="429.576923" y="114.8448" style="fill: #008000; stroke: #008000"/>
     <use xlink:href="#m93ebcdcbc5" x="353.219457" y="185.28" style="fill: #008000; stroke: #008000"/>
     <use xlink:href="#m93ebcdcbc5" x="295.835664" y="290.88" style="fill: #008000; stroke: #008000"/>
     <use xlink:href="#m93ebcdcbc5" x="534.088757" y="255.7152" style="fill: #008000; stroke: #008000"/>
     <use xlink:href="#m93ebcdcbc5" x="422.653846" y="185.28" style="fill: #008000; stroke: #008000"/>
     <use xlink:href="#m93ebcdcbc5" x="564.104895" y="220.4448" style="fill: #008000; stroke: #008000"/>
     <use xlink:href="#m93ebcdcbc5" x="445.648352" y="431.6448" style="fill: #008000; stroke: #008000"/>
     <use xlink:href="#m93ebcdcbc5" x="539.716783" y="150.1152" style="fill: #008000; stroke: #008000"/>
     <use xlink:href="#m93ebcdcbc5" x="321.658371" y="185.28" style="fill: #008000; stroke: #008000"/>
     <use xlink:href="#m93ebcdcbc5" x="487.038462" y="150.1152" style="fill: #008000; stroke: #008000"/>
     <use xlink:href="#m93ebcdcbc5" x="379.730769" y="114.8448" style="fill: #008000; stroke: #008000"/>
     <use xlink:href="#m93ebcdcbc5" x="436.067308" y="150.1152" style="fill: #008000; stroke: #008000"/>
     <use xlink:href="#m93ebcdcbc5" x="348.363905" y="220.4448" style="fill: #008000; stroke: #008000"/>
     <use xlink:href="#m93ebcdcbc5" x="342.173077" y="114.8448" style="fill: #008000; stroke: #008000"/>
     <use xlink:href="#m93ebcdcbc5" x="515.328671" y="150.1152" style="fill: #008000; stroke: #008000"/>
     <use xlink:href="#m93ebcdcbc5" x="509.521978" y="114.8448" style="fill: #008000; stroke: #008000"/>
     <use xlink:href="#m93ebcdcbc5" x="534.088757" y="220.4448" style="fill: #008000; stroke: #008000"/>
     <use xlink:href="#m93ebcdcbc5" x="424.67852" y="114.8448" style="fill: #008000; stroke: #008000"/>
     <use xlink:href="#m93ebcdcbc5" x="369" y="150.1152" style="fill: #008000; stroke: #008000"/>
     <use xlink:href="#m93ebcdcbc5" x="428.615385" y="185.28" style="fill: #008000; stroke: #008000"/>
     <use xlink:href="#m93ebcdcbc5" x="307.091716" y="79.68" style="fill: #008000; stroke: #008000"/>
     <use xlink:href="#m93ebcdcbc5" x="299.448718" y="220.4448" style="fill: #008000; stroke: #008000"/>
     <use xlink:href="#m93ebcdcbc5" x="234.865385" y="114.8448" style="fill: #008000; stroke: #008000"/>
     <use xlink:href="#m93ebcdcbc5" x="149.506993" y="255.7152" style="fill: #008000; stroke: #008000"/>
    </g>
   </g>
   <g id="matplotlib.axis_1">
    <g id="xtick_1">
     <g id="line2d_1">
      <defs>
       <path id="m9c3a2b7e4e" d="M 0 0 
L 0 3.5 
" style="stroke: #000000; stroke-width: 0.8"/>
      </defs>
      <g>
       <use xlink:href="#m9c3a2b7e4e" x="100.730769" y="512.64" style="stroke: #000000; stroke-width: 0.8"/>
      </g>
     </g>
     <g id="text_1">
      <!-- 0.0 -->
      <g transform="translate(84.827644 534.836875) scale(0.2 -0.2)">
       <defs>
        <path id="DejaVuSans-30" d="M 2034 4250 
Q 1547 4250 1301 3770 
Q 1056 3291 1056 2328 
Q 1056 1369 1301 889 
Q 1547 409 2034 409 
Q 2525 409 2770 889 
Q 3016 1369 3016 2328 
Q 3016 3291 2770 3770 
Q 2525 4250 2034 4250 
z
M 2034 4750 
Q 2819 4750 3233 4129 
Q 3647 3509 3647 2328 
Q 3647 1150 3233 529 
Q 2819 -91 2034 -91 
Q 1250 -91 836 529 
Q 422 1150 422 2328 
Q 422 3509 836 4129 
Q 1250 4750 2034 4750 
z
" transform="scale(0.015625)"/>
        <path id="DejaVuSans-2e" d="M 684 794 
L 1344 794 
L 1344 0 
L 684 0 
L 684 794 
z
" transform="scale(0.015625)"/>
       </defs>
       <use xlink:href="#DejaVuSans-30"/>
       <use xlink:href="#DejaVuSans-2e" x="63.623047"/>
       <use xlink:href="#DejaVuSans-30" x="95.410156"/>
      </g>
     </g>
    </g>
    <g id="xtick_2">
     <g id="line2d_2">
      <g>
       <use xlink:href="#m9c3a2b7e4e" x="208.038462" y="512.64" style="stroke: #000000; stroke-width: 0.8"/>
      </g>
     </g>
     <g id="text_2">
      <!-- 0.2 -->
      <g transform="translate(192.135337 534.836875) scale(0.2 -0.2)">
       <defs>
        <path id="DejaVuSans-32" d="M 1228 531 
L 3431 531 
L 3431 0 
L 469 0 
L 469 531 
Q 828 903 1448 1529 
Q 2069 2156 2228 2338 
Q 2531 2678 2651 2914 
Q 2772 3150 2772 3378 
Q 2772 3750 2511 3984 
Q 2250 4219 1831 4219 
Q 1534 4219 1204 4116 
Q 875 4013 500 3803 
L 500 4441 
Q 881 4594 1212 4672 
Q 1544 4750 1819 4750 
Q 2544 4750 2975 4387 
Q 3406 4025 3406 3419 
Q 3406 3131 3298 2873 
Q 3191 2616 2906 2266 
Q 2828 2175 2409 1742 
Q 1991 1309 1228 531 
z
" transform="scale(0.015625)"/>
       </defs>
       <use xlink:href="#DejaVuSans-30"/>
       <use xlink:href="#DejaVuSans-2e" x="63.623047"/>
       <use xlink:href="#DejaVuSans-32" x="95.410156"/>
      </g>
     </g>
    </g>
    <g id="xtick_3">
     <g id="line2d_3">
      <g>
       <use xlink:href="#m9c3a2b7e4e" x="315.346154" y="512.64" style="stroke: #000000; stroke-width: 0.8"/>
      </g>
     </g>
     <g id="text_3">
      <!-- 0.4 -->
      <g transform="translate(299.443029 534.836875) scale(0.2 -0.2)">
       <defs>
        <path id="DejaVuSans-34" d="M 2419 4116 
L 825 1625 
L 2419 1625 
L 2419 4116 
z
M 2253 4666 
L 3047 4666 
L 3047 1625 
L 3713 1625 
L 3713 1100 
L 3047 1100 
L 3047 0 
L 2419 0 
L 2419 1100 
L 313 1100 
L 313 1709 
L 2253 4666 
z
" transform="scale(0.015625)"/>
       </defs>
       <use xlink:href="#DejaVuSans-30"/>
       <use xlink:href="#DejaVuSans-2e" x="63.623047"/>
       <use xlink:href="#DejaVuSans-34" x="95.410156"/>
      </g>
     </g>
    </g>
    <g id="xtick_4">
     <g id="line2d_4">
      <g>
       <use xlink:href="#m9c3a2b7e4e" x="422.653846" y="512.64" style="stroke: #000000; stroke-width: 0.8"/>
      </g>
     </g>
     <g id="text_4">
      <!-- 0.6 -->
      <g transform="translate(406.750721 534.836875) scale(0.2 -0.2)">
       <defs>
        <path id="DejaVuSans-36" d="M 2113 2584 
Q 1688 2584 1439 2293 
Q 1191 2003 1191 1497 
Q 1191 994 1439 701 
Q 1688 409 2113 409 
Q 2538 409 2786 701 
Q 3034 994 3034 1497 
Q 3034 2003 2786 2293 
Q 2538 2584 2113 2584 
z
M 3366 4563 
L 3366 3988 
Q 3128 4100 2886 4159 
Q 2644 4219 2406 4219 
Q 1781 4219 1451 3797 
Q 1122 3375 1075 2522 
Q 1259 2794 1537 2939 
Q 1816 3084 2150 3084 
Q 2853 3084 3261 2657 
Q 3669 2231 3669 1497 
Q 3669 778 3244 343 
Q 2819 -91 2113 -91 
Q 1303 -91 875 529 
Q 447 1150 447 2328 
Q 447 3434 972 4092 
Q 1497 4750 2381 4750 
Q 2619 4750 2861 4703 
Q 3103 4656 3366 4563 
z
" transform="scale(0.015625)"/>
       </defs>
       <use xlink:href="#DejaVuSans-30"/>
       <use xlink:href="#DejaVuSans-2e" x="63.623047"/>
       <use xlink:href="#DejaVuSans-36" x="95.410156"/>
      </g>
     </g>
    </g>
    <g id="xtick_5">
     <g id="line2d_5">
      <g>
       <use xlink:href="#m9c3a2b7e4e" x="529.961538" y="512.64" style="stroke: #000000; stroke-width: 0.8"/>
      </g>
     </g>
     <g id="text_5">
      <!-- 0.8 -->
      <g transform="translate(514.058413 534.836875) scale(0.2 -0.2)">
       <defs>
        <path id="DejaVuSans-38" d="M 2034 2216 
Q 1584 2216 1326 1975 
Q 1069 1734 1069 1313 
Q 1069 891 1326 650 
Q 1584 409 2034 409 
Q 2484 409 2743 651 
Q 3003 894 3003 1313 
Q 3003 1734 2745 1975 
Q 2488 2216 2034 2216 
z
M 1403 2484 
Q 997 2584 770 2862 
Q 544 3141 544 3541 
Q 544 4100 942 4425 
Q 1341 4750 2034 4750 
Q 2731 4750 3128 4425 
Q 3525 4100 3525 3541 
Q 3525 3141 3298 2862 
Q 3072 2584 2669 2484 
Q 3125 2378 3379 2068 
Q 3634 1759 3634 1313 
Q 3634 634 3220 271 
Q 2806 -91 2034 -91 
Q 1263 -91 848 271 
Q 434 634 434 1313 
Q 434 1759 690 2068 
Q 947 2378 1403 2484 
z
M 1172 3481 
Q 1172 3119 1398 2916 
Q 1625 2713 2034 2713 
Q 2441 2713 2670 2916 
Q 2900 3119 2900 3481 
Q 2900 3844 2670 4047 
Q 2441 4250 2034 4250 
Q 1625 4250 1398 4047 
Q 1172 3844 1172 3481 
z
" transform="scale(0.015625)"/>
       </defs>
       <use xlink:href="#DejaVuSans-30"/>
       <use xlink:href="#DejaVuSans-2e" x="63.623047"/>
       <use xlink:href="#DejaVuSans-38" x="95.410156"/>
      </g>
     </g>
    </g>
    <g id="xtick_6">
     <g id="line2d_6">
      <g>
       <use xlink:href="#m9c3a2b7e4e" x="637.269231" y="512.64" style="stroke: #000000; stroke-width: 0.8"/>
      </g>
     </g>
     <g id="text_6">
      <!-- 1.0 -->
      <g transform="translate(621.366106 534.836875) scale(0.2 -0.2)">
       <defs>
        <path id="DejaVuSans-31" d="M 794 531 
L 1825 531 
L 1825 4091 
L 703 3866 
L 703 4441 
L 1819 4666 
L 2450 4666 
L 2450 531 
L 3481 531 
L 3481 0 
L 794 0 
L 794 531 
z
" transform="scale(0.015625)"/>
       </defs>
       <use xlink:href="#DejaVuSans-31"/>
       <use xlink:href="#DejaVuSans-2e" x="63.623047"/>
       <use xlink:href="#DejaVuSans-30" x="95.410156"/>
      </g>
     </g>
    </g>
   </g>
   <g id="matplotlib.axis_2">
    <g id="ytick_1">
     <g id="line2d_7">
      <defs>
       <path id="ma3379d4c13" d="M 0 0 
L -3.5 0 
" style="stroke: #000000; stroke-width: 0.8"/>
      </defs>
      <g>
       <use xlink:href="#ma3379d4c13" x="90" y="502.08" style="stroke: #000000; stroke-width: 0.8"/>
      </g>
     </g>
     <g id="text_7">
      <!-- 1 -->
      <g transform="translate(70.275 509.678438) scale(0.2 -0.2)">
       <use xlink:href="#DejaVuSans-31"/>
      </g>
     </g>
    </g>
    <g id="ytick_2">
     <g id="line2d_8">
      <g>
       <use xlink:href="#ma3379d4c13" x="90" y="396.48" style="stroke: #000000; stroke-width: 0.8"/>
      </g>
     </g>
     <g id="text_8">
      <!-- 2 -->
      <g transform="translate(70.275 404.078438) scale(0.2 -0.2)">
       <use xlink:href="#DejaVuSans-32"/>
      </g>
     </g>
    </g>
    <g id="ytick_3">
     <g id="line2d_9">
      <g>
       <use xlink:href="#ma3379d4c13" x="90" y="290.88" style="stroke: #000000; stroke-width: 0.8"/>
      </g>
     </g>
     <g id="text_9">
      <!-- 3 -->
      <g transform="translate(70.275 298.478437) scale(0.2 -0.2)">
       <defs>
        <path id="DejaVuSans-33" d="M 2597 2516 
Q 3050 2419 3304 2112 
Q 3559 1806 3559 1356 
Q 3559 666 3084 287 
Q 2609 -91 1734 -91 
Q 1441 -91 1130 -33 
Q 819 25 488 141 
L 488 750 
Q 750 597 1062 519 
Q 1375 441 1716 441 
Q 2309 441 2620 675 
Q 2931 909 2931 1356 
Q 2931 1769 2642 2001 
Q 2353 2234 1838 2234 
L 1294 2234 
L 1294 2753 
L 1863 2753 
Q 2328 2753 2575 2939 
Q 2822 3125 2822 3475 
Q 2822 3834 2567 4026 
Q 2313 4219 1838 4219 
Q 1578 4219 1281 4162 
Q 984 4106 628 3988 
L 628 4550 
Q 988 4650 1302 4700 
Q 1616 4750 1894 4750 
Q 2613 4750 3031 4423 
Q 3450 4097 3450 3541 
Q 3450 3153 3228 2886 
Q 3006 2619 2597 2516 
z
" transform="scale(0.015625)"/>
       </defs>
       <use xlink:href="#DejaVuSans-33"/>
      </g>
     </g>
    </g>
    <g id="ytick_4">
     <g id="line2d_10">
      <g>
       <use xlink:href="#ma3379d4c13" x="90" y="185.28" style="stroke: #000000; stroke-width: 0.8"/>
      </g>
     </g>
     <g id="text_10">
      <!-- 4 -->
      <g transform="translate(70.275 192.878437) scale(0.2 -0.2)">
       <use xlink:href="#DejaVuSans-34"/>
      </g>
     </g>
    </g>
    <g id="ytick_5">
     <g id="line2d_11">
      <g>
       <use xlink:href="#ma3379d4c13" x="90" y="79.68" style="stroke: #000000; stroke-width: 0.8"/>
      </g>
     </g>
     <g id="text_11">
      <!-- 5 -->
      <g transform="translate(70.275 87.278437) scale(0.2 -0.2)">
       <defs>
        <path id="DejaVuSans-35" d="M 691 4666 
L 3169 4666 
L 3169 4134 
L 1269 4134 
L 1269 2991 
Q 1406 3038 1543 3061 
Q 1681 3084 1819 3084 
Q 2600 3084 3056 2656 
Q 3513 2228 3513 1497 
Q 3513 744 3044 326 
Q 2575 -91 1722 -91 
Q 1428 -91 1123 -41 
Q 819 9 494 109 
L 494 744 
Q 775 591 1075 516 
Q 1375 441 1709 441 
Q 2250 441 2565 725 
Q 2881 1009 2881 1497 
Q 2881 1984 2565 2268 
Q 2250 2553 1709 2553 
Q 1456 2553 1204 2497 
Q 953 2441 691 2322 
L 691 4666 
z
" transform="scale(0.015625)"/>
       </defs>
       <use xlink:href="#DejaVuSans-35"/>
      </g>
     </g>
    </g>
   </g>
   <g id="line2d_12">
    <path d="M 498.807692 153.658041 
L 433.754642 159.048416 
L 224.547337 176.383585 
L 551.423077 149.298267 
L 476.307692 155.522419 
L 388.162088 162.826269 
L 474.681818 155.65714 
L 381.774725 163.355534 
L 637.269231 142.184952 
L 428.615385 159.474261 
L 402.533654 161.635424 
L 525.490385 151.447081 
L 403.991639 161.514614 
L 496.074899 153.884484 
L 334.008361 167.313512 
L 580.791498 146.864765 
L 464.81044 156.475095 
L 398.807692 161.944162 
L 336.807692 167.081557 
L 250.961538 174.194872 
L 393.388112 162.393235 
L 369 164.414063 
L 288.519231 171.082797 
L 464.192308 156.526314 
L 411.3583 160.904203 
L 240.697324 175.045377 
L 511.024887 152.64571 
L 213.686235 177.283549 
L 567.285953 147.98385 
L 353.219457 165.721658 
L 309.384615 169.353866 
L 428.615385 159.474261 
L 492.816568 154.154473 
L 476.307692 155.522419 
L 297.025328 170.377971 
L 297.025328 170.377971 
L 240.697324 175.045377 
L 359.749337 165.180584 
L 309.384615 169.353866 
L 286.455621 171.25379 
L 353.219457 165.721658 
L 275.105769 172.194252 
L 586.17033 146.419068 
L 344.611888 166.434891 
L 386.884615 162.932122 
L 369 164.414063 
L 386.884615 162.932122 
L 426.486264 159.650682 
" clip-path="url(#p352f568979)" style="fill: none; stroke: #0000ff; stroke-width: 1.5; stroke-linecap: square"/>
   </g>
   <g id="line2d_13">
    <path d="M 208.038462 176.990511 
L 356.225275 175.967305 
L 427.319398 175.476411 
L 529.961538 174.767683 
L 513.452663 174.881675 
L 588.493007 174.363533 
L 439.597166 175.391635 
L 100.730769 177.731453 
L 391.994505 175.720324 
L 230.240053 176.837212 
L 529.961538 174.767683 
L 305.877828 176.314946 
L 434.576923 175.426299 
L 407.324176 175.614475 
L 609.030364 174.221726 
L 468.642857 175.191079 
L 381.774725 175.79089 
L 536.668269 174.721375 
L 386.884615 175.755607 
L 520.206294 174.835042 
L 507.759947 174.920982 
L 429.576923 175.460823 
L 353.219457 175.988059 
L 295.835664 176.384285 
L 534.088757 174.739186 
L 422.653846 175.508626 
L 564.104895 174.531929 
L 445.648352 175.349853 
L 539.716783 174.700325 
L 321.658371 176.205984 
L 487.038462 175.06406 
L 379.730769 175.805003 
L 436.067308 175.416008 
L 348.363905 176.021586 
L 342.173077 176.064333 
L 515.328671 174.868721 
L 509.521978 174.908815 
L 534.088757 174.739186 
L 424.67852 175.494646 
L 369 175.879097 
L 428.615385 175.467462 
L 307.091716 176.306564 
L 299.448718 176.359338 
L 234.865385 176.805275 
L 149.506993 177.394661 
" clip-path="url(#p352f568979)" style="fill: none; stroke: #008000; stroke-width: 1.5; stroke-linecap: square"/>
   </g>
   <g id="patch_3">
    <path d="M 90 512.64 
L 90 69.12 
" style="fill: none; stroke: #000000; stroke-width: 0.8; stroke-linejoin: miter; stroke-linecap: square"/>
   </g>
   <g id="patch_4">
    <path d="M 648 512.64 
L 648 69.12 
" style="fill: none; stroke: #000000; stroke-width: 0.8; stroke-linejoin: miter; stroke-linecap: square"/>
   </g>
   <g id="patch_5">
    <path d="M 90 512.64 
L 648 512.64 
" style="fill: none; stroke: #000000; stroke-width: 0.8; stroke-linejoin: miter; stroke-linecap: square"/>
   </g>
   <g id="patch_6">
    <path d="M 90 69.12 
L 648 69.12 
" style="fill: none; stroke: #000000; stroke-width: 0.8; stroke-linejoin: miter; stroke-linecap: square"/>
   </g>
   <g id="legend_1">
    <g id="patch_7">
     <path d="M 97 82.12 
L 101 82.12 
Q 103 82.12 103 80.12 
L 103 76.12 
Q 103 74.12 101 74.12 
L 97 74.12 
Q 95 74.12 95 76.12 
L 95 80.12 
Q 95 82.12 97 82.12 
z
" style="fill: #ffffff; opacity: 0.8; stroke: #cccccc; stroke-linejoin: miter"/>
    </g>
   </g>
  </g>
 </g>
 <defs>
  <clipPath id="p352f568979">
   <rect x="90" y="69.12" width="558" height="443.52"/>
  </clipPath>
 </defs>
</svg>
