<?xml version="1.0" encoding="utf-8" standalone="no"?>
<!DOCTYPE svg PUBLIC "-//W3C//DTD SVG 1.1//EN"
  "http://www.w3.org/Graphics/SVG/1.1/DTD/svg11.dtd">
<svg xmlns:xlink="http://www.w3.org/1999/xlink" width="576pt" height="432pt" viewBox="0 0 576 432" xmlns="http://www.w3.org/2000/svg" version="1.1">
 <metadata>
  <rdf:RDF xmlns:dc="http://purl.org/dc/elements/1.1/" xmlns:cc="http://creativecommons.org/ns#" xmlns:rdf="http://www.w3.org/1999/02/22-rdf-syntax-ns#">
   <cc:Work>
    <dc:type rdf:resource="http://purl.org/dc/dcmitype/StillImage"/>
    <dc:date>2024-12-10T23:34:22.332279</dc:date>
    <dc:format>image/svg+xml</dc:format>
    <dc:creator>
     <cc:Agent>
      <dc:title>Matplotlib v3.8.1, https://matplotlib.org/</dc:title>
     </cc:Agent>
    </dc:creator>
   </cc:Work>
  </rdf:RDF>
 </metadata>
 <defs>
  <style type="text/css">*{stroke-linejoin: round; stroke-linecap: butt}</style>
 </defs>
 <g id="figure_1">
  <g id="patch_1">
   <path d="M 0 432 
L 576 432 
L 576 0 
L 0 0 
z
" style="fill: #ffffff"/>
  </g>
  <g id="axes_1">
   <g id="patch_2">
    <path d="M 72 384.48 
L 518.4 384.48 
L 518.4 51.84 
L 72 51.84 
z
" style="fill: #ffffff"/>
   </g>
   <g id="PathCollection_1">
    <defs>
     <path id="me330728692" d="M 0 3 
C 0.795609 3 1.55874 2.683901 2.12132 2.12132 
C 2.683901 1.55874 3 0.795609 3 0 
C 3 -0.795609 2.683901 -1.55874 2.12132 -2.12132 
C 1.55874 -2.683901 0.795609 -3 0 -3 
C -0.795609 -3 -1.55874 -2.683901 -2.12132 -2.12132 
C -2.683901 -1.55874 -3 -0.795609 -3 0 
C -3 0.795609 -2.683901 1.55874 -2.12132 2.12132 
C -1.55874 2.683901 -0.795609 3 0 3 
z
" style="stroke: #1f77b4"/>
    </defs>
    <g clip-path="url(#p7b02da8aae)">
     <use xlink:href="#me330728692" x="337.497764" y="191.7864" style="fill: #1f77b4; stroke: #1f77b4"/>
     <use xlink:href="#me330728692" x="264.187626" y="218.16" style="fill: #1f77b4; stroke: #1f77b4"/>
     <use xlink:href="#me330728692" x="271.611438" y="165.3336" style="fill: #1f77b4; stroke: #1f77b4"/>
     <use xlink:href="#me330728692" x="391.320398" y="165.3336" style="fill: #1f77b4; stroke: #1f77b4"/>
     <use xlink:href="#me330728692" x="402.456115" y="112.5864" style="fill: #1f77b4; stroke: #1f77b4"/>
     <use xlink:href="#me330728692" x="322.650142" y="59.76" style="fill: #1f77b4; stroke: #1f77b4"/>
     <use xlink:href="#me330728692" x="279.963226" y="165.3336" style="fill: #1f77b4; stroke: #1f77b4"/>
     <use xlink:href="#me330728692" x="343.9936" y="86.1336" style="fill: #1f77b4; stroke: #1f77b4"/>
     <use xlink:href="#me330728692" x="240.060239" y="270.9864" style="fill: #1f77b4; stroke: #1f77b4"/>
     <use xlink:href="#me330728692" x="290.170966" y="86.1336" style="fill: #1f77b4; stroke: #1f77b4"/>
     <use xlink:href="#me330728692" x="313.370377" y="191.7864" style="fill: #1f77b4; stroke: #1f77b4"/>
     <use xlink:href="#me330728692" x="259.547744" y="218.16" style="fill: #1f77b4; stroke: #1f77b4"/>
     <use xlink:href="#me330728692" x="376.472775" y="218.16" style="fill: #1f77b4; stroke: #1f77b4"/>
     <use xlink:href="#me330728692" x="379.256704" y="86.1336" style="fill: #1f77b4; stroke: #1f77b4"/>
     <use xlink:href="#me330728692" x="295.738825" y="165.3336" style="fill: #1f77b4; stroke: #1f77b4"/>
     <use xlink:href="#me330728692" x="384.824563" y="112.5864" style="fill: #1f77b4; stroke: #1f77b4"/>
     <use xlink:href="#me330728692" x="292.026919" y="376.56" style="fill: #1f77b4; stroke: #1f77b4"/>
     <use xlink:href="#me330728692" x="312.442401" y="138.96" style="fill: #1f77b4; stroke: #1f77b4"/>
     <use xlink:href="#me330728692" x="304.090613" y="86.1336" style="fill: #1f77b4; stroke: #1f77b4"/>
     <use xlink:href="#me330728692" x="340.281694" y="218.16" style="fill: #1f77b4; stroke: #1f77b4"/>
     <use xlink:href="#me330728692" x="287.387037" y="218.16" style="fill: #1f77b4; stroke: #1f77b4"/>
     <use xlink:href="#me330728692" x="363.481105" y="191.7864" style="fill: #1f77b4; stroke: #1f77b4"/>
     <use xlink:href="#me330728692" x="270.683461" y="59.76" style="fill: #1f77b4; stroke: #1f77b4"/>
     <use xlink:href="#me330728692" x="278.107273" y="191.7864" style="fill: #1f77b4; stroke: #1f77b4"/>
     <use xlink:href="#me330728692" x="400.600162" y="138.96" style="fill: #1f77b4; stroke: #1f77b4"/>
     <use xlink:href="#me330728692" x="391.320398" y="218.16" style="fill: #1f77b4; stroke: #1f77b4"/>
     <use xlink:href="#me330728692" x="285.531084" y="86.1336" style="fill: #1f77b4; stroke: #1f77b4"/>
     <use xlink:href="#me330728692" x="211.29297" y="218.16" style="fill: #1f77b4; stroke: #1f77b4"/>
     <use xlink:href="#me330728692" x="257.691791" y="138.96" style="fill: #1f77b4; stroke: #1f77b4"/>
     <use xlink:href="#me330728692" x="326.362047" y="165.3336" style="fill: #1f77b4; stroke: #1f77b4"/>
     <use xlink:href="#me330728692" x="320.794189" y="191.7864" style="fill: #1f77b4; stroke: #1f77b4"/>
     <use xlink:href="#me330728692" x="338.425741" y="59.76" style="fill: #1f77b4; stroke: #1f77b4"/>
     <use xlink:href="#me330728692" x="319.866212" y="112.5864" style="fill: #1f77b4; stroke: #1f77b4"/>
     <use xlink:href="#me330728692" x="247.484051" y="59.76" style="fill: #1f77b4; stroke: #1f77b4"/>
     <use xlink:href="#me330728692" x="342.137647" y="59.76" style="fill: #1f77b4; stroke: #1f77b4"/>
     <use xlink:href="#me330728692" x="224.28464" y="138.96" style="fill: #1f77b4; stroke: #1f77b4"/>
     <use xlink:href="#me330728692" x="208.50904" y="59.76" style="fill: #1f77b4; stroke: #1f77b4"/>
     <use xlink:href="#me330728692" x="357.913246" y="138.96" style="fill: #1f77b4; stroke: #1f77b4"/>
     <use xlink:href="#me330728692" x="241.916192" y="138.96" style="fill: #1f77b4; stroke: #1f77b4"/>
     <use xlink:href="#me330728692" x="314.298354" y="138.96" style="fill: #1f77b4; stroke: #1f77b4"/>
     <use xlink:href="#me330728692" x="263.25965" y="270.9864" style="fill: #1f77b4; stroke: #1f77b4"/>
     <use xlink:href="#me330728692" x="426.583502" y="112.5864" style="fill: #1f77b4; stroke: #1f77b4"/>
     <use xlink:href="#me330728692" x="331.001929" y="165.3336" style="fill: #1f77b4; stroke: #1f77b4"/>
     <use xlink:href="#me330728692" x="432.151361" y="376.56" style="fill: #1f77b4; stroke: #1f77b4"/>
     <use xlink:href="#me330728692" x="374.616822" y="59.76" style="fill: #1f77b4; stroke: #1f77b4"/>
     <use xlink:href="#me330728692" x="272.539414" y="376.56" style="fill: #1f77b4; stroke: #1f77b4"/>
     <use xlink:href="#me330728692" x="259.547744" y="138.96" style="fill: #1f77b4; stroke: #1f77b4"/>
     <use xlink:href="#me330728692" x="229.852498" y="138.96" style="fill: #1f77b4; stroke: #1f77b4"/>
     <use xlink:href="#me330728692" x="395.96028" y="138.96" style="fill: #1f77b4; stroke: #1f77b4"/>
     <use xlink:href="#me330728692" x="359.769199" y="112.5864" style="fill: #1f77b4; stroke: #1f77b4"/>
     <use xlink:href="#me330728692" x="196.445347" y="112.5864" style="fill: #1f77b4; stroke: #1f77b4"/>
     <use xlink:href="#me330728692" x="430.295408" y="270.9864" style="fill: #1f77b4; stroke: #1f77b4"/>
     <use xlink:href="#me330728692" x="364.409081" y="86.1336" style="fill: #1f77b4; stroke: #1f77b4"/>
     <use xlink:href="#me330728692" x="373.688845" y="165.3336" style="fill: #1f77b4; stroke: #1f77b4"/>
     <use xlink:href="#me330728692" x="186.237606" y="86.1336" style="fill: #1f77b4; stroke: #1f77b4"/>
     <use xlink:href="#me330728692" x="382.96861" y="323.7336" style="fill: #1f77b4; stroke: #1f77b4"/>
     <use xlink:href="#me330728692" x="388.536468" y="86.1336" style="fill: #1f77b4; stroke: #1f77b4"/>
     <use xlink:href="#me330728692" x="388.536468" y="297.36" style="fill: #1f77b4; stroke: #1f77b4"/>
     <use xlink:href="#me330728692" x="421.94362" y="59.76" style="fill: #1f77b4; stroke: #1f77b4"/>
     <use xlink:href="#me330728692" x="314.298354" y="191.7864" style="fill: #1f77b4; stroke: #1f77b4"/>
     <use xlink:href="#me330728692" x="325.434071" y="165.3336" style="fill: #1f77b4; stroke: #1f77b4"/>
     <use xlink:href="#me330728692" x="353.273364" y="59.76" style="fill: #1f77b4; stroke: #1f77b4"/>
     <use xlink:href="#me330728692" x="201.085229" y="218.16" style="fill: #1f77b4; stroke: #1f77b4"/>
     <use xlink:href="#me330728692" x="353.273364" y="165.3336" style="fill: #1f77b4; stroke: #1f77b4"/>
     <use xlink:href="#me330728692" x="289.24299" y="138.96" style="fill: #1f77b4; stroke: #1f77b4"/>
     <use xlink:href="#me330728692" x="301.306684" y="138.96" style="fill: #1f77b4; stroke: #1f77b4"/>
     <use xlink:href="#me330728692" x="294.810849" y="191.7864" style="fill: #1f77b4; stroke: #1f77b4"/>
     <use xlink:href="#me330728692" x="260.475721" y="112.5864" style="fill: #1f77b4; stroke: #1f77b4"/>
     <use xlink:href="#me330728692" x="212.220946" y="86.1336" style="fill: #1f77b4; stroke: #1f77b4"/>
     <use xlink:href="#me330728692" x="305.946566" y="297.36" style="fill: #1f77b4; stroke: #1f77b4"/>
     <use xlink:href="#me330728692" x="344.921576" y="112.5864" style="fill: #1f77b4; stroke: #1f77b4"/>
     <use xlink:href="#me330728692" x="158.398313" y="86.1336" style="fill: #1f77b4; stroke: #1f77b4"/>
     <use xlink:href="#me330728692" x="228.924522" y="59.76" style="fill: #1f77b4; stroke: #1f77b4"/>
     <use xlink:href="#me330728692" x="240.988216" y="138.96" style="fill: #1f77b4; stroke: #1f77b4"/>
     <use xlink:href="#me330728692" x="96.223892" y="138.96" style="fill: #1f77b4; stroke: #1f77b4"/>
     <use xlink:href="#me330728692" x="251.195956" y="138.96" style="fill: #1f77b4; stroke: #1f77b4"/>
     <use xlink:href="#me330728692" x="202.013205" y="112.5864" style="fill: #1f77b4; stroke: #1f77b4"/>
     <use xlink:href="#me330728692" x="258.619768" y="297.36" style="fill: #1f77b4; stroke: #1f77b4"/>
     <use xlink:href="#me330728692" x="359.769199" y="138.96" style="fill: #1f77b4; stroke: #1f77b4"/>
     <use xlink:href="#me330728692" x="310.586448" y="165.3336" style="fill: #1f77b4; stroke: #1f77b4"/>
     <use xlink:href="#me330728692" x="165.822125" y="323.7336" style="fill: #1f77b4; stroke: #1f77b4"/>
     <use xlink:href="#me330728692" x="287.387037" y="165.3336" style="fill: #1f77b4; stroke: #1f77b4"/>
     <use xlink:href="#me330728692" x="254.907862" y="112.5864" style="fill: #1f77b4; stroke: #1f77b4"/>
     <use xlink:href="#me330728692" x="285.531084" y="218.16" style="fill: #1f77b4; stroke: #1f77b4"/>
     <use xlink:href="#me330728692" x="247.484051" y="86.1336" style="fill: #1f77b4; stroke: #1f77b4"/>
     <use xlink:href="#me330728692" x="259.547744" y="112.5864" style="fill: #1f77b4; stroke: #1f77b4"/>
     <use xlink:href="#me330728692" x="263.25965" y="138.96" style="fill: #1f77b4; stroke: #1f77b4"/>
     <use xlink:href="#me330728692" x="277.179296" y="138.96" style="fill: #1f77b4; stroke: #1f77b4"/>
     <use xlink:href="#me330728692" x="221.50071" y="218.16" style="fill: #1f77b4; stroke: #1f77b4"/>
     <use xlink:href="#me330728692" x="295.738825" y="59.76" style="fill: #1f77b4; stroke: #1f77b4"/>
     <use xlink:href="#me330728692" x="118.495326" y="59.76" style="fill: #1f77b4; stroke: #1f77b4"/>
     <use xlink:href="#me330728692" x="191.805465" y="270.9864" style="fill: #1f77b4; stroke: #1f77b4"/>
     <use xlink:href="#me330728692" x="53.536976" y="191.7864" style="fill: #1f77b4; stroke: #1f77b4"/>
    </g>
   </g>
   <g id="matplotlib.axis_1">
    <g id="xtick_1">
     <g id="line2d_1">
      <defs>
       <path id="mbf32217a83" d="M 0 0 
L 0 3.5 
" style="stroke: #000000; stroke-width: 0.8"/>
      </defs>
      <g>
       <use xlink:href="#mbf32217a83" x="72" y="384.48" style="stroke: #000000; stroke-width: 0.8"/>
      </g>
     </g>
     <g id="text_1">
      <!-- −3 -->
      <g transform="translate(64.628906 399.078438) scale(0.1 -0.1)">
       <defs>
        <path id="DejaVuSans-2212" d="M 678 2272 
L 4684 2272 
L 4684 1741 
L 678 1741 
L 678 2272 
z
" transform="scale(0.015625)"/>
        <path id="DejaVuSans-33" d="M 2597 2516 
Q 3050 2419 3304 2112 
Q 3559 1806 3559 1356 
Q 3559 666 3084 287 
Q 2609 -91 1734 -91 
Q 1441 -91 1130 -33 
Q 819 25 488 141 
L 488 750 
Q 750 597 1062 519 
Q 1375 441 1716 441 
Q 2309 441 2620 675 
Q 2931 909 2931 1356 
Q 2931 1769 2642 2001 
Q 2353 2234 1838 2234 
L 1294 2234 
L 1294 2753 
L 1863 2753 
Q 2328 2753 2575 2939 
Q 2822 3125 2822 3475 
Q 2822 3834 2567 4026 
Q 2313 4219 1838 4219 
Q 1578 4219 1281 4162 
Q 984 4106 628 3988 
L 628 4550 
Q 988 4650 1302 4700 
Q 1616 4750 1894 4750 
Q 2613 4750 3031 4423 
Q 3450 4097 3450 3541 
Q 3450 3153 3228 2886 
Q 3006 2619 2597 2516 
z
" transform="scale(0.015625)"/>
       </defs>
       <use xlink:href="#DejaVuSans-2212"/>
       <use xlink:href="#DejaVuSans-33" x="83.789062"/>
      </g>
     </g>
    </g>
    <g id="xtick_2">
     <g id="line2d_2">
      <g>
       <use xlink:href="#mbf32217a83" x="146.4" y="384.48" style="stroke: #000000; stroke-width: 0.8"/>
      </g>
     </g>
     <g id="text_2">
      <!-- −2 -->
      <g transform="translate(139.028906 399.078438) scale(0.1 -0.1)">
       <defs>
        <path id="DejaVuSans-32" d="M 1228 531 
L 3431 531 
L 3431 0 
L 469 0 
L 469 531 
Q 828 903 1448 1529 
Q 2069 2156 2228 2338 
Q 2531 2678 2651 2914 
Q 2772 3150 2772 3378 
Q 2772 3750 2511 3984 
Q 2250 4219 1831 4219 
Q 1534 4219 1204 4116 
Q 875 4013 500 3803 
L 500 4441 
Q 881 4594 1212 4672 
Q 1544 4750 1819 4750 
Q 2544 4750 2975 4387 
Q 3406 4025 3406 3419 
Q 3406 3131 3298 2873 
Q 3191 2616 2906 2266 
Q 2828 2175 2409 1742 
Q 1991 1309 1228 531 
z
" transform="scale(0.015625)"/>
       </defs>
       <use xlink:href="#DejaVuSans-2212"/>
       <use xlink:href="#DejaVuSans-32" x="83.789062"/>
      </g>
     </g>
    </g>
    <g id="xtick_3">
     <g id="line2d_3">
      <g>
       <use xlink:href="#mbf32217a83" x="220.8" y="384.48" style="stroke: #000000; stroke-width: 0.8"/>
      </g>
     </g>
     <g id="text_3">
      <!-- −1 -->
      <g transform="translate(213.428906 399.078438) scale(0.1 -0.1)">
       <defs>
        <path id="DejaVuSans-31" d="M 794 531 
L 1825 531 
L 1825 4091 
L 703 3866 
L 703 4441 
L 1819 4666 
L 2450 4666 
L 2450 531 
L 3481 531 
L 3481 0 
L 794 0 
L 794 531 
z
" transform="scale(0.015625)"/>
       </defs>
       <use xlink:href="#DejaVuSans-2212"/>
       <use xlink:href="#DejaVuSans-31" x="83.789062"/>
      </g>
     </g>
    </g>
    <g id="xtick_4">
     <g id="line2d_4">
      <g>
       <use xlink:href="#mbf32217a83" x="295.2" y="384.48" style="stroke: #000000; stroke-width: 0.8"/>
      </g>
     </g>
     <g id="text_4">
      <!-- 0 -->
      <g transform="translate(292.01875 399.078438) scale(0.1 -0.1)">
       <defs>
        <path id="DejaVuSans-30" d="M 2034 4250 
Q 1547 4250 1301 3770 
Q 1056 3291 1056 2328 
Q 1056 1369 1301 889 
Q 1547 409 2034 409 
Q 2525 409 2770 889 
Q 3016 1369 3016 2328 
Q 3016 3291 2770 3770 
Q 2525 4250 2034 4250 
z
M 2034 4750 
Q 2819 4750 3233 4129 
Q 3647 3509 3647 2328 
Q 3647 1150 3233 529 
Q 2819 -91 2034 -91 
Q 1250 -91 836 529 
Q 422 1150 422 2328 
Q 422 3509 836 4129 
Q 1250 4750 2034 4750 
z
" transform="scale(0.015625)"/>
       </defs>
       <use xlink:href="#DejaVuSans-30"/>
      </g>
     </g>
    </g>
    <g id="xtick_5">
     <g id="line2d_5">
      <g>
       <use xlink:href="#mbf32217a83" x="369.6" y="384.48" style="stroke: #000000; stroke-width: 0.8"/>
      </g>
     </g>
     <g id="text_5">
      <!-- 1 -->
      <g transform="translate(366.41875 399.078438) scale(0.1 -0.1)">
       <use xlink:href="#DejaVuSans-31"/>
      </g>
     </g>
    </g>
    <g id="xtick_6">
     <g id="line2d_6">
      <g>
       <use xlink:href="#mbf32217a83" x="444" y="384.48" style="stroke: #000000; stroke-width: 0.8"/>
      </g>
     </g>
     <g id="text_6">
      <!-- 2 -->
      <g transform="translate(440.81875 399.078438) scale(0.1 -0.1)">
       <use xlink:href="#DejaVuSans-32"/>
      </g>
     </g>
    </g>
    <g id="xtick_7">
     <g id="line2d_7">
      <g>
       <use xlink:href="#mbf32217a83" x="518.4" y="384.48" style="stroke: #000000; stroke-width: 0.8"/>
      </g>
     </g>
     <g id="text_7">
      <!-- 3 -->
      <g transform="translate(515.21875 399.078438) scale(0.1 -0.1)">
       <use xlink:href="#DejaVuSans-33"/>
      </g>
     </g>
    </g>
    <g id="text_8">
     <!-- Standardized Human-Diary -->
     <g transform="translate(227.445312 412.756563) scale(0.1 -0.1)">
      <defs>
       <path id="DejaVuSans-53" d="M 3425 4513 
L 3425 3897 
Q 3066 4069 2747 4153 
Q 2428 4238 2131 4238 
Q 1616 4238 1336 4038 
Q 1056 3838 1056 3469 
Q 1056 3159 1242 3001 
Q 1428 2844 1947 2747 
L 2328 2669 
Q 3034 2534 3370 2195 
Q 3706 1856 3706 1288 
Q 3706 609 3251 259 
Q 2797 -91 1919 -91 
Q 1588 -91 1214 -16 
Q 841 59 441 206 
L 441 856 
Q 825 641 1194 531 
Q 1563 422 1919 422 
Q 2459 422 2753 634 
Q 3047 847 3047 1241 
Q 3047 1584 2836 1778 
Q 2625 1972 2144 2069 
L 1759 2144 
Q 1053 2284 737 2584 
Q 422 2884 422 3419 
Q 422 4038 858 4394 
Q 1294 4750 2059 4750 
Q 2388 4750 2728 4690 
Q 3069 4631 3425 4513 
z
" transform="scale(0.015625)"/>
       <path id="DejaVuSans-74" d="M 1172 4494 
L 1172 3500 
L 2356 3500 
L 2356 3053 
L 1172 3053 
L 1172 1153 
Q 1172 725 1289 603 
Q 1406 481 1766 481 
L 2356 481 
L 2356 0 
L 1766 0 
Q 1100 0 847 248 
Q 594 497 594 1153 
L 594 3053 
L 172 3053 
L 172 3500 
L 594 3500 
L 594 4494 
L 1172 4494 
z
" transform="scale(0.015625)"/>
       <path id="DejaVuSans-61" d="M 2194 1759 
Q 1497 1759 1228 1600 
Q 959 1441 959 1056 
Q 959 750 1161 570 
Q 1363 391 1709 391 
Q 2188 391 2477 730 
Q 2766 1069 2766 1631 
L 2766 1759 
L 2194 1759 
z
M 3341 1997 
L 3341 0 
L 2766 0 
L 2766 531 
Q 2569 213 2275 61 
Q 1981 -91 1556 -91 
Q 1019 -91 701 211 
Q 384 513 384 1019 
Q 384 1609 779 1909 
Q 1175 2209 1959 2209 
L 2766 2209 
L 2766 2266 
Q 2766 2663 2505 2880 
Q 2244 3097 1772 3097 
Q 1472 3097 1187 3025 
Q 903 2953 641 2809 
L 641 3341 
Q 956 3463 1253 3523 
Q 1550 3584 1831 3584 
Q 2591 3584 2966 3190 
Q 3341 2797 3341 1997 
z
" transform="scale(0.015625)"/>
       <path id="DejaVuSans-6e" d="M 3513 2113 
L 3513 0 
L 2938 0 
L 2938 2094 
Q 2938 2591 2744 2837 
Q 2550 3084 2163 3084 
Q 1697 3084 1428 2787 
Q 1159 2491 1159 1978 
L 1159 0 
L 581 0 
L 581 3500 
L 1159 3500 
L 1159 2956 
Q 1366 3272 1645 3428 
Q 1925 3584 2291 3584 
Q 2894 3584 3203 3211 
Q 3513 2838 3513 2113 
z
" transform="scale(0.015625)"/>
       <path id="DejaVuSans-64" d="M 2906 2969 
L 2906 4863 
L 3481 4863 
L 3481 0 
L 2906 0 
L 2906 525 
Q 2725 213 2448 61 
Q 2172 -91 1784 -91 
Q 1150 -91 751 415 
Q 353 922 353 1747 
Q 353 2572 751 3078 
Q 1150 3584 1784 3584 
Q 2172 3584 2448 3432 
Q 2725 3281 2906 2969 
z
M 947 1747 
Q 947 1113 1208 752 
Q 1469 391 1925 391 
Q 2381 391 2643 752 
Q 2906 1113 2906 1747 
Q 2906 2381 2643 2742 
Q 2381 3103 1925 3103 
Q 1469 3103 1208 2742 
Q 947 2381 947 1747 
z
" transform="scale(0.015625)"/>
       <path id="DejaVuSans-72" d="M 2631 2963 
Q 2534 3019 2420 3045 
Q 2306 3072 2169 3072 
Q 1681 3072 1420 2755 
Q 1159 2438 1159 1844 
L 1159 0 
L 581 0 
L 581 3500 
L 1159 3500 
L 1159 2956 
Q 1341 3275 1631 3429 
Q 1922 3584 2338 3584 
Q 2397 3584 2469 3576 
Q 2541 3569 2628 3553 
L 2631 2963 
z
" transform="scale(0.015625)"/>
       <path id="DejaVuSans-69" d="M 603 3500 
L 1178 3500 
L 1178 0 
L 603 0 
L 603 3500 
z
M 603 4863 
L 1178 4863 
L 1178 4134 
L 603 4134 
L 603 4863 
z
" transform="scale(0.015625)"/>
       <path id="DejaVuSans-7a" d="M 353 3500 
L 3084 3500 
L 3084 2975 
L 922 459 
L 3084 459 
L 3084 0 
L 275 0 
L 275 525 
L 2438 3041 
L 353 3041 
L 353 3500 
z
" transform="scale(0.015625)"/>
       <path id="DejaVuSans-65" d="M 3597 1894 
L 3597 1613 
L 953 1613 
Q 991 1019 1311 708 
Q 1631 397 2203 397 
Q 2534 397 2845 478 
Q 3156 559 3463 722 
L 3463 178 
Q 3153 47 2828 -22 
Q 2503 -91 2169 -91 
Q 1331 -91 842 396 
Q 353 884 353 1716 
Q 353 2575 817 3079 
Q 1281 3584 2069 3584 
Q 2775 3584 3186 3129 
Q 3597 2675 3597 1894 
z
M 3022 2063 
Q 3016 2534 2758 2815 
Q 2500 3097 2075 3097 
Q 1594 3097 1305 2825 
Q 1016 2553 972 2059 
L 3022 2063 
z
" transform="scale(0.015625)"/>
       <path id="DejaVuSans-20" transform="scale(0.015625)"/>
       <path id="DejaVuSans-48" d="M 628 4666 
L 1259 4666 
L 1259 2753 
L 3553 2753 
L 3553 4666 
L 4184 4666 
L 4184 0 
L 3553 0 
L 3553 2222 
L 1259 2222 
L 1259 0 
L 628 0 
L 628 4666 
z
" transform="scale(0.015625)"/>
       <path id="DejaVuSans-75" d="M 544 1381 
L 544 3500 
L 1119 3500 
L 1119 1403 
Q 1119 906 1312 657 
Q 1506 409 1894 409 
Q 2359 409 2629 706 
Q 2900 1003 2900 1516 
L 2900 3500 
L 3475 3500 
L 3475 0 
L 2900 0 
L 2900 538 
Q 2691 219 2414 64 
Q 2138 -91 1772 -91 
Q 1169 -91 856 284 
Q 544 659 544 1381 
z
M 1991 3584 
L 1991 3584 
z
" transform="scale(0.015625)"/>
       <path id="DejaVuSans-6d" d="M 3328 2828 
Q 3544 3216 3844 3400 
Q 4144 3584 4550 3584 
Q 5097 3584 5394 3201 
Q 5691 2819 5691 2113 
L 5691 0 
L 5113 0 
L 5113 2094 
Q 5113 2597 4934 2840 
Q 4756 3084 4391 3084 
Q 3944 3084 3684 2787 
Q 3425 2491 3425 1978 
L 3425 0 
L 2847 0 
L 2847 2094 
Q 2847 2600 2669 2842 
Q 2491 3084 2119 3084 
Q 1678 3084 1418 2786 
Q 1159 2488 1159 1978 
L 1159 0 
L 581 0 
L 581 3500 
L 1159 3500 
L 1159 2956 
Q 1356 3278 1631 3431 
Q 1906 3584 2284 3584 
Q 2666 3584 2933 3390 
Q 3200 3197 3328 2828 
z
" transform="scale(0.015625)"/>
       <path id="DejaVuSans-2d" d="M 313 2009 
L 1997 2009 
L 1997 1497 
L 313 1497 
L 313 2009 
z
" transform="scale(0.015625)"/>
       <path id="DejaVuSans-44" d="M 1259 4147 
L 1259 519 
L 2022 519 
Q 2988 519 3436 956 
Q 3884 1394 3884 2338 
Q 3884 3275 3436 3711 
Q 2988 4147 2022 4147 
L 1259 4147 
z
M 628 4666 
L 1925 4666 
Q 3281 4666 3915 4102 
Q 4550 3538 4550 2338 
Q 4550 1131 3912 565 
Q 3275 0 1925 0 
L 628 0 
L 628 4666 
z
" transform="scale(0.015625)"/>
       <path id="DejaVuSans-79" d="M 2059 -325 
Q 1816 -950 1584 -1140 
Q 1353 -1331 966 -1331 
L 506 -1331 
L 506 -850 
L 844 -850 
Q 1081 -850 1212 -737 
Q 1344 -625 1503 -206 
L 1606 56 
L 191 3500 
L 800 3500 
L 1894 763 
L 2988 3500 
L 3597 3500 
L 2059 -325 
z
" transform="scale(0.015625)"/>
      </defs>
      <use xlink:href="#DejaVuSans-53"/>
      <use xlink:href="#DejaVuSans-74" x="63.476562"/>
      <use xlink:href="#DejaVuSans-61" x="102.685547"/>
      <use xlink:href="#DejaVuSans-6e" x="163.964844"/>
      <use xlink:href="#DejaVuSans-64" x="227.34375"/>
      <use xlink:href="#DejaVuSans-61" x="290.820312"/>
      <use xlink:href="#DejaVuSans-72" x="352.099609"/>
      <use xlink:href="#DejaVuSans-64" x="391.462891"/>
      <use xlink:href="#DejaVuSans-69" x="454.939453"/>
      <use xlink:href="#DejaVuSans-7a" x="482.722656"/>
      <use xlink:href="#DejaVuSans-65" x="535.212891"/>
      <use xlink:href="#DejaVuSans-64" x="596.736328"/>
      <use xlink:href="#DejaVuSans-20" x="660.212891"/>
      <use xlink:href="#DejaVuSans-48" x="692"/>
      <use xlink:href="#DejaVuSans-75" x="767.195312"/>
      <use xlink:href="#DejaVuSans-6d" x="830.574219"/>
      <use xlink:href="#DejaVuSans-61" x="927.986328"/>
      <use xlink:href="#DejaVuSans-6e" x="989.265625"/>
      <use xlink:href="#DejaVuSans-2d" x="1052.644531"/>
      <use xlink:href="#DejaVuSans-44" x="1088.728516"/>
      <use xlink:href="#DejaVuSans-69" x="1165.730469"/>
      <use xlink:href="#DejaVuSans-61" x="1193.513672"/>
      <use xlink:href="#DejaVuSans-72" x="1254.792969"/>
      <use xlink:href="#DejaVuSans-79" x="1295.90625"/>
     </g>
    </g>
   </g>
   <g id="matplotlib.axis_2">
    <g id="ytick_1">
     <g id="line2d_8">
      <defs>
       <path id="m2ba1ef8486" d="M 0 0 
L -3.5 0 
" style="stroke: #000000; stroke-width: 0.8"/>
      </defs>
      <g>
       <use xlink:href="#m2ba1ef8486" x="72" y="376.56" style="stroke: #000000; stroke-width: 0.8"/>
      </g>
     </g>
     <g id="text_9">
      <!-- 1 -->
      <g transform="translate(58.6375 380.359219) scale(0.1 -0.1)">
       <use xlink:href="#DejaVuSans-31"/>
      </g>
     </g>
    </g>
    <g id="ytick_2">
     <g id="line2d_9">
      <g>
       <use xlink:href="#m2ba1ef8486" x="72" y="297.36" style="stroke: #000000; stroke-width: 0.8"/>
      </g>
     </g>
     <g id="text_10">
      <!-- 2 -->
      <g transform="translate(58.6375 301.159219) scale(0.1 -0.1)">
       <use xlink:href="#DejaVuSans-32"/>
      </g>
     </g>
    </g>
    <g id="ytick_3">
     <g id="line2d_10">
      <g>
       <use xlink:href="#m2ba1ef8486" x="72" y="218.16" style="stroke: #000000; stroke-width: 0.8"/>
      </g>
     </g>
     <g id="text_11">
      <!-- 3 -->
      <g transform="translate(58.6375 221.959219) scale(0.1 -0.1)">
       <use xlink:href="#DejaVuSans-33"/>
      </g>
     </g>
    </g>
    <g id="ytick_4">
     <g id="line2d_11">
      <g>
       <use xlink:href="#m2ba1ef8486" x="72" y="138.96" style="stroke: #000000; stroke-width: 0.8"/>
      </g>
     </g>
     <g id="text_12">
      <!-- 4 -->
      <g transform="translate(58.6375 142.759219) scale(0.1 -0.1)">
       <defs>
        <path id="DejaVuSans-34" d="M 2419 4116 
L 825 1625 
L 2419 1625 
L 2419 4116 
z
M 2253 4666 
L 3047 4666 
L 3047 1625 
L 3713 1625 
L 3713 1100 
L 3047 1100 
L 3047 0 
L 2419 0 
L 2419 1100 
L 313 1100 
L 313 1709 
L 2253 4666 
z
" transform="scale(0.015625)"/>
       </defs>
       <use xlink:href="#DejaVuSans-34"/>
      </g>
     </g>
    </g>
    <g id="ytick_5">
     <g id="line2d_12">
      <g>
       <use xlink:href="#m2ba1ef8486" x="72" y="59.76" style="stroke: #000000; stroke-width: 0.8"/>
      </g>
     </g>
     <g id="text_13">
      <!-- 5 -->
      <g transform="translate(58.6375 63.559219) scale(0.1 -0.1)">
       <defs>
        <path id="DejaVuSans-35" d="M 691 4666 
L 3169 4666 
L 3169 4134 
L 1269 4134 
L 1269 2991 
Q 1406 3038 1543 3061 
Q 1681 3084 1819 3084 
Q 2600 3084 3056 2656 
Q 3513 2228 3513 1497 
Q 3513 744 3044 326 
Q 2575 -91 1722 -91 
Q 1428 -91 1123 -41 
Q 819 9 494 109 
L 494 744 
Q 775 591 1075 516 
Q 1375 441 1709 441 
Q 2250 441 2565 725 
Q 2881 1009 2881 1497 
Q 2881 1984 2565 2268 
Q 2250 2553 1709 2553 
Q 1456 2553 1204 2497 
Q 953 2441 691 2322 
L 691 4666 
z
" transform="scale(0.015625)"/>
       </defs>
       <use xlink:href="#DejaVuSans-35"/>
      </g>
     </g>
    </g>
    <g id="text_14">
     <!-- ave_willingness -->
     <g transform="translate(52.279688 257.202969) rotate(-90) scale(0.1 -0.1)">
      <defs>
       <path id="DejaVuSans-76" d="M 191 3500 
L 800 3500 
L 1894 563 
L 2988 3500 
L 3597 3500 
L 2284 0 
L 1503 0 
L 191 3500 
z
" transform="scale(0.015625)"/>
       <path id="DejaVuSans-5f" d="M 3263 -1063 
L 3263 -1509 
L -63 -1509 
L -63 -1063 
L 3263 -1063 
z
" transform="scale(0.015625)"/>
       <path id="DejaVuSans-77" d="M 269 3500 
L 844 3500 
L 1563 769 
L 2278 3500 
L 2956 3500 
L 3675 769 
L 4391 3500 
L 4966 3500 
L 4050 0 
L 3372 0 
L 2619 2869 
L 1863 0 
L 1184 0 
L 269 3500 
z
" transform="scale(0.015625)"/>
       <path id="DejaVuSans-6c" d="M 603 4863 
L 1178 4863 
L 1178 0 
L 603 0 
L 603 4863 
z
" transform="scale(0.015625)"/>
       <path id="DejaVuSans-67" d="M 2906 1791 
Q 2906 2416 2648 2759 
Q 2391 3103 1925 3103 
Q 1463 3103 1205 2759 
Q 947 2416 947 1791 
Q 947 1169 1205 825 
Q 1463 481 1925 481 
Q 2391 481 2648 825 
Q 2906 1169 2906 1791 
z
M 3481 434 
Q 3481 -459 3084 -895 
Q 2688 -1331 1869 -1331 
Q 1566 -1331 1297 -1286 
Q 1028 -1241 775 -1147 
L 775 -588 
Q 1028 -725 1275 -790 
Q 1522 -856 1778 -856 
Q 2344 -856 2625 -561 
Q 2906 -266 2906 331 
L 2906 616 
Q 2728 306 2450 153 
Q 2172 0 1784 0 
Q 1141 0 747 490 
Q 353 981 353 1791 
Q 353 2603 747 3093 
Q 1141 3584 1784 3584 
Q 2172 3584 2450 3431 
Q 2728 3278 2906 2969 
L 2906 3500 
L 3481 3500 
L 3481 434 
z
" transform="scale(0.015625)"/>
       <path id="DejaVuSans-73" d="M 2834 3397 
L 2834 2853 
Q 2591 2978 2328 3040 
Q 2066 3103 1784 3103 
Q 1356 3103 1142 2972 
Q 928 2841 928 2578 
Q 928 2378 1081 2264 
Q 1234 2150 1697 2047 
L 1894 2003 
Q 2506 1872 2764 1633 
Q 3022 1394 3022 966 
Q 3022 478 2636 193 
Q 2250 -91 1575 -91 
Q 1294 -91 989 -36 
Q 684 19 347 128 
L 347 722 
Q 666 556 975 473 
Q 1284 391 1588 391 
Q 1994 391 2212 530 
Q 2431 669 2431 922 
Q 2431 1156 2273 1281 
Q 2116 1406 1581 1522 
L 1381 1569 
Q 847 1681 609 1914 
Q 372 2147 372 2553 
Q 372 3047 722 3315 
Q 1072 3584 1716 3584 
Q 2034 3584 2315 3537 
Q 2597 3491 2834 3397 
z
" transform="scale(0.015625)"/>
      </defs>
      <use xlink:href="#DejaVuSans-61"/>
      <use xlink:href="#DejaVuSans-76" x="61.279297"/>
      <use xlink:href="#DejaVuSans-65" x="120.458984"/>
      <use xlink:href="#DejaVuSans-5f" x="181.982422"/>
      <use xlink:href="#DejaVuSans-77" x="231.982422"/>
      <use xlink:href="#DejaVuSans-69" x="313.769531"/>
      <use xlink:href="#DejaVuSans-6c" x="341.552734"/>
      <use xlink:href="#DejaVuSans-6c" x="369.335938"/>
      <use xlink:href="#DejaVuSans-69" x="397.119141"/>
      <use xlink:href="#DejaVuSans-6e" x="424.902344"/>
      <use xlink:href="#DejaVuSans-67" x="488.28125"/>
      <use xlink:href="#DejaVuSans-6e" x="551.757812"/>
      <use xlink:href="#DejaVuSans-65" x="615.136719"/>
      <use xlink:href="#DejaVuSans-73" x="676.660156"/>
      <use xlink:href="#DejaVuSans-73" x="728.759766"/>
     </g>
    </g>
   </g>
   <g id="line2d_13">
    <path d="M 337.497764 140.927093 
L 264.187626 167.240069 
L 271.611438 167.753215 
L 391.320398 176.027706 
L 402.456115 176.797426 
L 322.650142 142.224784 
L 279.963226 168.330505 
L 343.9936 172.756395 
L 240.060239 165.572342 
L 290.170966 169.036082 
L 313.370377 170.639665 
L 259.547744 147.739973 
L 376.472775 175.001412 
L 379.256704 137.277335 
L 295.738825 169.420942 
L 384.824563 175.578702 
L 292.026919 144.901273 
L 312.442401 143.116947 
L 304.090613 143.846899 
L 340.281694 172.499822 
L 287.387037 168.843652 
L 363.481105 138.656132 
L 270.683461 146.766705 
L 278.107273 146.117859 
L 400.600162 176.669139 
L 391.320398 176.027706 
L 285.531084 168.715365 
L 211.29297 163.583899 
L 257.691791 166.791065 
L 326.362047 171.537672 
L 320.794189 171.152812 
L 338.425741 172.371535 
L 319.866212 142.468101 
L 247.484051 148.794348 
L 342.137647 140.521564 
L 224.28464 150.821991 
L 208.50904 152.200788 
L 357.913246 139.142767 
L 241.916192 165.700629 
L 314.298354 142.954736 
L 263.25965 167.175925 
L 426.583502 133.140943 
L 331.001929 171.858389 
L 432.151361 178.850012 
L 374.616822 174.873125 
L 272.539414 167.817359 
L 259.547744 166.919352 
L 229.852498 164.866765 
L 395.96028 135.817432 
L 359.769199 173.846832 
L 196.445347 162.557605 
L 430.295408 178.721726 
L 364.409081 138.575027 
L 373.688845 174.808982 
L 186.237606 161.852029 
L 382.96861 175.450415 
L 388.536468 175.835276 
L 388.536468 175.835276 
L 421.94362 178.144436 
L 314.298354 170.703809 
L 325.434071 171.473529 
L 353.273364 173.397829 
L 201.085229 152.849634 
L 353.273364 139.548295 
L 289.24299 145.14459 
L 301.306684 144.090216 
L 294.810849 169.356799 
L 260.475721 147.658868 
L 212.220946 163.648042 
L 305.946566 143.684687 
L 344.921576 140.278247 
L 158.398313 156.580497 
L 228.924522 150.416462 
L 240.988216 149.362088 
L 96.223892 162.01458 
L 251.195956 148.469925 
L 202.013205 152.768528 
L 258.619768 147.821079 
L 359.769199 138.980555 
L 310.586448 143.279159 
L 165.822125 155.931651 
L 287.387037 145.306802 
L 254.907862 148.145502 
L 285.531084 145.469013 
L 247.484051 148.794348 
L 259.547744 147.739973 
L 263.25965 147.41555 
L 277.179296 146.198965 
L 221.50071 151.065308 
L 295.738825 144.57685 
L 118.495326 160.068043 
L 191.805465 153.660691 
L 53.536976 152.679532 
" clip-path="url(#p7b02da8aae)" style="fill: none; stroke: #ff0000; stroke-width: 1.5; stroke-linecap: square"/>
   </g>
   <g id="patch_3">
    <path d="M 72 384.48 
L 72 51.84 
" style="fill: none; stroke: #000000; stroke-width: 0.8; stroke-linejoin: miter; stroke-linecap: square"/>
   </g>
   <g id="patch_4">
    <path d="M 518.4 384.48 
L 518.4 51.84 
" style="fill: none; stroke: #000000; stroke-width: 0.8; stroke-linejoin: miter; stroke-linecap: square"/>
   </g>
   <g id="patch_5">
    <path d="M 72 384.48 
L 518.4 384.48 
" style="fill: none; stroke: #000000; stroke-width: 0.8; stroke-linejoin: miter; stroke-linecap: square"/>
   </g>
   <g id="patch_6">
    <path d="M 72 51.84 
L 518.4 51.84 
" style="fill: none; stroke: #000000; stroke-width: 0.8; stroke-linejoin: miter; stroke-linecap: square"/>
   </g>
   <g id="text_15">
    <!-- Regression: ave_willingness ~ Standardized Variables -->
    <g transform="translate(133.8225 45.84) scale(0.12 -0.12)">
     <defs>
      <path id="DejaVuSans-52" d="M 2841 2188 
Q 3044 2119 3236 1894 
Q 3428 1669 3622 1275 
L 4263 0 
L 3584 0 
L 2988 1197 
Q 2756 1666 2539 1819 
Q 2322 1972 1947 1972 
L 1259 1972 
L 1259 0 
L 628 0 
L 628 4666 
L 2053 4666 
Q 2853 4666 3247 4331 
Q 3641 3997 3641 3322 
Q 3641 2881 3436 2590 
Q 3231 2300 2841 2188 
z
M 1259 4147 
L 1259 2491 
L 2053 2491 
Q 2509 2491 2742 2702 
Q 2975 2913 2975 3322 
Q 2975 3731 2742 3939 
Q 2509 4147 2053 4147 
L 1259 4147 
z
" transform="scale(0.015625)"/>
      <path id="DejaVuSans-6f" d="M 1959 3097 
Q 1497 3097 1228 2736 
Q 959 2375 959 1747 
Q 959 1119 1226 758 
Q 1494 397 1959 397 
Q 2419 397 2687 759 
Q 2956 1122 2956 1747 
Q 2956 2369 2687 2733 
Q 2419 3097 1959 3097 
z
M 1959 3584 
Q 2709 3584 3137 3096 
Q 3566 2609 3566 1747 
Q 3566 888 3137 398 
Q 2709 -91 1959 -91 
Q 1206 -91 779 398 
Q 353 888 353 1747 
Q 353 2609 779 3096 
Q 1206 3584 1959 3584 
z
" transform="scale(0.015625)"/>
      <path id="DejaVuSans-3a" d="M 750 794 
L 1409 794 
L 1409 0 
L 750 0 
L 750 794 
z
M 750 3309 
L 1409 3309 
L 1409 2516 
L 750 2516 
L 750 3309 
z
" transform="scale(0.015625)"/>
      <path id="DejaVuSans-7e" d="M 4684 2553 
L 4684 1997 
Q 4356 1750 4076 1644 
Q 3797 1538 3494 1538 
Q 3150 1538 2694 1722 
Q 2659 1734 2644 1741 
Q 2622 1750 2575 1766 
Q 2091 1959 1797 1959 
Q 1522 1959 1253 1839 
Q 984 1719 678 1459 
L 678 2016 
Q 1006 2263 1286 2370 
Q 1566 2478 1869 2478 
Q 2213 2478 2672 2291 
Q 2703 2278 2719 2272 
Q 2744 2263 2788 2247 
Q 3272 2053 3566 2053 
Q 3834 2053 4098 2172 
Q 4363 2291 4684 2553 
z
" transform="scale(0.015625)"/>
      <path id="DejaVuSans-56" d="M 1831 0 
L 50 4666 
L 709 4666 
L 2188 738 
L 3669 4666 
L 4325 4666 
L 2547 0 
L 1831 0 
z
" transform="scale(0.015625)"/>
      <path id="DejaVuSans-62" d="M 3116 1747 
Q 3116 2381 2855 2742 
Q 2594 3103 2138 3103 
Q 1681 3103 1420 2742 
Q 1159 2381 1159 1747 
Q 1159 1113 1420 752 
Q 1681 391 2138 391 
Q 2594 391 2855 752 
Q 3116 1113 3116 1747 
z
M 1159 2969 
Q 1341 3281 1617 3432 
Q 1894 3584 2278 3584 
Q 2916 3584 3314 3078 
Q 3713 2572 3713 1747 
Q 3713 922 3314 415 
Q 2916 -91 2278 -91 
Q 1894 -91 1617 61 
Q 1341 213 1159 525 
L 1159 0 
L 581 0 
L 581 4863 
L 1159 4863 
L 1159 2969 
z
" transform="scale(0.015625)"/>
     </defs>
     <use xlink:href="#DejaVuSans-52"/>
     <use xlink:href="#DejaVuSans-65" x="64.982422"/>
     <use xlink:href="#DejaVuSans-67" x="126.505859"/>
     <use xlink:href="#DejaVuSans-72" x="189.982422"/>
     <use xlink:href="#DejaVuSans-65" x="228.845703"/>
     <use xlink:href="#DejaVuSans-73" x="290.369141"/>
     <use xlink:href="#DejaVuSans-73" x="342.46875"/>
     <use xlink:href="#DejaVuSans-69" x="394.568359"/>
     <use xlink:href="#DejaVuSans-6f" x="422.351562"/>
     <use xlink:href="#DejaVuSans-6e" x="483.533203"/>
     <use xlink:href="#DejaVuSans-3a" x="546.912109"/>
     <use xlink:href="#DejaVuSans-20" x="580.603516"/>
     <use xlink:href="#DejaVuSans-61" x="612.390625"/>
     <use xlink:href="#DejaVuSans-76" x="673.669922"/>
     <use xlink:href="#DejaVuSans-65" x="732.849609"/>
     <use xlink:href="#DejaVuSans-5f" x="794.373047"/>
     <use xlink:href="#DejaVuSans-77" x="844.373047"/>
     <use xlink:href="#DejaVuSans-69" x="926.160156"/>
     <use xlink:href="#DejaVuSans-6c" x="953.943359"/>
     <use xlink:href="#DejaVuSans-6c" x="981.726562"/>
     <use xlink:href="#DejaVuSans-69" x="1009.509766"/>
     <use xlink:href="#DejaVuSans-6e" x="1037.292969"/>
     <use xlink:href="#DejaVuSans-67" x="1100.671875"/>
     <use xlink:href="#DejaVuSans-6e" x="1164.148438"/>
     <use xlink:href="#DejaVuSans-65" x="1227.527344"/>
     <use xlink:href="#DejaVuSans-73" x="1289.050781"/>
     <use xlink:href="#DejaVuSans-73" x="1341.150391"/>
     <use xlink:href="#DejaVuSans-20" x="1393.25"/>
     <use xlink:href="#DejaVuSans-7e" x="1425.037109"/>
     <use xlink:href="#DejaVuSans-20" x="1508.826172"/>
     <use xlink:href="#DejaVuSans-53" x="1540.613281"/>
     <use xlink:href="#DejaVuSans-74" x="1604.089844"/>
     <use xlink:href="#DejaVuSans-61" x="1643.298828"/>
     <use xlink:href="#DejaVuSans-6e" x="1704.578125"/>
     <use xlink:href="#DejaVuSans-64" x="1767.957031"/>
     <use xlink:href="#DejaVuSans-61" x="1831.433594"/>
     <use xlink:href="#DejaVuSans-72" x="1892.712891"/>
     <use xlink:href="#DejaVuSans-64" x="1932.076172"/>
     <use xlink:href="#DejaVuSans-69" x="1995.552734"/>
     <use xlink:href="#DejaVuSans-7a" x="2023.335938"/>
     <use xlink:href="#DejaVuSans-65" x="2075.826172"/>
     <use xlink:href="#DejaVuSans-64" x="2137.349609"/>
     <use xlink:href="#DejaVuSans-20" x="2200.826172"/>
     <use xlink:href="#DejaVuSans-56" x="2232.613281"/>
     <use xlink:href="#DejaVuSans-61" x="2293.271484"/>
     <use xlink:href="#DejaVuSans-72" x="2354.550781"/>
     <use xlink:href="#DejaVuSans-69" x="2395.664062"/>
     <use xlink:href="#DejaVuSans-61" x="2423.447266"/>
     <use xlink:href="#DejaVuSans-62" x="2484.726562"/>
     <use xlink:href="#DejaVuSans-6c" x="2548.203125"/>
     <use xlink:href="#DejaVuSans-65" x="2575.986328"/>
     <use xlink:href="#DejaVuSans-73" x="2637.509766"/>
    </g>
   </g>
   <g id="legend_1">
    <g id="patch_7">
     <path d="M 455.523438 89.19625 
L 511.4 89.19625 
Q 513.4 89.19625 513.4 87.19625 
L 513.4 58.84 
Q 513.4 56.84 511.4 56.84 
L 455.523438 56.84 
Q 453.523438 56.84 453.523438 58.84 
L 453.523438 87.19625 
Q 453.523438 89.19625 455.523438 89.19625 
z
" style="fill: #ffffff; opacity: 0.8; stroke: #cccccc; stroke-linejoin: miter"/>
    </g>
    <g id="PathCollection_2">
     <g>
      <use xlink:href="#me330728692" x="467.523438" y="65.813437" style="fill: #1f77b4; stroke: #1f77b4"/>
     </g>
    </g>
    <g id="text_16">
     <!-- Data -->
     <g transform="translate(485.523438 68.438437) scale(0.1 -0.1)">
      <use xlink:href="#DejaVuSans-44"/>
      <use xlink:href="#DejaVuSans-61" x="77.001953"/>
      <use xlink:href="#DejaVuSans-74" x="138.28125"/>
      <use xlink:href="#DejaVuSans-61" x="177.490234"/>
     </g>
    </g>
    <g id="line2d_14">
     <path d="M 457.523438 79.616562 
L 467.523438 79.616562 
L 477.523438 79.616562 
" style="fill: none; stroke: #ff0000; stroke-width: 1.5; stroke-linecap: square"/>
    </g>
    <g id="text_17">
     <!-- Fit -->
     <g transform="translate(485.523438 83.116562) scale(0.1 -0.1)">
      <defs>
       <path id="DejaVuSans-46" d="M 628 4666 
L 3309 4666 
L 3309 4134 
L 1259 4134 
L 1259 2759 
L 3109 2759 
L 3109 2228 
L 1259 2228 
L 1259 0 
L 628 0 
L 628 4666 
z
" transform="scale(0.015625)"/>
      </defs>
      <use xlink:href="#DejaVuSans-46"/>
      <use xlink:href="#DejaVuSans-69" x="50.269531"/>
      <use xlink:href="#DejaVuSans-74" x="78.052734"/>
     </g>
    </g>
   </g>
  </g>
 </g>
 <defs>
  <clipPath id="p7b02da8aae">
   <rect x="72" y="51.84" width="446.4" height="332.64"/>
  </clipPath>
 </defs>
</svg>
