<?xml version="1.0" encoding="utf-8" standalone="no"?>
<!DOCTYPE svg PUBLIC "-//W3C//DTD SVG 1.1//EN"
  "http://www.w3.org/Graphics/SVG/1.1/DTD/svg11.dtd">
<svg xmlns:xlink="http://www.w3.org/1999/xlink" width="576pt" height="432pt" viewBox="0 0 576 432" xmlns="http://www.w3.org/2000/svg" version="1.1">
 <metadata>
  <rdf:RDF xmlns:dc="http://purl.org/dc/elements/1.1/" xmlns:cc="http://creativecommons.org/ns#" xmlns:rdf="http://www.w3.org/1999/02/22-rdf-syntax-ns#">
   <cc:Work>
    <dc:type rdf:resource="http://purl.org/dc/dcmitype/StillImage"/>
    <dc:date>2024-11-07T10:13:24.221676</dc:date>
    <dc:format>image/svg+xml</dc:format>
    <dc:creator>
     <cc:Agent>
      <dc:title>Matplotlib v3.8.1, https://matplotlib.org/</dc:title>
     </cc:Agent>
    </dc:creator>
   </cc:Work>
  </rdf:RDF>
 </metadata>
 <defs>
  <style type="text/css">*{stroke-linejoin: round; stroke-linecap: butt}</style>
 </defs>
 <g id="figure_1">
  <g id="patch_1">
   <path d="M 0 432 
L 576 432 
L 576 0 
L 0 0 
z
" style="fill: #ffffff"/>
  </g>
  <g id="axes_1">
   <g id="patch_2">
    <path d="M 72 384.48 
L 518.4 384.48 
L 518.4 51.84 
L 72 51.84 
z
" style="fill: #ffffff"/>
   </g>
   <g id="PathCollection_1">
    <defs>
     <path id="m271f75d47e" d="M 0 3 
C 0.795609 3 1.55874 2.683901 2.12132 2.12132 
C 2.683901 1.55874 3 0.795609 3 0 
C 3 -0.795609 2.683901 -1.55874 2.12132 -2.12132 
C 1.55874 -2.683901 0.795609 -3 0 -3 
C -0.795609 -3 -1.55874 -2.683901 -2.12132 -2.12132 
C -2.683901 -1.55874 -3 -0.795609 -3 0 
C -3 0.795609 -2.683901 1.55874 -2.12132 2.12132 
C -1.55874 2.683901 -0.795609 3 0 3 
z
" style="stroke: #1f77b4"/>
    </defs>
    <g clip-path="url(#p934418ec37)">
     <use xlink:href="#m271f75d47e" x="357.696" y="277.56" style="fill: #1f77b4; stroke: #1f77b4"/>
     <use xlink:href="#m271f75d47e" x="287.1648" y="320.4864" style="fill: #1f77b4; stroke: #1f77b4"/>
     <use xlink:href="#m271f75d47e" x="294.3072" y="307.26" style="fill: #1f77b4; stroke: #1f77b4"/>
     <use xlink:href="#m271f75d47e" x="409.4784" y="373.2336" style="fill: #1f77b4; stroke: #1f77b4"/>
     <use xlink:href="#m271f75d47e" x="420.192" y="376.56" style="fill: #1f77b4; stroke: #1f77b4"/>
     <use xlink:href="#m271f75d47e" x="343.4112" y="343.5336" style="fill: #1f77b4; stroke: #1f77b4"/>
     <use xlink:href="#m271f75d47e" x="302.3424" y="254.4336" style="fill: #1f77b4; stroke: #1f77b4"/>
     <use xlink:href="#m271f75d47e" x="363.9456" y="254.4336" style="fill: #1f77b4; stroke: #1f77b4"/>
     <use xlink:href="#m271f75d47e" x="263.952" y="267.66" style="fill: #1f77b4; stroke: #1f77b4"/>
     <use xlink:href="#m271f75d47e" x="312.1632" y="353.4336" style="fill: #1f77b4; stroke: #1f77b4"/>
     <use xlink:href="#m271f75d47e" x="334.4832" y="327.06" style="fill: #1f77b4; stroke: #1f77b4"/>
     <use xlink:href="#m271f75d47e" x="282.7008" y="330.3864" style="fill: #1f77b4; stroke: #1f77b4"/>
     <use xlink:href="#m271f75d47e" x="395.1936" y="244.5336" style="fill: #1f77b4; stroke: #1f77b4"/>
     <use xlink:href="#m271f75d47e" x="397.872" y="336.96" style="fill: #1f77b4; stroke: #1f77b4"/>
     <use xlink:href="#m271f75d47e" x="317.52" y="363.3336" style="fill: #1f77b4; stroke: #1f77b4"/>
     <use xlink:href="#m271f75d47e" x="403.2288" y="360.0864" style="fill: #1f77b4; stroke: #1f77b4"/>
     <use xlink:href="#m271f75d47e" x="313.9488" y="208.26" style="fill: #1f77b4; stroke: #1f77b4"/>
     <use xlink:href="#m271f75d47e" x="333.5904" y="290.7864" style="fill: #1f77b4; stroke: #1f77b4"/>
     <use xlink:href="#m271f75d47e" x="325.5552" y="366.66" style="fill: #1f77b4; stroke: #1f77b4"/>
     <use xlink:href="#m271f75d47e" x="360.3744" y="254.4336" style="fill: #1f77b4; stroke: #1f77b4"/>
     <use xlink:href="#m271f75d47e" x="309.4848" y="323.7336" style="fill: #1f77b4; stroke: #1f77b4"/>
     <use xlink:href="#m271f75d47e" x="382.6944" y="353.4336" style="fill: #1f77b4; stroke: #1f77b4"/>
     <use xlink:href="#m271f75d47e" x="293.4144" y="373.2336" style="fill: #1f77b4; stroke: #1f77b4"/>
     <use xlink:href="#m271f75d47e" x="300.5568" y="165.3336" style="fill: #1f77b4; stroke: #1f77b4"/>
     <use xlink:href="#m271f75d47e" x="418.4064" y="320.4864" style="fill: #1f77b4; stroke: #1f77b4"/>
     <use xlink:href="#m271f75d47e" x="409.4784" y="287.46" style="fill: #1f77b4; stroke: #1f77b4"/>
     <use xlink:href="#m271f75d47e" x="307.6992" y="376.56" style="fill: #1f77b4; stroke: #1f77b4"/>
     <use xlink:href="#m271f75d47e" x="236.2752" y="290.7864" style="fill: #1f77b4; stroke: #1f77b4"/>
     <use xlink:href="#m271f75d47e" x="280.9152" y="317.16" style="fill: #1f77b4; stroke: #1f77b4"/>
     <use xlink:href="#m271f75d47e" x="346.9824" y="270.9864" style="fill: #1f77b4; stroke: #1f77b4"/>
     <use xlink:href="#m271f75d47e" x="341.6256" y="228.06" style="fill: #1f77b4; stroke: #1f77b4"/>
     <use xlink:href="#m271f75d47e" x="358.5888" y="323.7336" style="fill: #1f77b4; stroke: #1f77b4"/>
     <use xlink:href="#m271f75d47e" x="340.7328" y="360.0864" style="fill: #1f77b4; stroke: #1f77b4"/>
     <use xlink:href="#m271f75d47e" x="271.0944" y="340.2864" style="fill: #1f77b4; stroke: #1f77b4"/>
     <use xlink:href="#m271f75d47e" x="362.16" y="373.2336" style="fill: #1f77b4; stroke: #1f77b4"/>
     <use xlink:href="#m271f75d47e" x="248.7744" y="323.7336" style="fill: #1f77b4; stroke: #1f77b4"/>
     <use xlink:href="#m271f75d47e" x="233.5968" y="376.56" style="fill: #1f77b4; stroke: #1f77b4"/>
     <use xlink:href="#m271f75d47e" x="377.3376" y="168.66" style="fill: #1f77b4; stroke: #1f77b4"/>
     <use xlink:href="#m271f75d47e" x="265.7376" y="297.36" style="fill: #1f77b4; stroke: #1f77b4"/>
     <use xlink:href="#m271f75d47e" x="335.376" y="198.36" style="fill: #1f77b4; stroke: #1f77b4"/>
     <use xlink:href="#m271f75d47e" x="286.272" y="340.2864" style="fill: #1f77b4; stroke: #1f77b4"/>
     <use xlink:href="#m271f75d47e" x="443.4048" y="204.9336" style="fill: #1f77b4; stroke: #1f77b4"/>
     <use xlink:href="#m271f75d47e" x="351.4464" y="330.3864" style="fill: #1f77b4; stroke: #1f77b4"/>
     <use xlink:href="#m271f75d47e" x="448.7616" y="241.2864" style="fill: #1f77b4; stroke: #1f77b4"/>
     <use xlink:href="#m271f75d47e" x="393.408" y="109.26" style="fill: #1f77b4; stroke: #1f77b4"/>
     <use xlink:href="#m271f75d47e" x="295.2" y="340.2864" style="fill: #1f77b4; stroke: #1f77b4"/>
     <use xlink:href="#m271f75d47e" x="282.7008" y="280.8864" style="fill: #1f77b4; stroke: #1f77b4"/>
     <use xlink:href="#m271f75d47e" x="254.1312" y="350.1864" style="fill: #1f77b4; stroke: #1f77b4"/>
     <use xlink:href="#m271f75d47e" x="413.9424" y="333.6336" style="fill: #1f77b4; stroke: #1f77b4"/>
     <use xlink:href="#m271f75d47e" x="379.1232" y="303.9336" style="fill: #1f77b4; stroke: #1f77b4"/>
     <use xlink:href="#m271f75d47e" x="221.9904" y="297.36" style="fill: #1f77b4; stroke: #1f77b4"/>
     <use xlink:href="#m271f75d47e" x="446.976" y="376.56" style="fill: #1f77b4; stroke: #1f77b4"/>
     <use xlink:href="#m271f75d47e" x="383.5872" y="330.3864" style="fill: #1f77b4; stroke: #1f77b4"/>
     <use xlink:href="#m271f75d47e" x="392.5152" y="336.96" style="fill: #1f77b4; stroke: #1f77b4"/>
     <use xlink:href="#m271f75d47e" x="212.1696" y="280.8864" style="fill: #1f77b4; stroke: #1f77b4"/>
     <use xlink:href="#m271f75d47e" x="401.4432" y="115.8336" style="fill: #1f77b4; stroke: #1f77b4"/>
     <use xlink:href="#m271f75d47e" x="406.8" y="353.4336" style="fill: #1f77b4; stroke: #1f77b4"/>
     <use xlink:href="#m271f75d47e" x="406.8" y="369.9864" style="fill: #1f77b4; stroke: #1f77b4"/>
     <use xlink:href="#m271f75d47e" x="438.9408" y="336.96" style="fill: #1f77b4; stroke: #1f77b4"/>
     <use xlink:href="#m271f75d47e" x="335.376" y="350.1864" style="fill: #1f77b4; stroke: #1f77b4"/>
     <use xlink:href="#m271f75d47e" x="346.0896" y="369.9864" style="fill: #1f77b4; stroke: #1f77b4"/>
     <use xlink:href="#m271f75d47e" x="372.8736" y="376.56" style="fill: #1f77b4; stroke: #1f77b4"/>
     <use xlink:href="#m271f75d47e" x="226.4544" y="317.16" style="fill: #1f77b4; stroke: #1f77b4"/>
     <use xlink:href="#m271f75d47e" x="372.8736" y="336.96" style="fill: #1f77b4; stroke: #1f77b4"/>
     <use xlink:href="#m271f75d47e" x="311.2704" y="350.1864" style="fill: #1f77b4; stroke: #1f77b4"/>
     <use xlink:href="#m271f75d47e" x="322.8768" y="247.86" style="fill: #1f77b4; stroke: #1f77b4"/>
     <use xlink:href="#m271f75d47e" x="316.6272" y="284.1336" style="fill: #1f77b4; stroke: #1f77b4"/>
     <use xlink:href="#m271f75d47e" x="283.5936" y="369.9864" style="fill: #1f77b4; stroke: #1f77b4"/>
     <use xlink:href="#m271f75d47e" x="237.168" y="343.5336" style="fill: #1f77b4; stroke: #1f77b4"/>
     <use xlink:href="#m271f75d47e" x="327.3408" y="346.86" style="fill: #1f77b4; stroke: #1f77b4"/>
     <use xlink:href="#m271f75d47e" x="364.8384" y="267.66" style="fill: #1f77b4; stroke: #1f77b4"/>
     <use xlink:href="#m271f75d47e" x="185.3856" y="340.2864" style="fill: #1f77b4; stroke: #1f77b4"/>
     <use xlink:href="#m271f75d47e" x="253.2384" y="376.56" style="fill: #1f77b4; stroke: #1f77b4"/>
     <use xlink:href="#m271f75d47e" x="264.8448" y="277.56" style="fill: #1f77b4; stroke: #1f77b4"/>
     <use xlink:href="#m271f75d47e" x="125.568" y="284.1336" style="fill: #1f77b4; stroke: #1f77b4"/>
     <use xlink:href="#m271f75d47e" x="274.6656" y="274.2336" style="fill: #1f77b4; stroke: #1f77b4"/>
     <use xlink:href="#m271f75d47e" x="227.3472" y="376.56" style="fill: #1f77b4; stroke: #1f77b4"/>
     <use xlink:href="#m271f75d47e" x="281.808" y="297.36" style="fill: #1f77b4; stroke: #1f77b4"/>
     <use xlink:href="#m271f75d47e" x="379.1232" y="290.7864" style="fill: #1f77b4; stroke: #1f77b4"/>
     <use xlink:href="#m271f75d47e" x="331.8048" y="138.96" style="fill: #1f77b4; stroke: #1f77b4"/>
     <use xlink:href="#m271f75d47e" x="192.528" y="294.0336" style="fill: #1f77b4; stroke: #1f77b4"/>
     <use xlink:href="#m271f75d47e" x="309.4848" y="343.5336" style="fill: #1f77b4; stroke: #1f77b4"/>
     <use xlink:href="#m271f75d47e" x="278.2368" y="376.56" style="fill: #1f77b4; stroke: #1f77b4"/>
     <use xlink:href="#m271f75d47e" x="307.6992" y="333.6336" style="fill: #1f77b4; stroke: #1f77b4"/>
     <use xlink:href="#m271f75d47e" x="271.0944" y="185.1336" style="fill: #1f77b4; stroke: #1f77b4"/>
     <use xlink:href="#m271f75d47e" x="282.7008" y="264.3336" style="fill: #1f77b4; stroke: #1f77b4"/>
     <use xlink:href="#m271f75d47e" x="286.272" y="376.56" style="fill: #1f77b4; stroke: #1f77b4"/>
     <use xlink:href="#m271f75d47e" x="299.664" y="270.9864" style="fill: #1f77b4; stroke: #1f77b4"/>
     <use xlink:href="#m271f75d47e" x="246.096" y="353.4336" style="fill: #1f77b4; stroke: #1f77b4"/>
     <use xlink:href="#m271f75d47e" x="317.52" y="310.5864" style="fill: #1f77b4; stroke: #1f77b4"/>
     <use xlink:href="#m271f75d47e" x="146.9952" y="376.56" style="fill: #1f77b4; stroke: #1f77b4"/>
     <use xlink:href="#m271f75d47e" x="217.5264" y="369.9864" style="fill: #1f77b4; stroke: #1f77b4"/>
     <use xlink:href="#m271f75d47e" x="84.4992" y="204.9336" style="fill: #1f77b4; stroke: #1f77b4"/>
    </g>
   </g>
   <g id="PathCollection_2">
    <defs>
     <path id="m2a12c6f00a" d="M 0 3 
C 0.795609 3 1.55874 2.683901 2.12132 2.12132 
C 2.683901 1.55874 3 0.795609 3 0 
C 3 -0.795609 2.683901 -1.55874 2.12132 -2.12132 
C 1.55874 -2.683901 0.795609 -3 0 -3 
C -0.795609 -3 -1.55874 -2.683901 -2.12132 -2.12132 
C -2.683901 -1.55874 -3 -0.795609 -3 0 
C -3 0.795609 -2.683901 1.55874 -2.12132 2.12132 
C -1.55874 2.683901 -0.795609 3 0 3 
z
" style="stroke: #0000ff"/>
    </defs>
    <g clip-path="url(#p934418ec37)">
     <use xlink:href="#m2a12c6f00a" x="357.696" y="277.56" style="fill: #0000ff; stroke: #0000ff"/>
     <use xlink:href="#m2a12c6f00a" x="343.4112" y="343.5336" style="fill: #0000ff; stroke: #0000ff"/>
     <use xlink:href="#m2a12c6f00a" x="282.7008" y="330.3864" style="fill: #0000ff; stroke: #0000ff"/>
     <use xlink:href="#m2a12c6f00a" x="397.872" y="336.96" style="fill: #0000ff; stroke: #0000ff"/>
     <use xlink:href="#m2a12c6f00a" x="313.9488" y="208.26" style="fill: #0000ff; stroke: #0000ff"/>
     <use xlink:href="#m2a12c6f00a" x="333.5904" y="290.7864" style="fill: #0000ff; stroke: #0000ff"/>
     <use xlink:href="#m2a12c6f00a" x="325.5552" y="366.66" style="fill: #0000ff; stroke: #0000ff"/>
     <use xlink:href="#m2a12c6f00a" x="382.6944" y="353.4336" style="fill: #0000ff; stroke: #0000ff"/>
     <use xlink:href="#m2a12c6f00a" x="293.4144" y="373.2336" style="fill: #0000ff; stroke: #0000ff"/>
     <use xlink:href="#m2a12c6f00a" x="300.5568" y="165.3336" style="fill: #0000ff; stroke: #0000ff"/>
     <use xlink:href="#m2a12c6f00a" x="340.7328" y="360.0864" style="fill: #0000ff; stroke: #0000ff"/>
     <use xlink:href="#m2a12c6f00a" x="271.0944" y="340.2864" style="fill: #0000ff; stroke: #0000ff"/>
     <use xlink:href="#m2a12c6f00a" x="362.16" y="373.2336" style="fill: #0000ff; stroke: #0000ff"/>
     <use xlink:href="#m2a12c6f00a" x="248.7744" y="323.7336" style="fill: #0000ff; stroke: #0000ff"/>
     <use xlink:href="#m2a12c6f00a" x="233.5968" y="376.56" style="fill: #0000ff; stroke: #0000ff"/>
     <use xlink:href="#m2a12c6f00a" x="377.3376" y="168.66" style="fill: #0000ff; stroke: #0000ff"/>
     <use xlink:href="#m2a12c6f00a" x="335.376" y="198.36" style="fill: #0000ff; stroke: #0000ff"/>
     <use xlink:href="#m2a12c6f00a" x="443.4048" y="204.9336" style="fill: #0000ff; stroke: #0000ff"/>
     <use xlink:href="#m2a12c6f00a" x="413.9424" y="333.6336" style="fill: #0000ff; stroke: #0000ff"/>
     <use xlink:href="#m2a12c6f00a" x="383.5872" y="330.3864" style="fill: #0000ff; stroke: #0000ff"/>
     <use xlink:href="#m2a12c6f00a" x="226.4544" y="317.16" style="fill: #0000ff; stroke: #0000ff"/>
     <use xlink:href="#m2a12c6f00a" x="372.8736" y="336.96" style="fill: #0000ff; stroke: #0000ff"/>
     <use xlink:href="#m2a12c6f00a" x="311.2704" y="350.1864" style="fill: #0000ff; stroke: #0000ff"/>
     <use xlink:href="#m2a12c6f00a" x="322.8768" y="247.86" style="fill: #0000ff; stroke: #0000ff"/>
     <use xlink:href="#m2a12c6f00a" x="283.5936" y="369.9864" style="fill: #0000ff; stroke: #0000ff"/>
     <use xlink:href="#m2a12c6f00a" x="327.3408" y="346.86" style="fill: #0000ff; stroke: #0000ff"/>
     <use xlink:href="#m2a12c6f00a" x="364.8384" y="267.66" style="fill: #0000ff; stroke: #0000ff"/>
     <use xlink:href="#m2a12c6f00a" x="185.3856" y="340.2864" style="fill: #0000ff; stroke: #0000ff"/>
     <use xlink:href="#m2a12c6f00a" x="253.2384" y="376.56" style="fill: #0000ff; stroke: #0000ff"/>
     <use xlink:href="#m2a12c6f00a" x="264.8448" y="277.56" style="fill: #0000ff; stroke: #0000ff"/>
     <use xlink:href="#m2a12c6f00a" x="125.568" y="284.1336" style="fill: #0000ff; stroke: #0000ff"/>
     <use xlink:href="#m2a12c6f00a" x="274.6656" y="274.2336" style="fill: #0000ff; stroke: #0000ff"/>
     <use xlink:href="#m2a12c6f00a" x="227.3472" y="376.56" style="fill: #0000ff; stroke: #0000ff"/>
     <use xlink:href="#m2a12c6f00a" x="281.808" y="297.36" style="fill: #0000ff; stroke: #0000ff"/>
     <use xlink:href="#m2a12c6f00a" x="379.1232" y="290.7864" style="fill: #0000ff; stroke: #0000ff"/>
     <use xlink:href="#m2a12c6f00a" x="331.8048" y="138.96" style="fill: #0000ff; stroke: #0000ff"/>
     <use xlink:href="#m2a12c6f00a" x="192.528" y="294.0336" style="fill: #0000ff; stroke: #0000ff"/>
     <use xlink:href="#m2a12c6f00a" x="309.4848" y="343.5336" style="fill: #0000ff; stroke: #0000ff"/>
     <use xlink:href="#m2a12c6f00a" x="278.2368" y="376.56" style="fill: #0000ff; stroke: #0000ff"/>
     <use xlink:href="#m2a12c6f00a" x="307.6992" y="333.6336" style="fill: #0000ff; stroke: #0000ff"/>
     <use xlink:href="#m2a12c6f00a" x="271.0944" y="185.1336" style="fill: #0000ff; stroke: #0000ff"/>
     <use xlink:href="#m2a12c6f00a" x="282.7008" y="264.3336" style="fill: #0000ff; stroke: #0000ff"/>
     <use xlink:href="#m2a12c6f00a" x="286.272" y="376.56" style="fill: #0000ff; stroke: #0000ff"/>
     <use xlink:href="#m2a12c6f00a" x="299.664" y="270.9864" style="fill: #0000ff; stroke: #0000ff"/>
     <use xlink:href="#m2a12c6f00a" x="246.096" y="353.4336" style="fill: #0000ff; stroke: #0000ff"/>
     <use xlink:href="#m2a12c6f00a" x="317.52" y="310.5864" style="fill: #0000ff; stroke: #0000ff"/>
     <use xlink:href="#m2a12c6f00a" x="146.9952" y="376.56" style="fill: #0000ff; stroke: #0000ff"/>
     <use xlink:href="#m2a12c6f00a" x="217.5264" y="369.9864" style="fill: #0000ff; stroke: #0000ff"/>
    </g>
   </g>
   <g id="PathCollection_3">
    <defs>
     <path id="m9423e47899" d="M 0 3 
C 0.795609 3 1.55874 2.683901 2.12132 2.12132 
C 2.683901 1.55874 3 0.795609 3 0 
C 3 -0.795609 2.683901 -1.55874 2.12132 -2.12132 
C 1.55874 -2.683901 0.795609 -3 0 -3 
C -0.795609 -3 -1.55874 -2.683901 -2.12132 -2.12132 
C -2.683901 -1.55874 -3 -0.795609 -3 0 
C -3 0.795609 -2.683901 1.55874 -2.12132 2.12132 
C -1.55874 2.683901 -0.795609 3 0 3 
z
" style="stroke: #008000"/>
    </defs>
    <g clip-path="url(#p934418ec37)">
     <use xlink:href="#m9423e47899" x="287.1648" y="320.4864" style="fill: #008000; stroke: #008000"/>
     <use xlink:href="#m9423e47899" x="294.3072" y="307.26" style="fill: #008000; stroke: #008000"/>
     <use xlink:href="#m9423e47899" x="409.4784" y="373.2336" style="fill: #008000; stroke: #008000"/>
     <use xlink:href="#m9423e47899" x="420.192" y="376.56" style="fill: #008000; stroke: #008000"/>
     <use xlink:href="#m9423e47899" x="302.3424" y="254.4336" style="fill: #008000; stroke: #008000"/>
     <use xlink:href="#m9423e47899" x="363.9456" y="254.4336" style="fill: #008000; stroke: #008000"/>
     <use xlink:href="#m9423e47899" x="263.952" y="267.66" style="fill: #008000; stroke: #008000"/>
     <use xlink:href="#m9423e47899" x="312.1632" y="353.4336" style="fill: #008000; stroke: #008000"/>
     <use xlink:href="#m9423e47899" x="334.4832" y="327.06" style="fill: #008000; stroke: #008000"/>
     <use xlink:href="#m9423e47899" x="395.1936" y="244.5336" style="fill: #008000; stroke: #008000"/>
     <use xlink:href="#m9423e47899" x="317.52" y="363.3336" style="fill: #008000; stroke: #008000"/>
     <use xlink:href="#m9423e47899" x="403.2288" y="360.0864" style="fill: #008000; stroke: #008000"/>
     <use xlink:href="#m9423e47899" x="360.3744" y="254.4336" style="fill: #008000; stroke: #008000"/>
     <use xlink:href="#m9423e47899" x="309.4848" y="323.7336" style="fill: #008000; stroke: #008000"/>
     <use xlink:href="#m9423e47899" x="418.4064" y="320.4864" style="fill: #008000; stroke: #008000"/>
     <use xlink:href="#m9423e47899" x="409.4784" y="287.46" style="fill: #008000; stroke: #008000"/>
     <use xlink:href="#m9423e47899" x="307.6992" y="376.56" style="fill: #008000; stroke: #008000"/>
     <use xlink:href="#m9423e47899" x="236.2752" y="290.7864" style="fill: #008000; stroke: #008000"/>
     <use xlink:href="#m9423e47899" x="280.9152" y="317.16" style="fill: #008000; stroke: #008000"/>
     <use xlink:href="#m9423e47899" x="346.9824" y="270.9864" style="fill: #008000; stroke: #008000"/>
     <use xlink:href="#m9423e47899" x="341.6256" y="228.06" style="fill: #008000; stroke: #008000"/>
     <use xlink:href="#m9423e47899" x="358.5888" y="323.7336" style="fill: #008000; stroke: #008000"/>
     <use xlink:href="#m9423e47899" x="265.7376" y="297.36" style="fill: #008000; stroke: #008000"/>
     <use xlink:href="#m9423e47899" x="286.272" y="340.2864" style="fill: #008000; stroke: #008000"/>
     <use xlink:href="#m9423e47899" x="351.4464" y="330.3864" style="fill: #008000; stroke: #008000"/>
     <use xlink:href="#m9423e47899" x="448.7616" y="241.2864" style="fill: #008000; stroke: #008000"/>
     <use xlink:href="#m9423e47899" x="393.408" y="109.26" style="fill: #008000; stroke: #008000"/>
     <use xlink:href="#m9423e47899" x="295.2" y="340.2864" style="fill: #008000; stroke: #008000"/>
     <use xlink:href="#m9423e47899" x="282.7008" y="280.8864" style="fill: #008000; stroke: #008000"/>
     <use xlink:href="#m9423e47899" x="254.1312" y="350.1864" style="fill: #008000; stroke: #008000"/>
     <use xlink:href="#m9423e47899" x="379.1232" y="303.9336" style="fill: #008000; stroke: #008000"/>
     <use xlink:href="#m9423e47899" x="221.9904" y="297.36" style="fill: #008000; stroke: #008000"/>
     <use xlink:href="#m9423e47899" x="446.976" y="376.56" style="fill: #008000; stroke: #008000"/>
     <use xlink:href="#m9423e47899" x="392.5152" y="336.96" style="fill: #008000; stroke: #008000"/>
     <use xlink:href="#m9423e47899" x="212.1696" y="280.8864" style="fill: #008000; stroke: #008000"/>
     <use xlink:href="#m9423e47899" x="401.4432" y="115.8336" style="fill: #008000; stroke: #008000"/>
     <use xlink:href="#m9423e47899" x="406.8" y="353.4336" style="fill: #008000; stroke: #008000"/>
     <use xlink:href="#m9423e47899" x="406.8" y="369.9864" style="fill: #008000; stroke: #008000"/>
     <use xlink:href="#m9423e47899" x="438.9408" y="336.96" style="fill: #008000; stroke: #008000"/>
     <use xlink:href="#m9423e47899" x="335.376" y="350.1864" style="fill: #008000; stroke: #008000"/>
     <use xlink:href="#m9423e47899" x="346.0896" y="369.9864" style="fill: #008000; stroke: #008000"/>
     <use xlink:href="#m9423e47899" x="372.8736" y="376.56" style="fill: #008000; stroke: #008000"/>
     <use xlink:href="#m9423e47899" x="316.6272" y="284.1336" style="fill: #008000; stroke: #008000"/>
     <use xlink:href="#m9423e47899" x="237.168" y="343.5336" style="fill: #008000; stroke: #008000"/>
     <use xlink:href="#m9423e47899" x="84.4992" y="204.9336" style="fill: #008000; stroke: #008000"/>
    </g>
   </g>
   <g id="matplotlib.axis_1">
    <g id="xtick_1">
     <g id="line2d_1">
      <defs>
       <path id="m3954a912ef" d="M 0 0 
L 0 3.5 
" style="stroke: #000000; stroke-width: 0.8"/>
      </defs>
      <g>
       <use xlink:href="#m3954a912ef" x="72" y="384.48" style="stroke: #000000; stroke-width: 0.8"/>
      </g>
     </g>
     <g id="text_1">
      <!-- 0.3 -->
      <g transform="translate(64.048438 399.078438) scale(0.1 -0.1)">
       <defs>
        <path id="DejaVuSans-30" d="M 2034 4250 
Q 1547 4250 1301 3770 
Q 1056 3291 1056 2328 
Q 1056 1369 1301 889 
Q 1547 409 2034 409 
Q 2525 409 2770 889 
Q 3016 1369 3016 2328 
Q 3016 3291 2770 3770 
Q 2525 4250 2034 4250 
z
M 2034 4750 
Q 2819 4750 3233 4129 
Q 3647 3509 3647 2328 
Q 3647 1150 3233 529 
Q 2819 -91 2034 -91 
Q 1250 -91 836 529 
Q 422 1150 422 2328 
Q 422 3509 836 4129 
Q 1250 4750 2034 4750 
z
" transform="scale(0.015625)"/>
        <path id="DejaVuSans-2e" d="M 684 794 
L 1344 794 
L 1344 0 
L 684 0 
L 684 794 
z
" transform="scale(0.015625)"/>
        <path id="DejaVuSans-33" d="M 2597 2516 
Q 3050 2419 3304 2112 
Q 3559 1806 3559 1356 
Q 3559 666 3084 287 
Q 2609 -91 1734 -91 
Q 1441 -91 1130 -33 
Q 819 25 488 141 
L 488 750 
Q 750 597 1062 519 
Q 1375 441 1716 441 
Q 2309 441 2620 675 
Q 2931 909 2931 1356 
Q 2931 1769 2642 2001 
Q 2353 2234 1838 2234 
L 1294 2234 
L 1294 2753 
L 1863 2753 
Q 2328 2753 2575 2939 
Q 2822 3125 2822 3475 
Q 2822 3834 2567 4026 
Q 2313 4219 1838 4219 
Q 1578 4219 1281 4162 
Q 984 4106 628 3988 
L 628 4550 
Q 988 4650 1302 4700 
Q 1616 4750 1894 4750 
Q 2613 4750 3031 4423 
Q 3450 4097 3450 3541 
Q 3450 3153 3228 2886 
Q 3006 2619 2597 2516 
z
" transform="scale(0.015625)"/>
       </defs>
       <use xlink:href="#DejaVuSans-30"/>
       <use xlink:href="#DejaVuSans-2e" x="63.623047"/>
       <use xlink:href="#DejaVuSans-33" x="95.410156"/>
      </g>
     </g>
    </g>
    <g id="xtick_2">
     <g id="line2d_2">
      <g>
       <use xlink:href="#m3954a912ef" x="161.28" y="384.48" style="stroke: #000000; stroke-width: 0.8"/>
      </g>
     </g>
     <g id="text_2">
      <!-- 0.4 -->
      <g transform="translate(153.328438 399.078438) scale(0.1 -0.1)">
       <defs>
        <path id="DejaVuSans-34" d="M 2419 4116 
L 825 1625 
L 2419 1625 
L 2419 4116 
z
M 2253 4666 
L 3047 4666 
L 3047 1625 
L 3713 1625 
L 3713 1100 
L 3047 1100 
L 3047 0 
L 2419 0 
L 2419 1100 
L 313 1100 
L 313 1709 
L 2253 4666 
z
" transform="scale(0.015625)"/>
       </defs>
       <use xlink:href="#DejaVuSans-30"/>
       <use xlink:href="#DejaVuSans-2e" x="63.623047"/>
       <use xlink:href="#DejaVuSans-34" x="95.410156"/>
      </g>
     </g>
    </g>
    <g id="xtick_3">
     <g id="line2d_3">
      <g>
       <use xlink:href="#m3954a912ef" x="250.56" y="384.48" style="stroke: #000000; stroke-width: 0.8"/>
      </g>
     </g>
     <g id="text_3">
      <!-- 0.5 -->
      <g transform="translate(242.608438 399.078438) scale(0.1 -0.1)">
       <defs>
        <path id="DejaVuSans-35" d="M 691 4666 
L 3169 4666 
L 3169 4134 
L 1269 4134 
L 1269 2991 
Q 1406 3038 1543 3061 
Q 1681 3084 1819 3084 
Q 2600 3084 3056 2656 
Q 3513 2228 3513 1497 
Q 3513 744 3044 326 
Q 2575 -91 1722 -91 
Q 1428 -91 1123 -41 
Q 819 9 494 109 
L 494 744 
Q 775 591 1075 516 
Q 1375 441 1709 441 
Q 2250 441 2565 725 
Q 2881 1009 2881 1497 
Q 2881 1984 2565 2268 
Q 2250 2553 1709 2553 
Q 1456 2553 1204 2497 
Q 953 2441 691 2322 
L 691 4666 
z
" transform="scale(0.015625)"/>
       </defs>
       <use xlink:href="#DejaVuSans-30"/>
       <use xlink:href="#DejaVuSans-2e" x="63.623047"/>
       <use xlink:href="#DejaVuSans-35" x="95.410156"/>
      </g>
     </g>
    </g>
    <g id="xtick_4">
     <g id="line2d_4">
      <g>
       <use xlink:href="#m3954a912ef" x="339.84" y="384.48" style="stroke: #000000; stroke-width: 0.8"/>
      </g>
     </g>
     <g id="text_4">
      <!-- 0.6 -->
      <g transform="translate(331.888438 399.078438) scale(0.1 -0.1)">
       <defs>
        <path id="DejaVuSans-36" d="M 2113 2584 
Q 1688 2584 1439 2293 
Q 1191 2003 1191 1497 
Q 1191 994 1439 701 
Q 1688 409 2113 409 
Q 2538 409 2786 701 
Q 3034 994 3034 1497 
Q 3034 2003 2786 2293 
Q 2538 2584 2113 2584 
z
M 3366 4563 
L 3366 3988 
Q 3128 4100 2886 4159 
Q 2644 4219 2406 4219 
Q 1781 4219 1451 3797 
Q 1122 3375 1075 2522 
Q 1259 2794 1537 2939 
Q 1816 3084 2150 3084 
Q 2853 3084 3261 2657 
Q 3669 2231 3669 1497 
Q 3669 778 3244 343 
Q 2819 -91 2113 -91 
Q 1303 -91 875 529 
Q 447 1150 447 2328 
Q 447 3434 972 4092 
Q 1497 4750 2381 4750 
Q 2619 4750 2861 4703 
Q 3103 4656 3366 4563 
z
" transform="scale(0.015625)"/>
       </defs>
       <use xlink:href="#DejaVuSans-30"/>
       <use xlink:href="#DejaVuSans-2e" x="63.623047"/>
       <use xlink:href="#DejaVuSans-36" x="95.410156"/>
      </g>
     </g>
    </g>
    <g id="xtick_5">
     <g id="line2d_5">
      <g>
       <use xlink:href="#m3954a912ef" x="429.12" y="384.48" style="stroke: #000000; stroke-width: 0.8"/>
      </g>
     </g>
     <g id="text_5">
      <!-- 0.7 -->
      <g transform="translate(421.168437 399.078438) scale(0.1 -0.1)">
       <defs>
        <path id="DejaVuSans-37" d="M 525 4666 
L 3525 4666 
L 3525 4397 
L 1831 0 
L 1172 0 
L 2766 4134 
L 525 4134 
L 525 4666 
z
" transform="scale(0.015625)"/>
       </defs>
       <use xlink:href="#DejaVuSans-30"/>
       <use xlink:href="#DejaVuSans-2e" x="63.623047"/>
       <use xlink:href="#DejaVuSans-37" x="95.410156"/>
      </g>
     </g>
    </g>
    <g id="xtick_6">
     <g id="line2d_6">
      <g>
       <use xlink:href="#m3954a912ef" x="518.4" y="384.48" style="stroke: #000000; stroke-width: 0.8"/>
      </g>
     </g>
     <g id="text_6">
      <!-- 0.8 -->
      <g transform="translate(510.448438 399.078438) scale(0.1 -0.1)">
       <defs>
        <path id="DejaVuSans-38" d="M 2034 2216 
Q 1584 2216 1326 1975 
Q 1069 1734 1069 1313 
Q 1069 891 1326 650 
Q 1584 409 2034 409 
Q 2484 409 2743 651 
Q 3003 894 3003 1313 
Q 3003 1734 2745 1975 
Q 2488 2216 2034 2216 
z
M 1403 2484 
Q 997 2584 770 2862 
Q 544 3141 544 3541 
Q 544 4100 942 4425 
Q 1341 4750 2034 4750 
Q 2731 4750 3128 4425 
Q 3525 4100 3525 3541 
Q 3525 3141 3298 2862 
Q 3072 2584 2669 2484 
Q 3125 2378 3379 2068 
Q 3634 1759 3634 1313 
Q 3634 634 3220 271 
Q 2806 -91 2034 -91 
Q 1263 -91 848 271 
Q 434 634 434 1313 
Q 434 1759 690 2068 
Q 947 2378 1403 2484 
z
M 1172 3481 
Q 1172 3119 1398 2916 
Q 1625 2713 2034 2713 
Q 2441 2713 2670 2916 
Q 2900 3119 2900 3481 
Q 2900 3844 2670 4047 
Q 2441 4250 2034 4250 
Q 1625 4250 1398 4047 
Q 1172 3844 1172 3481 
z
" transform="scale(0.015625)"/>
       </defs>
       <use xlink:href="#DejaVuSans-30"/>
       <use xlink:href="#DejaVuSans-2e" x="63.623047"/>
       <use xlink:href="#DejaVuSans-38" x="95.410156"/>
      </g>
     </g>
    </g>
    <g id="text_7">
     <!-- Human-Diary -->
     <g transform="translate(262.046094 412.756563) scale(0.1 -0.1)">
      <defs>
       <path id="DejaVuSans-48" d="M 628 4666 
L 1259 4666 
L 1259 2753 
L 3553 2753 
L 3553 4666 
L 4184 4666 
L 4184 0 
L 3553 0 
L 3553 2222 
L 1259 2222 
L 1259 0 
L 628 0 
L 628 4666 
z
" transform="scale(0.015625)"/>
       <path id="DejaVuSans-75" d="M 544 1381 
L 544 3500 
L 1119 3500 
L 1119 1403 
Q 1119 906 1312 657 
Q 1506 409 1894 409 
Q 2359 409 2629 706 
Q 2900 1003 2900 1516 
L 2900 3500 
L 3475 3500 
L 3475 0 
L 2900 0 
L 2900 538 
Q 2691 219 2414 64 
Q 2138 -91 1772 -91 
Q 1169 -91 856 284 
Q 544 659 544 1381 
z
M 1991 3584 
L 1991 3584 
z
" transform="scale(0.015625)"/>
       <path id="DejaVuSans-6d" d="M 3328 2828 
Q 3544 3216 3844 3400 
Q 4144 3584 4550 3584 
Q 5097 3584 5394 3201 
Q 5691 2819 5691 2113 
L 5691 0 
L 5113 0 
L 5113 2094 
Q 5113 2597 4934 2840 
Q 4756 3084 4391 3084 
Q 3944 3084 3684 2787 
Q 3425 2491 3425 1978 
L 3425 0 
L 2847 0 
L 2847 2094 
Q 2847 2600 2669 2842 
Q 2491 3084 2119 3084 
Q 1678 3084 1418 2786 
Q 1159 2488 1159 1978 
L 1159 0 
L 581 0 
L 581 3500 
L 1159 3500 
L 1159 2956 
Q 1356 3278 1631 3431 
Q 1906 3584 2284 3584 
Q 2666 3584 2933 3390 
Q 3200 3197 3328 2828 
z
" transform="scale(0.015625)"/>
       <path id="DejaVuSans-61" d="M 2194 1759 
Q 1497 1759 1228 1600 
Q 959 1441 959 1056 
Q 959 750 1161 570 
Q 1363 391 1709 391 
Q 2188 391 2477 730 
Q 2766 1069 2766 1631 
L 2766 1759 
L 2194 1759 
z
M 3341 1997 
L 3341 0 
L 2766 0 
L 2766 531 
Q 2569 213 2275 61 
Q 1981 -91 1556 -91 
Q 1019 -91 701 211 
Q 384 513 384 1019 
Q 384 1609 779 1909 
Q 1175 2209 1959 2209 
L 2766 2209 
L 2766 2266 
Q 2766 2663 2505 2880 
Q 2244 3097 1772 3097 
Q 1472 3097 1187 3025 
Q 903 2953 641 2809 
L 641 3341 
Q 956 3463 1253 3523 
Q 1550 3584 1831 3584 
Q 2591 3584 2966 3190 
Q 3341 2797 3341 1997 
z
" transform="scale(0.015625)"/>
       <path id="DejaVuSans-6e" d="M 3513 2113 
L 3513 0 
L 2938 0 
L 2938 2094 
Q 2938 2591 2744 2837 
Q 2550 3084 2163 3084 
Q 1697 3084 1428 2787 
Q 1159 2491 1159 1978 
L 1159 0 
L 581 0 
L 581 3500 
L 1159 3500 
L 1159 2956 
Q 1366 3272 1645 3428 
Q 1925 3584 2291 3584 
Q 2894 3584 3203 3211 
Q 3513 2838 3513 2113 
z
" transform="scale(0.015625)"/>
       <path id="DejaVuSans-2d" d="M 313 2009 
L 1997 2009 
L 1997 1497 
L 313 1497 
L 313 2009 
z
" transform="scale(0.015625)"/>
       <path id="DejaVuSans-44" d="M 1259 4147 
L 1259 519 
L 2022 519 
Q 2988 519 3436 956 
Q 3884 1394 3884 2338 
Q 3884 3275 3436 3711 
Q 2988 4147 2022 4147 
L 1259 4147 
z
M 628 4666 
L 1925 4666 
Q 3281 4666 3915 4102 
Q 4550 3538 4550 2338 
Q 4550 1131 3912 565 
Q 3275 0 1925 0 
L 628 0 
L 628 4666 
z
" transform="scale(0.015625)"/>
       <path id="DejaVuSans-69" d="M 603 3500 
L 1178 3500 
L 1178 0 
L 603 0 
L 603 3500 
z
M 603 4863 
L 1178 4863 
L 1178 4134 
L 603 4134 
L 603 4863 
z
" transform="scale(0.015625)"/>
       <path id="DejaVuSans-72" d="M 2631 2963 
Q 2534 3019 2420 3045 
Q 2306 3072 2169 3072 
Q 1681 3072 1420 2755 
Q 1159 2438 1159 1844 
L 1159 0 
L 581 0 
L 581 3500 
L 1159 3500 
L 1159 2956 
Q 1341 3275 1631 3429 
Q 1922 3584 2338 3584 
Q 2397 3584 2469 3576 
Q 2541 3569 2628 3553 
L 2631 2963 
z
" transform="scale(0.015625)"/>
       <path id="DejaVuSans-79" d="M 2059 -325 
Q 1816 -950 1584 -1140 
Q 1353 -1331 966 -1331 
L 506 -1331 
L 506 -850 
L 844 -850 
Q 1081 -850 1212 -737 
Q 1344 -625 1503 -206 
L 1606 56 
L 191 3500 
L 800 3500 
L 1894 763 
L 2988 3500 
L 3597 3500 
L 2059 -325 
z
" transform="scale(0.015625)"/>
      </defs>
      <use xlink:href="#DejaVuSans-48"/>
      <use xlink:href="#DejaVuSans-75" x="75.195312"/>
      <use xlink:href="#DejaVuSans-6d" x="138.574219"/>
      <use xlink:href="#DejaVuSans-61" x="235.986328"/>
      <use xlink:href="#DejaVuSans-6e" x="297.265625"/>
      <use xlink:href="#DejaVuSans-2d" x="360.644531"/>
      <use xlink:href="#DejaVuSans-44" x="396.728516"/>
      <use xlink:href="#DejaVuSans-69" x="473.730469"/>
      <use xlink:href="#DejaVuSans-61" x="501.513672"/>
      <use xlink:href="#DejaVuSans-72" x="562.792969"/>
      <use xlink:href="#DejaVuSans-79" x="603.90625"/>
     </g>
    </g>
   </g>
   <g id="matplotlib.axis_2">
    <g id="ytick_1">
     <g id="line2d_7">
      <defs>
       <path id="m0a4c4316e5" d="M 0 0 
L -3.5 0 
" style="stroke: #000000; stroke-width: 0.8"/>
      </defs>
      <g>
       <use xlink:href="#m0a4c4316e5" x="72" y="376.56" style="stroke: #000000; stroke-width: 0.8"/>
      </g>
     </g>
     <g id="text_8">
      <!-- 1 -->
      <g transform="translate(58.6375 380.359219) scale(0.1 -0.1)">
       <defs>
        <path id="DejaVuSans-31" d="M 794 531 
L 1825 531 
L 1825 4091 
L 703 3866 
L 703 4441 
L 1819 4666 
L 2450 4666 
L 2450 531 
L 3481 531 
L 3481 0 
L 794 0 
L 794 531 
z
" transform="scale(0.015625)"/>
       </defs>
       <use xlink:href="#DejaVuSans-31"/>
      </g>
     </g>
    </g>
    <g id="ytick_2">
     <g id="line2d_8">
      <g>
       <use xlink:href="#m0a4c4316e5" x="72" y="297.36" style="stroke: #000000; stroke-width: 0.8"/>
      </g>
     </g>
     <g id="text_9">
      <!-- 2 -->
      <g transform="translate(58.6375 301.159219) scale(0.1 -0.1)">
       <defs>
        <path id="DejaVuSans-32" d="M 1228 531 
L 3431 531 
L 3431 0 
L 469 0 
L 469 531 
Q 828 903 1448 1529 
Q 2069 2156 2228 2338 
Q 2531 2678 2651 2914 
Q 2772 3150 2772 3378 
Q 2772 3750 2511 3984 
Q 2250 4219 1831 4219 
Q 1534 4219 1204 4116 
Q 875 4013 500 3803 
L 500 4441 
Q 881 4594 1212 4672 
Q 1544 4750 1819 4750 
Q 2544 4750 2975 4387 
Q 3406 4025 3406 3419 
Q 3406 3131 3298 2873 
Q 3191 2616 2906 2266 
Q 2828 2175 2409 1742 
Q 1991 1309 1228 531 
z
" transform="scale(0.015625)"/>
       </defs>
       <use xlink:href="#DejaVuSans-32"/>
      </g>
     </g>
    </g>
    <g id="ytick_3">
     <g id="line2d_9">
      <g>
       <use xlink:href="#m0a4c4316e5" x="72" y="218.16" style="stroke: #000000; stroke-width: 0.8"/>
      </g>
     </g>
     <g id="text_10">
      <!-- 3 -->
      <g transform="translate(58.6375 221.959219) scale(0.1 -0.1)">
       <use xlink:href="#DejaVuSans-33"/>
      </g>
     </g>
    </g>
    <g id="ytick_4">
     <g id="line2d_10">
      <g>
       <use xlink:href="#m0a4c4316e5" x="72" y="138.96" style="stroke: #000000; stroke-width: 0.8"/>
      </g>
     </g>
     <g id="text_11">
      <!-- 4 -->
      <g transform="translate(58.6375 142.759219) scale(0.1 -0.1)">
       <use xlink:href="#DejaVuSans-34"/>
      </g>
     </g>
    </g>
    <g id="ytick_5">
     <g id="line2d_11">
      <g>
       <use xlink:href="#m0a4c4316e5" x="72" y="59.76" style="stroke: #000000; stroke-width: 0.8"/>
      </g>
     </g>
     <g id="text_12">
      <!-- 5 -->
      <g transform="translate(58.6375 63.559219) scale(0.1 -0.1)">
       <use xlink:href="#DejaVuSans-35"/>
      </g>
     </g>
    </g>
    <g id="text_13">
     <!-- ave_PANAS_N -->
     <g transform="translate(52.279688 252.452187) rotate(-90) scale(0.1 -0.1)">
      <defs>
       <path id="DejaVuSans-76" d="M 191 3500 
L 800 3500 
L 1894 563 
L 2988 3500 
L 3597 3500 
L 2284 0 
L 1503 0 
L 191 3500 
z
" transform="scale(0.015625)"/>
       <path id="DejaVuSans-65" d="M 3597 1894 
L 3597 1613 
L 953 1613 
Q 991 1019 1311 708 
Q 1631 397 2203 397 
Q 2534 397 2845 478 
Q 3156 559 3463 722 
L 3463 178 
Q 3153 47 2828 -22 
Q 2503 -91 2169 -91 
Q 1331 -91 842 396 
Q 353 884 353 1716 
Q 353 2575 817 3079 
Q 1281 3584 2069 3584 
Q 2775 3584 3186 3129 
Q 3597 2675 3597 1894 
z
M 3022 2063 
Q 3016 2534 2758 2815 
Q 2500 3097 2075 3097 
Q 1594 3097 1305 2825 
Q 1016 2553 972 2059 
L 3022 2063 
z
" transform="scale(0.015625)"/>
       <path id="DejaVuSans-5f" d="M 3263 -1063 
L 3263 -1509 
L -63 -1509 
L -63 -1063 
L 3263 -1063 
z
" transform="scale(0.015625)"/>
       <path id="DejaVuSans-50" d="M 1259 4147 
L 1259 2394 
L 2053 2394 
Q 2494 2394 2734 2622 
Q 2975 2850 2975 3272 
Q 2975 3691 2734 3919 
Q 2494 4147 2053 4147 
L 1259 4147 
z
M 628 4666 
L 2053 4666 
Q 2838 4666 3239 4311 
Q 3641 3956 3641 3272 
Q 3641 2581 3239 2228 
Q 2838 1875 2053 1875 
L 1259 1875 
L 1259 0 
L 628 0 
L 628 4666 
z
" transform="scale(0.015625)"/>
       <path id="DejaVuSans-41" d="M 2188 4044 
L 1331 1722 
L 3047 1722 
L 2188 4044 
z
M 1831 4666 
L 2547 4666 
L 4325 0 
L 3669 0 
L 3244 1197 
L 1141 1197 
L 716 0 
L 50 0 
L 1831 4666 
z
" transform="scale(0.015625)"/>
       <path id="DejaVuSans-4e" d="M 628 4666 
L 1478 4666 
L 3547 763 
L 3547 4666 
L 4159 4666 
L 4159 0 
L 3309 0 
L 1241 3903 
L 1241 0 
L 628 0 
L 628 4666 
z
" transform="scale(0.015625)"/>
       <path id="DejaVuSans-53" d="M 3425 4513 
L 3425 3897 
Q 3066 4069 2747 4153 
Q 2428 4238 2131 4238 
Q 1616 4238 1336 4038 
Q 1056 3838 1056 3469 
Q 1056 3159 1242 3001 
Q 1428 2844 1947 2747 
L 2328 2669 
Q 3034 2534 3370 2195 
Q 3706 1856 3706 1288 
Q 3706 609 3251 259 
Q 2797 -91 1919 -91 
Q 1588 -91 1214 -16 
Q 841 59 441 206 
L 441 856 
Q 825 641 1194 531 
Q 1563 422 1919 422 
Q 2459 422 2753 634 
Q 3047 847 3047 1241 
Q 3047 1584 2836 1778 
Q 2625 1972 2144 2069 
L 1759 2144 
Q 1053 2284 737 2584 
Q 422 2884 422 3419 
Q 422 4038 858 4394 
Q 1294 4750 2059 4750 
Q 2388 4750 2728 4690 
Q 3069 4631 3425 4513 
z
" transform="scale(0.015625)"/>
      </defs>
      <use xlink:href="#DejaVuSans-61"/>
      <use xlink:href="#DejaVuSans-76" x="61.279297"/>
      <use xlink:href="#DejaVuSans-65" x="120.458984"/>
      <use xlink:href="#DejaVuSans-5f" x="181.982422"/>
      <use xlink:href="#DejaVuSans-50" x="231.982422"/>
      <use xlink:href="#DejaVuSans-41" x="285.910156"/>
      <use xlink:href="#DejaVuSans-4e" x="354.318359"/>
      <use xlink:href="#DejaVuSans-41" x="429.123047"/>
      <use xlink:href="#DejaVuSans-53" x="497.53125"/>
      <use xlink:href="#DejaVuSans-5f" x="561.007812"/>
      <use xlink:href="#DejaVuSans-4e" x="611.007812"/>
     </g>
    </g>
   </g>
   <g id="line2d_12">
    <path d="M 357.696 305.071889 
L 287.1648 309.169839 
L 294.3072 308.754856 
L 409.4784 302.063268 
L 420.192 301.440795 
L 343.4112 305.901854 
L 302.3424 308.288001 
L 363.9456 304.70878 
L 263.952 310.518531 
L 312.1632 307.717401 
L 334.4832 306.420581 
L 282.7008 309.429203 
L 395.1936 302.893232 
L 397.872 302.737614 
L 317.52 307.406164 
L 403.2288 302.426377 
L 313.9488 307.613655 
L 333.5904 306.472454 
L 325.5552 306.939309 
L 360.3744 304.916271 
L 309.4848 307.873019 
L 382.6944 303.619451 
L 293.4144 308.806729 
L 300.5568 308.391747 
L 418.4064 301.54454 
L 409.4784 302.063268 
L 307.6992 307.976765 
L 236.2752 312.126587 
L 280.9152 309.532948 
L 346.9824 305.694362 
L 341.6256 306.005599 
L 358.5888 305.020016 
L 340.7328 306.057472 
L 271.0944 310.103549 
L 362.16 304.812525 
L 248.7744 311.400368 
L 233.5968 312.282205 
L 377.3376 303.930688 
L 265.7376 310.414785 
L 335.376 306.368709 
L 286.272 309.221711 
L 443.4048 300.092102 
L 351.4464 305.434999 
L 448.7616 299.780866 
L 393.408 302.996978 
L 295.2 308.702984 
L 282.7008 309.429203 
L 254.1312 311.089132 
L 413.9424 301.803904 
L 379.1232 303.826942 
L 221.9904 312.956552 
L 446.976 299.884611 
L 383.5872 303.567578 
L 392.5152 303.048851 
L 212.1696 313.527152 
L 401.4432 302.530123 
L 406.8 302.218886 
L 406.8 302.218886 
L 438.9408 300.351466 
L 335.376 306.368709 
L 346.0896 305.746235 
L 372.8736 304.190052 
L 226.4544 312.697188 
L 372.8736 304.190052 
L 311.2704 307.769274 
L 322.8768 307.094928 
L 316.6272 307.458037 
L 283.5936 309.37733 
L 237.168 312.074714 
L 327.3408 306.835564 
L 364.8384 304.656907 
L 185.3856 315.083336 
L 253.2384 311.141004 
L 264.8448 310.466658 
L 125.568 318.558812 
L 274.6656 309.896058 
L 227.3472 312.645315 
L 281.808 309.481075 
L 379.1232 303.826942 
L 331.8048 306.5762 
L 192.528 314.668353 
L 309.4848 307.873019 
L 278.2368 309.688567 
L 307.6992 307.976765 
L 271.0944 310.103549 
L 282.7008 309.429203 
L 286.272 309.221711 
L 299.664 308.44362 
L 246.096 311.555987 
L 317.52 307.406164 
L 146.9952 317.313865 
L 217.5264 313.215916 
L 84.4992 320.94496 
" clip-path="url(#p934418ec37)" style="fill: none; stroke: #ff0000; stroke-width: 1.5; stroke-linecap: square"/>
   </g>
   <g id="patch_3">
    <path d="M 72 384.48 
L 72 51.84 
" style="fill: none; stroke: #000000; stroke-width: 0.8; stroke-linejoin: miter; stroke-linecap: square"/>
   </g>
   <g id="patch_4">
    <path d="M 518.4 384.48 
L 518.4 51.84 
" style="fill: none; stroke: #000000; stroke-width: 0.8; stroke-linejoin: miter; stroke-linecap: square"/>
   </g>
   <g id="patch_5">
    <path d="M 72 384.48 
L 518.4 384.48 
" style="fill: none; stroke: #000000; stroke-width: 0.8; stroke-linejoin: miter; stroke-linecap: square"/>
   </g>
   <g id="patch_6">
    <path d="M 72 51.84 
L 518.4 51.84 
" style="fill: none; stroke: #000000; stroke-width: 0.8; stroke-linejoin: miter; stroke-linecap: square"/>
   </g>
   <g id="text_14">
    <!-- Mixed Effects Regression: ave_PANAS_N ~ ave_cos_BERT_diary_Human -->
    <g transform="translate(81.32625 45.84) scale(0.12 -0.12)">
     <defs>
      <path id="DejaVuSans-4d" d="M 628 4666 
L 1569 4666 
L 2759 1491 
L 3956 4666 
L 4897 4666 
L 4897 0 
L 4281 0 
L 4281 4097 
L 3078 897 
L 2444 897 
L 1241 4097 
L 1241 0 
L 628 0 
L 628 4666 
z
" transform="scale(0.015625)"/>
      <path id="DejaVuSans-78" d="M 3513 3500 
L 2247 1797 
L 3578 0 
L 2900 0 
L 1881 1375 
L 863 0 
L 184 0 
L 1544 1831 
L 300 3500 
L 978 3500 
L 1906 2253 
L 2834 3500 
L 3513 3500 
z
" transform="scale(0.015625)"/>
      <path id="DejaVuSans-64" d="M 2906 2969 
L 2906 4863 
L 3481 4863 
L 3481 0 
L 2906 0 
L 2906 525 
Q 2725 213 2448 61 
Q 2172 -91 1784 -91 
Q 1150 -91 751 415 
Q 353 922 353 1747 
Q 353 2572 751 3078 
Q 1150 3584 1784 3584 
Q 2172 3584 2448 3432 
Q 2725 3281 2906 2969 
z
M 947 1747 
Q 947 1113 1208 752 
Q 1469 391 1925 391 
Q 2381 391 2643 752 
Q 2906 1113 2906 1747 
Q 2906 2381 2643 2742 
Q 2381 3103 1925 3103 
Q 1469 3103 1208 2742 
Q 947 2381 947 1747 
z
" transform="scale(0.015625)"/>
      <path id="DejaVuSans-20" transform="scale(0.015625)"/>
      <path id="DejaVuSans-45" d="M 628 4666 
L 3578 4666 
L 3578 4134 
L 1259 4134 
L 1259 2753 
L 3481 2753 
L 3481 2222 
L 1259 2222 
L 1259 531 
L 3634 531 
L 3634 0 
L 628 0 
L 628 4666 
z
" transform="scale(0.015625)"/>
      <path id="DejaVuSans-66" d="M 2375 4863 
L 2375 4384 
L 1825 4384 
Q 1516 4384 1395 4259 
Q 1275 4134 1275 3809 
L 1275 3500 
L 2222 3500 
L 2222 3053 
L 1275 3053 
L 1275 0 
L 697 0 
L 697 3053 
L 147 3053 
L 147 3500 
L 697 3500 
L 697 3744 
Q 697 4328 969 4595 
Q 1241 4863 1831 4863 
L 2375 4863 
z
" transform="scale(0.015625)"/>
      <path id="DejaVuSans-63" d="M 3122 3366 
L 3122 2828 
Q 2878 2963 2633 3030 
Q 2388 3097 2138 3097 
Q 1578 3097 1268 2742 
Q 959 2388 959 1747 
Q 959 1106 1268 751 
Q 1578 397 2138 397 
Q 2388 397 2633 464 
Q 2878 531 3122 666 
L 3122 134 
Q 2881 22 2623 -34 
Q 2366 -91 2075 -91 
Q 1284 -91 818 406 
Q 353 903 353 1747 
Q 353 2603 823 3093 
Q 1294 3584 2113 3584 
Q 2378 3584 2631 3529 
Q 2884 3475 3122 3366 
z
" transform="scale(0.015625)"/>
      <path id="DejaVuSans-74" d="M 1172 4494 
L 1172 3500 
L 2356 3500 
L 2356 3053 
L 1172 3053 
L 1172 1153 
Q 1172 725 1289 603 
Q 1406 481 1766 481 
L 2356 481 
L 2356 0 
L 1766 0 
Q 1100 0 847 248 
Q 594 497 594 1153 
L 594 3053 
L 172 3053 
L 172 3500 
L 594 3500 
L 594 4494 
L 1172 4494 
z
" transform="scale(0.015625)"/>
      <path id="DejaVuSans-73" d="M 2834 3397 
L 2834 2853 
Q 2591 2978 2328 3040 
Q 2066 3103 1784 3103 
Q 1356 3103 1142 2972 
Q 928 2841 928 2578 
Q 928 2378 1081 2264 
Q 1234 2150 1697 2047 
L 1894 2003 
Q 2506 1872 2764 1633 
Q 3022 1394 3022 966 
Q 3022 478 2636 193 
Q 2250 -91 1575 -91 
Q 1294 -91 989 -36 
Q 684 19 347 128 
L 347 722 
Q 666 556 975 473 
Q 1284 391 1588 391 
Q 1994 391 2212 530 
Q 2431 669 2431 922 
Q 2431 1156 2273 1281 
Q 2116 1406 1581 1522 
L 1381 1569 
Q 847 1681 609 1914 
Q 372 2147 372 2553 
Q 372 3047 722 3315 
Q 1072 3584 1716 3584 
Q 2034 3584 2315 3537 
Q 2597 3491 2834 3397 
z
" transform="scale(0.015625)"/>
      <path id="DejaVuSans-52" d="M 2841 2188 
Q 3044 2119 3236 1894 
Q 3428 1669 3622 1275 
L 4263 0 
L 3584 0 
L 2988 1197 
Q 2756 1666 2539 1819 
Q 2322 1972 1947 1972 
L 1259 1972 
L 1259 0 
L 628 0 
L 628 4666 
L 2053 4666 
Q 2853 4666 3247 4331 
Q 3641 3997 3641 3322 
Q 3641 2881 3436 2590 
Q 3231 2300 2841 2188 
z
M 1259 4147 
L 1259 2491 
L 2053 2491 
Q 2509 2491 2742 2702 
Q 2975 2913 2975 3322 
Q 2975 3731 2742 3939 
Q 2509 4147 2053 4147 
L 1259 4147 
z
" transform="scale(0.015625)"/>
      <path id="DejaVuSans-67" d="M 2906 1791 
Q 2906 2416 2648 2759 
Q 2391 3103 1925 3103 
Q 1463 3103 1205 2759 
Q 947 2416 947 1791 
Q 947 1169 1205 825 
Q 1463 481 1925 481 
Q 2391 481 2648 825 
Q 2906 1169 2906 1791 
z
M 3481 434 
Q 3481 -459 3084 -895 
Q 2688 -1331 1869 -1331 
Q 1566 -1331 1297 -1286 
Q 1028 -1241 775 -1147 
L 775 -588 
Q 1028 -725 1275 -790 
Q 1522 -856 1778 -856 
Q 2344 -856 2625 -561 
Q 2906 -266 2906 331 
L 2906 616 
Q 2728 306 2450 153 
Q 2172 0 1784 0 
Q 1141 0 747 490 
Q 353 981 353 1791 
Q 353 2603 747 3093 
Q 1141 3584 1784 3584 
Q 2172 3584 2450 3431 
Q 2728 3278 2906 2969 
L 2906 3500 
L 3481 3500 
L 3481 434 
z
" transform="scale(0.015625)"/>
      <path id="DejaVuSans-6f" d="M 1959 3097 
Q 1497 3097 1228 2736 
Q 959 2375 959 1747 
Q 959 1119 1226 758 
Q 1494 397 1959 397 
Q 2419 397 2687 759 
Q 2956 1122 2956 1747 
Q 2956 2369 2687 2733 
Q 2419 3097 1959 3097 
z
M 1959 3584 
Q 2709 3584 3137 3096 
Q 3566 2609 3566 1747 
Q 3566 888 3137 398 
Q 2709 -91 1959 -91 
Q 1206 -91 779 398 
Q 353 888 353 1747 
Q 353 2609 779 3096 
Q 1206 3584 1959 3584 
z
" transform="scale(0.015625)"/>
      <path id="DejaVuSans-3a" d="M 750 794 
L 1409 794 
L 1409 0 
L 750 0 
L 750 794 
z
M 750 3309 
L 1409 3309 
L 1409 2516 
L 750 2516 
L 750 3309 
z
" transform="scale(0.015625)"/>
      <path id="DejaVuSans-7e" d="M 4684 2553 
L 4684 1997 
Q 4356 1750 4076 1644 
Q 3797 1538 3494 1538 
Q 3150 1538 2694 1722 
Q 2659 1734 2644 1741 
Q 2622 1750 2575 1766 
Q 2091 1959 1797 1959 
Q 1522 1959 1253 1839 
Q 984 1719 678 1459 
L 678 2016 
Q 1006 2263 1286 2370 
Q 1566 2478 1869 2478 
Q 2213 2478 2672 2291 
Q 2703 2278 2719 2272 
Q 2744 2263 2788 2247 
Q 3272 2053 3566 2053 
Q 3834 2053 4098 2172 
Q 4363 2291 4684 2553 
z
" transform="scale(0.015625)"/>
      <path id="DejaVuSans-42" d="M 1259 2228 
L 1259 519 
L 2272 519 
Q 2781 519 3026 730 
Q 3272 941 3272 1375 
Q 3272 1813 3026 2020 
Q 2781 2228 2272 2228 
L 1259 2228 
z
M 1259 4147 
L 1259 2741 
L 2194 2741 
Q 2656 2741 2882 2914 
Q 3109 3088 3109 3444 
Q 3109 3797 2882 3972 
Q 2656 4147 2194 4147 
L 1259 4147 
z
M 628 4666 
L 2241 4666 
Q 2963 4666 3353 4366 
Q 3744 4066 3744 3513 
Q 3744 3084 3544 2831 
Q 3344 2578 2956 2516 
Q 3422 2416 3680 2098 
Q 3938 1781 3938 1306 
Q 3938 681 3513 340 
Q 3088 0 2303 0 
L 628 0 
L 628 4666 
z
" transform="scale(0.015625)"/>
      <path id="DejaVuSans-54" d="M -19 4666 
L 3928 4666 
L 3928 4134 
L 2272 4134 
L 2272 0 
L 1638 0 
L 1638 4134 
L -19 4134 
L -19 4666 
z
" transform="scale(0.015625)"/>
     </defs>
     <use xlink:href="#DejaVuSans-4d"/>
     <use xlink:href="#DejaVuSans-69" x="86.279297"/>
     <use xlink:href="#DejaVuSans-78" x="114.0625"/>
     <use xlink:href="#DejaVuSans-65" x="170.117188"/>
     <use xlink:href="#DejaVuSans-64" x="231.640625"/>
     <use xlink:href="#DejaVuSans-20" x="295.117188"/>
     <use xlink:href="#DejaVuSans-45" x="326.904297"/>
     <use xlink:href="#DejaVuSans-66" x="390.087891"/>
     <use xlink:href="#DejaVuSans-66" x="425.292969"/>
     <use xlink:href="#DejaVuSans-65" x="460.498047"/>
     <use xlink:href="#DejaVuSans-63" x="522.021484"/>
     <use xlink:href="#DejaVuSans-74" x="577.001953"/>
     <use xlink:href="#DejaVuSans-73" x="616.210938"/>
     <use xlink:href="#DejaVuSans-20" x="668.310547"/>
     <use xlink:href="#DejaVuSans-52" x="700.097656"/>
     <use xlink:href="#DejaVuSans-65" x="765.080078"/>
     <use xlink:href="#DejaVuSans-67" x="826.603516"/>
     <use xlink:href="#DejaVuSans-72" x="890.080078"/>
     <use xlink:href="#DejaVuSans-65" x="928.943359"/>
     <use xlink:href="#DejaVuSans-73" x="990.466797"/>
     <use xlink:href="#DejaVuSans-73" x="1042.566406"/>
     <use xlink:href="#DejaVuSans-69" x="1094.666016"/>
     <use xlink:href="#DejaVuSans-6f" x="1122.449219"/>
     <use xlink:href="#DejaVuSans-6e" x="1183.630859"/>
     <use xlink:href="#DejaVuSans-3a" x="1247.009766"/>
     <use xlink:href="#DejaVuSans-20" x="1280.701172"/>
     <use xlink:href="#DejaVuSans-61" x="1312.488281"/>
     <use xlink:href="#DejaVuSans-76" x="1373.767578"/>
     <use xlink:href="#DejaVuSans-65" x="1432.947266"/>
     <use xlink:href="#DejaVuSans-5f" x="1494.470703"/>
     <use xlink:href="#DejaVuSans-50" x="1544.470703"/>
     <use xlink:href="#DejaVuSans-41" x="1598.398438"/>
     <use xlink:href="#DejaVuSans-4e" x="1666.806641"/>
     <use xlink:href="#DejaVuSans-41" x="1741.611328"/>
     <use xlink:href="#DejaVuSans-53" x="1810.019531"/>
     <use xlink:href="#DejaVuSans-5f" x="1873.496094"/>
     <use xlink:href="#DejaVuSans-4e" x="1923.496094"/>
     <use xlink:href="#DejaVuSans-20" x="1998.300781"/>
     <use xlink:href="#DejaVuSans-7e" x="2030.087891"/>
     <use xlink:href="#DejaVuSans-20" x="2113.876953"/>
     <use xlink:href="#DejaVuSans-61" x="2145.664062"/>
     <use xlink:href="#DejaVuSans-76" x="2206.943359"/>
     <use xlink:href="#DejaVuSans-65" x="2266.123047"/>
     <use xlink:href="#DejaVuSans-5f" x="2327.646484"/>
     <use xlink:href="#DejaVuSans-63" x="2377.646484"/>
     <use xlink:href="#DejaVuSans-6f" x="2432.626953"/>
     <use xlink:href="#DejaVuSans-73" x="2493.808594"/>
     <use xlink:href="#DejaVuSans-5f" x="2545.908203"/>
     <use xlink:href="#DejaVuSans-42" x="2595.908203"/>
     <use xlink:href="#DejaVuSans-45" x="2664.511719"/>
     <use xlink:href="#DejaVuSans-52" x="2727.695312"/>
     <use xlink:href="#DejaVuSans-54" x="2789.927734"/>
     <use xlink:href="#DejaVuSans-5f" x="2851.011719"/>
     <use xlink:href="#DejaVuSans-64" x="2901.011719"/>
     <use xlink:href="#DejaVuSans-69" x="2964.488281"/>
     <use xlink:href="#DejaVuSans-61" x="2992.271484"/>
     <use xlink:href="#DejaVuSans-72" x="3053.550781"/>
     <use xlink:href="#DejaVuSans-79" x="3094.664062"/>
     <use xlink:href="#DejaVuSans-5f" x="3153.84375"/>
     <use xlink:href="#DejaVuSans-48" x="3203.84375"/>
     <use xlink:href="#DejaVuSans-75" x="3279.039062"/>
     <use xlink:href="#DejaVuSans-6d" x="3342.417969"/>
     <use xlink:href="#DejaVuSans-61" x="3439.830078"/>
     <use xlink:href="#DejaVuSans-6e" x="3501.109375"/>
    </g>
   </g>
  </g>
 </g>
 <defs>
  <clipPath id="p934418ec37">
   <rect x="72" y="51.84" width="446.4" height="332.64"/>
  </clipPath>
 </defs>
</svg>
