<?xml version="1.0" encoding="utf-8" standalone="no"?>
<!DOCTYPE svg PUBLIC "-//W3C//DTD SVG 1.1//EN"
  "http://www.w3.org/Graphics/SVG/1.1/DTD/svg11.dtd">
<svg xmlns:xlink="http://www.w3.org/1999/xlink" width="720pt" height="576pt" viewBox="0 0 720 576" xmlns="http://www.w3.org/2000/svg" version="1.1">
 <metadata>
  <rdf:RDF xmlns:dc="http://purl.org/dc/elements/1.1/" xmlns:cc="http://creativecommons.org/ns#" xmlns:rdf="http://www.w3.org/1999/02/22-rdf-syntax-ns#">
   <cc:Work>
    <dc:type rdf:resource="http://purl.org/dc/dcmitype/StillImage"/>
    <dc:date>2024-12-02T23:44:30.472847</dc:date>
    <dc:format>image/svg+xml</dc:format>
    <dc:creator>
     <cc:Agent>
      <dc:title>Matplotlib v3.8.1, https://matplotlib.org/</dc:title>
     </cc:Agent>
    </dc:creator>
   </cc:Work>
  </rdf:RDF>
 </metadata>
 <defs>
  <style type="text/css">*{stroke-linejoin: round; stroke-linecap: butt}</style>
 </defs>
 <g id="figure_1">
  <g id="patch_1">
   <path d="M 0 576 
L 720 576 
L 720 0 
L 0 0 
z
" style="fill: #ffffff"/>
  </g>
  <g id="axes_1">
   <g id="patch_2">
    <path d="M 90 512.64 
L 648 512.64 
L 648 69.12 
L 90 69.12 
z
" style="fill: #ffffff"/>
   </g>
   <g id="PathCollection_1">
    <defs>
     <path id="m68cf09b1a4" d="M 0 3 
C 0.795609 3 1.55874 2.683901 2.12132 2.12132 
C 2.683901 1.55874 3 0.795609 3 0 
C 3 -0.795609 2.683901 -1.55874 2.12132 -2.12132 
C 1.55874 -2.683901 0.795609 -3 0 -3 
C -0.795609 -3 -1.55874 -2.683901 -2.12132 -2.12132 
C -2.683901 -1.55874 -3 -0.795609 -3 0 
C -3 0.795609 -2.683901 1.55874 -2.12132 2.12132 
C -1.55874 2.683901 -0.795609 3 0 3 
z
" style="stroke: #0000ff"/>
    </defs>
    <g clip-path="url(#pfb6e071299)">
     <use xlink:href="#m68cf09b1a4" x="447.12" y="397.495385" style="fill: #0000ff; stroke: #0000ff"/>
     <use xlink:href="#m68cf09b1a4" x="429.264" y="468.543877" style="fill: #0000ff; stroke: #0000ff"/>
     <use xlink:href="#m68cf09b1a4" x="353.376" y="454.385354" style="fill: #0000ff; stroke: #0000ff"/>
     <use xlink:href="#m68cf09b1a4" x="497.34" y="461.464615" style="fill: #0000ff; stroke: #0000ff"/>
     <use xlink:href="#m68cf09b1a4" x="392.436" y="322.864615" style="fill: #0000ff; stroke: #0000ff"/>
     <use xlink:href="#m68cf09b1a4" x="416.988" y="411.7392" style="fill: #0000ff; stroke: #0000ff"/>
     <use xlink:href="#m68cf09b1a4" x="406.944" y="493.449231" style="fill: #0000ff; stroke: #0000ff"/>
     <use xlink:href="#m68cf09b1a4" x="478.368" y="479.205415" style="fill: #0000ff; stroke: #0000ff"/>
     <use xlink:href="#m68cf09b1a4" x="366.768" y="500.528492" style="fill: #0000ff; stroke: #0000ff"/>
     <use xlink:href="#m68cf09b1a4" x="375.696" y="276.636185" style="fill: #0000ff; stroke: #0000ff"/>
     <use xlink:href="#m68cf09b1a4" x="425.916" y="486.369969" style="fill: #0000ff; stroke: #0000ff"/>
     <use xlink:href="#m68cf09b1a4" x="338.868" y="465.046892" style="fill: #0000ff; stroke: #0000ff"/>
     <use xlink:href="#m68cf09b1a4" x="452.7" y="500.528492" style="fill: #0000ff; stroke: #0000ff"/>
     <use xlink:href="#m68cf09b1a4" x="310.968" y="447.2208" style="fill: #0000ff; stroke: #0000ff"/>
     <use xlink:href="#m68cf09b1a4" x="291.996" y="504.110769" style="fill: #0000ff; stroke: #0000ff"/>
     <use xlink:href="#m68cf09b1a4" x="471.672" y="280.218462" style="fill: #0000ff; stroke: #0000ff"/>
     <use xlink:href="#m68cf09b1a4" x="419.22" y="312.203077" style="fill: #0000ff; stroke: #0000ff"/>
     <use xlink:href="#m68cf09b1a4" x="554.256" y="319.282338" style="fill: #0000ff; stroke: #0000ff"/>
     <use xlink:href="#m68cf09b1a4" x="517.428" y="457.882338" style="fill: #0000ff; stroke: #0000ff"/>
     <use xlink:href="#m68cf09b1a4" x="479.484" y="454.385354" style="fill: #0000ff; stroke: #0000ff"/>
     <use xlink:href="#m68cf09b1a4" x="283.068" y="440.141538" style="fill: #0000ff; stroke: #0000ff"/>
     <use xlink:href="#m68cf09b1a4" x="466.092" y="461.464615" style="fill: #0000ff; stroke: #0000ff"/>
     <use xlink:href="#m68cf09b1a4" x="389.088" y="475.708431" style="fill: #0000ff; stroke: #0000ff"/>
     <use xlink:href="#m68cf09b1a4" x="403.596" y="365.510769" style="fill: #0000ff; stroke: #0000ff"/>
     <use xlink:href="#m68cf09b1a4" x="354.492" y="497.031508" style="fill: #0000ff; stroke: #0000ff"/>
     <use xlink:href="#m68cf09b1a4" x="409.176" y="472.126154" style="fill: #0000ff; stroke: #0000ff"/>
     <use xlink:href="#m68cf09b1a4" x="456.048" y="386.833846" style="fill: #0000ff; stroke: #0000ff"/>
     <use xlink:href="#m68cf09b1a4" x="231.732" y="465.046892" style="fill: #0000ff; stroke: #0000ff"/>
     <use xlink:href="#m68cf09b1a4" x="316.548" y="504.110769" style="fill: #0000ff; stroke: #0000ff"/>
     <use xlink:href="#m68cf09b1a4" x="331.056" y="397.495385" style="fill: #0000ff; stroke: #0000ff"/>
     <use xlink:href="#m68cf09b1a4" x="156.96" y="404.574646" style="fill: #0000ff; stroke: #0000ff"/>
     <use xlink:href="#m68cf09b1a4" x="343.332" y="393.913108" style="fill: #0000ff; stroke: #0000ff"/>
     <use xlink:href="#m68cf09b1a4" x="284.184" y="504.110769" style="fill: #0000ff; stroke: #0000ff"/>
     <use xlink:href="#m68cf09b1a4" x="352.26" y="418.818462" style="fill: #0000ff; stroke: #0000ff"/>
     <use xlink:href="#m68cf09b1a4" x="473.904" y="411.7392" style="fill: #0000ff; stroke: #0000ff"/>
     <use xlink:href="#m68cf09b1a4" x="414.756" y="248.233846" style="fill: #0000ff; stroke: #0000ff"/>
     <use xlink:href="#m68cf09b1a4" x="240.66" y="415.236185" style="fill: #0000ff; stroke: #0000ff"/>
     <use xlink:href="#m68cf09b1a4" x="386.856" y="468.543877" style="fill: #0000ff; stroke: #0000ff"/>
     <use xlink:href="#m68cf09b1a4" x="347.796" y="504.110769" style="fill: #0000ff; stroke: #0000ff"/>
     <use xlink:href="#m68cf09b1a4" x="384.624" y="457.882338" style="fill: #0000ff; stroke: #0000ff"/>
     <use xlink:href="#m68cf09b1a4" x="338.868" y="297.959262" style="fill: #0000ff; stroke: #0000ff"/>
     <use xlink:href="#m68cf09b1a4" x="353.376" y="383.251569" style="fill: #0000ff; stroke: #0000ff"/>
     <use xlink:href="#m68cf09b1a4" x="357.84" y="504.110769" style="fill: #0000ff; stroke: #0000ff"/>
     <use xlink:href="#m68cf09b1a4" x="374.58" y="390.416123" style="fill: #0000ff; stroke: #0000ff"/>
     <use xlink:href="#m68cf09b1a4" x="307.62" y="479.205415" style="fill: #0000ff; stroke: #0000ff"/>
     <use xlink:href="#m68cf09b1a4" x="396.9" y="433.062277" style="fill: #0000ff; stroke: #0000ff"/>
     <use xlink:href="#m68cf09b1a4" x="183.744" y="504.110769" style="fill: #0000ff; stroke: #0000ff"/>
     <use xlink:href="#m68cf09b1a4" x="271.908" y="497.031508" style="fill: #0000ff; stroke: #0000ff"/>
    </g>
   </g>
   <g id="PathCollection_2">
    <defs>
     <path id="m4a174301c9" d="M 0 3 
C 0.795609 3 1.55874 2.683901 2.12132 2.12132 
C 2.683901 1.55874 3 0.795609 3 0 
C 3 -0.795609 2.683901 -1.55874 2.12132 -2.12132 
C 1.55874 -2.683901 0.795609 -3 0 -3 
C -0.795609 -3 -1.55874 -2.683901 -2.12132 -2.12132 
C -2.683901 -1.55874 -3 -0.795609 -3 0 
C -3 0.795609 -2.683901 1.55874 -2.12132 2.12132 
C -1.55874 2.683901 -0.795609 3 0 3 
z
" style="stroke: #008000"/>
    </defs>
    <g clip-path="url(#pfb6e071299)">
     <use xlink:href="#m4a174301c9" x="358.956" y="443.723815" style="fill: #008000; stroke: #008000"/>
     <use xlink:href="#m4a174301c9" x="367.884" y="429.48" style="fill: #008000; stroke: #008000"/>
     <use xlink:href="#m4a174301c9" x="511.848" y="500.528492" style="fill: #008000; stroke: #008000"/>
     <use xlink:href="#m4a174301c9" x="525.24" y="504.110769" style="fill: #008000; stroke: #008000"/>
     <use xlink:href="#m4a174301c9" x="377.928" y="372.590031" style="fill: #008000; stroke: #008000"/>
     <use xlink:href="#m4a174301c9" x="454.932" y="372.590031" style="fill: #008000; stroke: #008000"/>
     <use xlink:href="#m4a174301c9" x="329.94" y="386.833846" style="fill: #008000; stroke: #008000"/>
     <use xlink:href="#m4a174301c9" x="390.204" y="479.205415" style="fill: #008000; stroke: #008000"/>
     <use xlink:href="#m4a174301c9" x="418.104" y="450.803077" style="fill: #008000; stroke: #008000"/>
     <use xlink:href="#m4a174301c9" x="493.992" y="361.928492" style="fill: #008000; stroke: #008000"/>
     <use xlink:href="#m4a174301c9" x="396.9" y="489.866954" style="fill: #008000; stroke: #008000"/>
     <use xlink:href="#m4a174301c9" x="504.036" y="486.369969" style="fill: #008000; stroke: #008000"/>
     <use xlink:href="#m4a174301c9" x="450.468" y="372.590031" style="fill: #008000; stroke: #008000"/>
     <use xlink:href="#m4a174301c9" x="386.856" y="447.2208" style="fill: #008000; stroke: #008000"/>
     <use xlink:href="#m4a174301c9" x="523.008" y="443.723815" style="fill: #008000; stroke: #008000"/>
     <use xlink:href="#m4a174301c9" x="511.848" y="408.156923" style="fill: #008000; stroke: #008000"/>
     <use xlink:href="#m4a174301c9" x="384.624" y="504.110769" style="fill: #008000; stroke: #008000"/>
     <use xlink:href="#m4a174301c9" x="295.344" y="411.7392" style="fill: #008000; stroke: #008000"/>
     <use xlink:href="#m4a174301c9" x="351.144" y="440.141538" style="fill: #008000; stroke: #008000"/>
     <use xlink:href="#m4a174301c9" x="433.728" y="390.416123" style="fill: #008000; stroke: #008000"/>
     <use xlink:href="#m4a174301c9" x="427.032" y="344.187692" style="fill: #008000; stroke: #008000"/>
     <use xlink:href="#m4a174301c9" x="448.236" y="447.2208" style="fill: #008000; stroke: #008000"/>
     <use xlink:href="#m4a174301c9" x="332.172" y="418.818462" style="fill: #008000; stroke: #008000"/>
     <use xlink:href="#m4a174301c9" x="357.84" y="465.046892" style="fill: #008000; stroke: #008000"/>
     <use xlink:href="#m4a174301c9" x="439.308" y="454.385354" style="fill: #008000; stroke: #008000"/>
     <use xlink:href="#m4a174301c9" x="560.952" y="358.431508" style="fill: #008000; stroke: #008000"/>
     <use xlink:href="#m4a174301c9" x="491.76" y="216.249231" style="fill: #008000; stroke: #008000"/>
     <use xlink:href="#m4a174301c9" x="369" y="465.046892" style="fill: #008000; stroke: #008000"/>
     <use xlink:href="#m4a174301c9" x="353.376" y="401.077662" style="fill: #008000; stroke: #008000"/>
     <use xlink:href="#m4a174301c9" x="317.664" y="475.708431" style="fill: #008000; stroke: #008000"/>
     <use xlink:href="#m4a174301c9" x="473.904" y="425.897723" style="fill: #008000; stroke: #008000"/>
     <use xlink:href="#m4a174301c9" x="277.488" y="418.818462" style="fill: #008000; stroke: #008000"/>
     <use xlink:href="#m4a174301c9" x="558.72" y="504.110769" style="fill: #008000; stroke: #008000"/>
     <use xlink:href="#m4a174301c9" x="490.644" y="461.464615" style="fill: #008000; stroke: #008000"/>
     <use xlink:href="#m4a174301c9" x="265.212" y="401.077662" style="fill: #008000; stroke: #008000"/>
     <use xlink:href="#m4a174301c9" x="501.804" y="223.328492" style="fill: #008000; stroke: #008000"/>
     <use xlink:href="#m4a174301c9" x="508.5" y="479.205415" style="fill: #008000; stroke: #008000"/>
     <use xlink:href="#m4a174301c9" x="508.5" y="497.031508" style="fill: #008000; stroke: #008000"/>
     <use xlink:href="#m4a174301c9" x="548.676" y="461.464615" style="fill: #008000; stroke: #008000"/>
     <use xlink:href="#m4a174301c9" x="419.22" y="475.708431" style="fill: #008000; stroke: #008000"/>
     <use xlink:href="#m4a174301c9" x="432.612" y="497.031508" style="fill: #008000; stroke: #008000"/>
     <use xlink:href="#m4a174301c9" x="466.092" y="504.110769" style="fill: #008000; stroke: #008000"/>
     <use xlink:href="#m4a174301c9" x="395.784" y="404.574646" style="fill: #008000; stroke: #008000"/>
     <use xlink:href="#m4a174301c9" x="296.46" y="468.543877" style="fill: #008000; stroke: #008000"/>
     <use xlink:href="#m4a174301c9" x="105.624" y="319.282338" style="fill: #008000; stroke: #008000"/>
    </g>
   </g>
   <g id="matplotlib.axis_1">
    <g id="xtick_1">
     <g id="line2d_1">
      <defs>
       <path id="m3e5a7873fc" d="M 0 0 
L 0 3.5 
" style="stroke: #000000; stroke-width: 0.8"/>
      </defs>
      <g>
       <use xlink:href="#m3e5a7873fc" x="90" y="512.64" style="stroke: #000000; stroke-width: 0.8"/>
      </g>
     </g>
     <g id="text_1">
      <!-- 0.3 -->
      <g transform="translate(74.096875 534.836875) scale(0.2 -0.2)">
       <defs>
        <path id="DejaVuSans-30" d="M 2034 4250 
Q 1547 4250 1301 3770 
Q 1056 3291 1056 2328 
Q 1056 1369 1301 889 
Q 1547 409 2034 409 
Q 2525 409 2770 889 
Q 3016 1369 3016 2328 
Q 3016 3291 2770 3770 
Q 2525 4250 2034 4250 
z
M 2034 4750 
Q 2819 4750 3233 4129 
Q 3647 3509 3647 2328 
Q 3647 1150 3233 529 
Q 2819 -91 2034 -91 
Q 1250 -91 836 529 
Q 422 1150 422 2328 
Q 422 3509 836 4129 
Q 1250 4750 2034 4750 
z
" transform="scale(0.015625)"/>
        <path id="DejaVuSans-2e" d="M 684 794 
L 1344 794 
L 1344 0 
L 684 0 
L 684 794 
z
" transform="scale(0.015625)"/>
        <path id="DejaVuSans-33" d="M 2597 2516 
Q 3050 2419 3304 2112 
Q 3559 1806 3559 1356 
Q 3559 666 3084 287 
Q 2609 -91 1734 -91 
Q 1441 -91 1130 -33 
Q 819 25 488 141 
L 488 750 
Q 750 597 1062 519 
Q 1375 441 1716 441 
Q 2309 441 2620 675 
Q 2931 909 2931 1356 
Q 2931 1769 2642 2001 
Q 2353 2234 1838 2234 
L 1294 2234 
L 1294 2753 
L 1863 2753 
Q 2328 2753 2575 2939 
Q 2822 3125 2822 3475 
Q 2822 3834 2567 4026 
Q 2313 4219 1838 4219 
Q 1578 4219 1281 4162 
Q 984 4106 628 3988 
L 628 4550 
Q 988 4650 1302 4700 
Q 1616 4750 1894 4750 
Q 2613 4750 3031 4423 
Q 3450 4097 3450 3541 
Q 3450 3153 3228 2886 
Q 3006 2619 2597 2516 
z
" transform="scale(0.015625)"/>
       </defs>
       <use xlink:href="#DejaVuSans-30"/>
       <use xlink:href="#DejaVuSans-2e" x="63.623047"/>
       <use xlink:href="#DejaVuSans-33" x="95.410156"/>
      </g>
     </g>
    </g>
    <g id="xtick_2">
     <g id="line2d_2">
      <g>
       <use xlink:href="#m3e5a7873fc" x="201.6" y="512.64" style="stroke: #000000; stroke-width: 0.8"/>
      </g>
     </g>
     <g id="text_2">
      <!-- 0.4 -->
      <g transform="translate(185.696875 534.836875) scale(0.2 -0.2)">
       <defs>
        <path id="DejaVuSans-34" d="M 2419 4116 
L 825 1625 
L 2419 1625 
L 2419 4116 
z
M 2253 4666 
L 3047 4666 
L 3047 1625 
L 3713 1625 
L 3713 1100 
L 3047 1100 
L 3047 0 
L 2419 0 
L 2419 1100 
L 313 1100 
L 313 1709 
L 2253 4666 
z
" transform="scale(0.015625)"/>
       </defs>
       <use xlink:href="#DejaVuSans-30"/>
       <use xlink:href="#DejaVuSans-2e" x="63.623047"/>
       <use xlink:href="#DejaVuSans-34" x="95.410156"/>
      </g>
     </g>
    </g>
    <g id="xtick_3">
     <g id="line2d_3">
      <g>
       <use xlink:href="#m3e5a7873fc" x="313.2" y="512.64" style="stroke: #000000; stroke-width: 0.8"/>
      </g>
     </g>
     <g id="text_3">
      <!-- 0.5 -->
      <g transform="translate(297.296875 534.836875) scale(0.2 -0.2)">
       <defs>
        <path id="DejaVuSans-35" d="M 691 4666 
L 3169 4666 
L 3169 4134 
L 1269 4134 
L 1269 2991 
Q 1406 3038 1543 3061 
Q 1681 3084 1819 3084 
Q 2600 3084 3056 2656 
Q 3513 2228 3513 1497 
Q 3513 744 3044 326 
Q 2575 -91 1722 -91 
Q 1428 -91 1123 -41 
Q 819 9 494 109 
L 494 744 
Q 775 591 1075 516 
Q 1375 441 1709 441 
Q 2250 441 2565 725 
Q 2881 1009 2881 1497 
Q 2881 1984 2565 2268 
Q 2250 2553 1709 2553 
Q 1456 2553 1204 2497 
Q 953 2441 691 2322 
L 691 4666 
z
" transform="scale(0.015625)"/>
       </defs>
       <use xlink:href="#DejaVuSans-30"/>
       <use xlink:href="#DejaVuSans-2e" x="63.623047"/>
       <use xlink:href="#DejaVuSans-35" x="95.410156"/>
      </g>
     </g>
    </g>
    <g id="xtick_4">
     <g id="line2d_4">
      <g>
       <use xlink:href="#m3e5a7873fc" x="424.8" y="512.64" style="stroke: #000000; stroke-width: 0.8"/>
      </g>
     </g>
     <g id="text_4">
      <!-- 0.6 -->
      <g transform="translate(408.896875 534.836875) scale(0.2 -0.2)">
       <defs>
        <path id="DejaVuSans-36" d="M 2113 2584 
Q 1688 2584 1439 2293 
Q 1191 2003 1191 1497 
Q 1191 994 1439 701 
Q 1688 409 2113 409 
Q 2538 409 2786 701 
Q 3034 994 3034 1497 
Q 3034 2003 2786 2293 
Q 2538 2584 2113 2584 
z
M 3366 4563 
L 3366 3988 
Q 3128 4100 2886 4159 
Q 2644 4219 2406 4219 
Q 1781 4219 1451 3797 
Q 1122 3375 1075 2522 
Q 1259 2794 1537 2939 
Q 1816 3084 2150 3084 
Q 2853 3084 3261 2657 
Q 3669 2231 3669 1497 
Q 3669 778 3244 343 
Q 2819 -91 2113 -91 
Q 1303 -91 875 529 
Q 447 1150 447 2328 
Q 447 3434 972 4092 
Q 1497 4750 2381 4750 
Q 2619 4750 2861 4703 
Q 3103 4656 3366 4563 
z
" transform="scale(0.015625)"/>
       </defs>
       <use xlink:href="#DejaVuSans-30"/>
       <use xlink:href="#DejaVuSans-2e" x="63.623047"/>
       <use xlink:href="#DejaVuSans-36" x="95.410156"/>
      </g>
     </g>
    </g>
    <g id="xtick_5">
     <g id="line2d_5">
      <g>
       <use xlink:href="#m3e5a7873fc" x="536.4" y="512.64" style="stroke: #000000; stroke-width: 0.8"/>
      </g>
     </g>
     <g id="text_5">
      <!-- 0.7 -->
      <g transform="translate(520.496875 534.836875) scale(0.2 -0.2)">
       <defs>
        <path id="DejaVuSans-37" d="M 525 4666 
L 3525 4666 
L 3525 4397 
L 1831 0 
L 1172 0 
L 2766 4134 
L 525 4134 
L 525 4666 
z
" transform="scale(0.015625)"/>
       </defs>
       <use xlink:href="#DejaVuSans-30"/>
       <use xlink:href="#DejaVuSans-2e" x="63.623047"/>
       <use xlink:href="#DejaVuSans-37" x="95.410156"/>
      </g>
     </g>
    </g>
    <g id="xtick_6">
     <g id="line2d_6">
      <g>
       <use xlink:href="#m3e5a7873fc" x="648" y="512.64" style="stroke: #000000; stroke-width: 0.8"/>
      </g>
     </g>
     <g id="text_6">
      <!-- 0.8 -->
      <g transform="translate(632.096875 534.836875) scale(0.2 -0.2)">
       <defs>
        <path id="DejaVuSans-38" d="M 2034 2216 
Q 1584 2216 1326 1975 
Q 1069 1734 1069 1313 
Q 1069 891 1326 650 
Q 1584 409 2034 409 
Q 2484 409 2743 651 
Q 3003 894 3003 1313 
Q 3003 1734 2745 1975 
Q 2488 2216 2034 2216 
z
M 1403 2484 
Q 997 2584 770 2862 
Q 544 3141 544 3541 
Q 544 4100 942 4425 
Q 1341 4750 2034 4750 
Q 2731 4750 3128 4425 
Q 3525 4100 3525 3541 
Q 3525 3141 3298 2862 
Q 3072 2584 2669 2484 
Q 3125 2378 3379 2068 
Q 3634 1759 3634 1313 
Q 3634 634 3220 271 
Q 2806 -91 2034 -91 
Q 1263 -91 848 271 
Q 434 634 434 1313 
Q 434 1759 690 2068 
Q 947 2378 1403 2484 
z
M 1172 3481 
Q 1172 3119 1398 2916 
Q 1625 2713 2034 2713 
Q 2441 2713 2670 2916 
Q 2900 3119 2900 3481 
Q 2900 3844 2670 4047 
Q 2441 4250 2034 4250 
Q 1625 4250 1398 4047 
Q 1172 3844 1172 3481 
z
" transform="scale(0.015625)"/>
       </defs>
       <use xlink:href="#DejaVuSans-30"/>
       <use xlink:href="#DejaVuSans-2e" x="63.623047"/>
       <use xlink:href="#DejaVuSans-38" x="95.410156"/>
      </g>
     </g>
    </g>
   </g>
   <g id="matplotlib.axis_2">
    <g id="ytick_1">
     <g id="line2d_7">
      <defs>
       <path id="m5c379cfc25" d="M 0 0 
L -3.5 0 
" style="stroke: #000000; stroke-width: 0.8"/>
      </defs>
      <g>
       <use xlink:href="#m5c379cfc25" x="90" y="504.110769" style="stroke: #000000; stroke-width: 0.8"/>
      </g>
     </g>
     <g id="text_7">
      <!-- 1 -->
      <g transform="translate(70.275 511.709207) scale(0.2 -0.2)">
       <defs>
        <path id="DejaVuSans-31" d="M 794 531 
L 1825 531 
L 1825 4091 
L 703 3866 
L 703 4441 
L 1819 4666 
L 2450 4666 
L 2450 531 
L 3481 531 
L 3481 0 
L 794 0 
L 794 531 
z
" transform="scale(0.015625)"/>
       </defs>
       <use xlink:href="#DejaVuSans-31"/>
      </g>
     </g>
    </g>
    <g id="ytick_2">
     <g id="line2d_8">
      <g>
       <use xlink:href="#m5c379cfc25" x="90" y="418.818462" style="stroke: #000000; stroke-width: 0.8"/>
      </g>
     </g>
     <g id="text_8">
      <!-- 2 -->
      <g transform="translate(70.275 426.416899) scale(0.2 -0.2)">
       <defs>
        <path id="DejaVuSans-32" d="M 1228 531 
L 3431 531 
L 3431 0 
L 469 0 
L 469 531 
Q 828 903 1448 1529 
Q 2069 2156 2228 2338 
Q 2531 2678 2651 2914 
Q 2772 3150 2772 3378 
Q 2772 3750 2511 3984 
Q 2250 4219 1831 4219 
Q 1534 4219 1204 4116 
Q 875 4013 500 3803 
L 500 4441 
Q 881 4594 1212 4672 
Q 1544 4750 1819 4750 
Q 2544 4750 2975 4387 
Q 3406 4025 3406 3419 
Q 3406 3131 3298 2873 
Q 3191 2616 2906 2266 
Q 2828 2175 2409 1742 
Q 1991 1309 1228 531 
z
" transform="scale(0.015625)"/>
       </defs>
       <use xlink:href="#DejaVuSans-32"/>
      </g>
     </g>
    </g>
    <g id="ytick_3">
     <g id="line2d_9">
      <g>
       <use xlink:href="#m5c379cfc25" x="90" y="333.526154" style="stroke: #000000; stroke-width: 0.8"/>
      </g>
     </g>
     <g id="text_9">
      <!-- 3 -->
      <g transform="translate(70.275 341.124591) scale(0.2 -0.2)">
       <use xlink:href="#DejaVuSans-33"/>
      </g>
     </g>
    </g>
    <g id="ytick_4">
     <g id="line2d_10">
      <g>
       <use xlink:href="#m5c379cfc25" x="90" y="248.233846" style="stroke: #000000; stroke-width: 0.8"/>
      </g>
     </g>
     <g id="text_10">
      <!-- 4 -->
      <g transform="translate(70.275 255.832284) scale(0.2 -0.2)">
       <use xlink:href="#DejaVuSans-34"/>
      </g>
     </g>
    </g>
    <g id="ytick_5">
     <g id="line2d_11">
      <g>
       <use xlink:href="#m5c379cfc25" x="90" y="162.941538" style="stroke: #000000; stroke-width: 0.8"/>
      </g>
     </g>
     <g id="text_11">
      <!-- 5 -->
      <g transform="translate(70.275 170.539976) scale(0.2 -0.2)">
       <use xlink:href="#DejaVuSans-35"/>
      </g>
     </g>
    </g>
    <g id="ytick_6">
     <g id="line2d_12">
      <g>
       <use xlink:href="#m5c379cfc25" x="90" y="77.649231" style="stroke: #000000; stroke-width: 0.8"/>
      </g>
     </g>
     <g id="text_12">
      <!-- 6 -->
      <g transform="translate(70.275 85.247668) scale(0.2 -0.2)">
       <use xlink:href="#DejaVuSans-36"/>
      </g>
     </g>
    </g>
   </g>
   <g id="line2d_13">
    <path d="M 447.12 429.108617 
L 429.264 431.865584 
L 353.376 443.582693 
L 497.34 421.354647 
L 392.436 437.551828 
L 416.988 433.760999 
L 406.944 435.311792 
L 478.368 424.283925 
L 366.768 441.514968 
L 375.696 440.136485 
L 425.916 432.382515 
L 338.868 445.822729 
L 452.7 428.247065 
L 310.968 450.13049 
L 291.996 453.059767 
L 471.672 425.317787 
L 419.22 433.416378 
L 554.256 412.566815 
L 517.428 418.25306 
L 479.484 424.111614 
L 283.068 454.43825 
L 466.092 426.17934 
L 389.088 438.068759 
L 403.596 435.828724 
L 354.492 443.410383 
L 409.176 434.967172 
L 456.048 427.730133 
L 231.732 462.36453 
L 316.548 449.268937 
L 331.056 447.028902 
L 156.96 473.909329 
L 343.332 445.133487 
L 284.184 454.26594 
L 352.26 443.755004 
L 473.904 424.973166 
L 414.756 434.105619 
L 240.66 460.986047 
L 386.856 438.41338 
L 347.796 444.444245 
L 384.624 438.758001 
L 338.868 445.822729 
L 353.376 443.582693 
L 357.84 442.893451 
L 374.58 440.308795 
L 307.62 450.647421 
L 396.9 436.862586 
L 183.744 469.773879 
L 271.908 456.161355 
" clip-path="url(#pfb6e071299)" style="fill: none; stroke: #0000ff; stroke-width: 1.5; stroke-linecap: square"/>
   </g>
   <g id="line2d_14">
    <path d="M 358.956 429.371817 
L 367.884 430.950984 
L 511.848 456.415056 
L 525.24 458.783807 
L 377.928 432.727547 
L 454.932 446.347865 
L 329.94 424.239523 
L 390.204 434.898902 
L 418.104 439.8338 
L 493.992 453.256721 
L 396.9 436.083277 
L 504.036 455.033285 
L 450.468 445.558281 
L 386.856 434.306714 
L 523.008 458.389015 
L 511.848 456.415056 
L 384.624 433.911922 
L 295.344 418.12025 
L 351.144 427.990045 
L 433.728 442.597342 
L 427.032 441.412967 
L 448.236 445.163489 
L 332.172 424.634315 
L 357.84 429.174421 
L 439.308 443.584322 
L 560.952 465.100476 
L 491.76 452.86193 
L 369 431.14838 
L 353.376 428.384837 
L 317.664 422.068168 
L 473.904 449.703595 
L 277.488 414.961915 
L 558.72 464.705684 
L 490.644 452.664534 
L 265.212 412.79056 
L 501.804 454.638493 
L 508.5 455.822868 
L 508.5 455.822868 
L 548.676 462.929121 
L 419.22 440.031196 
L 432.612 442.399947 
L 466.092 448.321824 
L 395.784 435.885882 
L 296.46 418.317646 
L 105.624 384.562945 
" clip-path="url(#pfb6e071299)" style="fill: none; stroke: #008000; stroke-width: 1.5; stroke-linecap: square"/>
   </g>
   <g id="patch_3">
    <path d="M 90 512.64 
L 90 69.12 
" style="fill: none; stroke: #000000; stroke-width: 0.8; stroke-linejoin: miter; stroke-linecap: square"/>
   </g>
   <g id="patch_4">
    <path d="M 648 512.64 
L 648 69.12 
" style="fill: none; stroke: #000000; stroke-width: 0.8; stroke-linejoin: miter; stroke-linecap: square"/>
   </g>
   <g id="patch_5">
    <path d="M 90 512.64 
L 648 512.64 
" style="fill: none; stroke: #000000; stroke-width: 0.8; stroke-linejoin: miter; stroke-linecap: square"/>
   </g>
   <g id="patch_6">
    <path d="M 90 69.12 
L 648 69.12 
" style="fill: none; stroke: #000000; stroke-width: 0.8; stroke-linejoin: miter; stroke-linecap: square"/>
   </g>
  </g>
 </g>
 <defs>
  <clipPath id="pfb6e071299">
   <rect x="90" y="69.12" width="558" height="443.52"/>
  </clipPath>
 </defs>
</svg>
