<?xml version="1.0" encoding="utf-8" standalone="no"?>
<!DOCTYPE svg PUBLIC "-//W3C//DTD SVG 1.1//EN"
  "http://www.w3.org/Graphics/SVG/1.1/DTD/svg11.dtd">
<svg xmlns:xlink="http://www.w3.org/1999/xlink" width="720pt" height="576pt" viewBox="0 0 720 576" xmlns="http://www.w3.org/2000/svg" version="1.1">
 <metadata>
  <rdf:RDF xmlns:dc="http://purl.org/dc/elements/1.1/" xmlns:cc="http://creativecommons.org/ns#" xmlns:rdf="http://www.w3.org/1999/02/22-rdf-syntax-ns#">
   <cc:Work>
    <dc:type rdf:resource="http://purl.org/dc/dcmitype/StillImage"/>
    <dc:date>2024-12-04T04:14:54.029244</dc:date>
    <dc:format>image/svg+xml</dc:format>
    <dc:creator>
     <cc:Agent>
      <dc:title>Matplotlib v3.8.1, https://matplotlib.org/</dc:title>
     </cc:Agent>
    </dc:creator>
   </cc:Work>
  </rdf:RDF>
 </metadata>
 <defs>
  <style type="text/css">*{stroke-linejoin: round; stroke-linecap: butt}</style>
 </defs>
 <g id="figure_1">
  <g id="patch_1">
   <path d="M 0 576 
L 720 576 
L 720 0 
L 0 0 
z
" style="fill: #ffffff"/>
  </g>
  <g id="axes_1">
   <g id="patch_2">
    <path d="M 90 512.64 
L 648 512.64 
L 648 69.12 
L 90 69.12 
z
" style="fill: #ffffff"/>
   </g>
   <g id="PathCollection_1">
    <defs>
     <path id="m47325fd505" d="M 0 3 
C 0.795609 3 1.55874 2.683901 2.12132 2.12132 
C 2.683901 1.55874 3 0.795609 3 0 
C 3 -0.795609 2.683901 -1.55874 2.12132 -2.12132 
C 1.55874 -2.683901 0.795609 -3 0 -3 
C -0.795609 -3 -1.55874 -2.683901 -2.12132 -2.12132 
C -2.683901 -1.55874 -3 -0.795609 -3 0 
C -3 0.795609 -2.683901 1.55874 -2.12132 2.12132 
C -1.55874 2.683901 -0.795609 3 0 3 
z
" style="stroke: #0000ff"/>
    </defs>
    <g clip-path="url(#p40135cea41)">
     <use xlink:href="#m47325fd505" x="583.2" y="219.831508" style="fill: #0000ff; stroke: #0000ff"/>
     <use xlink:href="#m47325fd505" x="447.889655" y="191.343877" style="fill: #0000ff; stroke: #0000ff"/>
     <use xlink:href="#m47325fd505" x="12.738462" y="191.343877" style="fill: #0000ff; stroke: #0000ff"/>
     <use xlink:href="#m47325fd505" x="692.64" y="248.233846" style="fill: #0000ff; stroke: #0000ff"/>
     <use xlink:href="#m47325fd505" x="536.4" y="447.2208" style="fill: #0000ff; stroke: #0000ff"/>
     <use xlink:href="#m47325fd505" x="353.057143" y="276.636185" style="fill: #0000ff; stroke: #0000ff"/>
     <use xlink:href="#m47325fd505" x="533.018182" y="162.941538" style="fill: #0000ff; stroke: #0000ff"/>
     <use xlink:href="#m47325fd505" x="339.771429" y="219.831508" style="fill: #0000ff; stroke: #0000ff"/>
     <use xlink:href="#m47325fd505" x="871.2" y="162.941538" style="fill: #0000ff; stroke: #0000ff"/>
     <use xlink:href="#m47325fd505" x="437.2" y="248.233846" style="fill: #0000ff; stroke: #0000ff"/>
     <use xlink:href="#m47325fd505" x="382.95" y="162.941538" style="fill: #0000ff; stroke: #0000ff"/>
     <use xlink:href="#m47325fd505" x="638.7" y="162.941538" style="fill: #0000ff; stroke: #0000ff"/>
     <use xlink:href="#m47325fd505" x="385.982609" y="191.343877" style="fill: #0000ff; stroke: #0000ff"/>
     <use xlink:href="#m47325fd505" x="577.515789" y="276.636185" style="fill: #0000ff; stroke: #0000ff"/>
     <use xlink:href="#m47325fd505" x="240.417391" y="248.233846" style="fill: #0000ff; stroke: #0000ff"/>
     <use xlink:href="#m47325fd505" x="753.726316" y="333.526154" style="fill: #0000ff; stroke: #0000ff"/>
     <use xlink:href="#m47325fd505" x="512.485714" y="162.941538" style="fill: #0000ff; stroke: #0000ff"/>
     <use xlink:href="#m47325fd505" x="375.2" y="191.343877" style="fill: #0000ff; stroke: #0000ff"/>
     <use xlink:href="#m47325fd505" x="246.24" y="248.233846" style="fill: #0000ff; stroke: #0000ff"/>
     <use xlink:href="#m47325fd505" x="67.68" y="219.831508" style="fill: #0000ff; stroke: #0000ff"/>
     <use xlink:href="#m47325fd505" x="363.927273" y="305.123815" style="fill: #0000ff; stroke: #0000ff"/>
     <use xlink:href="#m47325fd505" x="313.2" y="219.831508" style="fill: #0000ff; stroke: #0000ff"/>
     <use xlink:href="#m47325fd505" x="145.8" y="248.233846" style="fill: #0000ff; stroke: #0000ff"/>
     <use xlink:href="#m47325fd505" x="511.2" y="219.831508" style="fill: #0000ff; stroke: #0000ff"/>
     <use xlink:href="#m47325fd505" x="401.305263" y="219.831508" style="fill: #0000ff; stroke: #0000ff"/>
     <use xlink:href="#m47325fd505" x="46.330435" y="475.708431" style="fill: #0000ff; stroke: #0000ff"/>
     <use xlink:href="#m47325fd505" x="608.611765" y="248.233846" style="fill: #0000ff; stroke: #0000ff"/>
     <use xlink:href="#m47325fd505" x="-1" y="164.162403" style="fill: #0000ff; stroke: #0000ff"/>
     <use xlink:href="#m47325fd505" x="-1" y="162.941538" style="fill: #0000ff; stroke: #0000ff"/>
     <use xlink:href="#m47325fd505" x="725.634783" y="162.941538" style="fill: #0000ff; stroke: #0000ff"/>
     <use xlink:href="#m47325fd505" x="280.376471" y="191.343877" style="fill: #0000ff; stroke: #0000ff"/>
     <use xlink:href="#m47325fd505" x="189.2" y="276.636185" style="fill: #0000ff; stroke: #0000ff"/>
     <use xlink:href="#m47325fd505" x="437.2" y="191.343877" style="fill: #0000ff; stroke: #0000ff"/>
     <use xlink:href="#m47325fd505" x="570.738462" y="219.831508" style="fill: #0000ff; stroke: #0000ff"/>
     <use xlink:href="#m47325fd505" x="536.4" y="333.526154" style="fill: #0000ff; stroke: #0000ff"/>
     <use xlink:href="#m47325fd505" x="163.492683" y="219.831508" style="fill: #0000ff; stroke: #0000ff"/>
     <use xlink:href="#m47325fd505" x="163.492683" y="248.233846" style="fill: #0000ff; stroke: #0000ff"/>
     <use xlink:href="#m47325fd505" x="46.330435" y="305.123815" style="fill: #0000ff; stroke: #0000ff"/>
     <use xlink:href="#m47325fd505" x="293.958621" y="276.636185" style="fill: #0000ff; stroke: #0000ff"/>
     <use xlink:href="#m47325fd505" x="189.2" y="191.343877" style="fill: #0000ff; stroke: #0000ff"/>
     <use xlink:href="#m47325fd505" x="141.507692" y="276.636185" style="fill: #0000ff; stroke: #0000ff"/>
     <use xlink:href="#m47325fd505" x="280.376471" y="248.233846" style="fill: #0000ff; stroke: #0000ff"/>
     <use xlink:href="#m47325fd505" x="117.9" y="162.941538" style="fill: #0000ff; stroke: #0000ff"/>
     <use xlink:href="#m47325fd505" x="764.914286" y="219.831508" style="fill: #0000ff; stroke: #0000ff"/>
     <use xlink:href="#m47325fd505" x="262.472727" y="219.831508" style="fill: #0000ff; stroke: #0000ff"/>
     <use xlink:href="#m47325fd505" x="350.4" y="276.636185" style="fill: #0000ff; stroke: #0000ff"/>
     <use xlink:href="#m47325fd505" x="313.2" y="162.941538" style="fill: #0000ff; stroke: #0000ff"/>
     <use xlink:href="#m47325fd505" x="350.4" y="305.123815" style="fill: #0000ff; stroke: #0000ff"/>
     <use xlink:href="#m47325fd505" x="432.771429" y="276.636185" style="fill: #0000ff; stroke: #0000ff"/>
    </g>
   </g>
   <g id="PathCollection_2">
    <defs>
     <path id="m5d723f50a9" d="M 0 3 
C 0.795609 3 1.55874 2.683901 2.12132 2.12132 
C 2.683901 1.55874 3 0.795609 3 0 
C 3 -0.795609 2.683901 -1.55874 2.12132 -2.12132 
C 1.55874 -2.683901 0.795609 -3 0 -3 
C -0.795609 -3 -1.55874 -2.683901 -2.12132 -2.12132 
C -2.683901 -1.55874 -3 -0.795609 -3 0 
C -3 0.795609 -2.683901 1.55874 -2.12132 2.12132 
C -1.55874 2.683901 -0.795609 3 0 3 
z
" style="stroke: #008000"/>
    </defs>
    <g clip-path="url(#p40135cea41)">
     <use xlink:href="#m5d723f50a9" x="-1" y="299.42343" style="fill: #008000; stroke: #008000"/>
     <use xlink:href="#m5d723f50a9" x="286.628571" y="219.831508" style="fill: #008000; stroke: #008000"/>
     <use xlink:href="#m5d723f50a9" x="434.504348" y="248.233846" style="fill: #008000; stroke: #008000"/>
     <use xlink:href="#m5d723f50a9" x="648" y="219.831508" style="fill: #008000; stroke: #008000"/>
     <use xlink:href="#m5d723f50a9" x="613.661538" y="361.928492" style="fill: #008000; stroke: #008000"/>
     <use xlink:href="#m5d723f50a9" x="769.745455" y="219.831508" style="fill: #008000; stroke: #008000"/>
     <use xlink:href="#m5d723f50a9" x="460.042105" y="333.526154" style="fill: #008000; stroke: #008000"/>
     <use xlink:href="#m5d723f50a9" x="-1" y="259.157698" style="fill: #008000; stroke: #008000"/>
     <use xlink:href="#m5d723f50a9" x="-1" y="242.691077" style="fill: #008000; stroke: #008000"/>
     <use xlink:href="#m5d723f50a9" x="361.028571" y="276.636185" style="fill: #008000; stroke: #008000"/>
     <use xlink:href="#m5d723f50a9" x="24.57931" y="248.233846" style="fill: #008000; stroke: #008000"/>
     <use xlink:href="#m5d723f50a9" x="648" y="248.233846" style="fill: #008000; stroke: #008000"/>
     <use xlink:href="#m5d723f50a9" x="181.905882" y="219.831508" style="fill: #008000; stroke: #008000"/>
     <use xlink:href="#m5d723f50a9" x="449.6" y="276.636185" style="fill: #008000; stroke: #008000"/>
     <use xlink:href="#m5d723f50a9" x="392.914286" y="248.233846" style="fill: #008000; stroke: #008000"/>
     <use xlink:href="#m5d723f50a9" x="812.463158" y="248.233846" style="fill: #008000; stroke: #008000"/>
     <use xlink:href="#m5d723f50a9" x="520.457143" y="276.636185" style="fill: #008000; stroke: #008000"/>
     <use xlink:href="#m5d723f50a9" x="339.771429" y="191.343877" style="fill: #008000; stroke: #008000"/>
     <use xlink:href="#m5d723f50a9" x="661.95" y="248.233846" style="fill: #008000; stroke: #008000"/>
     <use xlink:href="#m5d723f50a9" x="350.4" y="219.831508" style="fill: #008000; stroke: #008000"/>
     <use xlink:href="#m5d723f50a9" x="627.709091" y="191.343877" style="fill: #008000; stroke: #008000"/>
     <use xlink:href="#m5d723f50a9" x="601.82069" y="219.831508" style="fill: #008000; stroke: #008000"/>
     <use xlink:href="#m5d723f50a9" x="439.2" y="191.343877" style="fill: #008000; stroke: #008000"/>
     <use xlink:href="#m5d723f50a9" x="280.376471" y="248.233846" style="fill: #008000; stroke: #008000"/>
     <use xlink:href="#m5d723f50a9" x="161.018182" y="333.526154" style="fill: #008000; stroke: #008000"/>
     <use xlink:href="#m5d723f50a9" x="656.584615" y="305.123815" style="fill: #008000; stroke: #008000"/>
     <use xlink:href="#m5d723f50a9" x="424.8" y="248.233846" style="fill: #008000; stroke: #008000"/>
     <use xlink:href="#m5d723f50a9" x="719.018182" y="276.636185" style="fill: #008000; stroke: #008000"/>
     <use xlink:href="#m5d723f50a9" x="472.628571" y="447.2208" style="fill: #008000; stroke: #008000"/>
     <use xlink:href="#m5d723f50a9" x="668.290909" y="219.831508" style="fill: #008000; stroke: #008000"/>
     <use xlink:href="#m5d723f50a9" x="214.729412" y="248.233846" style="fill: #008000; stroke: #008000"/>
     <use xlink:href="#m5d723f50a9" x="558.72" y="219.831508" style="fill: #008000; stroke: #008000"/>
     <use xlink:href="#m5d723f50a9" x="335.52" y="191.343877" style="fill: #008000; stroke: #008000"/>
     <use xlink:href="#m5d723f50a9" x="452.7" y="219.831508" style="fill: #008000; stroke: #008000"/>
     <use xlink:href="#m5d723f50a9" x="270.276923" y="276.636185" style="fill: #008000; stroke: #008000"/>
     <use xlink:href="#m5d723f50a9" x="257.4" y="191.343877" style="fill: #008000; stroke: #008000"/>
     <use xlink:href="#m5d723f50a9" x="617.563636" y="219.831508" style="fill: #008000; stroke: #008000"/>
     <use xlink:href="#m5d723f50a9" x="605.485714" y="191.343877" style="fill: #008000; stroke: #008000"/>
     <use xlink:href="#m5d723f50a9" x="656.584615" y="276.636185" style="fill: #008000; stroke: #008000"/>
     <use xlink:href="#m5d723f50a9" x="429.011321" y="191.343877" style="fill: #008000; stroke: #008000"/>
     <use xlink:href="#m5d723f50a9" x="313.2" y="219.831508" style="fill: #008000; stroke: #008000"/>
     <use xlink:href="#m5d723f50a9" x="437.2" y="248.233846" style="fill: #008000; stroke: #008000"/>
     <use xlink:href="#m5d723f50a9" x="184.430769" y="162.941538" style="fill: #008000; stroke: #008000"/>
     <use xlink:href="#m5d723f50a9" x="168.533333" y="276.636185" style="fill: #008000; stroke: #008000"/>
     <use xlink:href="#m5d723f50a9" x="34.2" y="191.343877" style="fill: #008000; stroke: #008000"/>
     <use xlink:href="#m5d723f50a9" x="-1" y="213.901784" style="fill: #008000; stroke: #008000"/>
    </g>
   </g>
   <g id="matplotlib.axis_1">
    <g id="xtick_1">
     <g id="line2d_1">
      <defs>
       <path id="ma469e3ab6e" d="M 0 0 
L 0 3.5 
" style="stroke: #000000; stroke-width: 0.8"/>
      </defs>
      <g>
       <use xlink:href="#ma469e3ab6e" x="90" y="512.64" style="stroke: #000000; stroke-width: 0.8"/>
      </g>
     </g>
     <g id="text_1">
      <!-- 0.3 -->
      <g transform="translate(74.096875 534.836875) scale(0.2 -0.2)">
       <defs>
        <path id="DejaVuSans-30" d="M 2034 4250 
Q 1547 4250 1301 3770 
Q 1056 3291 1056 2328 
Q 1056 1369 1301 889 
Q 1547 409 2034 409 
Q 2525 409 2770 889 
Q 3016 1369 3016 2328 
Q 3016 3291 2770 3770 
Q 2525 4250 2034 4250 
z
M 2034 4750 
Q 2819 4750 3233 4129 
Q 3647 3509 3647 2328 
Q 3647 1150 3233 529 
Q 2819 -91 2034 -91 
Q 1250 -91 836 529 
Q 422 1150 422 2328 
Q 422 3509 836 4129 
Q 1250 4750 2034 4750 
z
" transform="scale(0.015625)"/>
        <path id="DejaVuSans-2e" d="M 684 794 
L 1344 794 
L 1344 0 
L 684 0 
L 684 794 
z
" transform="scale(0.015625)"/>
        <path id="DejaVuSans-33" d="M 2597 2516 
Q 3050 2419 3304 2112 
Q 3559 1806 3559 1356 
Q 3559 666 3084 287 
Q 2609 -91 1734 -91 
Q 1441 -91 1130 -33 
Q 819 25 488 141 
L 488 750 
Q 750 597 1062 519 
Q 1375 441 1716 441 
Q 2309 441 2620 675 
Q 2931 909 2931 1356 
Q 2931 1769 2642 2001 
Q 2353 2234 1838 2234 
L 1294 2234 
L 1294 2753 
L 1863 2753 
Q 2328 2753 2575 2939 
Q 2822 3125 2822 3475 
Q 2822 3834 2567 4026 
Q 2313 4219 1838 4219 
Q 1578 4219 1281 4162 
Q 984 4106 628 3988 
L 628 4550 
Q 988 4650 1302 4700 
Q 1616 4750 1894 4750 
Q 2613 4750 3031 4423 
Q 3450 4097 3450 3541 
Q 3450 3153 3228 2886 
Q 3006 2619 2597 2516 
z
" transform="scale(0.015625)"/>
       </defs>
       <use xlink:href="#DejaVuSans-30"/>
       <use xlink:href="#DejaVuSans-2e" x="63.623047"/>
       <use xlink:href="#DejaVuSans-33" x="95.410156"/>
      </g>
     </g>
    </g>
    <g id="xtick_2">
     <g id="line2d_2">
      <g>
       <use xlink:href="#ma469e3ab6e" x="201.6" y="512.64" style="stroke: #000000; stroke-width: 0.8"/>
      </g>
     </g>
     <g id="text_2">
      <!-- 0.4 -->
      <g transform="translate(185.696875 534.836875) scale(0.2 -0.2)">
       <defs>
        <path id="DejaVuSans-34" d="M 2419 4116 
L 825 1625 
L 2419 1625 
L 2419 4116 
z
M 2253 4666 
L 3047 4666 
L 3047 1625 
L 3713 1625 
L 3713 1100 
L 3047 1100 
L 3047 0 
L 2419 0 
L 2419 1100 
L 313 1100 
L 313 1709 
L 2253 4666 
z
" transform="scale(0.015625)"/>
       </defs>
       <use xlink:href="#DejaVuSans-30"/>
       <use xlink:href="#DejaVuSans-2e" x="63.623047"/>
       <use xlink:href="#DejaVuSans-34" x="95.410156"/>
      </g>
     </g>
    </g>
    <g id="xtick_3">
     <g id="line2d_3">
      <g>
       <use xlink:href="#ma469e3ab6e" x="313.2" y="512.64" style="stroke: #000000; stroke-width: 0.8"/>
      </g>
     </g>
     <g id="text_3">
      <!-- 0.5 -->
      <g transform="translate(297.296875 534.836875) scale(0.2 -0.2)">
       <defs>
        <path id="DejaVuSans-35" d="M 691 4666 
L 3169 4666 
L 3169 4134 
L 1269 4134 
L 1269 2991 
Q 1406 3038 1543 3061 
Q 1681 3084 1819 3084 
Q 2600 3084 3056 2656 
Q 3513 2228 3513 1497 
Q 3513 744 3044 326 
Q 2575 -91 1722 -91 
Q 1428 -91 1123 -41 
Q 819 9 494 109 
L 494 744 
Q 775 591 1075 516 
Q 1375 441 1709 441 
Q 2250 441 2565 725 
Q 2881 1009 2881 1497 
Q 2881 1984 2565 2268 
Q 2250 2553 1709 2553 
Q 1456 2553 1204 2497 
Q 953 2441 691 2322 
L 691 4666 
z
" transform="scale(0.015625)"/>
       </defs>
       <use xlink:href="#DejaVuSans-30"/>
       <use xlink:href="#DejaVuSans-2e" x="63.623047"/>
       <use xlink:href="#DejaVuSans-35" x="95.410156"/>
      </g>
     </g>
    </g>
    <g id="xtick_4">
     <g id="line2d_4">
      <g>
       <use xlink:href="#ma469e3ab6e" x="424.8" y="512.64" style="stroke: #000000; stroke-width: 0.8"/>
      </g>
     </g>
     <g id="text_4">
      <!-- 0.6 -->
      <g transform="translate(408.896875 534.836875) scale(0.2 -0.2)">
       <defs>
        <path id="DejaVuSans-36" d="M 2113 2584 
Q 1688 2584 1439 2293 
Q 1191 2003 1191 1497 
Q 1191 994 1439 701 
Q 1688 409 2113 409 
Q 2538 409 2786 701 
Q 3034 994 3034 1497 
Q 3034 2003 2786 2293 
Q 2538 2584 2113 2584 
z
M 3366 4563 
L 3366 3988 
Q 3128 4100 2886 4159 
Q 2644 4219 2406 4219 
Q 1781 4219 1451 3797 
Q 1122 3375 1075 2522 
Q 1259 2794 1537 2939 
Q 1816 3084 2150 3084 
Q 2853 3084 3261 2657 
Q 3669 2231 3669 1497 
Q 3669 778 3244 343 
Q 2819 -91 2113 -91 
Q 1303 -91 875 529 
Q 447 1150 447 2328 
Q 447 3434 972 4092 
Q 1497 4750 2381 4750 
Q 2619 4750 2861 4703 
Q 3103 4656 3366 4563 
z
" transform="scale(0.015625)"/>
       </defs>
       <use xlink:href="#DejaVuSans-30"/>
       <use xlink:href="#DejaVuSans-2e" x="63.623047"/>
       <use xlink:href="#DejaVuSans-36" x="95.410156"/>
      </g>
     </g>
    </g>
    <g id="xtick_5">
     <g id="line2d_5">
      <g>
       <use xlink:href="#ma469e3ab6e" x="536.4" y="512.64" style="stroke: #000000; stroke-width: 0.8"/>
      </g>
     </g>
     <g id="text_5">
      <!-- 0.7 -->
      <g transform="translate(520.496875 534.836875) scale(0.2 -0.2)">
       <defs>
        <path id="DejaVuSans-37" d="M 525 4666 
L 3525 4666 
L 3525 4397 
L 1831 0 
L 1172 0 
L 2766 4134 
L 525 4134 
L 525 4666 
z
" transform="scale(0.015625)"/>
       </defs>
       <use xlink:href="#DejaVuSans-30"/>
       <use xlink:href="#DejaVuSans-2e" x="63.623047"/>
       <use xlink:href="#DejaVuSans-37" x="95.410156"/>
      </g>
     </g>
    </g>
    <g id="xtick_6">
     <g id="line2d_6">
      <g>
       <use xlink:href="#ma469e3ab6e" x="648" y="512.64" style="stroke: #000000; stroke-width: 0.8"/>
      </g>
     </g>
     <g id="text_6">
      <!-- 0.8 -->
      <g transform="translate(632.096875 534.836875) scale(0.2 -0.2)">
       <defs>
        <path id="DejaVuSans-38" d="M 2034 2216 
Q 1584 2216 1326 1975 
Q 1069 1734 1069 1313 
Q 1069 891 1326 650 
Q 1584 409 2034 409 
Q 2484 409 2743 651 
Q 3003 894 3003 1313 
Q 3003 1734 2745 1975 
Q 2488 2216 2034 2216 
z
M 1403 2484 
Q 997 2584 770 2862 
Q 544 3141 544 3541 
Q 544 4100 942 4425 
Q 1341 4750 2034 4750 
Q 2731 4750 3128 4425 
Q 3525 4100 3525 3541 
Q 3525 3141 3298 2862 
Q 3072 2584 2669 2484 
Q 3125 2378 3379 2068 
Q 3634 1759 3634 1313 
Q 3634 634 3220 271 
Q 2806 -91 2034 -91 
Q 1263 -91 848 271 
Q 434 634 434 1313 
Q 434 1759 690 2068 
Q 947 2378 1403 2484 
z
M 1172 3481 
Q 1172 3119 1398 2916 
Q 1625 2713 2034 2713 
Q 2441 2713 2670 2916 
Q 2900 3119 2900 3481 
Q 2900 3844 2670 4047 
Q 2441 4250 2034 4250 
Q 1625 4250 1398 4047 
Q 1172 3844 1172 3481 
z
" transform="scale(0.015625)"/>
       </defs>
       <use xlink:href="#DejaVuSans-30"/>
       <use xlink:href="#DejaVuSans-2e" x="63.623047"/>
       <use xlink:href="#DejaVuSans-38" x="95.410156"/>
      </g>
     </g>
    </g>
   </g>
   <g id="matplotlib.axis_2">
    <g id="ytick_1">
     <g id="line2d_7">
      <defs>
       <path id="m053ee75c89" d="M 0 0 
L -3.5 0 
" style="stroke: #000000; stroke-width: 0.8"/>
      </defs>
      <g>
       <use xlink:href="#m053ee75c89" x="90" y="504.110769" style="stroke: #000000; stroke-width: 0.8"/>
      </g>
     </g>
     <g id="text_7">
      <!-- 1 -->
      <g transform="translate(70.275 511.709207) scale(0.2 -0.2)">
       <defs>
        <path id="DejaVuSans-31" d="M 794 531 
L 1825 531 
L 1825 4091 
L 703 3866 
L 703 4441 
L 1819 4666 
L 2450 4666 
L 2450 531 
L 3481 531 
L 3481 0 
L 794 0 
L 794 531 
z
" transform="scale(0.015625)"/>
       </defs>
       <use xlink:href="#DejaVuSans-31"/>
      </g>
     </g>
    </g>
    <g id="ytick_2">
     <g id="line2d_8">
      <g>
       <use xlink:href="#m053ee75c89" x="90" y="418.818462" style="stroke: #000000; stroke-width: 0.8"/>
      </g>
     </g>
     <g id="text_8">
      <!-- 2 -->
      <g transform="translate(70.275 426.416899) scale(0.2 -0.2)">
       <defs>
        <path id="DejaVuSans-32" d="M 1228 531 
L 3431 531 
L 3431 0 
L 469 0 
L 469 531 
Q 828 903 1448 1529 
Q 2069 2156 2228 2338 
Q 2531 2678 2651 2914 
Q 2772 3150 2772 3378 
Q 2772 3750 2511 3984 
Q 2250 4219 1831 4219 
Q 1534 4219 1204 4116 
Q 875 4013 500 3803 
L 500 4441 
Q 881 4594 1212 4672 
Q 1544 4750 1819 4750 
Q 2544 4750 2975 4387 
Q 3406 4025 3406 3419 
Q 3406 3131 3298 2873 
Q 3191 2616 2906 2266 
Q 2828 2175 2409 1742 
Q 1991 1309 1228 531 
z
" transform="scale(0.015625)"/>
       </defs>
       <use xlink:href="#DejaVuSans-32"/>
      </g>
     </g>
    </g>
    <g id="ytick_3">
     <g id="line2d_9">
      <g>
       <use xlink:href="#m053ee75c89" x="90" y="333.526154" style="stroke: #000000; stroke-width: 0.8"/>
      </g>
     </g>
     <g id="text_9">
      <!-- 3 -->
      <g transform="translate(70.275 341.124591) scale(0.2 -0.2)">
       <use xlink:href="#DejaVuSans-33"/>
      </g>
     </g>
    </g>
    <g id="ytick_4">
     <g id="line2d_10">
      <g>
       <use xlink:href="#m053ee75c89" x="90" y="248.233846" style="stroke: #000000; stroke-width: 0.8"/>
      </g>
     </g>
     <g id="text_10">
      <!-- 4 -->
      <g transform="translate(70.275 255.832284) scale(0.2 -0.2)">
       <use xlink:href="#DejaVuSans-34"/>
      </g>
     </g>
    </g>
    <g id="ytick_5">
     <g id="line2d_11">
      <g>
       <use xlink:href="#m053ee75c89" x="90" y="162.941538" style="stroke: #000000; stroke-width: 0.8"/>
      </g>
     </g>
     <g id="text_11">
      <!-- 5 -->
      <g transform="translate(70.275 170.539976) scale(0.2 -0.2)">
       <use xlink:href="#DejaVuSans-35"/>
      </g>
     </g>
    </g>
    <g id="ytick_6">
     <g id="line2d_12">
      <g>
       <use xlink:href="#m053ee75c89" x="90" y="77.649231" style="stroke: #000000; stroke-width: 0.8"/>
      </g>
     </g>
     <g id="text_12">
      <!-- 6 -->
      <g transform="translate(70.275 85.247668) scale(0.2 -0.2)">
       <use xlink:href="#DejaVuSans-36"/>
      </g>
     </g>
    </g>
   </g>
   <g id="line2d_13">
    <path d="M 583.2 222.693033 
L 447.889655 227.046797 
L 12.738462 241.04828 
L 692.64 219.171677 
L 536.4 224.198877 
L 353.057143 230.098141 
L 533.018182 224.30769 
L 339.771429 230.525624 
L 721 218.259162 
M 721 218.259162 
L 437.2 227.390749 
L 382.95 229.136304 
L 638.7 220.907258 
L 385.982609 229.038727 
L 577.515789 222.875929 
L 240.417391 233.722452 
L 721 218.259162 
M 721 218.259162 
L 512.485714 224.968346 
L 375.2 229.385669 
L 246.24 233.535103 
L 67.68 239.280474 
L 363.927273 229.748382 
L 313.2 231.380589 
L 145.8 236.766874 
L 511.2 225.009715 
L 401.305263 228.545703 
L 46.330435 239.96742 
L 608.611765 221.875381 
L -1 241.490331 
M -1 241.490331 
L 721 218.259162 
M 721 218.259162 
L 280.376471 232.436724 
L 189.2 235.37043 
L 437.2 227.390749 
L 570.738462 223.093998 
L 536.4 224.198877 
L 163.492683 236.197592 
L 163.492683 236.197592 
L 46.330435 239.96742 
L 293.958621 231.999703 
L 189.2 235.37043 
L 141.507692 236.904984 
L 280.376471 232.436724 
L 117.9 237.664588 
L 721 218.259162 
M 721 218.259162 
L 262.472727 233.012797 
L 350.4 230.183637 
L 313.2 231.380589 
L 350.4 230.183637 
L 432.771429 227.533243 
" clip-path="url(#p40135cea41)" style="fill: none; stroke: #0000ff; stroke-width: 1.5; stroke-linecap: square"/>
   </g>
   <g id="line2d_14">
    <path d="M -1 241.483256 
L 286.628571 240.712054 
L 434.504348 240.315563 
L 648 239.743129 
L 613.661538 239.835199 
L 721 239.547398 
M 721 239.547398 
L 460.042105 240.24709 
L -1 241.483256 
M -1 241.483256 
L 361.028571 240.512569 
L 24.57931 241.414672 
L 648 239.743129 
L 181.905882 240.992841 
L 449.6 240.275088 
L 392.914286 240.427076 
L 721 239.547398 
M 721 239.547398 
L 520.457143 240.085102 
L 339.771429 240.569565 
L 661.95 239.705726 
L 350.4 240.541067 
L 627.709091 239.797534 
L 601.82069 239.866947 
L 439.2 240.302973 
L 280.376471 240.728817 
L 161.018182 241.048846 
L 656.584615 239.720111 
L 424.8 240.341582 
L 719.018182 239.552712 
L 472.628571 240.213342 
L 668.290909 239.688724 
L 214.729412 240.904833 
L 558.72 239.98251 
L 335.52 240.580964 
L 452.7 240.266776 
L 270.276923 240.755896 
L 257.4 240.790423 
L 617.563636 239.824736 
L 605.485714 239.85712 
L 656.584615 239.720111 
L 429.011321 240.330291 
L 313.2 240.640809 
L 437.2 240.308335 
L 184.430769 240.986071 
L 168.533333 241.028696 
L 34.2 241.388876 
L -1 241.483256 
" clip-path="url(#p40135cea41)" style="fill: none; stroke: #008000; stroke-width: 1.5; stroke-linecap: square"/>
   </g>
   <g id="patch_3">
    <path d="M 90 512.64 
L 90 69.12 
" style="fill: none; stroke: #000000; stroke-width: 0.8; stroke-linejoin: miter; stroke-linecap: square"/>
   </g>
   <g id="patch_4">
    <path d="M 648 512.64 
L 648 69.12 
" style="fill: none; stroke: #000000; stroke-width: 0.8; stroke-linejoin: miter; stroke-linecap: square"/>
   </g>
   <g id="patch_5">
    <path d="M 90 512.64 
L 648 512.64 
" style="fill: none; stroke: #000000; stroke-width: 0.8; stroke-linejoin: miter; stroke-linecap: square"/>
   </g>
   <g id="patch_6">
    <path d="M 90 69.12 
L 648 69.12 
" style="fill: none; stroke: #000000; stroke-width: 0.8; stroke-linejoin: miter; stroke-linecap: square"/>
   </g>
  </g>
 </g>
 <defs>
  <clipPath id="p40135cea41">
   <rect x="90" y="69.12" width="558" height="443.52"/>
  </clipPath>
 </defs>
</svg>
