<?xml version="1.0" encoding="utf-8" standalone="no"?>
<!DOCTYPE svg PUBLIC "-//W3C//DTD SVG 1.1//EN"
  "http://www.w3.org/Graphics/SVG/1.1/DTD/svg11.dtd">
<svg xmlns:xlink="http://www.w3.org/1999/xlink" width="576pt" height="432pt" viewBox="0 0 576 432" xmlns="http://www.w3.org/2000/svg" version="1.1">
 <metadata>
  <rdf:RDF xmlns:dc="http://purl.org/dc/elements/1.1/" xmlns:cc="http://creativecommons.org/ns#" xmlns:rdf="http://www.w3.org/1999/02/22-rdf-syntax-ns#">
   <cc:Work>
    <dc:type rdf:resource="http://purl.org/dc/dcmitype/StillImage"/>
    <dc:date>2024-12-04T02:51:20.485953</dc:date>
    <dc:format>image/svg+xml</dc:format>
    <dc:creator>
     <cc:Agent>
      <dc:title>Matplotlib v3.8.1, https://matplotlib.org/</dc:title>
     </cc:Agent>
    </dc:creator>
   </cc:Work>
  </rdf:RDF>
 </metadata>
 <defs>
  <style type="text/css">*{stroke-linejoin: round; stroke-linecap: butt}</style>
 </defs>
 <g id="figure_1">
  <g id="patch_1">
   <path d="M 0 432 
L 576 432 
L 576 0 
L 0 0 
z
" style="fill: #ffffff"/>
  </g>
  <g id="axes_1">
   <g id="patch_2">
    <path d="M 72 384.48 
L 518.4 384.48 
L 518.4 51.84 
L 72 51.84 
z
" style="fill: #ffffff"/>
   </g>
   <g id="PathCollection_1">
    <defs>
     <path id="m60370f38c3" d="M 0 3 
C 0.795609 3 1.55874 2.683901 2.12132 2.12132 
C 2.683901 1.55874 3 0.795609 3 0 
C 3 -0.795609 2.683901 -1.55874 2.12132 -2.12132 
C 1.55874 -2.683901 0.795609 -3 0 -3 
C -0.795609 -3 -1.55874 -2.683901 -2.12132 -2.12132 
C -2.683901 -1.55874 -3 -0.795609 -3 0 
C -3 0.795609 -2.683901 1.55874 -2.12132 2.12132 
C -1.55874 2.683901 -0.795609 3 0 3 
z
" style="stroke: #1f77b4"/>
    </defs>
    <g clip-path="url(#pa91cfc24f3)">
     <use xlink:href="#m60370f38c3" x="466.56" y="298.121538" style="fill: #1f77b4; stroke: #1f77b4"/>
     <use xlink:href="#m60370f38c3" x="-1" y="305.848642" style="fill: #1f77b4; stroke: #1f77b4"/>
     <use xlink:href="#m60370f38c3" x="-1" y="307.701469" style="fill: #1f77b4; stroke: #1f77b4"/>
     <use xlink:href="#m60370f38c3" x="229.302857" y="330.106154" style="fill: #1f77b4; stroke: #1f77b4"/>
     <use xlink:href="#m60370f38c3" x="347.603478" y="242.148462" style="fill: #1f77b4; stroke: #1f77b4"/>
     <use xlink:href="#m60370f38c3" x="518.4" y="354.094615" style="fill: #1f77b4; stroke: #1f77b4"/>
     <use xlink:href="#m60370f38c3" x="358.311724" y="212.850554" style="fill: #1f77b4; stroke: #1f77b4"/>
     <use xlink:href="#m60370f38c3" x="490.929231" y="279.442523" style="fill: #1f77b4; stroke: #1f77b4"/>
     <use xlink:href="#m60370f38c3" x="615.796364" y="244.835169" style="fill: #1f77b4; stroke: #1f77b4"/>
     <use xlink:href="#m60370f38c3" x="368.033684" y="274.133077" style="fill: #1f77b4; stroke: #1f77b4"/>
     <use xlink:href="#m60370f38c3" x="-1" y="268.899901" style="fill: #1f77b4; stroke: #1f77b4"/>
     <use xlink:href="#m60370f38c3" x="-1" y="211.489656" style="fill: #1f77b4; stroke: #1f77b4"/>
     <use xlink:href="#m60370f38c3" x="288.822857" y="130.202308" style="fill: #1f77b4; stroke: #1f77b4"/>
     <use xlink:href="#m60370f38c3" x="10.190769" y="210.163846" style="fill: #1f77b4; stroke: #1f77b4"/>
     <use xlink:href="#m60370f38c3" x="19.663448" y="252.831323" style="fill: #1f77b4; stroke: #1f77b4"/>
     <use xlink:href="#m60370f38c3" x="554.112" y="250.144615" style="fill: #1f77b4; stroke: #1f77b4"/>
     <use xlink:href="#m60370f38c3" x="518.4" y="194.171538" style="fill: #1f77b4; stroke: #1f77b4"/>
     <use xlink:href="#m60370f38c3" x="145.524706" y="308.8044" style="fill: #1f77b4; stroke: #1f77b4"/>
     <use xlink:href="#m60370f38c3" x="429.12" y="343.411754" style="fill: #1f77b4; stroke: #1f77b4"/>
     <use xlink:href="#m60370f38c3" x="282.445714" y="295.434831" style="fill: #1f77b4; stroke: #1f77b4"/>
     <use xlink:href="#m60370f38c3" x="426.414545" y="231.4656" style="fill: #1f77b4; stroke: #1f77b4"/>
     <use xlink:href="#m60370f38c3" x="359.68" y="226.156154" style="fill: #1f77b4; stroke: #1f77b4"/>
     <use xlink:href="#m60370f38c3" x="314.331429" y="218.16" style="fill: #1f77b4; stroke: #1f77b4"/>
     <use xlink:href="#m60370f38c3" x="271.817143" y="314.113846" style="fill: #1f77b4; stroke: #1f77b4"/>
     <use xlink:href="#m60370f38c3" x="696.96" y="164.873631" style="fill: #1f77b4; stroke: #1f77b4"/>
     <use xlink:href="#m60370f38c3" x="349.76" y="258.140769" style="fill: #1f77b4; stroke: #1f77b4"/>
     <use xlink:href="#m60370f38c3" x="649.970526" y="279.442523" style="fill: #1f77b4; stroke: #1f77b4"/>
     <use xlink:href="#m60370f38c3" x="416.365714" y="308.8044" style="fill: #1f77b4; stroke: #1f77b4"/>
     <use xlink:href="#m60370f38c3" x="271.817143" y="146.194615" style="fill: #1f77b4; stroke: #1f77b4"/>
     <use xlink:href="#m60370f38c3" x="529.56" y="255.454062" style="fill: #1f77b4; stroke: #1f77b4"/>
     <use xlink:href="#m60370f38c3" x="280.32" y="236.839015" style="fill: #1f77b4; stroke: #1f77b4"/>
     <use xlink:href="#m60370f38c3" x="502.167273" y="292.812092" style="fill: #1f77b4; stroke: #1f77b4"/>
     <use xlink:href="#m60370f38c3" x="481.456552" y="247.457908" style="fill: #1f77b4; stroke: #1f77b4"/>
     <use xlink:href="#m60370f38c3" x="351.36" y="194.171538" style="fill: #1f77b4; stroke: #1f77b4"/>
     <use xlink:href="#m60370f38c3" x="306.36" y="207.477138" style="fill: #1f77b4; stroke: #1f77b4"/>
     <use xlink:href="#m60370f38c3" x="510.96" y="287.438677" style="fill: #1f77b4; stroke: #1f77b4"/>
     <use xlink:href="#m60370f38c3" x="308.786087" y="228.842862" style="fill: #1f77b4; stroke: #1f77b4"/>
     <use xlink:href="#m60370f38c3" x="462.012632" y="244.835169" style="fill: #1f77b4; stroke: #1f77b4"/>
     <use xlink:href="#m60370f38c3" x="192.333913" y="242.148462" style="fill: #1f77b4; stroke: #1f77b4"/>
     <use xlink:href="#m60370f38c3" x="602.981053" y="314.113846" style="fill: #1f77b4; stroke: #1f77b4"/>
     <use xlink:href="#m60370f38c3" x="224.301176" y="220.846708" style="fill: #1f77b4; stroke: #1f77b4"/>
     <use xlink:href="#m60370f38c3" x="409.988571" y="279.442523" style="fill: #1f77b4; stroke: #1f77b4"/>
     <use xlink:href="#m60370f38c3" x="128.814545" y="327.419446" style="fill: #1f77b4; stroke: #1f77b4"/>
     <use xlink:href="#m60370f38c3" x="300.16" y="191.484831" style="fill: #1f77b4; stroke: #1f77b4"/>
     <use xlink:href="#m60370f38c3" x="525.267692" y="306.117692" style="fill: #1f77b4; stroke: #1f77b4"/>
     <use xlink:href="#m60370f38c3" x="339.84" y="332.792862" style="fill: #1f77b4; stroke: #1f77b4"/>
     <use xlink:href="#m60370f38c3" x="575.214545" y="239.461754" style="fill: #1f77b4; stroke: #1f77b4"/>
     <use xlink:href="#m60370f38c3" x="378.102857" y="372.773631" style="fill: #1f77b4; stroke: #1f77b4"/>
     <use xlink:href="#m60370f38c3" x="534.632727" y="226.156154" style="fill: #1f77b4; stroke: #1f77b4"/>
     <use xlink:href="#m60370f38c3" x="171.783529" y="202.167692" style="fill: #1f77b4; stroke: #1f77b4"/>
     <use xlink:href="#m60370f38c3" x="196.992" y="242.148462" style="fill: #1f77b4; stroke: #1f77b4"/>
     <use xlink:href="#m60370f38c3" x="446.976" y="210.163846" style="fill: #1f77b4; stroke: #1f77b4"/>
     <use xlink:href="#m60370f38c3" x="268.416" y="263.450215" style="fill: #1f77b4; stroke: #1f77b4"/>
     <use xlink:href="#m60370f38c3" x="362.16" y="282.129231" style="fill: #1f77b4; stroke: #1f77b4"/>
     <use xlink:href="#m60370f38c3" x="54.144" y="231.4656" style="fill: #1f77b4; stroke: #1f77b4"/>
     <use xlink:href="#m60370f38c3" x="216.221538" y="212.850554" style="fill: #1f77b4; stroke: #1f77b4"/>
     <use xlink:href="#m60370f38c3" x="205.92" y="242.148462" style="fill: #1f77b4; stroke: #1f77b4"/>
     <use xlink:href="#m60370f38c3" x="494.050909" y="284.815938" style="fill: #1f77b4; stroke: #1f77b4"/>
     <use xlink:href="#m60370f38c3" x="484.388571" y="250.144615" style="fill: #1f77b4; stroke: #1f77b4"/>
     <use xlink:href="#m60370f38c3" x="525.267692" y="276.819785" style="fill: #1f77b4; stroke: #1f77b4"/>
     <use xlink:href="#m60370f38c3" x="343.209057" y="194.171538" style="fill: #1f77b4; stroke: #1f77b4"/>
     <use xlink:href="#m60370f38c3" x="250.56" y="239.461754" style="fill: #1f77b4; stroke: #1f77b4"/>
     <use xlink:href="#m60370f38c3" x="349.76" y="292.812092" style="fill: #1f77b4; stroke: #1f77b4"/>
     <use xlink:href="#m60370f38c3" x="147.544615" y="122.206154" style="fill: #1f77b4; stroke: #1f77b4"/>
     <use xlink:href="#m60370f38c3" x="291.141818" y="306.117692" style="fill: #1f77b4; stroke: #1f77b4"/>
     <use xlink:href="#m60370f38c3" x="250.56" y="298.121538" style="fill: #1f77b4; stroke: #1f77b4"/>
     <use xlink:href="#m60370f38c3" x="116.64" y="346.098462" style="fill: #1f77b4; stroke: #1f77b4"/>
     <use xlink:href="#m60370f38c3" x="408.96" y="292.812092" style="fill: #1f77b4; stroke: #1f77b4"/>
     <use xlink:href="#m60370f38c3" x="134.826667" y="167.496369" style="fill: #1f77b4; stroke: #1f77b4"/>
     <use xlink:href="#m60370f38c3" x="321.044211" y="324.796708" style="fill: #1f77b4; stroke: #1f77b4"/>
     <use xlink:href="#m60370f38c3" x="27.36" y="319.423292" style="fill: #1f77b4; stroke: #1f77b4"/>
     <use xlink:href="#m60370f38c3" x="37.064348" y="375.396369" style="fill: #1f77b4; stroke: #1f77b4"/>
     <use xlink:href="#m60370f38c3" x="486.889412" y="162.186923" style="fill: #1f77b4; stroke: #1f77b4"/>
     <use xlink:href="#m60370f38c3" x="-1" y="222.617027" style="fill: #1f77b4; stroke: #1f77b4"/>
     <use xlink:href="#m60370f38c3" x="-1" y="223.500871" style="fill: #1f77b4; stroke: #1f77b4"/>
     <use xlink:href="#m60370f38c3" x="580.507826" y="226.156154" style="fill: #1f77b4; stroke: #1f77b4"/>
     <use xlink:href="#m60370f38c3" x="224.301176" y="327.419446" style="fill: #1f77b4; stroke: #1f77b4"/>
     <use xlink:href="#m60370f38c3" x="151.36" y="231.4656" style="fill: #1f77b4; stroke: #1f77b4"/>
     <use xlink:href="#m60370f38c3" x="349.76" y="228.842862" style="fill: #1f77b4; stroke: #1f77b4"/>
     <use xlink:href="#m60370f38c3" x="456.590769" y="258.140769" style="fill: #1f77b4; stroke: #1f77b4"/>
     <use xlink:href="#m60370f38c3" x="429.12" y="266.136923" style="fill: #1f77b4; stroke: #1f77b4"/>
     <use xlink:href="#m60370f38c3" x="130.794146" y="204.8544" style="fill: #1f77b4; stroke: #1f77b4"/>
     <use xlink:href="#m60370f38c3" x="130.794146" y="367.400215" style="fill: #1f77b4; stroke: #1f77b4"/>
     <use xlink:href="#m60370f38c3" x="37.064348" y="258.140769" style="fill: #1f77b4; stroke: #1f77b4"/>
     <use xlink:href="#m60370f38c3" x="235.166897" y="252.831323" style="fill: #1f77b4; stroke: #1f77b4"/>
     <use xlink:href="#m60370f38c3" x="151.36" y="159.500215" style="fill: #1f77b4; stroke: #1f77b4"/>
     <use xlink:href="#m60370f38c3" x="113.206154" y="330.106154" style="fill: #1f77b4; stroke: #1f77b4"/>
     <use xlink:href="#m60370f38c3" x="224.301176" y="316.800554" style="fill: #1f77b4; stroke: #1f77b4"/>
     <use xlink:href="#m60370f38c3" x="94.32" y="242.148462" style="fill: #1f77b4; stroke: #1f77b4"/>
     <use xlink:href="#m60370f38c3" x="611.931429" y="370.086923" style="fill: #1f77b4; stroke: #1f77b4"/>
     <use xlink:href="#m60370f38c3" x="209.978182" y="260.827477" style="fill: #1f77b4; stroke: #1f77b4"/>
     <use xlink:href="#m60370f38c3" x="280.32" y="282.129231" style="fill: #1f77b4; stroke: #1f77b4"/>
     <use xlink:href="#m60370f38c3" x="250.56" y="231.4656" style="fill: #1f77b4; stroke: #1f77b4"/>
     <use xlink:href="#m60370f38c3" x="280.32" y="263.450215" style="fill: #1f77b4; stroke: #1f77b4"/>
     <use xlink:href="#m60370f38c3" x="346.217143" y="212.850554" style="fill: #1f77b4; stroke: #1f77b4"/>
     <use xlink:href="#m60370f38c3" x="-1" y="248.994283" style="fill: #1f77b4; stroke: #1f77b4"/>
    </g>
   </g>
   <g id="matplotlib.axis_1">
    <g id="xtick_1">
     <g id="line2d_1">
      <defs>
       <path id="m0b76080f5b" d="M 0 0 
L 0 3.5 
" style="stroke: #000000; stroke-width: 0.8"/>
      </defs>
      <g>
       <use xlink:href="#m0b76080f5b" x="72" y="384.48" style="stroke: #000000; stroke-width: 0.8"/>
      </g>
     </g>
     <g id="text_1">
      <!-- 0.3 -->
      <g transform="translate(56.096875 406.676875) scale(0.2 -0.2)">
       <defs>
        <path id="DejaVuSans-30" d="M 2034 4250 
Q 1547 4250 1301 3770 
Q 1056 3291 1056 2328 
Q 1056 1369 1301 889 
Q 1547 409 2034 409 
Q 2525 409 2770 889 
Q 3016 1369 3016 2328 
Q 3016 3291 2770 3770 
Q 2525 4250 2034 4250 
z
M 2034 4750 
Q 2819 4750 3233 4129 
Q 3647 3509 3647 2328 
Q 3647 1150 3233 529 
Q 2819 -91 2034 -91 
Q 1250 -91 836 529 
Q 422 1150 422 2328 
Q 422 3509 836 4129 
Q 1250 4750 2034 4750 
z
" transform="scale(0.015625)"/>
        <path id="DejaVuSans-2e" d="M 684 794 
L 1344 794 
L 1344 0 
L 684 0 
L 684 794 
z
" transform="scale(0.015625)"/>
        <path id="DejaVuSans-33" d="M 2597 2516 
Q 3050 2419 3304 2112 
Q 3559 1806 3559 1356 
Q 3559 666 3084 287 
Q 2609 -91 1734 -91 
Q 1441 -91 1130 -33 
Q 819 25 488 141 
L 488 750 
Q 750 597 1062 519 
Q 1375 441 1716 441 
Q 2309 441 2620 675 
Q 2931 909 2931 1356 
Q 2931 1769 2642 2001 
Q 2353 2234 1838 2234 
L 1294 2234 
L 1294 2753 
L 1863 2753 
Q 2328 2753 2575 2939 
Q 2822 3125 2822 3475 
Q 2822 3834 2567 4026 
Q 2313 4219 1838 4219 
Q 1578 4219 1281 4162 
Q 984 4106 628 3988 
L 628 4550 
Q 988 4650 1302 4700 
Q 1616 4750 1894 4750 
Q 2613 4750 3031 4423 
Q 3450 4097 3450 3541 
Q 3450 3153 3228 2886 
Q 3006 2619 2597 2516 
z
" transform="scale(0.015625)"/>
       </defs>
       <use xlink:href="#DejaVuSans-30"/>
       <use xlink:href="#DejaVuSans-2e" x="63.623047"/>
       <use xlink:href="#DejaVuSans-33" x="95.410156"/>
      </g>
     </g>
    </g>
    <g id="xtick_2">
     <g id="line2d_2">
      <g>
       <use xlink:href="#m0b76080f5b" x="161.28" y="384.48" style="stroke: #000000; stroke-width: 0.8"/>
      </g>
     </g>
     <g id="text_2">
      <!-- 0.4 -->
      <g transform="translate(145.376875 406.676875) scale(0.2 -0.2)">
       <defs>
        <path id="DejaVuSans-34" d="M 2419 4116 
L 825 1625 
L 2419 1625 
L 2419 4116 
z
M 2253 4666 
L 3047 4666 
L 3047 1625 
L 3713 1625 
L 3713 1100 
L 3047 1100 
L 3047 0 
L 2419 0 
L 2419 1100 
L 313 1100 
L 313 1709 
L 2253 4666 
z
" transform="scale(0.015625)"/>
       </defs>
       <use xlink:href="#DejaVuSans-30"/>
       <use xlink:href="#DejaVuSans-2e" x="63.623047"/>
       <use xlink:href="#DejaVuSans-34" x="95.410156"/>
      </g>
     </g>
    </g>
    <g id="xtick_3">
     <g id="line2d_3">
      <g>
       <use xlink:href="#m0b76080f5b" x="250.56" y="384.48" style="stroke: #000000; stroke-width: 0.8"/>
      </g>
     </g>
     <g id="text_3">
      <!-- 0.5 -->
      <g transform="translate(234.656875 406.676875) scale(0.2 -0.2)">
       <defs>
        <path id="DejaVuSans-35" d="M 691 4666 
L 3169 4666 
L 3169 4134 
L 1269 4134 
L 1269 2991 
Q 1406 3038 1543 3061 
Q 1681 3084 1819 3084 
Q 2600 3084 3056 2656 
Q 3513 2228 3513 1497 
Q 3513 744 3044 326 
Q 2575 -91 1722 -91 
Q 1428 -91 1123 -41 
Q 819 9 494 109 
L 494 744 
Q 775 591 1075 516 
Q 1375 441 1709 441 
Q 2250 441 2565 725 
Q 2881 1009 2881 1497 
Q 2881 1984 2565 2268 
Q 2250 2553 1709 2553 
Q 1456 2553 1204 2497 
Q 953 2441 691 2322 
L 691 4666 
z
" transform="scale(0.015625)"/>
       </defs>
       <use xlink:href="#DejaVuSans-30"/>
       <use xlink:href="#DejaVuSans-2e" x="63.623047"/>
       <use xlink:href="#DejaVuSans-35" x="95.410156"/>
      </g>
     </g>
    </g>
    <g id="xtick_4">
     <g id="line2d_4">
      <g>
       <use xlink:href="#m0b76080f5b" x="339.84" y="384.48" style="stroke: #000000; stroke-width: 0.8"/>
      </g>
     </g>
     <g id="text_4">
      <!-- 0.6 -->
      <g transform="translate(323.936875 406.676875) scale(0.2 -0.2)">
       <defs>
        <path id="DejaVuSans-36" d="M 2113 2584 
Q 1688 2584 1439 2293 
Q 1191 2003 1191 1497 
Q 1191 994 1439 701 
Q 1688 409 2113 409 
Q 2538 409 2786 701 
Q 3034 994 3034 1497 
Q 3034 2003 2786 2293 
Q 2538 2584 2113 2584 
z
M 3366 4563 
L 3366 3988 
Q 3128 4100 2886 4159 
Q 2644 4219 2406 4219 
Q 1781 4219 1451 3797 
Q 1122 3375 1075 2522 
Q 1259 2794 1537 2939 
Q 1816 3084 2150 3084 
Q 2853 3084 3261 2657 
Q 3669 2231 3669 1497 
Q 3669 778 3244 343 
Q 2819 -91 2113 -91 
Q 1303 -91 875 529 
Q 447 1150 447 2328 
Q 447 3434 972 4092 
Q 1497 4750 2381 4750 
Q 2619 4750 2861 4703 
Q 3103 4656 3366 4563 
z
" transform="scale(0.015625)"/>
       </defs>
       <use xlink:href="#DejaVuSans-30"/>
       <use xlink:href="#DejaVuSans-2e" x="63.623047"/>
       <use xlink:href="#DejaVuSans-36" x="95.410156"/>
      </g>
     </g>
    </g>
    <g id="xtick_5">
     <g id="line2d_5">
      <g>
       <use xlink:href="#m0b76080f5b" x="429.12" y="384.48" style="stroke: #000000; stroke-width: 0.8"/>
      </g>
     </g>
     <g id="text_5">
      <!-- 0.7 -->
      <g transform="translate(413.216875 406.676875) scale(0.2 -0.2)">
       <defs>
        <path id="DejaVuSans-37" d="M 525 4666 
L 3525 4666 
L 3525 4397 
L 1831 0 
L 1172 0 
L 2766 4134 
L 525 4134 
L 525 4666 
z
" transform="scale(0.015625)"/>
       </defs>
       <use xlink:href="#DejaVuSans-30"/>
       <use xlink:href="#DejaVuSans-2e" x="63.623047"/>
       <use xlink:href="#DejaVuSans-37" x="95.410156"/>
      </g>
     </g>
    </g>
    <g id="xtick_6">
     <g id="line2d_6">
      <g>
       <use xlink:href="#m0b76080f5b" x="518.4" y="384.48" style="stroke: #000000; stroke-width: 0.8"/>
      </g>
     </g>
     <g id="text_6">
      <!-- 0.8 -->
      <g transform="translate(502.496875 406.676875) scale(0.2 -0.2)">
       <defs>
        <path id="DejaVuSans-38" d="M 2034 2216 
Q 1584 2216 1326 1975 
Q 1069 1734 1069 1313 
Q 1069 891 1326 650 
Q 1584 409 2034 409 
Q 2484 409 2743 651 
Q 3003 894 3003 1313 
Q 3003 1734 2745 1975 
Q 2488 2216 2034 2216 
z
M 1403 2484 
Q 997 2584 770 2862 
Q 544 3141 544 3541 
Q 544 4100 942 4425 
Q 1341 4750 2034 4750 
Q 2731 4750 3128 4425 
Q 3525 4100 3525 3541 
Q 3525 3141 3298 2862 
Q 3072 2584 2669 2484 
Q 3125 2378 3379 2068 
Q 3634 1759 3634 1313 
Q 3634 634 3220 271 
Q 2806 -91 2034 -91 
Q 1263 -91 848 271 
Q 434 634 434 1313 
Q 434 1759 690 2068 
Q 947 2378 1403 2484 
z
M 1172 3481 
Q 1172 3119 1398 2916 
Q 1625 2713 2034 2713 
Q 2441 2713 2670 2916 
Q 2900 3119 2900 3481 
Q 2900 3844 2670 4047 
Q 2441 4250 2034 4250 
Q 1625 4250 1398 4047 
Q 1172 3844 1172 3481 
z
" transform="scale(0.015625)"/>
       </defs>
       <use xlink:href="#DejaVuSans-30"/>
       <use xlink:href="#DejaVuSans-2e" x="63.623047"/>
       <use xlink:href="#DejaVuSans-38" x="95.410156"/>
      </g>
     </g>
    </g>
   </g>
   <g id="matplotlib.axis_2">
    <g id="ytick_1">
     <g id="line2d_7">
      <defs>
       <path id="mde949a2108" d="M 0 0 
L -3.5 0 
" style="stroke: #000000; stroke-width: 0.8"/>
      </defs>
      <g>
       <use xlink:href="#mde949a2108" x="72" y="378.083077" style="stroke: #000000; stroke-width: 0.8"/>
      </g>
     </g>
     <g id="text_7">
      <!-- 1 -->
      <g transform="translate(52.275 385.681514) scale(0.2 -0.2)">
       <defs>
        <path id="DejaVuSans-31" d="M 794 531 
L 1825 531 
L 1825 4091 
L 703 3866 
L 703 4441 
L 1819 4666 
L 2450 4666 
L 2450 531 
L 3481 531 
L 3481 0 
L 794 0 
L 794 531 
z
" transform="scale(0.015625)"/>
       </defs>
       <use xlink:href="#DejaVuSans-31"/>
      </g>
     </g>
    </g>
    <g id="ytick_2">
     <g id="line2d_8">
      <g>
       <use xlink:href="#mde949a2108" x="72" y="314.113846" style="stroke: #000000; stroke-width: 0.8"/>
      </g>
     </g>
     <g id="text_8">
      <!-- 2 -->
      <g transform="translate(52.275 321.712284) scale(0.2 -0.2)">
       <defs>
        <path id="DejaVuSans-32" d="M 1228 531 
L 3431 531 
L 3431 0 
L 469 0 
L 469 531 
Q 828 903 1448 1529 
Q 2069 2156 2228 2338 
Q 2531 2678 2651 2914 
Q 2772 3150 2772 3378 
Q 2772 3750 2511 3984 
Q 2250 4219 1831 4219 
Q 1534 4219 1204 4116 
Q 875 4013 500 3803 
L 500 4441 
Q 881 4594 1212 4672 
Q 1544 4750 1819 4750 
Q 2544 4750 2975 4387 
Q 3406 4025 3406 3419 
Q 3406 3131 3298 2873 
Q 3191 2616 2906 2266 
Q 2828 2175 2409 1742 
Q 1991 1309 1228 531 
z
" transform="scale(0.015625)"/>
       </defs>
       <use xlink:href="#DejaVuSans-32"/>
      </g>
     </g>
    </g>
    <g id="ytick_3">
     <g id="line2d_9">
      <g>
       <use xlink:href="#mde949a2108" x="72" y="250.144615" style="stroke: #000000; stroke-width: 0.8"/>
      </g>
     </g>
     <g id="text_9">
      <!-- 3 -->
      <g transform="translate(52.275 257.743053) scale(0.2 -0.2)">
       <use xlink:href="#DejaVuSans-33"/>
      </g>
     </g>
    </g>
    <g id="ytick_4">
     <g id="line2d_10">
      <g>
       <use xlink:href="#mde949a2108" x="72" y="186.175385" style="stroke: #000000; stroke-width: 0.8"/>
      </g>
     </g>
     <g id="text_10">
      <!-- 4 -->
      <g transform="translate(52.275 193.773822) scale(0.2 -0.2)">
       <use xlink:href="#DejaVuSans-34"/>
      </g>
     </g>
    </g>
    <g id="ytick_5">
     <g id="line2d_11">
      <g>
       <use xlink:href="#mde949a2108" x="72" y="122.206154" style="stroke: #000000; stroke-width: 0.8"/>
      </g>
     </g>
     <g id="text_11">
      <!-- 5 -->
      <g transform="translate(52.275 129.804591) scale(0.2 -0.2)">
       <use xlink:href="#DejaVuSans-35"/>
      </g>
     </g>
    </g>
    <g id="ytick_6">
     <g id="line2d_12">
      <g>
       <use xlink:href="#mde949a2108" x="72" y="58.236923" style="stroke: #000000; stroke-width: 0.8"/>
      </g>
     </g>
     <g id="text_12">
      <!-- 6 -->
      <g transform="translate(52.275 65.835361) scale(0.2 -0.2)">
       <use xlink:href="#DejaVuSans-36"/>
      </g>
     </g>
    </g>
   </g>
   <g id="line2d_13">
    <path d="M 466.56 259.540031 
L -1 258.976907 
M -1 258.976907 
L 229.302857 259.254281 
L 347.603478 259.396761 
L 518.4 259.602466 
L 358.311724 259.409658 
L 490.929231 259.569381 
L 577 259.673043 
M 577 259.673043 
L 368.033684 259.421367 
L -1 258.976907 
M -1 258.976907 
L 288.822857 259.325966 
L 10.190769 258.990385 
L 19.663448 259.001794 
L 554.112 259.645477 
L 518.4 259.602466 
L 145.524706 259.15338 
L 429.12 259.494939 
L 282.445714 259.318286 
L 426.414545 259.49168 
L 359.68 259.411306 
L 314.331429 259.356689 
L 271.817143 259.305485 
L 577 259.673043 
M 577 259.673043 
L 349.76 259.399358 
L 577 259.673043 
M 577 259.673043 
L 416.365714 259.479577 
L 271.817143 259.305485 
L 529.56 259.615907 
L 280.32 259.315726 
L 502.167273 259.582916 
L 481.456552 259.557972 
L 351.36 259.401285 
L 306.36 259.347088 
L 510.96 259.593506 
L 308.786087 259.35001 
L 462.012632 259.534554 
L 192.333913 259.209756 
L 577 259.673043 
M 577 259.673043 
L 224.301176 259.248257 
L 409.988571 259.471897 
L 128.814545 259.133254 
L 300.16 259.339621 
L 525.267692 259.610738 
L 339.84 259.387411 
L 575.214545 259.670893 
L 378.102857 259.433494 
L 534.632727 259.622017 
L 171.783529 259.185006 
L 196.992 259.215366 
L 446.976 259.516444 
L 268.416 259.301389 
L 362.16 259.414293 
L 54.144 259.043322 
L 216.221538 259.238526 
L 205.92 259.226119 
L 494.050909 259.573141 
L 484.388571 259.561503 
L 525.267692 259.610738 
L 343.209057 259.391468 
L 250.56 259.279883 
L 349.76 259.399358 
L 147.544615 259.155812 
L 291.141818 259.328759 
L 250.56 259.279883 
L 116.64 259.118591 
L 408.96 259.470658 
L 134.826667 259.140495 
L 321.044211 259.364773 
L 27.36 259.011064 
L 37.064348 259.022751 
L 486.889412 259.564515 
L -1 258.976907 
M -1 258.976907 
L 577 259.673043 
M 577 259.673043 
L 224.301176 259.248257 
L 151.36 259.160408 
L 349.76 259.399358 
L 456.590769 259.528024 
L 429.12 259.494939 
L 130.794146 259.135638 
L 130.794146 259.135638 
L 37.064348 259.022751 
L 235.166897 259.261344 
L 151.36 259.160408 
L 113.206154 259.114456 
L 224.301176 259.248257 
L 94.32 259.091709 
L 577 259.673043 
M 577 259.673043 
L 209.978182 259.231007 
L 280.32 259.315726 
L 250.56 259.279883 
L 280.32 259.315726 
L 346.217143 259.395091 
L -1 258.976907 
" clip-path="url(#pa91cfc24f3)" style="fill: none; stroke: #ff0000; stroke-width: 1.5; stroke-linecap: square"/>
   </g>
   <g id="patch_3">
    <path d="M 72 384.48 
L 72 51.84 
" style="fill: none; stroke: #000000; stroke-width: 0.8; stroke-linejoin: miter; stroke-linecap: square"/>
   </g>
   <g id="patch_4">
    <path d="M 518.4 384.48 
L 518.4 51.84 
" style="fill: none; stroke: #000000; stroke-width: 0.8; stroke-linejoin: miter; stroke-linecap: square"/>
   </g>
   <g id="patch_5">
    <path d="M 72 384.48 
L 518.4 384.48 
" style="fill: none; stroke: #000000; stroke-width: 0.8; stroke-linejoin: miter; stroke-linecap: square"/>
   </g>
   <g id="patch_6">
    <path d="M 72 51.84 
L 518.4 51.84 
" style="fill: none; stroke: #000000; stroke-width: 0.8; stroke-linejoin: miter; stroke-linecap: square"/>
   </g>
   <g id="legend_1">
    <g id="patch_7">
     <path d="M 507.4 64.84 
L 511.4 64.84 
Q 513.4 64.84 513.4 62.84 
L 513.4 58.84 
Q 513.4 56.84 511.4 56.84 
L 507.4 56.84 
Q 505.4 56.84 505.4 58.84 
L 505.4 62.84 
Q 505.4 64.84 507.4 64.84 
z
" style="fill: #ffffff; opacity: 0.8; stroke: #cccccc; stroke-linejoin: miter"/>
    </g>
   </g>
  </g>
 </g>
 <defs>
  <clipPath id="pa91cfc24f3">
   <rect x="72" y="51.84" width="446.4" height="332.64"/>
  </clipPath>
 </defs>
</svg>
