<?xml version="1.0" encoding="utf-8" standalone="no"?>
<!DOCTYPE svg PUBLIC "-//W3C//DTD SVG 1.1//EN"
  "http://www.w3.org/Graphics/SVG/1.1/DTD/svg11.dtd">
<svg xmlns:xlink="http://www.w3.org/1999/xlink" width="576pt" height="432pt" viewBox="0 0 576 432" xmlns="http://www.w3.org/2000/svg" version="1.1">
 <metadata>
  <rdf:RDF xmlns:dc="http://purl.org/dc/elements/1.1/" xmlns:cc="http://creativecommons.org/ns#" xmlns:rdf="http://www.w3.org/1999/02/22-rdf-syntax-ns#">
   <cc:Work>
    <dc:type rdf:resource="http://purl.org/dc/dcmitype/StillImage"/>
    <dc:date>2024-12-04T02:51:21.306758</dc:date>
    <dc:format>image/svg+xml</dc:format>
    <dc:creator>
     <cc:Agent>
      <dc:title>Matplotlib v3.8.1, https://matplotlib.org/</dc:title>
     </cc:Agent>
    </dc:creator>
   </cc:Work>
  </rdf:RDF>
 </metadata>
 <defs>
  <style type="text/css">*{stroke-linejoin: round; stroke-linecap: butt}</style>
 </defs>
 <g id="figure_1">
  <g id="patch_1">
   <path d="M 0 432 
L 576 432 
L 576 0 
L 0 0 
z
" style="fill: #ffffff"/>
  </g>
  <g id="axes_1">
   <g id="patch_2">
    <path d="M 72 384.48 
L 518.4 384.48 
L 518.4 51.84 
L 72 51.84 
z
" style="fill: #ffffff"/>
   </g>
   <g id="PathCollection_1">
    <defs>
     <path id="m4913a89d38" d="M 0 3 
C 0.795609 3 1.55874 2.683901 2.12132 2.12132 
C 2.683901 1.55874 3 0.795609 3 0 
C 3 -0.795609 2.683901 -1.55874 2.12132 -2.12132 
C 1.55874 -2.683901 0.795609 -3 0 -3 
C -0.795609 -3 -1.55874 -2.683901 -2.12132 -2.12132 
C -2.683901 -1.55874 -3 -0.795609 -3 0 
C -3 0.795609 -2.683901 1.55874 -2.12132 2.12132 
C -1.55874 2.683901 -0.795609 3 0 3 
z
" style="stroke: #1f77b4"/>
    </defs>
    <g clip-path="url(#p9ad0f5d1fc)">
     <use xlink:href="#m4913a89d38" x="466.56" y="164.873631" style="fill: #1f77b4; stroke: #1f77b4"/>
     <use xlink:href="#m4913a89d38" x="-1" y="226.690458" style="fill: #1f77b4; stroke: #1f77b4"/>
     <use xlink:href="#m4913a89d38" x="-1" y="224.619457" style="fill: #1f77b4; stroke: #1f77b4"/>
     <use xlink:href="#m4913a89d38" x="229.302857" y="164.873631" style="fill: #1f77b4; stroke: #1f77b4"/>
     <use xlink:href="#m4913a89d38" x="347.603478" y="186.175385" style="fill: #1f77b4; stroke: #1f77b4"/>
     <use xlink:href="#m4913a89d38" x="518.4" y="164.873631" style="fill: #1f77b4; stroke: #1f77b4"/>
     <use xlink:href="#m4913a89d38" x="358.311724" y="143.507908" style="fill: #1f77b4; stroke: #1f77b4"/>
     <use xlink:href="#m4913a89d38" x="490.929231" y="271.446369" style="fill: #1f77b4; stroke: #1f77b4"/>
     <use xlink:href="#m4913a89d38" x="615.796364" y="164.873631" style="fill: #1f77b4; stroke: #1f77b4"/>
     <use xlink:href="#m4913a89d38" x="368.033684" y="250.144615" style="fill: #1f77b4; stroke: #1f77b4"/>
     <use xlink:href="#m4913a89d38" x="-1" y="194.338029" style="fill: #1f77b4; stroke: #1f77b4"/>
     <use xlink:href="#m4913a89d38" x="-1" y="182.000727" style="fill: #1f77b4; stroke: #1f77b4"/>
     <use xlink:href="#m4913a89d38" x="288.822857" y="207.477138" style="fill: #1f77b4; stroke: #1f77b4"/>
     <use xlink:href="#m4913a89d38" x="10.190769" y="143.507908" style="fill: #1f77b4; stroke: #1f77b4"/>
     <use xlink:href="#m4913a89d38" x="19.663448" y="186.175385" style="fill: #1f77b4; stroke: #1f77b4"/>
     <use xlink:href="#m4913a89d38" x="554.112" y="186.175385" style="fill: #1f77b4; stroke: #1f77b4"/>
     <use xlink:href="#m4913a89d38" x="518.4" y="186.175385" style="fill: #1f77b4; stroke: #1f77b4"/>
     <use xlink:href="#m4913a89d38" x="145.524706" y="164.873631" style="fill: #1f77b4; stroke: #1f77b4"/>
     <use xlink:href="#m4913a89d38" x="429.12" y="335.4156" style="fill: #1f77b4; stroke: #1f77b4"/>
     <use xlink:href="#m4913a89d38" x="282.445714" y="207.477138" style="fill: #1f77b4; stroke: #1f77b4"/>
     <use xlink:href="#m4913a89d38" x="426.414545" y="122.206154" style="fill: #1f77b4; stroke: #1f77b4"/>
     <use xlink:href="#m4913a89d38" x="359.68" y="207.477138" style="fill: #1f77b4; stroke: #1f77b4"/>
     <use xlink:href="#m4913a89d38" x="314.331429" y="186.175385" style="fill: #1f77b4; stroke: #1f77b4"/>
     <use xlink:href="#m4913a89d38" x="271.817143" y="164.873631" style="fill: #1f77b4; stroke: #1f77b4"/>
     <use xlink:href="#m4913a89d38" x="696.96" y="122.206154" style="fill: #1f77b4; stroke: #1f77b4"/>
     <use xlink:href="#m4913a89d38" x="349.76" y="186.175385" style="fill: #1f77b4; stroke: #1f77b4"/>
     <use xlink:href="#m4913a89d38" x="649.970526" y="186.175385" style="fill: #1f77b4; stroke: #1f77b4"/>
     <use xlink:href="#m4913a89d38" x="416.365714" y="207.477138" style="fill: #1f77b4; stroke: #1f77b4"/>
     <use xlink:href="#m4913a89d38" x="271.817143" y="143.507908" style="fill: #1f77b4; stroke: #1f77b4"/>
     <use xlink:href="#m4913a89d38" x="529.56" y="186.175385" style="fill: #1f77b4; stroke: #1f77b4"/>
     <use xlink:href="#m4913a89d38" x="280.32" y="164.873631" style="fill: #1f77b4; stroke: #1f77b4"/>
     <use xlink:href="#m4913a89d38" x="502.167273" y="143.507908" style="fill: #1f77b4; stroke: #1f77b4"/>
     <use xlink:href="#m4913a89d38" x="481.456552" y="164.873631" style="fill: #1f77b4; stroke: #1f77b4"/>
     <use xlink:href="#m4913a89d38" x="351.36" y="143.507908" style="fill: #1f77b4; stroke: #1f77b4"/>
     <use xlink:href="#m4913a89d38" x="306.36" y="122.206154" style="fill: #1f77b4; stroke: #1f77b4"/>
     <use xlink:href="#m4913a89d38" x="510.96" y="122.206154" style="fill: #1f77b4; stroke: #1f77b4"/>
     <use xlink:href="#m4913a89d38" x="308.786087" y="143.507908" style="fill: #1f77b4; stroke: #1f77b4"/>
     <use xlink:href="#m4913a89d38" x="462.012632" y="207.477138" style="fill: #1f77b4; stroke: #1f77b4"/>
     <use xlink:href="#m4913a89d38" x="192.333913" y="186.175385" style="fill: #1f77b4; stroke: #1f77b4"/>
     <use xlink:href="#m4913a89d38" x="602.981053" y="250.144615" style="fill: #1f77b4; stroke: #1f77b4"/>
     <use xlink:href="#m4913a89d38" x="224.301176" y="186.175385" style="fill: #1f77b4; stroke: #1f77b4"/>
     <use xlink:href="#m4913a89d38" x="409.988571" y="122.206154" style="fill: #1f77b4; stroke: #1f77b4"/>
     <use xlink:href="#m4913a89d38" x="128.814545" y="250.144615" style="fill: #1f77b4; stroke: #1f77b4"/>
     <use xlink:href="#m4913a89d38" x="300.16" y="143.507908" style="fill: #1f77b4; stroke: #1f77b4"/>
     <use xlink:href="#m4913a89d38" x="525.267692" y="228.842862" style="fill: #1f77b4; stroke: #1f77b4"/>
     <use xlink:href="#m4913a89d38" x="339.84" y="186.175385" style="fill: #1f77b4; stroke: #1f77b4"/>
     <use xlink:href="#m4913a89d38" x="575.214545" y="207.477138" style="fill: #1f77b4; stroke: #1f77b4"/>
     <use xlink:href="#m4913a89d38" x="378.102857" y="335.4156" style="fill: #1f77b4; stroke: #1f77b4"/>
     <use xlink:href="#m4913a89d38" x="534.632727" y="164.873631" style="fill: #1f77b4; stroke: #1f77b4"/>
     <use xlink:href="#m4913a89d38" x="171.783529" y="186.175385" style="fill: #1f77b4; stroke: #1f77b4"/>
     <use xlink:href="#m4913a89d38" x="196.992" y="186.175385" style="fill: #1f77b4; stroke: #1f77b4"/>
     <use xlink:href="#m4913a89d38" x="446.976" y="164.873631" style="fill: #1f77b4; stroke: #1f77b4"/>
     <use xlink:href="#m4913a89d38" x="268.416" y="143.507908" style="fill: #1f77b4; stroke: #1f77b4"/>
     <use xlink:href="#m4913a89d38" x="362.16" y="164.873631" style="fill: #1f77b4; stroke: #1f77b4"/>
     <use xlink:href="#m4913a89d38" x="54.144" y="164.873631" style="fill: #1f77b4; stroke: #1f77b4"/>
     <use xlink:href="#m4913a89d38" x="216.221538" y="207.477138" style="fill: #1f77b4; stroke: #1f77b4"/>
     <use xlink:href="#m4913a89d38" x="205.92" y="143.507908" style="fill: #1f77b4; stroke: #1f77b4"/>
     <use xlink:href="#m4913a89d38" x="494.050909" y="164.873631" style="fill: #1f77b4; stroke: #1f77b4"/>
     <use xlink:href="#m4913a89d38" x="484.388571" y="143.507908" style="fill: #1f77b4; stroke: #1f77b4"/>
     <use xlink:href="#m4913a89d38" x="525.267692" y="207.477138" style="fill: #1f77b4; stroke: #1f77b4"/>
     <use xlink:href="#m4913a89d38" x="343.209057" y="143.507908" style="fill: #1f77b4; stroke: #1f77b4"/>
     <use xlink:href="#m4913a89d38" x="250.56" y="164.873631" style="fill: #1f77b4; stroke: #1f77b4"/>
     <use xlink:href="#m4913a89d38" x="349.76" y="186.175385" style="fill: #1f77b4; stroke: #1f77b4"/>
     <use xlink:href="#m4913a89d38" x="147.544615" y="122.206154" style="fill: #1f77b4; stroke: #1f77b4"/>
     <use xlink:href="#m4913a89d38" x="291.141818" y="228.842862" style="fill: #1f77b4; stroke: #1f77b4"/>
     <use xlink:href="#m4913a89d38" x="250.56" y="164.873631" style="fill: #1f77b4; stroke: #1f77b4"/>
     <use xlink:href="#m4913a89d38" x="116.64" y="186.175385" style="fill: #1f77b4; stroke: #1f77b4"/>
     <use xlink:href="#m4913a89d38" x="408.96" y="164.873631" style="fill: #1f77b4; stroke: #1f77b4"/>
     <use xlink:href="#m4913a89d38" x="134.826667" y="207.477138" style="fill: #1f77b4; stroke: #1f77b4"/>
     <use xlink:href="#m4913a89d38" x="321.044211" y="164.873631" style="fill: #1f77b4; stroke: #1f77b4"/>
     <use xlink:href="#m4913a89d38" x="27.36" y="143.507908" style="fill: #1f77b4; stroke: #1f77b4"/>
     <use xlink:href="#m4913a89d38" x="37.064348" y="356.781323" style="fill: #1f77b4; stroke: #1f77b4"/>
     <use xlink:href="#m4913a89d38" x="486.889412" y="186.175385" style="fill: #1f77b4; stroke: #1f77b4"/>
     <use xlink:href="#m4913a89d38" x="-1" y="123.095944" style="fill: #1f77b4; stroke: #1f77b4"/>
     <use xlink:href="#m4913a89d38" x="-1" y="122.206154" style="fill: #1f77b4; stroke: #1f77b4"/>
     <use xlink:href="#m4913a89d38" x="580.507826" y="122.206154" style="fill: #1f77b4; stroke: #1f77b4"/>
     <use xlink:href="#m4913a89d38" x="224.301176" y="143.507908" style="fill: #1f77b4; stroke: #1f77b4"/>
     <use xlink:href="#m4913a89d38" x="151.36" y="207.477138" style="fill: #1f77b4; stroke: #1f77b4"/>
     <use xlink:href="#m4913a89d38" x="349.76" y="143.507908" style="fill: #1f77b4; stroke: #1f77b4"/>
     <use xlink:href="#m4913a89d38" x="456.590769" y="164.873631" style="fill: #1f77b4; stroke: #1f77b4"/>
     <use xlink:href="#m4913a89d38" x="429.12" y="250.144615" style="fill: #1f77b4; stroke: #1f77b4"/>
     <use xlink:href="#m4913a89d38" x="130.794146" y="164.873631" style="fill: #1f77b4; stroke: #1f77b4"/>
     <use xlink:href="#m4913a89d38" x="130.794146" y="186.175385" style="fill: #1f77b4; stroke: #1f77b4"/>
     <use xlink:href="#m4913a89d38" x="37.064348" y="228.842862" style="fill: #1f77b4; stroke: #1f77b4"/>
     <use xlink:href="#m4913a89d38" x="235.166897" y="207.477138" style="fill: #1f77b4; stroke: #1f77b4"/>
     <use xlink:href="#m4913a89d38" x="151.36" y="143.507908" style="fill: #1f77b4; stroke: #1f77b4"/>
     <use xlink:href="#m4913a89d38" x="113.206154" y="207.477138" style="fill: #1f77b4; stroke: #1f77b4"/>
     <use xlink:href="#m4913a89d38" x="224.301176" y="186.175385" style="fill: #1f77b4; stroke: #1f77b4"/>
     <use xlink:href="#m4913a89d38" x="94.32" y="122.206154" style="fill: #1f77b4; stroke: #1f77b4"/>
     <use xlink:href="#m4913a89d38" x="611.931429" y="164.873631" style="fill: #1f77b4; stroke: #1f77b4"/>
     <use xlink:href="#m4913a89d38" x="209.978182" y="164.873631" style="fill: #1f77b4; stroke: #1f77b4"/>
     <use xlink:href="#m4913a89d38" x="280.32" y="207.477138" style="fill: #1f77b4; stroke: #1f77b4"/>
     <use xlink:href="#m4913a89d38" x="250.56" y="122.206154" style="fill: #1f77b4; stroke: #1f77b4"/>
     <use xlink:href="#m4913a89d38" x="280.32" y="228.842862" style="fill: #1f77b4; stroke: #1f77b4"/>
     <use xlink:href="#m4913a89d38" x="346.217143" y="207.477138" style="fill: #1f77b4; stroke: #1f77b4"/>
     <use xlink:href="#m4913a89d38" x="-1" y="223.573146" style="fill: #1f77b4; stroke: #1f77b4"/>
    </g>
   </g>
   <g id="matplotlib.axis_1">
    <g id="xtick_1">
     <g id="line2d_1">
      <defs>
       <path id="ma4f88a9b95" d="M 0 0 
L 0 3.5 
" style="stroke: #000000; stroke-width: 0.8"/>
      </defs>
      <g>
       <use xlink:href="#ma4f88a9b95" x="72" y="384.48" style="stroke: #000000; stroke-width: 0.8"/>
      </g>
     </g>
     <g id="text_1">
      <!-- 0.3 -->
      <g transform="translate(56.096875 406.676875) scale(0.2 -0.2)">
       <defs>
        <path id="DejaVuSans-30" d="M 2034 4250 
Q 1547 4250 1301 3770 
Q 1056 3291 1056 2328 
Q 1056 1369 1301 889 
Q 1547 409 2034 409 
Q 2525 409 2770 889 
Q 3016 1369 3016 2328 
Q 3016 3291 2770 3770 
Q 2525 4250 2034 4250 
z
M 2034 4750 
Q 2819 4750 3233 4129 
Q 3647 3509 3647 2328 
Q 3647 1150 3233 529 
Q 2819 -91 2034 -91 
Q 1250 -91 836 529 
Q 422 1150 422 2328 
Q 422 3509 836 4129 
Q 1250 4750 2034 4750 
z
" transform="scale(0.015625)"/>
        <path id="DejaVuSans-2e" d="M 684 794 
L 1344 794 
L 1344 0 
L 684 0 
L 684 794 
z
" transform="scale(0.015625)"/>
        <path id="DejaVuSans-33" d="M 2597 2516 
Q 3050 2419 3304 2112 
Q 3559 1806 3559 1356 
Q 3559 666 3084 287 
Q 2609 -91 1734 -91 
Q 1441 -91 1130 -33 
Q 819 25 488 141 
L 488 750 
Q 750 597 1062 519 
Q 1375 441 1716 441 
Q 2309 441 2620 675 
Q 2931 909 2931 1356 
Q 2931 1769 2642 2001 
Q 2353 2234 1838 2234 
L 1294 2234 
L 1294 2753 
L 1863 2753 
Q 2328 2753 2575 2939 
Q 2822 3125 2822 3475 
Q 2822 3834 2567 4026 
Q 2313 4219 1838 4219 
Q 1578 4219 1281 4162 
Q 984 4106 628 3988 
L 628 4550 
Q 988 4650 1302 4700 
Q 1616 4750 1894 4750 
Q 2613 4750 3031 4423 
Q 3450 4097 3450 3541 
Q 3450 3153 3228 2886 
Q 3006 2619 2597 2516 
z
" transform="scale(0.015625)"/>
       </defs>
       <use xlink:href="#DejaVuSans-30"/>
       <use xlink:href="#DejaVuSans-2e" x="63.623047"/>
       <use xlink:href="#DejaVuSans-33" x="95.410156"/>
      </g>
     </g>
    </g>
    <g id="xtick_2">
     <g id="line2d_2">
      <g>
       <use xlink:href="#ma4f88a9b95" x="161.28" y="384.48" style="stroke: #000000; stroke-width: 0.8"/>
      </g>
     </g>
     <g id="text_2">
      <!-- 0.4 -->
      <g transform="translate(145.376875 406.676875) scale(0.2 -0.2)">
       <defs>
        <path id="DejaVuSans-34" d="M 2419 4116 
L 825 1625 
L 2419 1625 
L 2419 4116 
z
M 2253 4666 
L 3047 4666 
L 3047 1625 
L 3713 1625 
L 3713 1100 
L 3047 1100 
L 3047 0 
L 2419 0 
L 2419 1100 
L 313 1100 
L 313 1709 
L 2253 4666 
z
" transform="scale(0.015625)"/>
       </defs>
       <use xlink:href="#DejaVuSans-30"/>
       <use xlink:href="#DejaVuSans-2e" x="63.623047"/>
       <use xlink:href="#DejaVuSans-34" x="95.410156"/>
      </g>
     </g>
    </g>
    <g id="xtick_3">
     <g id="line2d_3">
      <g>
       <use xlink:href="#ma4f88a9b95" x="250.56" y="384.48" style="stroke: #000000; stroke-width: 0.8"/>
      </g>
     </g>
     <g id="text_3">
      <!-- 0.5 -->
      <g transform="translate(234.656875 406.676875) scale(0.2 -0.2)">
       <defs>
        <path id="DejaVuSans-35" d="M 691 4666 
L 3169 4666 
L 3169 4134 
L 1269 4134 
L 1269 2991 
Q 1406 3038 1543 3061 
Q 1681 3084 1819 3084 
Q 2600 3084 3056 2656 
Q 3513 2228 3513 1497 
Q 3513 744 3044 326 
Q 2575 -91 1722 -91 
Q 1428 -91 1123 -41 
Q 819 9 494 109 
L 494 744 
Q 775 591 1075 516 
Q 1375 441 1709 441 
Q 2250 441 2565 725 
Q 2881 1009 2881 1497 
Q 2881 1984 2565 2268 
Q 2250 2553 1709 2553 
Q 1456 2553 1204 2497 
Q 953 2441 691 2322 
L 691 4666 
z
" transform="scale(0.015625)"/>
       </defs>
       <use xlink:href="#DejaVuSans-30"/>
       <use xlink:href="#DejaVuSans-2e" x="63.623047"/>
       <use xlink:href="#DejaVuSans-35" x="95.410156"/>
      </g>
     </g>
    </g>
    <g id="xtick_4">
     <g id="line2d_4">
      <g>
       <use xlink:href="#ma4f88a9b95" x="339.84" y="384.48" style="stroke: #000000; stroke-width: 0.8"/>
      </g>
     </g>
     <g id="text_4">
      <!-- 0.6 -->
      <g transform="translate(323.936875 406.676875) scale(0.2 -0.2)">
       <defs>
        <path id="DejaVuSans-36" d="M 2113 2584 
Q 1688 2584 1439 2293 
Q 1191 2003 1191 1497 
Q 1191 994 1439 701 
Q 1688 409 2113 409 
Q 2538 409 2786 701 
Q 3034 994 3034 1497 
Q 3034 2003 2786 2293 
Q 2538 2584 2113 2584 
z
M 3366 4563 
L 3366 3988 
Q 3128 4100 2886 4159 
Q 2644 4219 2406 4219 
Q 1781 4219 1451 3797 
Q 1122 3375 1075 2522 
Q 1259 2794 1537 2939 
Q 1816 3084 2150 3084 
Q 2853 3084 3261 2657 
Q 3669 2231 3669 1497 
Q 3669 778 3244 343 
Q 2819 -91 2113 -91 
Q 1303 -91 875 529 
Q 447 1150 447 2328 
Q 447 3434 972 4092 
Q 1497 4750 2381 4750 
Q 2619 4750 2861 4703 
Q 3103 4656 3366 4563 
z
" transform="scale(0.015625)"/>
       </defs>
       <use xlink:href="#DejaVuSans-30"/>
       <use xlink:href="#DejaVuSans-2e" x="63.623047"/>
       <use xlink:href="#DejaVuSans-36" x="95.410156"/>
      </g>
     </g>
    </g>
    <g id="xtick_5">
     <g id="line2d_5">
      <g>
       <use xlink:href="#ma4f88a9b95" x="429.12" y="384.48" style="stroke: #000000; stroke-width: 0.8"/>
      </g>
     </g>
     <g id="text_5">
      <!-- 0.7 -->
      <g transform="translate(413.216875 406.676875) scale(0.2 -0.2)">
       <defs>
        <path id="DejaVuSans-37" d="M 525 4666 
L 3525 4666 
L 3525 4397 
L 1831 0 
L 1172 0 
L 2766 4134 
L 525 4134 
L 525 4666 
z
" transform="scale(0.015625)"/>
       </defs>
       <use xlink:href="#DejaVuSans-30"/>
       <use xlink:href="#DejaVuSans-2e" x="63.623047"/>
       <use xlink:href="#DejaVuSans-37" x="95.410156"/>
      </g>
     </g>
    </g>
    <g id="xtick_6">
     <g id="line2d_6">
      <g>
       <use xlink:href="#ma4f88a9b95" x="518.4" y="384.48" style="stroke: #000000; stroke-width: 0.8"/>
      </g>
     </g>
     <g id="text_6">
      <!-- 0.8 -->
      <g transform="translate(502.496875 406.676875) scale(0.2 -0.2)">
       <defs>
        <path id="DejaVuSans-38" d="M 2034 2216 
Q 1584 2216 1326 1975 
Q 1069 1734 1069 1313 
Q 1069 891 1326 650 
Q 1584 409 2034 409 
Q 2484 409 2743 651 
Q 3003 894 3003 1313 
Q 3003 1734 2745 1975 
Q 2488 2216 2034 2216 
z
M 1403 2484 
Q 997 2584 770 2862 
Q 544 3141 544 3541 
Q 544 4100 942 4425 
Q 1341 4750 2034 4750 
Q 2731 4750 3128 4425 
Q 3525 4100 3525 3541 
Q 3525 3141 3298 2862 
Q 3072 2584 2669 2484 
Q 3125 2378 3379 2068 
Q 3634 1759 3634 1313 
Q 3634 634 3220 271 
Q 2806 -91 2034 -91 
Q 1263 -91 848 271 
Q 434 634 434 1313 
Q 434 1759 690 2068 
Q 947 2378 1403 2484 
z
M 1172 3481 
Q 1172 3119 1398 2916 
Q 1625 2713 2034 2713 
Q 2441 2713 2670 2916 
Q 2900 3119 2900 3481 
Q 2900 3844 2670 4047 
Q 2441 4250 2034 4250 
Q 1625 4250 1398 4047 
Q 1172 3844 1172 3481 
z
" transform="scale(0.015625)"/>
       </defs>
       <use xlink:href="#DejaVuSans-30"/>
       <use xlink:href="#DejaVuSans-2e" x="63.623047"/>
       <use xlink:href="#DejaVuSans-38" x="95.410156"/>
      </g>
     </g>
    </g>
   </g>
   <g id="matplotlib.axis_2">
    <g id="ytick_1">
     <g id="line2d_7">
      <defs>
       <path id="mb54d7ef077" d="M 0 0 
L -3.5 0 
" style="stroke: #000000; stroke-width: 0.8"/>
      </defs>
      <g>
       <use xlink:href="#mb54d7ef077" x="72" y="378.083077" style="stroke: #000000; stroke-width: 0.8"/>
      </g>
     </g>
     <g id="text_7">
      <!-- 1 -->
      <g transform="translate(52.275 385.681514) scale(0.2 -0.2)">
       <defs>
        <path id="DejaVuSans-31" d="M 794 531 
L 1825 531 
L 1825 4091 
L 703 3866 
L 703 4441 
L 1819 4666 
L 2450 4666 
L 2450 531 
L 3481 531 
L 3481 0 
L 794 0 
L 794 531 
z
" transform="scale(0.015625)"/>
       </defs>
       <use xlink:href="#DejaVuSans-31"/>
      </g>
     </g>
    </g>
    <g id="ytick_2">
     <g id="line2d_8">
      <g>
       <use xlink:href="#mb54d7ef077" x="72" y="314.113846" style="stroke: #000000; stroke-width: 0.8"/>
      </g>
     </g>
     <g id="text_8">
      <!-- 2 -->
      <g transform="translate(52.275 321.712284) scale(0.2 -0.2)">
       <defs>
        <path id="DejaVuSans-32" d="M 1228 531 
L 3431 531 
L 3431 0 
L 469 0 
L 469 531 
Q 828 903 1448 1529 
Q 2069 2156 2228 2338 
Q 2531 2678 2651 2914 
Q 2772 3150 2772 3378 
Q 2772 3750 2511 3984 
Q 2250 4219 1831 4219 
Q 1534 4219 1204 4116 
Q 875 4013 500 3803 
L 500 4441 
Q 881 4594 1212 4672 
Q 1544 4750 1819 4750 
Q 2544 4750 2975 4387 
Q 3406 4025 3406 3419 
Q 3406 3131 3298 2873 
Q 3191 2616 2906 2266 
Q 2828 2175 2409 1742 
Q 1991 1309 1228 531 
z
" transform="scale(0.015625)"/>
       </defs>
       <use xlink:href="#DejaVuSans-32"/>
      </g>
     </g>
    </g>
    <g id="ytick_3">
     <g id="line2d_9">
      <g>
       <use xlink:href="#mb54d7ef077" x="72" y="250.144615" style="stroke: #000000; stroke-width: 0.8"/>
      </g>
     </g>
     <g id="text_9">
      <!-- 3 -->
      <g transform="translate(52.275 257.743053) scale(0.2 -0.2)">
       <use xlink:href="#DejaVuSans-33"/>
      </g>
     </g>
    </g>
    <g id="ytick_4">
     <g id="line2d_10">
      <g>
       <use xlink:href="#mb54d7ef077" x="72" y="186.175385" style="stroke: #000000; stroke-width: 0.8"/>
      </g>
     </g>
     <g id="text_10">
      <!-- 4 -->
      <g transform="translate(52.275 193.773822) scale(0.2 -0.2)">
       <use xlink:href="#DejaVuSans-34"/>
      </g>
     </g>
    </g>
    <g id="ytick_5">
     <g id="line2d_11">
      <g>
       <use xlink:href="#mb54d7ef077" x="72" y="122.206154" style="stroke: #000000; stroke-width: 0.8"/>
      </g>
     </g>
     <g id="text_11">
      <!-- 5 -->
      <g transform="translate(52.275 129.804591) scale(0.2 -0.2)">
       <use xlink:href="#DejaVuSans-35"/>
      </g>
     </g>
    </g>
    <g id="ytick_6">
     <g id="line2d_12">
      <g>
       <use xlink:href="#mb54d7ef077" x="72" y="58.236923" style="stroke: #000000; stroke-width: 0.8"/>
      </g>
     </g>
     <g id="text_12">
      <!-- 6 -->
      <g transform="translate(52.275 65.835361) scale(0.2 -0.2)">
       <use xlink:href="#DejaVuSans-36"/>
      </g>
     </g>
    </g>
   </g>
   <g id="line2d_13">
    <path d="M 466.56 175.2182 
L -1 180.360417 
M -1 180.360417 
L 229.302857 177.82755 
L 347.603478 176.526482 
L 518.4 174.648064 
L 358.311724 176.408713 
L 490.929231 174.950187 
L 577 174.003583 
M 577 174.003583 
L 368.033684 176.301791 
L -1 180.360417 
M -1 180.360417 
L 288.822857 177.17295 
L 10.190769 180.237341 
L 19.663448 180.133161 
L 554.112 174.255304 
L 518.4 174.648064 
L 145.524706 178.748941 
L 429.12 175.629964 
L 282.445714 177.243086 
L 426.414545 175.659719 
L 359.68 176.393664 
L 314.331429 176.892407 
L 271.817143 177.359979 
L 577 174.003583 
M 577 174.003583 
L 349.76 176.502764 
L 577 174.003583 
M 577 174.003583 
L 416.365714 175.770236 
L 271.817143 177.359979 
L 529.56 174.525327 
L 280.32 177.266464 
L 502.167273 174.826592 
L 481.456552 175.054368 
L 351.36 176.485168 
L 306.36 176.980077 
L 510.96 174.729889 
L 308.786087 176.953395 
L 462.012632 175.268212 
L 192.333913 178.234134 
L 577 174.003583 
M 577 174.003583 
L 224.301176 177.882558 
L 409.988571 175.840371 
L 128.814545 178.932719 
L 300.16 177.048264 
L 525.267692 174.572534 
L 339.84 176.611864 
L 575.214545 174.023219 
L 378.102857 176.19105 
L 534.632727 174.469537 
L 171.783529 178.460147 
L 196.992 178.182904 
L 446.976 175.433584 
L 268.416 177.397384 
L 362.16 176.366389 
L 54.144 179.753944 
L 216.221538 177.971418 
L 205.92 178.084714 
L 494.050909 174.915855 
L 484.388571 175.022121 
L 525.267692 174.572534 
L 343.209057 176.574811 
L 250.56 177.593764 
L 349.76 176.502764 
L 147.544615 178.726726 
L 291.141818 177.147446 
L 250.56 177.593764 
L 116.64 179.066614 
L 408.96 175.851684 
L 134.826667 178.866598 
L 321.044211 176.81858 
L 27.36 180.048514 
L 37.064348 179.941786 
L 486.889412 174.994617 
L -1 180.360417 
M -1 180.360417 
L 577 174.003583 
M 577 174.003583 
L 224.301176 177.882558 
L 151.36 178.684764 
L 349.76 176.502764 
L 456.590769 175.327841 
L 429.12 175.629964 
L 130.794146 178.910947 
L 130.794146 178.910947 
L 37.064348 179.941786 
L 235.166897 177.763057 
L 151.36 178.684764 
L 113.206154 179.10438 
L 224.301176 177.882558 
L 94.32 179.312089 
L 577 174.003583 
M 577 174.003583 
L 209.978182 178.040082 
L 280.32 177.266464 
L 250.56 177.593764 
L 280.32 177.266464 
L 346.217143 176.541729 
L -1 180.360417 
" clip-path="url(#p9ad0f5d1fc)" style="fill: none; stroke: #ff0000; stroke-width: 1.5; stroke-linecap: square"/>
   </g>
   <g id="patch_3">
    <path d="M 72 384.48 
L 72 51.84 
" style="fill: none; stroke: #000000; stroke-width: 0.8; stroke-linejoin: miter; stroke-linecap: square"/>
   </g>
   <g id="patch_4">
    <path d="M 518.4 384.48 
L 518.4 51.84 
" style="fill: none; stroke: #000000; stroke-width: 0.8; stroke-linejoin: miter; stroke-linecap: square"/>
   </g>
   <g id="patch_5">
    <path d="M 72 384.48 
L 518.4 384.48 
" style="fill: none; stroke: #000000; stroke-width: 0.8; stroke-linejoin: miter; stroke-linecap: square"/>
   </g>
   <g id="patch_6">
    <path d="M 72 51.84 
L 518.4 51.84 
" style="fill: none; stroke: #000000; stroke-width: 0.8; stroke-linejoin: miter; stroke-linecap: square"/>
   </g>
   <g id="legend_1">
    <g id="patch_7">
     <path d="M 507.4 64.84 
L 511.4 64.84 
Q 513.4 64.84 513.4 62.84 
L 513.4 58.84 
Q 513.4 56.84 511.4 56.84 
L 507.4 56.84 
Q 505.4 56.84 505.4 58.84 
L 505.4 62.84 
Q 505.4 64.84 507.4 64.84 
z
" style="fill: #ffffff; opacity: 0.8; stroke: #cccccc; stroke-linejoin: miter"/>
    </g>
   </g>
  </g>
 </g>
 <defs>
  <clipPath id="p9ad0f5d1fc">
   <rect x="72" y="51.84" width="446.4" height="332.64"/>
  </clipPath>
 </defs>
</svg>
