<?xml version="1.0" encoding="utf-8" standalone="no"?>
<!DOCTYPE svg PUBLIC "-//W3C//DTD SVG 1.1//EN"
  "http://www.w3.org/Graphics/SVG/1.1/DTD/svg11.dtd">
<svg xmlns:xlink="http://www.w3.org/1999/xlink" width="576pt" height="432pt" viewBox="0 0 576 432" xmlns="http://www.w3.org/2000/svg" version="1.1">
 <metadata>
  <rdf:RDF xmlns:dc="http://purl.org/dc/elements/1.1/" xmlns:cc="http://creativecommons.org/ns#" xmlns:rdf="http://www.w3.org/1999/02/22-rdf-syntax-ns#">
   <cc:Work>
    <dc:type rdf:resource="http://purl.org/dc/dcmitype/StillImage"/>
    <dc:date>2024-12-02T23:19:10.800656</dc:date>
    <dc:format>image/svg+xml</dc:format>
    <dc:creator>
     <cc:Agent>
      <dc:title>Matplotlib v3.8.1, https://matplotlib.org/</dc:title>
     </cc:Agent>
    </dc:creator>
   </cc:Work>
  </rdf:RDF>
 </metadata>
 <defs>
  <style type="text/css">*{stroke-linejoin: round; stroke-linecap: butt}</style>
 </defs>
 <g id="figure_1">
  <g id="patch_1">
   <path d="M 0 432 
L 576 432 
L 576 0 
L 0 0 
z
" style="fill: #ffffff"/>
  </g>
  <g id="axes_1">
   <g id="patch_2">
    <path d="M 72 384.48 
L 518.4 384.48 
L 518.4 51.84 
L 72 51.84 
z
" style="fill: #ffffff"/>
   </g>
   <g id="PathCollection_1">
    <defs>
     <path id="m1c92934bb2" d="M 0 3 
C 0.795609 3 1.55874 2.683901 2.12132 2.12132 
C 2.683901 1.55874 3 0.795609 3 0 
C 3 -0.795609 2.683901 -1.55874 2.12132 -2.12132 
C 1.55874 -2.683901 0.795609 -3 0 -3 
C -0.795609 -3 -1.55874 -2.683901 -2.12132 -2.12132 
C -2.683901 -1.55874 -3 -0.795609 -3 0 
C -3 0.795609 -2.683901 1.55874 -2.12132 2.12132 
C -1.55874 2.683901 -0.795609 3 0 3 
z
" style="stroke: #1f77b4"/>
    </defs>
    <g clip-path="url(#p1494c0da3a)">
     <use xlink:href="#m1c92934bb2" x="357.696" y="122.206154" style="fill: #1f77b4; stroke: #1f77b4"/>
     <use xlink:href="#m1c92934bb2" x="287.1648" y="193.275969" style="fill: #1f77b4; stroke: #1f77b4"/>
     <use xlink:href="#m1c92934bb2" x="294.3072" y="122.206154" style="fill: #1f77b4; stroke: #1f77b4"/>
     <use xlink:href="#m1c92934bb2" x="409.4784" y="136.407323" style="fill: #1f77b4; stroke: #1f77b4"/>
     <use xlink:href="#m1c92934bb2" x="420.192" y="164.873631" style="fill: #1f77b4; stroke: #1f77b4"/>
     <use xlink:href="#m1c92934bb2" x="343.4112" y="136.407323" style="fill: #1f77b4; stroke: #1f77b4"/>
     <use xlink:href="#m1c92934bb2" x="302.3424" y="171.974215" style="fill: #1f77b4; stroke: #1f77b4"/>
     <use xlink:href="#m1c92934bb2" x="363.9456" y="122.206154" style="fill: #1f77b4; stroke: #1f77b4"/>
     <use xlink:href="#m1c92934bb2" x="263.952" y="207.477138" style="fill: #1f77b4; stroke: #1f77b4"/>
     <use xlink:href="#m1c92934bb2" x="312.1632" y="193.275969" style="fill: #1f77b4; stroke: #1f77b4"/>
     <use xlink:href="#m1c92934bb2" x="334.4832" y="157.709077" style="fill: #1f77b4; stroke: #1f77b4"/>
     <use xlink:href="#m1c92934bb2" x="282.7008" y="122.206154" style="fill: #1f77b4; stroke: #1f77b4"/>
     <use xlink:href="#m1c92934bb2" x="395.1936" y="129.306738" style="fill: #1f77b4; stroke: #1f77b4"/>
     <use xlink:href="#m1c92934bb2" x="397.872" y="143.507908" style="fill: #1f77b4; stroke: #1f77b4"/>
     <use xlink:href="#m1c92934bb2" x="317.52" y="122.206154" style="fill: #1f77b4; stroke: #1f77b4"/>
     <use xlink:href="#m1c92934bb2" x="403.2288" y="122.206154" style="fill: #1f77b4; stroke: #1f77b4"/>
     <use xlink:href="#m1c92934bb2" x="313.9488" y="214.577723" style="fill: #1f77b4; stroke: #1f77b4"/>
     <use xlink:href="#m1c92934bb2" x="333.5904" y="186.175385" style="fill: #1f77b4; stroke: #1f77b4"/>
     <use xlink:href="#m1c92934bb2" x="325.5552" y="122.206154" style="fill: #1f77b4; stroke: #1f77b4"/>
     <use xlink:href="#m1c92934bb2" x="360.3744" y="157.709077" style="fill: #1f77b4; stroke: #1f77b4"/>
     <use xlink:href="#m1c92934bb2" x="309.4848" y="143.507908" style="fill: #1f77b4; stroke: #1f77b4"/>
     <use xlink:href="#m1c92934bb2" x="382.6944" y="122.206154" style="fill: #1f77b4; stroke: #1f77b4"/>
     <use xlink:href="#m1c92934bb2" x="293.4144" y="129.306738" style="fill: #1f77b4; stroke: #1f77b4"/>
     <use xlink:href="#m1c92934bb2" x="300.5568" y="193.275969" style="fill: #1f77b4; stroke: #1f77b4"/>
     <use xlink:href="#m1c92934bb2" x="418.4064" y="136.407323" style="fill: #1f77b4; stroke: #1f77b4"/>
     <use xlink:href="#m1c92934bb2" x="409.4784" y="164.873631" style="fill: #1f77b4; stroke: #1f77b4"/>
     <use xlink:href="#m1c92934bb2" x="307.6992" y="136.407323" style="fill: #1f77b4; stroke: #1f77b4"/>
     <use xlink:href="#m1c92934bb2" x="236.2752" y="164.873631" style="fill: #1f77b4; stroke: #1f77b4"/>
     <use xlink:href="#m1c92934bb2" x="280.9152" y="122.206154" style="fill: #1f77b4; stroke: #1f77b4"/>
     <use xlink:href="#m1c92934bb2" x="346.9824" y="136.407323" style="fill: #1f77b4; stroke: #1f77b4"/>
     <use xlink:href="#m1c92934bb2" x="341.6256" y="136.407323" style="fill: #1f77b4; stroke: #1f77b4"/>
     <use xlink:href="#m1c92934bb2" x="358.5888" y="136.407323" style="fill: #1f77b4; stroke: #1f77b4"/>
     <use xlink:href="#m1c92934bb2" x="340.7328" y="122.206154" style="fill: #1f77b4; stroke: #1f77b4"/>
     <use xlink:href="#m1c92934bb2" x="271.0944" y="122.206154" style="fill: #1f77b4; stroke: #1f77b4"/>
     <use xlink:href="#m1c92934bb2" x="362.16" y="143.507908" style="fill: #1f77b4; stroke: #1f77b4"/>
     <use xlink:href="#m1c92934bb2" x="248.7744" y="129.306738" style="fill: #1f77b4; stroke: #1f77b4"/>
     <use xlink:href="#m1c92934bb2" x="233.5968" y="129.306738" style="fill: #1f77b4; stroke: #1f77b4"/>
     <use xlink:href="#m1c92934bb2" x="377.3376" y="186.175385" style="fill: #1f77b4; stroke: #1f77b4"/>
     <use xlink:href="#m1c92934bb2" x="265.7376" y="157.709077" style="fill: #1f77b4; stroke: #1f77b4"/>
     <use xlink:href="#m1c92934bb2" x="335.376" y="129.306738" style="fill: #1f77b4; stroke: #1f77b4"/>
     <use xlink:href="#m1c92934bb2" x="286.272" y="200.376554" style="fill: #1f77b4; stroke: #1f77b4"/>
     <use xlink:href="#m1c92934bb2" x="443.4048" y="129.306738" style="fill: #1f77b4; stroke: #1f77b4"/>
     <use xlink:href="#m1c92934bb2" x="351.4464" y="129.306738" style="fill: #1f77b4; stroke: #1f77b4"/>
     <use xlink:href="#m1c92934bb2" x="448.7616" y="150.672462" style="fill: #1f77b4; stroke: #1f77b4"/>
     <use xlink:href="#m1c92934bb2" x="393.408" y="122.206154" style="fill: #1f77b4; stroke: #1f77b4"/>
     <use xlink:href="#m1c92934bb2" x="295.2" y="179.0748" style="fill: #1f77b4; stroke: #1f77b4"/>
     <use xlink:href="#m1c92934bb2" x="282.7008" y="143.507908" style="fill: #1f77b4; stroke: #1f77b4"/>
     <use xlink:href="#m1c92934bb2" x="254.1312" y="186.175385" style="fill: #1f77b4; stroke: #1f77b4"/>
     <use xlink:href="#m1c92934bb2" x="413.9424" y="129.306738" style="fill: #1f77b4; stroke: #1f77b4"/>
     <use xlink:href="#m1c92934bb2" x="379.1232" y="122.206154" style="fill: #1f77b4; stroke: #1f77b4"/>
     <use xlink:href="#m1c92934bb2" x="221.9904" y="164.873631" style="fill: #1f77b4; stroke: #1f77b4"/>
     <use xlink:href="#m1c92934bb2" x="446.976" y="136.407323" style="fill: #1f77b4; stroke: #1f77b4"/>
     <use xlink:href="#m1c92934bb2" x="383.5872" y="150.608492" style="fill: #1f77b4; stroke: #1f77b4"/>
     <use xlink:href="#m1c92934bb2" x="392.5152" y="186.175385" style="fill: #1f77b4; stroke: #1f77b4"/>
     <use xlink:href="#m1c92934bb2" x="212.1696" y="122.206154" style="fill: #1f77b4; stroke: #1f77b4"/>
     <use xlink:href="#m1c92934bb2" x="401.4432" y="243.044031" style="fill: #1f77b4; stroke: #1f77b4"/>
     <use xlink:href="#m1c92934bb2" x="406.8" y="136.407323" style="fill: #1f77b4; stroke: #1f77b4"/>
     <use xlink:href="#m1c92934bb2" x="406.8" y="150.608492" style="fill: #1f77b4; stroke: #1f77b4"/>
     <use xlink:href="#m1c92934bb2" x="438.9408" y="122.206154" style="fill: #1f77b4; stroke: #1f77b4"/>
     <use xlink:href="#m1c92934bb2" x="335.376" y="136.407323" style="fill: #1f77b4; stroke: #1f77b4"/>
     <use xlink:href="#m1c92934bb2" x="346.0896" y="164.873631" style="fill: #1f77b4; stroke: #1f77b4"/>
     <use xlink:href="#m1c92934bb2" x="372.8736" y="122.206154" style="fill: #1f77b4; stroke: #1f77b4"/>
     <use xlink:href="#m1c92934bb2" x="226.4544" y="193.275969" style="fill: #1f77b4; stroke: #1f77b4"/>
     <use xlink:href="#m1c92934bb2" x="372.8736" y="122.206154" style="fill: #1f77b4; stroke: #1f77b4"/>
     <use xlink:href="#m1c92934bb2" x="311.2704" y="186.175385" style="fill: #1f77b4; stroke: #1f77b4"/>
     <use xlink:href="#m1c92934bb2" x="322.8768" y="150.608492" style="fill: #1f77b4; stroke: #1f77b4"/>
     <use xlink:href="#m1c92934bb2" x="316.6272" y="129.306738" style="fill: #1f77b4; stroke: #1f77b4"/>
     <use xlink:href="#m1c92934bb2" x="283.5936" y="136.407323" style="fill: #1f77b4; stroke: #1f77b4"/>
     <use xlink:href="#m1c92934bb2" x="237.168" y="171.974215" style="fill: #1f77b4; stroke: #1f77b4"/>
     <use xlink:href="#m1c92934bb2" x="327.3408" y="235.943446" style="fill: #1f77b4; stroke: #1f77b4"/>
     <use xlink:href="#m1c92934bb2" x="364.8384" y="143.507908" style="fill: #1f77b4; stroke: #1f77b4"/>
     <use xlink:href="#m1c92934bb2" x="185.3856" y="122.206154" style="fill: #1f77b4; stroke: #1f77b4"/>
     <use xlink:href="#m1c92934bb2" x="253.2384" y="122.206154" style="fill: #1f77b4; stroke: #1f77b4"/>
     <use xlink:href="#m1c92934bb2" x="264.8448" y="129.306738" style="fill: #1f77b4; stroke: #1f77b4"/>
     <use xlink:href="#m1c92934bb2" x="125.568" y="193.275969" style="fill: #1f77b4; stroke: #1f77b4"/>
     <use xlink:href="#m1c92934bb2" x="274.6656" y="129.306738" style="fill: #1f77b4; stroke: #1f77b4"/>
     <use xlink:href="#m1c92934bb2" x="227.3472" y="122.206154" style="fill: #1f77b4; stroke: #1f77b4"/>
     <use xlink:href="#m1c92934bb2" x="281.808" y="243.044031" style="fill: #1f77b4; stroke: #1f77b4"/>
     <use xlink:href="#m1c92934bb2" x="379.1232" y="235.943446" style="fill: #1f77b4; stroke: #1f77b4"/>
     <use xlink:href="#m1c92934bb2" x="331.8048" y="164.873631" style="fill: #1f77b4; stroke: #1f77b4"/>
     <use xlink:href="#m1c92934bb2" x="192.528" y="186.175385" style="fill: #1f77b4; stroke: #1f77b4"/>
     <use xlink:href="#m1c92934bb2" x="309.4848" y="186.175385" style="fill: #1f77b4; stroke: #1f77b4"/>
     <use xlink:href="#m1c92934bb2" x="278.2368" y="122.206154" style="fill: #1f77b4; stroke: #1f77b4"/>
     <use xlink:href="#m1c92934bb2" x="307.6992" y="143.507908" style="fill: #1f77b4; stroke: #1f77b4"/>
     <use xlink:href="#m1c92934bb2" x="271.0944" y="214.641692" style="fill: #1f77b4; stroke: #1f77b4"/>
     <use xlink:href="#m1c92934bb2" x="282.7008" y="122.206154" style="fill: #1f77b4; stroke: #1f77b4"/>
     <use xlink:href="#m1c92934bb2" x="286.272" y="179.0748" style="fill: #1f77b4; stroke: #1f77b4"/>
     <use xlink:href="#m1c92934bb2" x="299.664" y="157.773046" style="fill: #1f77b4; stroke: #1f77b4"/>
     <use xlink:href="#m1c92934bb2" x="246.096" y="179.0748" style="fill: #1f77b4; stroke: #1f77b4"/>
     <use xlink:href="#m1c92934bb2" x="317.52" y="136.407323" style="fill: #1f77b4; stroke: #1f77b4"/>
     <use xlink:href="#m1c92934bb2" x="146.9952" y="179.0748" style="fill: #1f77b4; stroke: #1f77b4"/>
     <use xlink:href="#m1c92934bb2" x="217.5264" y="186.175385" style="fill: #1f77b4; stroke: #1f77b4"/>
     <use xlink:href="#m1c92934bb2" x="84.4992" y="164.873631" style="fill: #1f77b4; stroke: #1f77b4"/>
    </g>
   </g>
   <g id="matplotlib.axis_1">
    <g id="xtick_1">
     <g id="line2d_1">
      <defs>
       <path id="mceee528af8" d="M 0 0 
L 0 3.5 
" style="stroke: #000000; stroke-width: 0.8"/>
      </defs>
      <g>
       <use xlink:href="#mceee528af8" x="72" y="384.48" style="stroke: #000000; stroke-width: 0.8"/>
      </g>
     </g>
     <g id="text_1">
      <!-- 0.3 -->
      <g transform="translate(56.096875 406.676875) scale(0.2 -0.2)">
       <defs>
        <path id="DejaVuSans-30" d="M 2034 4250 
Q 1547 4250 1301 3770 
Q 1056 3291 1056 2328 
Q 1056 1369 1301 889 
Q 1547 409 2034 409 
Q 2525 409 2770 889 
Q 3016 1369 3016 2328 
Q 3016 3291 2770 3770 
Q 2525 4250 2034 4250 
z
M 2034 4750 
Q 2819 4750 3233 4129 
Q 3647 3509 3647 2328 
Q 3647 1150 3233 529 
Q 2819 -91 2034 -91 
Q 1250 -91 836 529 
Q 422 1150 422 2328 
Q 422 3509 836 4129 
Q 1250 4750 2034 4750 
z
" transform="scale(0.015625)"/>
        <path id="DejaVuSans-2e" d="M 684 794 
L 1344 794 
L 1344 0 
L 684 0 
L 684 794 
z
" transform="scale(0.015625)"/>
        <path id="DejaVuSans-33" d="M 2597 2516 
Q 3050 2419 3304 2112 
Q 3559 1806 3559 1356 
Q 3559 666 3084 287 
Q 2609 -91 1734 -91 
Q 1441 -91 1130 -33 
Q 819 25 488 141 
L 488 750 
Q 750 597 1062 519 
Q 1375 441 1716 441 
Q 2309 441 2620 675 
Q 2931 909 2931 1356 
Q 2931 1769 2642 2001 
Q 2353 2234 1838 2234 
L 1294 2234 
L 1294 2753 
L 1863 2753 
Q 2328 2753 2575 2939 
Q 2822 3125 2822 3475 
Q 2822 3834 2567 4026 
Q 2313 4219 1838 4219 
Q 1578 4219 1281 4162 
Q 984 4106 628 3988 
L 628 4550 
Q 988 4650 1302 4700 
Q 1616 4750 1894 4750 
Q 2613 4750 3031 4423 
Q 3450 4097 3450 3541 
Q 3450 3153 3228 2886 
Q 3006 2619 2597 2516 
z
" transform="scale(0.015625)"/>
       </defs>
       <use xlink:href="#DejaVuSans-30"/>
       <use xlink:href="#DejaVuSans-2e" x="63.623047"/>
       <use xlink:href="#DejaVuSans-33" x="95.410156"/>
      </g>
     </g>
    </g>
    <g id="xtick_2">
     <g id="line2d_2">
      <g>
       <use xlink:href="#mceee528af8" x="161.28" y="384.48" style="stroke: #000000; stroke-width: 0.8"/>
      </g>
     </g>
     <g id="text_2">
      <!-- 0.4 -->
      <g transform="translate(145.376875 406.676875) scale(0.2 -0.2)">
       <defs>
        <path id="DejaVuSans-34" d="M 2419 4116 
L 825 1625 
L 2419 1625 
L 2419 4116 
z
M 2253 4666 
L 3047 4666 
L 3047 1625 
L 3713 1625 
L 3713 1100 
L 3047 1100 
L 3047 0 
L 2419 0 
L 2419 1100 
L 313 1100 
L 313 1709 
L 2253 4666 
z
" transform="scale(0.015625)"/>
       </defs>
       <use xlink:href="#DejaVuSans-30"/>
       <use xlink:href="#DejaVuSans-2e" x="63.623047"/>
       <use xlink:href="#DejaVuSans-34" x="95.410156"/>
      </g>
     </g>
    </g>
    <g id="xtick_3">
     <g id="line2d_3">
      <g>
       <use xlink:href="#mceee528af8" x="250.56" y="384.48" style="stroke: #000000; stroke-width: 0.8"/>
      </g>
     </g>
     <g id="text_3">
      <!-- 0.5 -->
      <g transform="translate(234.656875 406.676875) scale(0.2 -0.2)">
       <defs>
        <path id="DejaVuSans-35" d="M 691 4666 
L 3169 4666 
L 3169 4134 
L 1269 4134 
L 1269 2991 
Q 1406 3038 1543 3061 
Q 1681 3084 1819 3084 
Q 2600 3084 3056 2656 
Q 3513 2228 3513 1497 
Q 3513 744 3044 326 
Q 2575 -91 1722 -91 
Q 1428 -91 1123 -41 
Q 819 9 494 109 
L 494 744 
Q 775 591 1075 516 
Q 1375 441 1709 441 
Q 2250 441 2565 725 
Q 2881 1009 2881 1497 
Q 2881 1984 2565 2268 
Q 2250 2553 1709 2553 
Q 1456 2553 1204 2497 
Q 953 2441 691 2322 
L 691 4666 
z
" transform="scale(0.015625)"/>
       </defs>
       <use xlink:href="#DejaVuSans-30"/>
       <use xlink:href="#DejaVuSans-2e" x="63.623047"/>
       <use xlink:href="#DejaVuSans-35" x="95.410156"/>
      </g>
     </g>
    </g>
    <g id="xtick_4">
     <g id="line2d_4">
      <g>
       <use xlink:href="#mceee528af8" x="339.84" y="384.48" style="stroke: #000000; stroke-width: 0.8"/>
      </g>
     </g>
     <g id="text_4">
      <!-- 0.6 -->
      <g transform="translate(323.936875 406.676875) scale(0.2 -0.2)">
       <defs>
        <path id="DejaVuSans-36" d="M 2113 2584 
Q 1688 2584 1439 2293 
Q 1191 2003 1191 1497 
Q 1191 994 1439 701 
Q 1688 409 2113 409 
Q 2538 409 2786 701 
Q 3034 994 3034 1497 
Q 3034 2003 2786 2293 
Q 2538 2584 2113 2584 
z
M 3366 4563 
L 3366 3988 
Q 3128 4100 2886 4159 
Q 2644 4219 2406 4219 
Q 1781 4219 1451 3797 
Q 1122 3375 1075 2522 
Q 1259 2794 1537 2939 
Q 1816 3084 2150 3084 
Q 2853 3084 3261 2657 
Q 3669 2231 3669 1497 
Q 3669 778 3244 343 
Q 2819 -91 2113 -91 
Q 1303 -91 875 529 
Q 447 1150 447 2328 
Q 447 3434 972 4092 
Q 1497 4750 2381 4750 
Q 2619 4750 2861 4703 
Q 3103 4656 3366 4563 
z
" transform="scale(0.015625)"/>
       </defs>
       <use xlink:href="#DejaVuSans-30"/>
       <use xlink:href="#DejaVuSans-2e" x="63.623047"/>
       <use xlink:href="#DejaVuSans-36" x="95.410156"/>
      </g>
     </g>
    </g>
    <g id="xtick_5">
     <g id="line2d_5">
      <g>
       <use xlink:href="#mceee528af8" x="429.12" y="384.48" style="stroke: #000000; stroke-width: 0.8"/>
      </g>
     </g>
     <g id="text_5">
      <!-- 0.7 -->
      <g transform="translate(413.216875 406.676875) scale(0.2 -0.2)">
       <defs>
        <path id="DejaVuSans-37" d="M 525 4666 
L 3525 4666 
L 3525 4397 
L 1831 0 
L 1172 0 
L 2766 4134 
L 525 4134 
L 525 4666 
z
" transform="scale(0.015625)"/>
       </defs>
       <use xlink:href="#DejaVuSans-30"/>
       <use xlink:href="#DejaVuSans-2e" x="63.623047"/>
       <use xlink:href="#DejaVuSans-37" x="95.410156"/>
      </g>
     </g>
    </g>
    <g id="xtick_6">
     <g id="line2d_6">
      <g>
       <use xlink:href="#mceee528af8" x="518.4" y="384.48" style="stroke: #000000; stroke-width: 0.8"/>
      </g>
     </g>
     <g id="text_6">
      <!-- 0.8 -->
      <g transform="translate(502.496875 406.676875) scale(0.2 -0.2)">
       <defs>
        <path id="DejaVuSans-38" d="M 2034 2216 
Q 1584 2216 1326 1975 
Q 1069 1734 1069 1313 
Q 1069 891 1326 650 
Q 1584 409 2034 409 
Q 2484 409 2743 651 
Q 3003 894 3003 1313 
Q 3003 1734 2745 1975 
Q 2488 2216 2034 2216 
z
M 1403 2484 
Q 997 2584 770 2862 
Q 544 3141 544 3541 
Q 544 4100 942 4425 
Q 1341 4750 2034 4750 
Q 2731 4750 3128 4425 
Q 3525 4100 3525 3541 
Q 3525 3141 3298 2862 
Q 3072 2584 2669 2484 
Q 3125 2378 3379 2068 
Q 3634 1759 3634 1313 
Q 3634 634 3220 271 
Q 2806 -91 2034 -91 
Q 1263 -91 848 271 
Q 434 634 434 1313 
Q 434 1759 690 2068 
Q 947 2378 1403 2484 
z
M 1172 3481 
Q 1172 3119 1398 2916 
Q 1625 2713 2034 2713 
Q 2441 2713 2670 2916 
Q 2900 3119 2900 3481 
Q 2900 3844 2670 4047 
Q 2441 4250 2034 4250 
Q 1625 4250 1398 4047 
Q 1172 3844 1172 3481 
z
" transform="scale(0.015625)"/>
       </defs>
       <use xlink:href="#DejaVuSans-30"/>
       <use xlink:href="#DejaVuSans-2e" x="63.623047"/>
       <use xlink:href="#DejaVuSans-38" x="95.410156"/>
      </g>
     </g>
    </g>
   </g>
   <g id="matplotlib.axis_2">
    <g id="ytick_1">
     <g id="line2d_7">
      <defs>
       <path id="m461a84a7f3" d="M 0 0 
L -3.5 0 
" style="stroke: #000000; stroke-width: 0.8"/>
      </defs>
      <g>
       <use xlink:href="#m461a84a7f3" x="72" y="378.083077" style="stroke: #000000; stroke-width: 0.8"/>
      </g>
     </g>
     <g id="text_7">
      <!-- 1 -->
      <g transform="translate(52.275 385.681514) scale(0.2 -0.2)">
       <defs>
        <path id="DejaVuSans-31" d="M 794 531 
L 1825 531 
L 1825 4091 
L 703 3866 
L 703 4441 
L 1819 4666 
L 2450 4666 
L 2450 531 
L 3481 531 
L 3481 0 
L 794 0 
L 794 531 
z
" transform="scale(0.015625)"/>
       </defs>
       <use xlink:href="#DejaVuSans-31"/>
      </g>
     </g>
    </g>
    <g id="ytick_2">
     <g id="line2d_8">
      <g>
       <use xlink:href="#m461a84a7f3" x="72" y="314.113846" style="stroke: #000000; stroke-width: 0.8"/>
      </g>
     </g>
     <g id="text_8">
      <!-- 2 -->
      <g transform="translate(52.275 321.712284) scale(0.2 -0.2)">
       <defs>
        <path id="DejaVuSans-32" d="M 1228 531 
L 3431 531 
L 3431 0 
L 469 0 
L 469 531 
Q 828 903 1448 1529 
Q 2069 2156 2228 2338 
Q 2531 2678 2651 2914 
Q 2772 3150 2772 3378 
Q 2772 3750 2511 3984 
Q 2250 4219 1831 4219 
Q 1534 4219 1204 4116 
Q 875 4013 500 3803 
L 500 4441 
Q 881 4594 1212 4672 
Q 1544 4750 1819 4750 
Q 2544 4750 2975 4387 
Q 3406 4025 3406 3419 
Q 3406 3131 3298 2873 
Q 3191 2616 2906 2266 
Q 2828 2175 2409 1742 
Q 1991 1309 1228 531 
z
" transform="scale(0.015625)"/>
       </defs>
       <use xlink:href="#DejaVuSans-32"/>
      </g>
     </g>
    </g>
    <g id="ytick_3">
     <g id="line2d_9">
      <g>
       <use xlink:href="#m461a84a7f3" x="72" y="250.144615" style="stroke: #000000; stroke-width: 0.8"/>
      </g>
     </g>
     <g id="text_9">
      <!-- 3 -->
      <g transform="translate(52.275 257.743053) scale(0.2 -0.2)">
       <use xlink:href="#DejaVuSans-33"/>
      </g>
     </g>
    </g>
    <g id="ytick_4">
     <g id="line2d_10">
      <g>
       <use xlink:href="#m461a84a7f3" x="72" y="186.175385" style="stroke: #000000; stroke-width: 0.8"/>
      </g>
     </g>
     <g id="text_10">
      <!-- 4 -->
      <g transform="translate(52.275 193.773822) scale(0.2 -0.2)">
       <use xlink:href="#DejaVuSans-34"/>
      </g>
     </g>
    </g>
    <g id="ytick_5">
     <g id="line2d_11">
      <g>
       <use xlink:href="#m461a84a7f3" x="72" y="122.206154" style="stroke: #000000; stroke-width: 0.8"/>
      </g>
     </g>
     <g id="text_11">
      <!-- 5 -->
      <g transform="translate(52.275 129.804591) scale(0.2 -0.2)">
       <use xlink:href="#DejaVuSans-35"/>
      </g>
     </g>
    </g>
    <g id="ytick_6">
     <g id="line2d_12">
      <g>
       <use xlink:href="#m461a84a7f3" x="72" y="58.236923" style="stroke: #000000; stroke-width: 0.8"/>
      </g>
     </g>
     <g id="text_12">
      <!-- 6 -->
      <g transform="translate(52.275 65.835361) scale(0.2 -0.2)">
       <use xlink:href="#DejaVuSans-36"/>
      </g>
     </g>
    </g>
   </g>
   <g id="line2d_13">
    <path d="M 357.696 143.386574 
L 287.1648 151.820298 
L 294.3072 150.96625 
L 409.4784 137.194726 
L 420.192 135.913654 
L 343.4112 145.09467 
L 302.3424 150.005446 
L 363.9456 142.639282 
L 263.952 154.595954 
L 312.1632 148.83113 
L 334.4832 146.16223 
L 282.7008 152.354078 
L 395.1936 138.902822 
L 397.872 138.582554 
L 317.52 148.190594 
L 403.2288 137.942018 
L 313.9488 148.617618 
L 333.5904 146.268986 
L 325.5552 147.22979 
L 360.3744 143.066306 
L 309.4848 149.151398 
L 382.6944 140.397406 
L 293.4144 151.073006 
L 300.5568 150.218958 
L 418.4064 136.127166 
L 409.4784 137.194726 
L 307.6992 149.36491 
L 236.2752 157.90539 
L 280.9152 152.56759 
L 346.9824 144.667646 
L 341.6256 145.308182 
L 358.5888 143.279818 
L 340.7328 145.414938 
L 271.0944 153.741906 
L 362.16 142.852794 
L 248.7744 156.410806 
L 233.5968 158.225658 
L 377.3376 141.037942 
L 265.7376 154.382442 
L 335.376 146.055474 
L 286.272 151.927054 
L 443.4048 133.137998 
L 351.4464 144.133866 
L 448.7616 132.497462 
L 393.408 139.116334 
L 295.2 150.859494 
L 282.7008 152.354078 
L 254.1312 155.77027 
L 413.9424 136.660946 
L 379.1232 140.82443 
L 221.9904 159.613486 
L 446.976 132.710974 
L 383.5872 140.29065 
L 392.5152 139.22309 
L 212.1696 160.787802 
L 401.4432 138.15553 
L 406.8 137.514994 
L 406.8 137.514994 
L 438.9408 133.671778 
L 335.376 146.055474 
L 346.0896 144.774402 
L 372.8736 141.571722 
L 226.4544 159.079706 
L 372.8736 141.571722 
L 311.2704 148.937886 
L 322.8768 147.550058 
L 316.6272 148.29735 
L 283.5936 152.247322 
L 237.168 157.798634 
L 327.3408 147.016278 
L 364.8384 142.532526 
L 185.3856 163.990482 
L 253.2384 155.877026 
L 264.8448 154.489198 
L 125.568 171.143133 
L 274.6656 153.314882 
L 227.3472 158.97295 
L 281.808 152.460834 
L 379.1232 140.82443 
L 331.8048 146.482498 
L 192.528 163.136434 
L 309.4848 149.151398 
L 278.2368 152.887858 
L 307.6992 149.36491 
L 271.0944 153.741906 
L 282.7008 152.354078 
L 286.272 151.927054 
L 299.664 150.325714 
L 246.096 156.731074 
L 317.52 148.190594 
L 146.9952 168.580989 
L 217.5264 160.147266 
L 84.4992 176.053909 
" clip-path="url(#p1494c0da3a)" style="fill: none; stroke: #ff0000; stroke-width: 1.5; stroke-linecap: square"/>
   </g>
   <g id="patch_3">
    <path d="M 72 384.48 
L 72 51.84 
" style="fill: none; stroke: #000000; stroke-width: 0.8; stroke-linejoin: miter; stroke-linecap: square"/>
   </g>
   <g id="patch_4">
    <path d="M 518.4 384.48 
L 518.4 51.84 
" style="fill: none; stroke: #000000; stroke-width: 0.8; stroke-linejoin: miter; stroke-linecap: square"/>
   </g>
   <g id="patch_5">
    <path d="M 72 384.48 
L 518.4 384.48 
" style="fill: none; stroke: #000000; stroke-width: 0.8; stroke-linejoin: miter; stroke-linecap: square"/>
   </g>
   <g id="patch_6">
    <path d="M 72 51.84 
L 518.4 51.84 
" style="fill: none; stroke: #000000; stroke-width: 0.8; stroke-linejoin: miter; stroke-linecap: square"/>
   </g>
   <g id="legend_1">
    <g id="patch_7">
     <path d="M 507.4 64.84 
L 511.4 64.84 
Q 513.4 64.84 513.4 62.84 
L 513.4 58.84 
Q 513.4 56.84 511.4 56.84 
L 507.4 56.84 
Q 505.4 56.84 505.4 58.84 
L 505.4 62.84 
Q 505.4 64.84 507.4 64.84 
z
" style="fill: #ffffff; opacity: 0.8; stroke: #cccccc; stroke-linejoin: miter"/>
    </g>
   </g>
  </g>
 </g>
 <defs>
  <clipPath id="p1494c0da3a">
   <rect x="72" y="51.84" width="446.4" height="332.64"/>
  </clipPath>
 </defs>
</svg>
