<?xml version="1.0" encoding="utf-8" standalone="no"?>
<!DOCTYPE svg PUBLIC "-//W3C//DTD SVG 1.1//EN"
  "http://www.w3.org/Graphics/SVG/1.1/DTD/svg11.dtd">
<svg xmlns:xlink="http://www.w3.org/1999/xlink" width="720pt" height="576pt" viewBox="0 0 720 576" xmlns="http://www.w3.org/2000/svg" version="1.1">
 <metadata>
  <rdf:RDF xmlns:dc="http://purl.org/dc/elements/1.1/" xmlns:cc="http://creativecommons.org/ns#" xmlns:rdf="http://www.w3.org/1999/02/22-rdf-syntax-ns#">
   <cc:Work>
    <dc:type rdf:resource="http://purl.org/dc/dcmitype/StillImage"/>
    <dc:date>2024-12-02T23:44:30.813389</dc:date>
    <dc:format>image/svg+xml</dc:format>
    <dc:creator>
     <cc:Agent>
      <dc:title>Matplotlib v3.8.1, https://matplotlib.org/</dc:title>
     </cc:Agent>
    </dc:creator>
   </cc:Work>
  </rdf:RDF>
 </metadata>
 <defs>
  <style type="text/css">*{stroke-linejoin: round; stroke-linecap: butt}</style>
 </defs>
 <g id="figure_1">
  <g id="patch_1">
   <path d="M 0 576 
L 720 576 
L 720 0 
L 0 0 
z
" style="fill: #ffffff"/>
  </g>
  <g id="axes_1">
   <g id="patch_2">
    <path d="M 90 512.64 
L 648 512.64 
L 648 69.12 
L 90 69.12 
z
" style="fill: #ffffff"/>
   </g>
   <g id="PathCollection_1">
    <defs>
     <path id="mda6b39096b" d="M 0 3 
C 0.795609 3 1.55874 2.683901 2.12132 2.12132 
C 2.683901 1.55874 3 0.795609 3 0 
C 3 -0.795609 2.683901 -1.55874 2.12132 -2.12132 
C 1.55874 -2.683901 0.795609 -3 0 -3 
C -0.795609 -3 -1.55874 -2.683901 -2.12132 -2.12132 
C -2.683901 -1.55874 -3 -0.795609 -3 0 
C -3 0.795609 -2.683901 1.55874 -2.12132 2.12132 
C -1.55874 2.683901 -0.795609 3 0 3 
z
" style="stroke: #0000ff"/>
    </defs>
    <g clip-path="url(#p8bdc7f0baf)">
     <use xlink:href="#mda6b39096b" x="447.12" y="162.941538" style="fill: #0000ff; stroke: #0000ff"/>
     <use xlink:href="#mda6b39096b" x="429.264" y="181.876431" style="fill: #0000ff; stroke: #0000ff"/>
     <use xlink:href="#mda6b39096b" x="353.376" y="162.941538" style="fill: #0000ff; stroke: #0000ff"/>
     <use xlink:href="#mda6b39096b" x="497.34" y="191.343877" style="fill: #0000ff; stroke: #0000ff"/>
     <use xlink:href="#mda6b39096b" x="392.436" y="286.103631" style="fill: #0000ff; stroke: #0000ff"/>
     <use xlink:href="#mda6b39096b" x="416.988" y="248.233846" style="fill: #0000ff; stroke: #0000ff"/>
     <use xlink:href="#mda6b39096b" x="406.944" y="162.941538" style="fill: #0000ff; stroke: #0000ff"/>
     <use xlink:href="#mda6b39096b" x="478.368" y="162.941538" style="fill: #0000ff; stroke: #0000ff"/>
     <use xlink:href="#mda6b39096b" x="366.768" y="172.408985" style="fill: #0000ff; stroke: #0000ff"/>
     <use xlink:href="#mda6b39096b" x="375.696" y="257.701292" style="fill: #0000ff; stroke: #0000ff"/>
     <use xlink:href="#mda6b39096b" x="425.916" y="162.941538" style="fill: #0000ff; stroke: #0000ff"/>
     <use xlink:href="#mda6b39096b" x="338.868" y="162.941538" style="fill: #0000ff; stroke: #0000ff"/>
     <use xlink:href="#mda6b39096b" x="452.7" y="191.343877" style="fill: #0000ff; stroke: #0000ff"/>
     <use xlink:href="#mda6b39096b" x="310.968" y="172.408985" style="fill: #0000ff; stroke: #0000ff"/>
     <use xlink:href="#mda6b39096b" x="291.996" y="172.408985" style="fill: #0000ff; stroke: #0000ff"/>
     <use xlink:href="#mda6b39096b" x="471.672" y="248.233846" style="fill: #0000ff; stroke: #0000ff"/>
     <use xlink:href="#mda6b39096b" x="419.22" y="172.408985" style="fill: #0000ff; stroke: #0000ff"/>
     <use xlink:href="#mda6b39096b" x="554.256" y="172.408985" style="fill: #0000ff; stroke: #0000ff"/>
     <use xlink:href="#mda6b39096b" x="517.428" y="172.408985" style="fill: #0000ff; stroke: #0000ff"/>
     <use xlink:href="#mda6b39096b" x="479.484" y="200.811323" style="fill: #0000ff; stroke: #0000ff"/>
     <use xlink:href="#mda6b39096b" x="283.068" y="257.701292" style="fill: #0000ff; stroke: #0000ff"/>
     <use xlink:href="#mda6b39096b" x="466.092" y="162.941538" style="fill: #0000ff; stroke: #0000ff"/>
     <use xlink:href="#mda6b39096b" x="389.088" y="248.233846" style="fill: #0000ff; stroke: #0000ff"/>
     <use xlink:href="#mda6b39096b" x="403.596" y="200.811323" style="fill: #0000ff; stroke: #0000ff"/>
     <use xlink:href="#mda6b39096b" x="354.492" y="181.876431" style="fill: #0000ff; stroke: #0000ff"/>
     <use xlink:href="#mda6b39096b" x="409.176" y="314.591262" style="fill: #0000ff; stroke: #0000ff"/>
     <use xlink:href="#mda6b39096b" x="456.048" y="191.343877" style="fill: #0000ff; stroke: #0000ff"/>
     <use xlink:href="#mda6b39096b" x="231.732" y="162.941538" style="fill: #0000ff; stroke: #0000ff"/>
     <use xlink:href="#mda6b39096b" x="316.548" y="162.941538" style="fill: #0000ff; stroke: #0000ff"/>
     <use xlink:href="#mda6b39096b" x="331.056" y="172.408985" style="fill: #0000ff; stroke: #0000ff"/>
     <use xlink:href="#mda6b39096b" x="156.96" y="257.701292" style="fill: #0000ff; stroke: #0000ff"/>
     <use xlink:href="#mda6b39096b" x="343.332" y="172.408985" style="fill: #0000ff; stroke: #0000ff"/>
     <use xlink:href="#mda6b39096b" x="284.184" y="162.941538" style="fill: #0000ff; stroke: #0000ff"/>
     <use xlink:href="#mda6b39096b" x="352.26" y="324.058708" style="fill: #0000ff; stroke: #0000ff"/>
     <use xlink:href="#mda6b39096b" x="473.904" y="314.591262" style="fill: #0000ff; stroke: #0000ff"/>
     <use xlink:href="#mda6b39096b" x="414.756" y="219.831508" style="fill: #0000ff; stroke: #0000ff"/>
     <use xlink:href="#mda6b39096b" x="240.66" y="248.233846" style="fill: #0000ff; stroke: #0000ff"/>
     <use xlink:href="#mda6b39096b" x="386.856" y="248.233846" style="fill: #0000ff; stroke: #0000ff"/>
     <use xlink:href="#mda6b39096b" x="347.796" y="162.941538" style="fill: #0000ff; stroke: #0000ff"/>
     <use xlink:href="#mda6b39096b" x="384.624" y="191.343877" style="fill: #0000ff; stroke: #0000ff"/>
     <use xlink:href="#mda6b39096b" x="338.868" y="286.188923" style="fill: #0000ff; stroke: #0000ff"/>
     <use xlink:href="#mda6b39096b" x="353.376" y="162.941538" style="fill: #0000ff; stroke: #0000ff"/>
     <use xlink:href="#mda6b39096b" x="357.84" y="238.7664" style="fill: #0000ff; stroke: #0000ff"/>
     <use xlink:href="#mda6b39096b" x="374.58" y="210.364062" style="fill: #0000ff; stroke: #0000ff"/>
     <use xlink:href="#mda6b39096b" x="307.62" y="238.7664" style="fill: #0000ff; stroke: #0000ff"/>
     <use xlink:href="#mda6b39096b" x="396.9" y="181.876431" style="fill: #0000ff; stroke: #0000ff"/>
     <use xlink:href="#mda6b39096b" x="183.744" y="238.7664" style="fill: #0000ff; stroke: #0000ff"/>
     <use xlink:href="#mda6b39096b" x="271.908" y="248.233846" style="fill: #0000ff; stroke: #0000ff"/>
    </g>
   </g>
   <g id="PathCollection_2">
    <defs>
     <path id="m3f54c47137" d="M 0 3 
C 0.795609 3 1.55874 2.683901 2.12132 2.12132 
C 2.683901 1.55874 3 0.795609 3 0 
C 3 -0.795609 2.683901 -1.55874 2.12132 -2.12132 
C 1.55874 -2.683901 0.795609 -3 0 -3 
C -0.795609 -3 -1.55874 -2.683901 -2.12132 -2.12132 
C -2.683901 -1.55874 -3 -0.795609 -3 0 
C -3 0.795609 -2.683901 1.55874 -2.12132 2.12132 
C -1.55874 2.683901 -0.795609 3 0 3 
z
" style="stroke: #008000"/>
    </defs>
    <g clip-path="url(#p8bdc7f0baf)">
     <use xlink:href="#m3f54c47137" x="358.956" y="257.701292" style="fill: #008000; stroke: #008000"/>
     <use xlink:href="#m3f54c47137" x="367.884" y="162.941538" style="fill: #008000; stroke: #008000"/>
     <use xlink:href="#m3f54c47137" x="511.848" y="181.876431" style="fill: #008000; stroke: #008000"/>
     <use xlink:href="#m3f54c47137" x="525.24" y="219.831508" style="fill: #008000; stroke: #008000"/>
     <use xlink:href="#m3f54c47137" x="377.928" y="229.298954" style="fill: #008000; stroke: #008000"/>
     <use xlink:href="#m3f54c47137" x="454.932" y="162.941538" style="fill: #008000; stroke: #008000"/>
     <use xlink:href="#m3f54c47137" x="329.94" y="276.636185" style="fill: #008000; stroke: #008000"/>
     <use xlink:href="#m3f54c47137" x="390.204" y="257.701292" style="fill: #008000; stroke: #008000"/>
     <use xlink:href="#m3f54c47137" x="418.104" y="210.278769" style="fill: #008000; stroke: #008000"/>
     <use xlink:href="#m3f54c47137" x="493.992" y="172.408985" style="fill: #008000; stroke: #008000"/>
     <use xlink:href="#m3f54c47137" x="396.9" y="162.941538" style="fill: #008000; stroke: #008000"/>
     <use xlink:href="#m3f54c47137" x="504.036" y="162.941538" style="fill: #008000; stroke: #008000"/>
     <use xlink:href="#m3f54c47137" x="450.468" y="210.278769" style="fill: #008000; stroke: #008000"/>
     <use xlink:href="#m3f54c47137" x="386.856" y="191.343877" style="fill: #008000; stroke: #008000"/>
     <use xlink:href="#m3f54c47137" x="523.008" y="181.876431" style="fill: #008000; stroke: #008000"/>
     <use xlink:href="#m3f54c47137" x="511.848" y="219.831508" style="fill: #008000; stroke: #008000"/>
     <use xlink:href="#m3f54c47137" x="384.624" y="181.876431" style="fill: #008000; stroke: #008000"/>
     <use xlink:href="#m3f54c47137" x="295.344" y="219.831508" style="fill: #008000; stroke: #008000"/>
     <use xlink:href="#m3f54c47137" x="351.144" y="162.941538" style="fill: #008000; stroke: #008000"/>
     <use xlink:href="#m3f54c47137" x="433.728" y="181.876431" style="fill: #008000; stroke: #008000"/>
     <use xlink:href="#m3f54c47137" x="427.032" y="181.876431" style="fill: #008000; stroke: #008000"/>
     <use xlink:href="#m3f54c47137" x="448.236" y="181.876431" style="fill: #008000; stroke: #008000"/>
     <use xlink:href="#m3f54c47137" x="332.172" y="210.278769" style="fill: #008000; stroke: #008000"/>
     <use xlink:href="#m3f54c47137" x="357.84" y="267.168738" style="fill: #008000; stroke: #008000"/>
     <use xlink:href="#m3f54c47137" x="439.308" y="172.408985" style="fill: #008000; stroke: #008000"/>
     <use xlink:href="#m3f54c47137" x="560.952" y="200.896615" style="fill: #008000; stroke: #008000"/>
     <use xlink:href="#m3f54c47137" x="491.76" y="162.941538" style="fill: #008000; stroke: #008000"/>
     <use xlink:href="#m3f54c47137" x="369" y="238.7664" style="fill: #008000; stroke: #008000"/>
     <use xlink:href="#m3f54c47137" x="353.376" y="191.343877" style="fill: #008000; stroke: #008000"/>
     <use xlink:href="#m3f54c47137" x="317.664" y="248.233846" style="fill: #008000; stroke: #008000"/>
     <use xlink:href="#m3f54c47137" x="473.904" y="162.941538" style="fill: #008000; stroke: #008000"/>
     <use xlink:href="#m3f54c47137" x="277.488" y="219.831508" style="fill: #008000; stroke: #008000"/>
     <use xlink:href="#m3f54c47137" x="558.72" y="181.876431" style="fill: #008000; stroke: #008000"/>
     <use xlink:href="#m3f54c47137" x="490.644" y="248.233846" style="fill: #008000; stroke: #008000"/>
     <use xlink:href="#m3f54c47137" x="265.212" y="162.941538" style="fill: #008000; stroke: #008000"/>
     <use xlink:href="#m3f54c47137" x="501.804" y="324.058708" style="fill: #008000; stroke: #008000"/>
     <use xlink:href="#m3f54c47137" x="508.5" y="181.876431" style="fill: #008000; stroke: #008000"/>
     <use xlink:href="#m3f54c47137" x="508.5" y="200.811323" style="fill: #008000; stroke: #008000"/>
     <use xlink:href="#m3f54c47137" x="548.676" y="162.941538" style="fill: #008000; stroke: #008000"/>
     <use xlink:href="#m3f54c47137" x="419.22" y="181.876431" style="fill: #008000; stroke: #008000"/>
     <use xlink:href="#m3f54c47137" x="432.612" y="219.831508" style="fill: #008000; stroke: #008000"/>
     <use xlink:href="#m3f54c47137" x="466.092" y="162.941538" style="fill: #008000; stroke: #008000"/>
     <use xlink:href="#m3f54c47137" x="395.784" y="172.408985" style="fill: #008000; stroke: #008000"/>
     <use xlink:href="#m3f54c47137" x="296.46" y="229.298954" style="fill: #008000; stroke: #008000"/>
     <use xlink:href="#m3f54c47137" x="105.624" y="219.831508" style="fill: #008000; stroke: #008000"/>
    </g>
   </g>
   <g id="matplotlib.axis_1">
    <g id="xtick_1">
     <g id="line2d_1">
      <defs>
       <path id="m8ab731fb6f" d="M 0 0 
L 0 3.5 
" style="stroke: #000000; stroke-width: 0.8"/>
      </defs>
      <g>
       <use xlink:href="#m8ab731fb6f" x="90" y="512.64" style="stroke: #000000; stroke-width: 0.8"/>
      </g>
     </g>
     <g id="text_1">
      <!-- 0.3 -->
      <g transform="translate(74.096875 534.836875) scale(0.2 -0.2)">
       <defs>
        <path id="DejaVuSans-30" d="M 2034 4250 
Q 1547 4250 1301 3770 
Q 1056 3291 1056 2328 
Q 1056 1369 1301 889 
Q 1547 409 2034 409 
Q 2525 409 2770 889 
Q 3016 1369 3016 2328 
Q 3016 3291 2770 3770 
Q 2525 4250 2034 4250 
z
M 2034 4750 
Q 2819 4750 3233 4129 
Q 3647 3509 3647 2328 
Q 3647 1150 3233 529 
Q 2819 -91 2034 -91 
Q 1250 -91 836 529 
Q 422 1150 422 2328 
Q 422 3509 836 4129 
Q 1250 4750 2034 4750 
z
" transform="scale(0.015625)"/>
        <path id="DejaVuSans-2e" d="M 684 794 
L 1344 794 
L 1344 0 
L 684 0 
L 684 794 
z
" transform="scale(0.015625)"/>
        <path id="DejaVuSans-33" d="M 2597 2516 
Q 3050 2419 3304 2112 
Q 3559 1806 3559 1356 
Q 3559 666 3084 287 
Q 2609 -91 1734 -91 
Q 1441 -91 1130 -33 
Q 819 25 488 141 
L 488 750 
Q 750 597 1062 519 
Q 1375 441 1716 441 
Q 2309 441 2620 675 
Q 2931 909 2931 1356 
Q 2931 1769 2642 2001 
Q 2353 2234 1838 2234 
L 1294 2234 
L 1294 2753 
L 1863 2753 
Q 2328 2753 2575 2939 
Q 2822 3125 2822 3475 
Q 2822 3834 2567 4026 
Q 2313 4219 1838 4219 
Q 1578 4219 1281 4162 
Q 984 4106 628 3988 
L 628 4550 
Q 988 4650 1302 4700 
Q 1616 4750 1894 4750 
Q 2613 4750 3031 4423 
Q 3450 4097 3450 3541 
Q 3450 3153 3228 2886 
Q 3006 2619 2597 2516 
z
" transform="scale(0.015625)"/>
       </defs>
       <use xlink:href="#DejaVuSans-30"/>
       <use xlink:href="#DejaVuSans-2e" x="63.623047"/>
       <use xlink:href="#DejaVuSans-33" x="95.410156"/>
      </g>
     </g>
    </g>
    <g id="xtick_2">
     <g id="line2d_2">
      <g>
       <use xlink:href="#m8ab731fb6f" x="201.6" y="512.64" style="stroke: #000000; stroke-width: 0.8"/>
      </g>
     </g>
     <g id="text_2">
      <!-- 0.4 -->
      <g transform="translate(185.696875 534.836875) scale(0.2 -0.2)">
       <defs>
        <path id="DejaVuSans-34" d="M 2419 4116 
L 825 1625 
L 2419 1625 
L 2419 4116 
z
M 2253 4666 
L 3047 4666 
L 3047 1625 
L 3713 1625 
L 3713 1100 
L 3047 1100 
L 3047 0 
L 2419 0 
L 2419 1100 
L 313 1100 
L 313 1709 
L 2253 4666 
z
" transform="scale(0.015625)"/>
       </defs>
       <use xlink:href="#DejaVuSans-30"/>
       <use xlink:href="#DejaVuSans-2e" x="63.623047"/>
       <use xlink:href="#DejaVuSans-34" x="95.410156"/>
      </g>
     </g>
    </g>
    <g id="xtick_3">
     <g id="line2d_3">
      <g>
       <use xlink:href="#m8ab731fb6f" x="313.2" y="512.64" style="stroke: #000000; stroke-width: 0.8"/>
      </g>
     </g>
     <g id="text_3">
      <!-- 0.5 -->
      <g transform="translate(297.296875 534.836875) scale(0.2 -0.2)">
       <defs>
        <path id="DejaVuSans-35" d="M 691 4666 
L 3169 4666 
L 3169 4134 
L 1269 4134 
L 1269 2991 
Q 1406 3038 1543 3061 
Q 1681 3084 1819 3084 
Q 2600 3084 3056 2656 
Q 3513 2228 3513 1497 
Q 3513 744 3044 326 
Q 2575 -91 1722 -91 
Q 1428 -91 1123 -41 
Q 819 9 494 109 
L 494 744 
Q 775 591 1075 516 
Q 1375 441 1709 441 
Q 2250 441 2565 725 
Q 2881 1009 2881 1497 
Q 2881 1984 2565 2268 
Q 2250 2553 1709 2553 
Q 1456 2553 1204 2497 
Q 953 2441 691 2322 
L 691 4666 
z
" transform="scale(0.015625)"/>
       </defs>
       <use xlink:href="#DejaVuSans-30"/>
       <use xlink:href="#DejaVuSans-2e" x="63.623047"/>
       <use xlink:href="#DejaVuSans-35" x="95.410156"/>
      </g>
     </g>
    </g>
    <g id="xtick_4">
     <g id="line2d_4">
      <g>
       <use xlink:href="#m8ab731fb6f" x="424.8" y="512.64" style="stroke: #000000; stroke-width: 0.8"/>
      </g>
     </g>
     <g id="text_4">
      <!-- 0.6 -->
      <g transform="translate(408.896875 534.836875) scale(0.2 -0.2)">
       <defs>
        <path id="DejaVuSans-36" d="M 2113 2584 
Q 1688 2584 1439 2293 
Q 1191 2003 1191 1497 
Q 1191 994 1439 701 
Q 1688 409 2113 409 
Q 2538 409 2786 701 
Q 3034 994 3034 1497 
Q 3034 2003 2786 2293 
Q 2538 2584 2113 2584 
z
M 3366 4563 
L 3366 3988 
Q 3128 4100 2886 4159 
Q 2644 4219 2406 4219 
Q 1781 4219 1451 3797 
Q 1122 3375 1075 2522 
Q 1259 2794 1537 2939 
Q 1816 3084 2150 3084 
Q 2853 3084 3261 2657 
Q 3669 2231 3669 1497 
Q 3669 778 3244 343 
Q 2819 -91 2113 -91 
Q 1303 -91 875 529 
Q 447 1150 447 2328 
Q 447 3434 972 4092 
Q 1497 4750 2381 4750 
Q 2619 4750 2861 4703 
Q 3103 4656 3366 4563 
z
" transform="scale(0.015625)"/>
       </defs>
       <use xlink:href="#DejaVuSans-30"/>
       <use xlink:href="#DejaVuSans-2e" x="63.623047"/>
       <use xlink:href="#DejaVuSans-36" x="95.410156"/>
      </g>
     </g>
    </g>
    <g id="xtick_5">
     <g id="line2d_5">
      <g>
       <use xlink:href="#m8ab731fb6f" x="536.4" y="512.64" style="stroke: #000000; stroke-width: 0.8"/>
      </g>
     </g>
     <g id="text_5">
      <!-- 0.7 -->
      <g transform="translate(520.496875 534.836875) scale(0.2 -0.2)">
       <defs>
        <path id="DejaVuSans-37" d="M 525 4666 
L 3525 4666 
L 3525 4397 
L 1831 0 
L 1172 0 
L 2766 4134 
L 525 4134 
L 525 4666 
z
" transform="scale(0.015625)"/>
       </defs>
       <use xlink:href="#DejaVuSans-30"/>
       <use xlink:href="#DejaVuSans-2e" x="63.623047"/>
       <use xlink:href="#DejaVuSans-37" x="95.410156"/>
      </g>
     </g>
    </g>
    <g id="xtick_6">
     <g id="line2d_6">
      <g>
       <use xlink:href="#m8ab731fb6f" x="648" y="512.64" style="stroke: #000000; stroke-width: 0.8"/>
      </g>
     </g>
     <g id="text_6">
      <!-- 0.8 -->
      <g transform="translate(632.096875 534.836875) scale(0.2 -0.2)">
       <defs>
        <path id="DejaVuSans-38" d="M 2034 2216 
Q 1584 2216 1326 1975 
Q 1069 1734 1069 1313 
Q 1069 891 1326 650 
Q 1584 409 2034 409 
Q 2484 409 2743 651 
Q 3003 894 3003 1313 
Q 3003 1734 2745 1975 
Q 2488 2216 2034 2216 
z
M 1403 2484 
Q 997 2584 770 2862 
Q 544 3141 544 3541 
Q 544 4100 942 4425 
Q 1341 4750 2034 4750 
Q 2731 4750 3128 4425 
Q 3525 4100 3525 3541 
Q 3525 3141 3298 2862 
Q 3072 2584 2669 2484 
Q 3125 2378 3379 2068 
Q 3634 1759 3634 1313 
Q 3634 634 3220 271 
Q 2806 -91 2034 -91 
Q 1263 -91 848 271 
Q 434 634 434 1313 
Q 434 1759 690 2068 
Q 947 2378 1403 2484 
z
M 1172 3481 
Q 1172 3119 1398 2916 
Q 1625 2713 2034 2713 
Q 2441 2713 2670 2916 
Q 2900 3119 2900 3481 
Q 2900 3844 2670 4047 
Q 2441 4250 2034 4250 
Q 1625 4250 1398 4047 
Q 1172 3844 1172 3481 
z
" transform="scale(0.015625)"/>
       </defs>
       <use xlink:href="#DejaVuSans-30"/>
       <use xlink:href="#DejaVuSans-2e" x="63.623047"/>
       <use xlink:href="#DejaVuSans-38" x="95.410156"/>
      </g>
     </g>
    </g>
   </g>
   <g id="matplotlib.axis_2">
    <g id="ytick_1">
     <g id="line2d_7">
      <defs>
       <path id="m4dce518b85" d="M 0 0 
L -3.5 0 
" style="stroke: #000000; stroke-width: 0.8"/>
      </defs>
      <g>
       <use xlink:href="#m4dce518b85" x="90" y="504.110769" style="stroke: #000000; stroke-width: 0.8"/>
      </g>
     </g>
     <g id="text_7">
      <!-- 1 -->
      <g transform="translate(70.275 511.709207) scale(0.2 -0.2)">
       <defs>
        <path id="DejaVuSans-31" d="M 794 531 
L 1825 531 
L 1825 4091 
L 703 3866 
L 703 4441 
L 1819 4666 
L 2450 4666 
L 2450 531 
L 3481 531 
L 3481 0 
L 794 0 
L 794 531 
z
" transform="scale(0.015625)"/>
       </defs>
       <use xlink:href="#DejaVuSans-31"/>
      </g>
     </g>
    </g>
    <g id="ytick_2">
     <g id="line2d_8">
      <g>
       <use xlink:href="#m4dce518b85" x="90" y="418.818462" style="stroke: #000000; stroke-width: 0.8"/>
      </g>
     </g>
     <g id="text_8">
      <!-- 2 -->
      <g transform="translate(70.275 426.416899) scale(0.2 -0.2)">
       <defs>
        <path id="DejaVuSans-32" d="M 1228 531 
L 3431 531 
L 3431 0 
L 469 0 
L 469 531 
Q 828 903 1448 1529 
Q 2069 2156 2228 2338 
Q 2531 2678 2651 2914 
Q 2772 3150 2772 3378 
Q 2772 3750 2511 3984 
Q 2250 4219 1831 4219 
Q 1534 4219 1204 4116 
Q 875 4013 500 3803 
L 500 4441 
Q 881 4594 1212 4672 
Q 1544 4750 1819 4750 
Q 2544 4750 2975 4387 
Q 3406 4025 3406 3419 
Q 3406 3131 3298 2873 
Q 3191 2616 2906 2266 
Q 2828 2175 2409 1742 
Q 1991 1309 1228 531 
z
" transform="scale(0.015625)"/>
       </defs>
       <use xlink:href="#DejaVuSans-32"/>
      </g>
     </g>
    </g>
    <g id="ytick_3">
     <g id="line2d_9">
      <g>
       <use xlink:href="#m4dce518b85" x="90" y="333.526154" style="stroke: #000000; stroke-width: 0.8"/>
      </g>
     </g>
     <g id="text_9">
      <!-- 3 -->
      <g transform="translate(70.275 341.124591) scale(0.2 -0.2)">
       <use xlink:href="#DejaVuSans-33"/>
      </g>
     </g>
    </g>
    <g id="ytick_4">
     <g id="line2d_10">
      <g>
       <use xlink:href="#m4dce518b85" x="90" y="248.233846" style="stroke: #000000; stroke-width: 0.8"/>
      </g>
     </g>
     <g id="text_10">
      <!-- 4 -->
      <g transform="translate(70.275 255.832284) scale(0.2 -0.2)">
       <use xlink:href="#DejaVuSans-34"/>
      </g>
     </g>
    </g>
    <g id="ytick_5">
     <g id="line2d_11">
      <g>
       <use xlink:href="#m4dce518b85" x="90" y="162.941538" style="stroke: #000000; stroke-width: 0.8"/>
      </g>
     </g>
     <g id="text_11">
      <!-- 5 -->
      <g transform="translate(70.275 170.539976) scale(0.2 -0.2)">
       <use xlink:href="#DejaVuSans-35"/>
      </g>
     </g>
    </g>
    <g id="ytick_6">
     <g id="line2d_12">
      <g>
       <use xlink:href="#m4dce518b85" x="90" y="77.649231" style="stroke: #000000; stroke-width: 0.8"/>
      </g>
     </g>
     <g id="text_12">
      <!-- 6 -->
      <g transform="translate(70.275 85.247668) scale(0.2 -0.2)">
       <use xlink:href="#DejaVuSans-36"/>
      </g>
     </g>
    </g>
   </g>
   <g id="line2d_13">
    <path d="M 447.12 189.804534 
L 429.264 192.196846 
L 353.376 202.36417 
L 497.34 183.076158 
L 392.436 197.130988 
L 416.988 193.84156 
L 406.944 195.187235 
L 478.368 185.617989 
L 366.768 200.569936 
L 375.696 199.373781 
L 425.916 192.645404 
L 338.868 204.307923 
L 452.7 189.056937 
L 310.968 208.04591 
L 291.996 210.587741 
L 471.672 186.515106 
L 419.22 193.542521 
L 554.256 175.450664 
L 517.428 180.384807 
L 479.484 185.468469 
L 283.068 211.783897 
L 466.092 187.262703 
L 389.088 197.579547 
L 403.596 195.635794 
L 354.492 202.214651 
L 409.176 194.888196 
L 456.048 188.608378 
L 231.732 218.661793 
L 316.548 207.298313 
L 331.056 205.35456 
L 156.96 228.679598 
L 343.332 203.709845 
L 284.184 211.634378 
L 352.26 202.51369 
L 473.904 186.216067 
L 414.756 194.140599 
L 240.66 217.465637 
L 386.856 197.878586 
L 347.796 203.111767 
L 384.624 198.177625 
L 338.868 204.307923 
L 353.376 202.36417 
L 357.84 201.766092 
L 374.58 199.5233 
L 307.62 208.494469 
L 396.9 196.53291 
L 183.744 225.09113 
L 271.908 213.279092 
" clip-path="url(#p8bdc7f0baf)" style="fill: none; stroke: #0000ff; stroke-width: 1.5; stroke-linecap: square"/>
   </g>
   <g id="line2d_14">
    <path d="M 358.956 202.220233 
L 367.884 201.165501 
L 511.848 184.157951 
L 525.24 182.575854 
L 377.928 199.978928 
L 454.932 190.881867 
L 329.94 205.648112 
L 390.204 198.528672 
L 418.104 195.232635 
L 493.992 186.267415 
L 396.9 197.737623 
L 504.036 185.080842 
L 450.468 191.409232 
L 386.856 198.924196 
L 523.008 182.839537 
L 511.848 184.157951 
L 384.624 199.187879 
L 295.344 209.735197 
L 351.144 203.143124 
L 433.728 193.386855 
L 427.032 194.177903 
L 448.236 191.672915 
L 332.172 205.384429 
L 357.84 202.352075 
L 439.308 192.727647 
L 560.952 178.356927 
L 491.76 186.531098 
L 369 201.03366 
L 353.376 202.879441 
L 317.664 207.098368 
L 473.904 188.640561 
L 277.488 211.844661 
L 558.72 178.620609 
L 490.644 186.662939 
L 265.212 213.294917 
L 501.804 185.344525 
L 508.5 184.553476 
L 508.5 184.553476 
L 548.676 179.807183 
L 419.22 195.100794 
L 432.612 193.518696 
L 466.092 189.563452 
L 395.784 197.869465 
L 296.46 209.603356 
L 105.624 232.148248 
" clip-path="url(#p8bdc7f0baf)" style="fill: none; stroke: #008000; stroke-width: 1.5; stroke-linecap: square"/>
   </g>
   <g id="patch_3">
    <path d="M 90 512.64 
L 90 69.12 
" style="fill: none; stroke: #000000; stroke-width: 0.8; stroke-linejoin: miter; stroke-linecap: square"/>
   </g>
   <g id="patch_4">
    <path d="M 648 512.64 
L 648 69.12 
" style="fill: none; stroke: #000000; stroke-width: 0.8; stroke-linejoin: miter; stroke-linecap: square"/>
   </g>
   <g id="patch_5">
    <path d="M 90 512.64 
L 648 512.64 
" style="fill: none; stroke: #000000; stroke-width: 0.8; stroke-linejoin: miter; stroke-linecap: square"/>
   </g>
   <g id="patch_6">
    <path d="M 90 69.12 
L 648 69.12 
" style="fill: none; stroke: #000000; stroke-width: 0.8; stroke-linejoin: miter; stroke-linecap: square"/>
   </g>
  </g>
 </g>
 <defs>
  <clipPath id="p8bdc7f0baf">
   <rect x="90" y="69.12" width="558" height="443.52"/>
  </clipPath>
 </defs>
</svg>
