<?xml version="1.0" encoding="utf-8" standalone="no"?>
<!DOCTYPE svg PUBLIC "-//W3C//DTD SVG 1.1//EN"
  "http://www.w3.org/Graphics/SVG/1.1/DTD/svg11.dtd">
<svg xmlns:xlink="http://www.w3.org/1999/xlink" width="576pt" height="432pt" viewBox="0 0 576 432" xmlns="http://www.w3.org/2000/svg" version="1.1">
 <metadata>
  <rdf:RDF xmlns:dc="http://purl.org/dc/elements/1.1/" xmlns:cc="http://creativecommons.org/ns#" xmlns:rdf="http://www.w3.org/1999/02/22-rdf-syntax-ns#">
   <cc:Work>
    <dc:type rdf:resource="http://purl.org/dc/dcmitype/StillImage"/>
    <dc:date>2024-12-02T19:12:10.592474</dc:date>
    <dc:format>image/svg+xml</dc:format>
    <dc:creator>
     <cc:Agent>
      <dc:title>Matplotlib v3.8.1, https://matplotlib.org/</dc:title>
     </cc:Agent>
    </dc:creator>
   </cc:Work>
  </rdf:RDF>
 </metadata>
 <defs>
  <style type="text/css">*{stroke-linejoin: round; stroke-linecap: butt}</style>
 </defs>
 <g id="figure_1">
  <g id="patch_1">
   <path d="M 0 432 
L 576 432 
L 576 0 
L 0 0 
z
" style="fill: #ffffff"/>
  </g>
  <g id="axes_1">
   <g id="patch_2">
    <path d="M 72 384.48 
L 518.4 384.48 
L 518.4 51.84 
L 72 51.84 
z
" style="fill: #ffffff"/>
   </g>
   <g id="PathCollection_1">
    <defs>
     <path id="ma606e7c7c1" d="M 0 3 
C 0.795609 3 1.55874 2.683901 2.12132 2.12132 
C 2.683901 1.55874 3 0.795609 3 0 
C 3 -0.795609 2.683901 -1.55874 2.12132 -2.12132 
C 1.55874 -2.683901 0.795609 -3 0 -3 
C -0.795609 -3 -1.55874 -2.683901 -2.12132 -2.12132 
C -2.683901 -1.55874 -3 -0.795609 -3 0 
C -3 0.795609 -2.683901 1.55874 -2.12132 2.12132 
C -1.55874 2.683901 -0.795609 3 0 3 
z
" style="stroke: #1f77b4"/>
    </defs>
    <g clip-path="url(#p5fb0a8fc1e)">
     <use xlink:href="#ma606e7c7c1" x="357.696" y="103.7952" style="fill: #1f77b4; stroke: #1f77b4"/>
     <use xlink:href="#ma606e7c7c1" x="287.1648" y="200.5776" style="fill: #1f77b4; stroke: #1f77b4"/>
     <use xlink:href="#ma606e7c7c1" x="294.3072" y="103.7952" style="fill: #1f77b4; stroke: #1f77b4"/>
     <use xlink:href="#ma606e7c7c1" x="409.4784" y="147.7512" style="fill: #1f77b4; stroke: #1f77b4"/>
     <use xlink:href="#ma606e7c7c1" x="420.192" y="112.5864" style="fill: #1f77b4; stroke: #1f77b4"/>
     <use xlink:href="#ma606e7c7c1" x="343.4112" y="112.5864" style="fill: #1f77b4; stroke: #1f77b4"/>
     <use xlink:href="#ma606e7c7c1" x="302.3424" y="191.7864" style="fill: #1f77b4; stroke: #1f77b4"/>
     <use xlink:href="#ma606e7c7c1" x="363.9456" y="156.5424" style="fill: #1f77b4; stroke: #1f77b4"/>
     <use xlink:href="#ma606e7c7c1" x="263.952" y="200.5776" style="fill: #1f77b4; stroke: #1f77b4"/>
     <use xlink:href="#ma606e7c7c1" x="312.1632" y="112.5072" style="fill: #1f77b4; stroke: #1f77b4"/>
     <use xlink:href="#ma606e7c7c1" x="334.4832" y="138.96" style="fill: #1f77b4; stroke: #1f77b4"/>
     <use xlink:href="#ma606e7c7c1" x="282.7008" y="94.9248" style="fill: #1f77b4; stroke: #1f77b4"/>
     <use xlink:href="#ma606e7c7c1" x="395.1936" y="138.96" style="fill: #1f77b4; stroke: #1f77b4"/>
     <use xlink:href="#ma606e7c7c1" x="397.872" y="86.1336" style="fill: #1f77b4; stroke: #1f77b4"/>
     <use xlink:href="#ma606e7c7c1" x="317.52" y="182.9952" style="fill: #1f77b4; stroke: #1f77b4"/>
     <use xlink:href="#ma606e7c7c1" x="403.2288" y="68.5512" style="fill: #1f77b4; stroke: #1f77b4"/>
     <use xlink:href="#ma606e7c7c1" x="313.9488" y="332.5248" style="fill: #1f77b4; stroke: #1f77b4"/>
     <use xlink:href="#ma606e7c7c1" x="333.5904" y="130.1688" style="fill: #1f77b4; stroke: #1f77b4"/>
     <use xlink:href="#ma606e7c7c1" x="325.5552" y="59.76" style="fill: #1f77b4; stroke: #1f77b4"/>
     <use xlink:href="#ma606e7c7c1" x="360.3744" y="218.16" style="fill: #1f77b4; stroke: #1f77b4"/>
     <use xlink:href="#ma606e7c7c1" x="309.4848" y="165.3336" style="fill: #1f77b4; stroke: #1f77b4"/>
     <use xlink:href="#ma606e7c7c1" x="382.6944" y="121.3776" style="fill: #1f77b4; stroke: #1f77b4"/>
     <use xlink:href="#ma606e7c7c1" x="293.4144" y="77.3424" style="fill: #1f77b4; stroke: #1f77b4"/>
     <use xlink:href="#ma606e7c7c1" x="300.5568" y="138.96" style="fill: #1f77b4; stroke: #1f77b4"/>
     <use xlink:href="#ma606e7c7c1" x="418.4064" y="86.1336" style="fill: #1f77b4; stroke: #1f77b4"/>
     <use xlink:href="#ma606e7c7c1" x="409.4784" y="235.7424" style="fill: #1f77b4; stroke: #1f77b4"/>
     <use xlink:href="#ma606e7c7c1" x="307.6992" y="86.1336" style="fill: #1f77b4; stroke: #1f77b4"/>
     <use xlink:href="#ma606e7c7c1" x="236.2752" y="147.7512" style="fill: #1f77b4; stroke: #1f77b4"/>
     <use xlink:href="#ma606e7c7c1" x="280.9152" y="130.1688" style="fill: #1f77b4; stroke: #1f77b4"/>
     <use xlink:href="#ma606e7c7c1" x="346.9824" y="68.5512" style="fill: #1f77b4; stroke: #1f77b4"/>
     <use xlink:href="#ma606e7c7c1" x="341.6256" y="165.3336" style="fill: #1f77b4; stroke: #1f77b4"/>
     <use xlink:href="#ma606e7c7c1" x="358.5888" y="103.7952" style="fill: #1f77b4; stroke: #1f77b4"/>
     <use xlink:href="#ma606e7c7c1" x="340.7328" y="59.76" style="fill: #1f77b4; stroke: #1f77b4"/>
     <use xlink:href="#ma606e7c7c1" x="271.0944" y="77.3424" style="fill: #1f77b4; stroke: #1f77b4"/>
     <use xlink:href="#ma606e7c7c1" x="362.16" y="112.5864" style="fill: #1f77b4; stroke: #1f77b4"/>
     <use xlink:href="#ma606e7c7c1" x="248.7744" y="156.5424" style="fill: #1f77b4; stroke: #1f77b4"/>
     <use xlink:href="#ma606e7c7c1" x="233.5968" y="147.7512" style="fill: #1f77b4; stroke: #1f77b4"/>
     <use xlink:href="#ma606e7c7c1" x="377.3376" y="121.3776" style="fill: #1f77b4; stroke: #1f77b4"/>
     <use xlink:href="#ma606e7c7c1" x="265.7376" y="165.3336" style="fill: #1f77b4; stroke: #1f77b4"/>
     <use xlink:href="#ma606e7c7c1" x="335.376" y="103.7952" style="fill: #1f77b4; stroke: #1f77b4"/>
     <use xlink:href="#ma606e7c7c1" x="286.272" y="182.9952" style="fill: #1f77b4; stroke: #1f77b4"/>
     <use xlink:href="#ma606e7c7c1" x="443.4048" y="94.9248" style="fill: #1f77b4; stroke: #1f77b4"/>
     <use xlink:href="#ma606e7c7c1" x="351.4464" y="138.96" style="fill: #1f77b4; stroke: #1f77b4"/>
     <use xlink:href="#ma606e7c7c1" x="448.7616" y="244.5336" style="fill: #1f77b4; stroke: #1f77b4"/>
     <use xlink:href="#ma606e7c7c1" x="393.408" y="112.5864" style="fill: #1f77b4; stroke: #1f77b4"/>
     <use xlink:href="#ma606e7c7c1" x="295.2" y="270.9864" style="fill: #1f77b4; stroke: #1f77b4"/>
     <use xlink:href="#ma606e7c7c1" x="282.7008" y="103.7952" style="fill: #1f77b4; stroke: #1f77b4"/>
     <use xlink:href="#ma606e7c7c1" x="254.1312" y="156.5424" style="fill: #1f77b4; stroke: #1f77b4"/>
     <use xlink:href="#ma606e7c7c1" x="413.9424" y="121.3776" style="fill: #1f77b4; stroke: #1f77b4"/>
     <use xlink:href="#ma606e7c7c1" x="379.1232" y="121.3776" style="fill: #1f77b4; stroke: #1f77b4"/>
     <use xlink:href="#ma606e7c7c1" x="221.9904" y="94.9248" style="fill: #1f77b4; stroke: #1f77b4"/>
     <use xlink:href="#ma606e7c7c1" x="446.976" y="262.1952" style="fill: #1f77b4; stroke: #1f77b4"/>
     <use xlink:href="#ma606e7c7c1" x="383.5872" y="112.5864" style="fill: #1f77b4; stroke: #1f77b4"/>
     <use xlink:href="#ma606e7c7c1" x="392.5152" y="156.5424" style="fill: #1f77b4; stroke: #1f77b4"/>
     <use xlink:href="#ma606e7c7c1" x="212.1696" y="121.3776" style="fill: #1f77b4; stroke: #1f77b4"/>
     <use xlink:href="#ma606e7c7c1" x="401.4432" y="279.7776" style="fill: #1f77b4; stroke: #1f77b4"/>
     <use xlink:href="#ma606e7c7c1" x="406.8" y="86.1336" style="fill: #1f77b4; stroke: #1f77b4"/>
     <use xlink:href="#ma606e7c7c1" x="406.8" y="121.3776" style="fill: #1f77b4; stroke: #1f77b4"/>
     <use xlink:href="#ma606e7c7c1" x="438.9408" y="59.76" style="fill: #1f77b4; stroke: #1f77b4"/>
     <use xlink:href="#ma606e7c7c1" x="335.376" y="165.3336" style="fill: #1f77b4; stroke: #1f77b4"/>
     <use xlink:href="#ma606e7c7c1" x="346.0896" y="103.7952" style="fill: #1f77b4; stroke: #1f77b4"/>
     <use xlink:href="#ma606e7c7c1" x="372.8736" y="59.76" style="fill: #1f77b4; stroke: #1f77b4"/>
     <use xlink:href="#ma606e7c7c1" x="226.4544" y="156.5424" style="fill: #1f77b4; stroke: #1f77b4"/>
     <use xlink:href="#ma606e7c7c1" x="372.8736" y="103.7952" style="fill: #1f77b4; stroke: #1f77b4"/>
     <use xlink:href="#ma606e7c7c1" x="311.2704" y="138.96" style="fill: #1f77b4; stroke: #1f77b4"/>
     <use xlink:href="#ma606e7c7c1" x="322.8768" y="165.3336" style="fill: #1f77b4; stroke: #1f77b4"/>
     <use xlink:href="#ma606e7c7c1" x="316.6272" y="165.3336" style="fill: #1f77b4; stroke: #1f77b4"/>
     <use xlink:href="#ma606e7c7c1" x="283.5936" y="77.3424" style="fill: #1f77b4; stroke: #1f77b4"/>
     <use xlink:href="#ma606e7c7c1" x="237.168" y="138.96" style="fill: #1f77b4; stroke: #1f77b4"/>
     <use xlink:href="#ma606e7c7c1" x="327.3408" y="279.7776" style="fill: #1f77b4; stroke: #1f77b4"/>
     <use xlink:href="#ma606e7c7c1" x="364.8384" y="130.1688" style="fill: #1f77b4; stroke: #1f77b4"/>
     <use xlink:href="#ma606e7c7c1" x="185.3856" y="86.1336" style="fill: #1f77b4; stroke: #1f77b4"/>
     <use xlink:href="#ma606e7c7c1" x="253.2384" y="112.5864" style="fill: #1f77b4; stroke: #1f77b4"/>
     <use xlink:href="#ma606e7c7c1" x="264.8448" y="165.3336" style="fill: #1f77b4; stroke: #1f77b4"/>
     <use xlink:href="#ma606e7c7c1" x="125.568" y="156.5424" style="fill: #1f77b4; stroke: #1f77b4"/>
     <use xlink:href="#ma606e7c7c1" x="274.6656" y="94.9248" style="fill: #1f77b4; stroke: #1f77b4"/>
     <use xlink:href="#ma606e7c7c1" x="227.3472" y="86.1336" style="fill: #1f77b4; stroke: #1f77b4"/>
     <use xlink:href="#ma606e7c7c1" x="281.808" y="253.404" style="fill: #1f77b4; stroke: #1f77b4"/>
     <use xlink:href="#ma606e7c7c1" x="379.1232" y="77.3424" style="fill: #1f77b4; stroke: #1f77b4"/>
     <use xlink:href="#ma606e7c7c1" x="331.8048" y="174.1248" style="fill: #1f77b4; stroke: #1f77b4"/>
     <use xlink:href="#ma606e7c7c1" x="192.528" y="200.5776" style="fill: #1f77b4; stroke: #1f77b4"/>
     <use xlink:href="#ma606e7c7c1" x="309.4848" y="121.3776" style="fill: #1f77b4; stroke: #1f77b4"/>
     <use xlink:href="#ma606e7c7c1" x="278.2368" y="165.3336" style="fill: #1f77b4; stroke: #1f77b4"/>
     <use xlink:href="#ma606e7c7c1" x="307.6992" y="121.3776" style="fill: #1f77b4; stroke: #1f77b4"/>
     <use xlink:href="#ma606e7c7c1" x="271.0944" y="156.5424" style="fill: #1f77b4; stroke: #1f77b4"/>
     <use xlink:href="#ma606e7c7c1" x="282.7008" y="59.76" style="fill: #1f77b4; stroke: #1f77b4"/>
     <use xlink:href="#ma606e7c7c1" x="286.272" y="209.3688" style="fill: #1f77b4; stroke: #1f77b4"/>
     <use xlink:href="#ma606e7c7c1" x="299.664" y="94.9248" style="fill: #1f77b4; stroke: #1f77b4"/>
     <use xlink:href="#ma606e7c7c1" x="246.096" y="174.204" style="fill: #1f77b4; stroke: #1f77b4"/>
     <use xlink:href="#ma606e7c7c1" x="317.52" y="68.5512" style="fill: #1f77b4; stroke: #1f77b4"/>
     <use xlink:href="#ma606e7c7c1" x="146.9952" y="59.76" style="fill: #1f77b4; stroke: #1f77b4"/>
     <use xlink:href="#ma606e7c7c1" x="217.5264" y="147.7512" style="fill: #1f77b4; stroke: #1f77b4"/>
     <use xlink:href="#ma606e7c7c1" x="84.4992" y="156.5424" style="fill: #1f77b4; stroke: #1f77b4"/>
    </g>
   </g>
   <g id="matplotlib.axis_1">
    <g id="xtick_1">
     <g id="line2d_1">
      <defs>
       <path id="mf6de7e3dc9" d="M 0 0 
L 0 3.5 
" style="stroke: #000000; stroke-width: 0.8"/>
      </defs>
      <g>
       <use xlink:href="#mf6de7e3dc9" x="72" y="384.48" style="stroke: #000000; stroke-width: 0.8"/>
      </g>
     </g>
     <g id="text_1">
      <!-- 0.3 -->
      <g transform="translate(56.096875 406.676875) scale(0.2 -0.2)">
       <defs>
        <path id="DejaVuSans-30" d="M 2034 4250 
Q 1547 4250 1301 3770 
Q 1056 3291 1056 2328 
Q 1056 1369 1301 889 
Q 1547 409 2034 409 
Q 2525 409 2770 889 
Q 3016 1369 3016 2328 
Q 3016 3291 2770 3770 
Q 2525 4250 2034 4250 
z
M 2034 4750 
Q 2819 4750 3233 4129 
Q 3647 3509 3647 2328 
Q 3647 1150 3233 529 
Q 2819 -91 2034 -91 
Q 1250 -91 836 529 
Q 422 1150 422 2328 
Q 422 3509 836 4129 
Q 1250 4750 2034 4750 
z
" transform="scale(0.015625)"/>
        <path id="DejaVuSans-2e" d="M 684 794 
L 1344 794 
L 1344 0 
L 684 0 
L 684 794 
z
" transform="scale(0.015625)"/>
        <path id="DejaVuSans-33" d="M 2597 2516 
Q 3050 2419 3304 2112 
Q 3559 1806 3559 1356 
Q 3559 666 3084 287 
Q 2609 -91 1734 -91 
Q 1441 -91 1130 -33 
Q 819 25 488 141 
L 488 750 
Q 750 597 1062 519 
Q 1375 441 1716 441 
Q 2309 441 2620 675 
Q 2931 909 2931 1356 
Q 2931 1769 2642 2001 
Q 2353 2234 1838 2234 
L 1294 2234 
L 1294 2753 
L 1863 2753 
Q 2328 2753 2575 2939 
Q 2822 3125 2822 3475 
Q 2822 3834 2567 4026 
Q 2313 4219 1838 4219 
Q 1578 4219 1281 4162 
Q 984 4106 628 3988 
L 628 4550 
Q 988 4650 1302 4700 
Q 1616 4750 1894 4750 
Q 2613 4750 3031 4423 
Q 3450 4097 3450 3541 
Q 3450 3153 3228 2886 
Q 3006 2619 2597 2516 
z
" transform="scale(0.015625)"/>
       </defs>
       <use xlink:href="#DejaVuSans-30"/>
       <use xlink:href="#DejaVuSans-2e" x="63.623047"/>
       <use xlink:href="#DejaVuSans-33" x="95.410156"/>
      </g>
     </g>
    </g>
    <g id="xtick_2">
     <g id="line2d_2">
      <g>
       <use xlink:href="#mf6de7e3dc9" x="161.28" y="384.48" style="stroke: #000000; stroke-width: 0.8"/>
      </g>
     </g>
     <g id="text_2">
      <!-- 0.4 -->
      <g transform="translate(145.376875 406.676875) scale(0.2 -0.2)">
       <defs>
        <path id="DejaVuSans-34" d="M 2419 4116 
L 825 1625 
L 2419 1625 
L 2419 4116 
z
M 2253 4666 
L 3047 4666 
L 3047 1625 
L 3713 1625 
L 3713 1100 
L 3047 1100 
L 3047 0 
L 2419 0 
L 2419 1100 
L 313 1100 
L 313 1709 
L 2253 4666 
z
" transform="scale(0.015625)"/>
       </defs>
       <use xlink:href="#DejaVuSans-30"/>
       <use xlink:href="#DejaVuSans-2e" x="63.623047"/>
       <use xlink:href="#DejaVuSans-34" x="95.410156"/>
      </g>
     </g>
    </g>
    <g id="xtick_3">
     <g id="line2d_3">
      <g>
       <use xlink:href="#mf6de7e3dc9" x="250.56" y="384.48" style="stroke: #000000; stroke-width: 0.8"/>
      </g>
     </g>
     <g id="text_3">
      <!-- 0.5 -->
      <g transform="translate(234.656875 406.676875) scale(0.2 -0.2)">
       <defs>
        <path id="DejaVuSans-35" d="M 691 4666 
L 3169 4666 
L 3169 4134 
L 1269 4134 
L 1269 2991 
Q 1406 3038 1543 3061 
Q 1681 3084 1819 3084 
Q 2600 3084 3056 2656 
Q 3513 2228 3513 1497 
Q 3513 744 3044 326 
Q 2575 -91 1722 -91 
Q 1428 -91 1123 -41 
Q 819 9 494 109 
L 494 744 
Q 775 591 1075 516 
Q 1375 441 1709 441 
Q 2250 441 2565 725 
Q 2881 1009 2881 1497 
Q 2881 1984 2565 2268 
Q 2250 2553 1709 2553 
Q 1456 2553 1204 2497 
Q 953 2441 691 2322 
L 691 4666 
z
" transform="scale(0.015625)"/>
       </defs>
       <use xlink:href="#DejaVuSans-30"/>
       <use xlink:href="#DejaVuSans-2e" x="63.623047"/>
       <use xlink:href="#DejaVuSans-35" x="95.410156"/>
      </g>
     </g>
    </g>
    <g id="xtick_4">
     <g id="line2d_4">
      <g>
       <use xlink:href="#mf6de7e3dc9" x="339.84" y="384.48" style="stroke: #000000; stroke-width: 0.8"/>
      </g>
     </g>
     <g id="text_4">
      <!-- 0.6 -->
      <g transform="translate(323.936875 406.676875) scale(0.2 -0.2)">
       <defs>
        <path id="DejaVuSans-36" d="M 2113 2584 
Q 1688 2584 1439 2293 
Q 1191 2003 1191 1497 
Q 1191 994 1439 701 
Q 1688 409 2113 409 
Q 2538 409 2786 701 
Q 3034 994 3034 1497 
Q 3034 2003 2786 2293 
Q 2538 2584 2113 2584 
z
M 3366 4563 
L 3366 3988 
Q 3128 4100 2886 4159 
Q 2644 4219 2406 4219 
Q 1781 4219 1451 3797 
Q 1122 3375 1075 2522 
Q 1259 2794 1537 2939 
Q 1816 3084 2150 3084 
Q 2853 3084 3261 2657 
Q 3669 2231 3669 1497 
Q 3669 778 3244 343 
Q 2819 -91 2113 -91 
Q 1303 -91 875 529 
Q 447 1150 447 2328 
Q 447 3434 972 4092 
Q 1497 4750 2381 4750 
Q 2619 4750 2861 4703 
Q 3103 4656 3366 4563 
z
" transform="scale(0.015625)"/>
       </defs>
       <use xlink:href="#DejaVuSans-30"/>
       <use xlink:href="#DejaVuSans-2e" x="63.623047"/>
       <use xlink:href="#DejaVuSans-36" x="95.410156"/>
      </g>
     </g>
    </g>
    <g id="xtick_5">
     <g id="line2d_5">
      <g>
       <use xlink:href="#mf6de7e3dc9" x="429.12" y="384.48" style="stroke: #000000; stroke-width: 0.8"/>
      </g>
     </g>
     <g id="text_5">
      <!-- 0.7 -->
      <g transform="translate(413.216875 406.676875) scale(0.2 -0.2)">
       <defs>
        <path id="DejaVuSans-37" d="M 525 4666 
L 3525 4666 
L 3525 4397 
L 1831 0 
L 1172 0 
L 2766 4134 
L 525 4134 
L 525 4666 
z
" transform="scale(0.015625)"/>
       </defs>
       <use xlink:href="#DejaVuSans-30"/>
       <use xlink:href="#DejaVuSans-2e" x="63.623047"/>
       <use xlink:href="#DejaVuSans-37" x="95.410156"/>
      </g>
     </g>
    </g>
    <g id="xtick_6">
     <g id="line2d_6">
      <g>
       <use xlink:href="#mf6de7e3dc9" x="518.4" y="384.48" style="stroke: #000000; stroke-width: 0.8"/>
      </g>
     </g>
     <g id="text_6">
      <!-- 0.8 -->
      <g transform="translate(502.496875 406.676875) scale(0.2 -0.2)">
       <defs>
        <path id="DejaVuSans-38" d="M 2034 2216 
Q 1584 2216 1326 1975 
Q 1069 1734 1069 1313 
Q 1069 891 1326 650 
Q 1584 409 2034 409 
Q 2484 409 2743 651 
Q 3003 894 3003 1313 
Q 3003 1734 2745 1975 
Q 2488 2216 2034 2216 
z
M 1403 2484 
Q 997 2584 770 2862 
Q 544 3141 544 3541 
Q 544 4100 942 4425 
Q 1341 4750 2034 4750 
Q 2731 4750 3128 4425 
Q 3525 4100 3525 3541 
Q 3525 3141 3298 2862 
Q 3072 2584 2669 2484 
Q 3125 2378 3379 2068 
Q 3634 1759 3634 1313 
Q 3634 634 3220 271 
Q 2806 -91 2034 -91 
Q 1263 -91 848 271 
Q 434 634 434 1313 
Q 434 1759 690 2068 
Q 947 2378 1403 2484 
z
M 1172 3481 
Q 1172 3119 1398 2916 
Q 1625 2713 2034 2713 
Q 2441 2713 2670 2916 
Q 2900 3119 2900 3481 
Q 2900 3844 2670 4047 
Q 2441 4250 2034 4250 
Q 1625 4250 1398 4047 
Q 1172 3844 1172 3481 
z
" transform="scale(0.015625)"/>
       </defs>
       <use xlink:href="#DejaVuSans-30"/>
       <use xlink:href="#DejaVuSans-2e" x="63.623047"/>
       <use xlink:href="#DejaVuSans-38" x="95.410156"/>
      </g>
     </g>
    </g>
   </g>
   <g id="matplotlib.axis_2">
    <g id="ytick_1">
     <g id="line2d_7">
      <defs>
       <path id="m4feb724f7a" d="M 0 0 
L -3.5 0 
" style="stroke: #000000; stroke-width: 0.8"/>
      </defs>
      <g>
       <use xlink:href="#m4feb724f7a" x="72" y="376.56" style="stroke: #000000; stroke-width: 0.8"/>
      </g>
     </g>
     <g id="text_7">
      <!-- 1 -->
      <g transform="translate(52.275 384.158437) scale(0.2 -0.2)">
       <defs>
        <path id="DejaVuSans-31" d="M 794 531 
L 1825 531 
L 1825 4091 
L 703 3866 
L 703 4441 
L 1819 4666 
L 2450 4666 
L 2450 531 
L 3481 531 
L 3481 0 
L 794 0 
L 794 531 
z
" transform="scale(0.015625)"/>
       </defs>
       <use xlink:href="#DejaVuSans-31"/>
      </g>
     </g>
    </g>
    <g id="ytick_2">
     <g id="line2d_8">
      <g>
       <use xlink:href="#m4feb724f7a" x="72" y="297.36" style="stroke: #000000; stroke-width: 0.8"/>
      </g>
     </g>
     <g id="text_8">
      <!-- 2 -->
      <g transform="translate(52.275 304.958437) scale(0.2 -0.2)">
       <defs>
        <path id="DejaVuSans-32" d="M 1228 531 
L 3431 531 
L 3431 0 
L 469 0 
L 469 531 
Q 828 903 1448 1529 
Q 2069 2156 2228 2338 
Q 2531 2678 2651 2914 
Q 2772 3150 2772 3378 
Q 2772 3750 2511 3984 
Q 2250 4219 1831 4219 
Q 1534 4219 1204 4116 
Q 875 4013 500 3803 
L 500 4441 
Q 881 4594 1212 4672 
Q 1544 4750 1819 4750 
Q 2544 4750 2975 4387 
Q 3406 4025 3406 3419 
Q 3406 3131 3298 2873 
Q 3191 2616 2906 2266 
Q 2828 2175 2409 1742 
Q 1991 1309 1228 531 
z
" transform="scale(0.015625)"/>
       </defs>
       <use xlink:href="#DejaVuSans-32"/>
      </g>
     </g>
    </g>
    <g id="ytick_3">
     <g id="line2d_9">
      <g>
       <use xlink:href="#m4feb724f7a" x="72" y="218.16" style="stroke: #000000; stroke-width: 0.8"/>
      </g>
     </g>
     <g id="text_9">
      <!-- 3 -->
      <g transform="translate(52.275 225.758437) scale(0.2 -0.2)">
       <use xlink:href="#DejaVuSans-33"/>
      </g>
     </g>
    </g>
    <g id="ytick_4">
     <g id="line2d_10">
      <g>
       <use xlink:href="#m4feb724f7a" x="72" y="138.96" style="stroke: #000000; stroke-width: 0.8"/>
      </g>
     </g>
     <g id="text_10">
      <!-- 4 -->
      <g transform="translate(52.275 146.558437) scale(0.2 -0.2)">
       <use xlink:href="#DejaVuSans-34"/>
      </g>
     </g>
    </g>
    <g id="ytick_5">
     <g id="line2d_11">
      <g>
       <use xlink:href="#m4feb724f7a" x="72" y="59.76" style="stroke: #000000; stroke-width: 0.8"/>
      </g>
     </g>
     <g id="text_11">
      <!-- 5 -->
      <g transform="translate(52.275 67.358437) scale(0.2 -0.2)">
       <use xlink:href="#DejaVuSans-35"/>
      </g>
     </g>
    </g>
   </g>
   <g id="line2d_12">
    <path d="M 357.696 115.801583 
L 287.1648 144.936837 
L 294.3072 144.137531 
L 409.4784 131.248727 
L 420.192 130.049769 
L 343.4112 117.400195 
L 302.3424 143.238312 
L 363.9456 136.344301 
L 263.952 147.534581 
L 312.1632 142.139267 
L 334.4832 139.641437 
L 282.7008 124.194293 
L 395.1936 132.847338 
L 397.872 111.305489 
L 317.52 141.539788 
L 403.2288 131.94812 
L 313.9488 120.69733 
L 333.5904 118.49924 
L 325.5552 119.398459 
L 360.3744 136.743954 
L 309.4848 142.439007 
L 382.6944 113.004013 
L 293.4144 122.995334 
L 300.5568 122.196029 
L 418.4064 130.249595 
L 409.4784 131.248727 
L 307.6992 142.638833 
L 236.2752 150.63189 
L 280.9152 145.63623 
L 346.9824 138.242652 
L 341.6256 138.842131 
L 358.5888 136.94378 
L 340.7328 117.699934 
L 271.0944 125.493165 
L 362.16 115.302017 
L 248.7744 127.990995 
L 233.5968 129.689519 
L 377.3376 113.603492 
L 265.7376 147.334754 
L 335.376 118.299413 
L 286.272 145.03675 
L 443.4048 106.209915 
L 351.4464 137.743086 
L 448.7616 126.852546 
L 393.408 133.047165 
L 295.2 144.037618 
L 282.7008 145.436403 
L 254.1312 148.633626 
L 413.9424 109.507051 
L 379.1232 134.645776 
L 221.9904 152.230501 
L 446.976 127.052372 
L 383.5872 112.9041 
L 392.5152 133.147078 
L 212.1696 153.329547 
L 401.4432 132.147946 
L 406.8 131.548467 
L 406.8 131.548467 
L 438.9408 127.951591 
L 335.376 139.541524 
L 346.0896 138.342565 
L 372.8736 135.345169 
L 226.4544 130.488825 
L 372.8736 114.103059 
L 311.2704 120.99707 
L 322.8768 119.698198 
L 316.6272 141.639701 
L 283.5936 124.09438 
L 237.168 150.531977 
L 327.3408 119.198632 
L 364.8384 115.002277 
L 185.3856 135.084833 
L 253.2384 127.491429 
L 264.8448 126.192557 
L 125.568 141.779018 
L 274.6656 125.093512 
L 227.3472 130.388912 
L 281.808 124.294206 
L 379.1232 113.403666 
L 331.8048 118.699066 
L 192.528 134.285527 
L 309.4848 121.196897 
L 278.2368 124.693859 
L 307.6992 121.396723 
L 271.0944 125.493165 
L 282.7008 124.194293 
L 286.272 123.79464 
L 299.664 122.295942 
L 246.096 128.290735 
L 317.52 120.297678 
L 146.9952 139.381101 
L 217.5264 131.487957 
L 84.4992 167.617136 
" clip-path="url(#p5fb0a8fc1e)" style="fill: none; stroke: #ff0000; stroke-width: 1.5; stroke-linecap: square"/>
   </g>
   <g id="patch_3">
    <path d="M 72 384.48 
L 72 51.84 
" style="fill: none; stroke: #000000; stroke-width: 0.8; stroke-linejoin: miter; stroke-linecap: square"/>
   </g>
   <g id="patch_4">
    <path d="M 518.4 384.48 
L 518.4 51.84 
" style="fill: none; stroke: #000000; stroke-width: 0.8; stroke-linejoin: miter; stroke-linecap: square"/>
   </g>
   <g id="patch_5">
    <path d="M 72 384.48 
L 518.4 384.48 
" style="fill: none; stroke: #000000; stroke-width: 0.8; stroke-linejoin: miter; stroke-linecap: square"/>
   </g>
   <g id="patch_6">
    <path d="M 72 51.84 
L 518.4 51.84 
" style="fill: none; stroke: #000000; stroke-width: 0.8; stroke-linejoin: miter; stroke-linecap: square"/>
   </g>
   <g id="legend_1">
    <g id="patch_7">
     <path d="M 507.4 64.84 
L 511.4 64.84 
Q 513.4 64.84 513.4 62.84 
L 513.4 58.84 
Q 513.4 56.84 511.4 56.84 
L 507.4 56.84 
Q 505.4 56.84 505.4 58.84 
L 505.4 62.84 
Q 505.4 64.84 507.4 64.84 
z
" style="fill: #ffffff; opacity: 0.8; stroke: #cccccc; stroke-linejoin: miter"/>
    </g>
   </g>
  </g>
 </g>
 <defs>
  <clipPath id="p5fb0a8fc1e">
   <rect x="72" y="51.84" width="446.4" height="332.64"/>
  </clipPath>
 </defs>
</svg>
