<?xml version="1.0" encoding="utf-8" standalone="no"?>
<!DOCTYPE svg PUBLIC "-//W3C//DTD SVG 1.1//EN"
  "http://www.w3.org/Graphics/SVG/1.1/DTD/svg11.dtd">
<svg xmlns:xlink="http://www.w3.org/1999/xlink" width="576pt" height="432pt" viewBox="0 0 576 432" xmlns="http://www.w3.org/2000/svg" version="1.1">
 <metadata>
  <rdf:RDF xmlns:dc="http://purl.org/dc/elements/1.1/" xmlns:cc="http://creativecommons.org/ns#" xmlns:rdf="http://www.w3.org/1999/02/22-rdf-syntax-ns#">
   <cc:Work>
    <dc:type rdf:resource="http://purl.org/dc/dcmitype/StillImage"/>
    <dc:date>2024-12-02T19:21:03.009395</dc:date>
    <dc:format>image/svg+xml</dc:format>
    <dc:creator>
     <cc:Agent>
      <dc:title>Matplotlib v3.8.1, https://matplotlib.org/</dc:title>
     </cc:Agent>
    </dc:creator>
   </cc:Work>
  </rdf:RDF>
 </metadata>
 <defs>
  <style type="text/css">*{stroke-linejoin: round; stroke-linecap: butt}</style>
 </defs>
 <g id="figure_1">
  <g id="patch_1">
   <path d="M 0 432 
L 576 432 
L 576 0 
L 0 0 
z
" style="fill: #ffffff"/>
  </g>
  <g id="axes_1">
   <g id="patch_2">
    <path d="M 72 384.48 
L 518.4 384.48 
L 518.4 51.84 
L 72 51.84 
z
" style="fill: #ffffff"/>
   </g>
   <g id="PathCollection_1">
    <defs>
     <path id="m3381fee607" d="M 0 3 
C 0.795609 3 1.55874 2.683901 2.12132 2.12132 
C 2.683901 1.55874 3 0.795609 3 0 
C 3 -0.795609 2.683901 -1.55874 2.12132 -2.12132 
C 1.55874 -2.683901 0.795609 -3 0 -3 
C -0.795609 -3 -1.55874 -2.683901 -2.12132 -2.12132 
C -2.683901 -1.55874 -3 -0.795609 -3 0 
C -3 0.795609 -2.683901 1.55874 -2.12132 2.12132 
C -1.55874 2.683901 -0.795609 3 0 3 
z
" style="stroke: #1f77b4"/>
    </defs>
    <g clip-path="url(#pb48e928c36)">
     <use xlink:href="#m3381fee607" x="357.696" y="86.1336" style="fill: #1f77b4; stroke: #1f77b4"/>
     <use xlink:href="#m3381fee607" x="287.1648" y="218.16" style="fill: #1f77b4; stroke: #1f77b4"/>
     <use xlink:href="#m3381fee607" x="294.3072" y="138.96" style="fill: #1f77b4; stroke: #1f77b4"/>
     <use xlink:href="#m3381fee607" x="409.4784" y="138.96" style="fill: #1f77b4; stroke: #1f77b4"/>
     <use xlink:href="#m3381fee607" x="420.192" y="59.76" style="fill: #1f77b4; stroke: #1f77b4"/>
     <use xlink:href="#m3381fee607" x="343.4112" y="138.96" style="fill: #1f77b4; stroke: #1f77b4"/>
     <use xlink:href="#m3381fee607" x="302.3424" y="218.16" style="fill: #1f77b4; stroke: #1f77b4"/>
     <use xlink:href="#m3381fee607" x="363.9456" y="218.16" style="fill: #1f77b4; stroke: #1f77b4"/>
     <use xlink:href="#m3381fee607" x="263.952" y="376.56" style="fill: #1f77b4; stroke: #1f77b4"/>
     <use xlink:href="#m3381fee607" x="312.1632" y="165.3336" style="fill: #1f77b4; stroke: #1f77b4"/>
     <use xlink:href="#m3381fee607" x="334.4832" y="138.96" style="fill: #1f77b4; stroke: #1f77b4"/>
     <use xlink:href="#m3381fee607" x="282.7008" y="86.1336" style="fill: #1f77b4; stroke: #1f77b4"/>
     <use xlink:href="#m3381fee607" x="395.1936" y="218.16" style="fill: #1f77b4; stroke: #1f77b4"/>
     <use xlink:href="#m3381fee607" x="397.872" y="59.76" style="fill: #1f77b4; stroke: #1f77b4"/>
     <use xlink:href="#m3381fee607" x="317.52" y="297.36" style="fill: #1f77b4; stroke: #1f77b4"/>
     <use xlink:href="#m3381fee607" x="403.2288" y="59.76" style="fill: #1f77b4; stroke: #1f77b4"/>
     <use xlink:href="#m3381fee607" x="313.9488" y="297.36" style="fill: #1f77b4; stroke: #1f77b4"/>
     <use xlink:href="#m3381fee607" x="333.5904" y="138.96" style="fill: #1f77b4; stroke: #1f77b4"/>
     <use xlink:href="#m3381fee607" x="325.5552" y="59.76" style="fill: #1f77b4; stroke: #1f77b4"/>
     <use xlink:href="#m3381fee607" x="360.3744" y="218.16" style="fill: #1f77b4; stroke: #1f77b4"/>
     <use xlink:href="#m3381fee607" x="309.4848" y="165.3336" style="fill: #1f77b4; stroke: #1f77b4"/>
     <use xlink:href="#m3381fee607" x="382.6944" y="59.76" style="fill: #1f77b4; stroke: #1f77b4"/>
     <use xlink:href="#m3381fee607" x="293.4144" y="86.1336" style="fill: #1f77b4; stroke: #1f77b4"/>
     <use xlink:href="#m3381fee607" x="300.5568" y="138.96" style="fill: #1f77b4; stroke: #1f77b4"/>
     <use xlink:href="#m3381fee607" x="418.4064" y="59.76" style="fill: #1f77b4; stroke: #1f77b4"/>
     <use xlink:href="#m3381fee607" x="409.4784" y="270.9864" style="fill: #1f77b4; stroke: #1f77b4"/>
     <use xlink:href="#m3381fee607" x="307.6992" y="59.76" style="fill: #1f77b4; stroke: #1f77b4"/>
     <use xlink:href="#m3381fee607" x="236.2752" y="165.3336" style="fill: #1f77b4; stroke: #1f77b4"/>
     <use xlink:href="#m3381fee607" x="280.9152" y="112.5864" style="fill: #1f77b4; stroke: #1f77b4"/>
     <use xlink:href="#m3381fee607" x="346.9824" y="59.76" style="fill: #1f77b4; stroke: #1f77b4"/>
     <use xlink:href="#m3381fee607" x="341.6256" y="86.1336" style="fill: #1f77b4; stroke: #1f77b4"/>
     <use xlink:href="#m3381fee607" x="358.5888" y="138.96" style="fill: #1f77b4; stroke: #1f77b4"/>
     <use xlink:href="#m3381fee607" x="340.7328" y="59.76" style="fill: #1f77b4; stroke: #1f77b4"/>
     <use xlink:href="#m3381fee607" x="271.0944" y="59.76" style="fill: #1f77b4; stroke: #1f77b4"/>
     <use xlink:href="#m3381fee607" x="362.16" y="59.76" style="fill: #1f77b4; stroke: #1f77b4"/>
     <use xlink:href="#m3381fee607" x="248.7744" y="138.96" style="fill: #1f77b4; stroke: #1f77b4"/>
     <use xlink:href="#m3381fee607" x="233.5968" y="138.96" style="fill: #1f77b4; stroke: #1f77b4"/>
     <use xlink:href="#m3381fee607" x="377.3376" y="138.96" style="fill: #1f77b4; stroke: #1f77b4"/>
     <use xlink:href="#m3381fee607" x="265.7376" y="191.7864" style="fill: #1f77b4; stroke: #1f77b4"/>
     <use xlink:href="#m3381fee607" x="335.376" y="112.5864" style="fill: #1f77b4; stroke: #1f77b4"/>
     <use xlink:href="#m3381fee607" x="286.272" y="297.36" style="fill: #1f77b4; stroke: #1f77b4"/>
     <use xlink:href="#m3381fee607" x="443.4048" y="86.1336" style="fill: #1f77b4; stroke: #1f77b4"/>
     <use xlink:href="#m3381fee607" x="351.4464" y="138.96" style="fill: #1f77b4; stroke: #1f77b4"/>
     <use xlink:href="#m3381fee607" x="448.7616" y="191.7864" style="fill: #1f77b4; stroke: #1f77b4"/>
     <use xlink:href="#m3381fee607" x="393.408" y="165.3336" style="fill: #1f77b4; stroke: #1f77b4"/>
     <use xlink:href="#m3381fee607" x="295.2" y="297.36" style="fill: #1f77b4; stroke: #1f77b4"/>
     <use xlink:href="#m3381fee607" x="282.7008" y="59.76" style="fill: #1f77b4; stroke: #1f77b4"/>
     <use xlink:href="#m3381fee607" x="254.1312" y="138.96" style="fill: #1f77b4; stroke: #1f77b4"/>
     <use xlink:href="#m3381fee607" x="413.9424" y="138.96" style="fill: #1f77b4; stroke: #1f77b4"/>
     <use xlink:href="#m3381fee607" x="379.1232" y="112.5864" style="fill: #1f77b4; stroke: #1f77b4"/>
     <use xlink:href="#m3381fee607" x="221.9904" y="59.76" style="fill: #1f77b4; stroke: #1f77b4"/>
     <use xlink:href="#m3381fee607" x="446.976" y="191.7864" style="fill: #1f77b4; stroke: #1f77b4"/>
     <use xlink:href="#m3381fee607" x="383.5872" y="138.96" style="fill: #1f77b4; stroke: #1f77b4"/>
     <use xlink:href="#m3381fee607" x="392.5152" y="112.5864" style="fill: #1f77b4; stroke: #1f77b4"/>
     <use xlink:href="#m3381fee607" x="212.1696" y="138.96" style="fill: #1f77b4; stroke: #1f77b4"/>
     <use xlink:href="#m3381fee607" x="401.4432" y="376.56" style="fill: #1f77b4; stroke: #1f77b4"/>
     <use xlink:href="#m3381fee607" x="406.8" y="59.76" style="fill: #1f77b4; stroke: #1f77b4"/>
     <use xlink:href="#m3381fee607" x="406.8" y="218.16" style="fill: #1f77b4; stroke: #1f77b4"/>
     <use xlink:href="#m3381fee607" x="438.9408" y="59.76" style="fill: #1f77b4; stroke: #1f77b4"/>
     <use xlink:href="#m3381fee607" x="335.376" y="59.76" style="fill: #1f77b4; stroke: #1f77b4"/>
     <use xlink:href="#m3381fee607" x="346.0896" y="112.5864" style="fill: #1f77b4; stroke: #1f77b4"/>
     <use xlink:href="#m3381fee607" x="372.8736" y="59.76" style="fill: #1f77b4; stroke: #1f77b4"/>
     <use xlink:href="#m3381fee607" x="226.4544" y="138.96" style="fill: #1f77b4; stroke: #1f77b4"/>
     <use xlink:href="#m3381fee607" x="372.8736" y="112.5864" style="fill: #1f77b4; stroke: #1f77b4"/>
     <use xlink:href="#m3381fee607" x="311.2704" y="138.96" style="fill: #1f77b4; stroke: #1f77b4"/>
     <use xlink:href="#m3381fee607" x="322.8768" y="165.3336" style="fill: #1f77b4; stroke: #1f77b4"/>
     <use xlink:href="#m3381fee607" x="316.6272" y="244.5336" style="fill: #1f77b4; stroke: #1f77b4"/>
     <use xlink:href="#m3381fee607" x="283.5936" y="86.1336" style="fill: #1f77b4; stroke: #1f77b4"/>
     <use xlink:href="#m3381fee607" x="237.168" y="165.3336" style="fill: #1f77b4; stroke: #1f77b4"/>
     <use xlink:href="#m3381fee607" x="327.3408" y="323.7336" style="fill: #1f77b4; stroke: #1f77b4"/>
     <use xlink:href="#m3381fee607" x="364.8384" y="112.5864" style="fill: #1f77b4; stroke: #1f77b4"/>
     <use xlink:href="#m3381fee607" x="185.3856" y="59.76" style="fill: #1f77b4; stroke: #1f77b4"/>
     <use xlink:href="#m3381fee607" x="253.2384" y="138.96" style="fill: #1f77b4; stroke: #1f77b4"/>
     <use xlink:href="#m3381fee607" x="264.8448" y="112.5864" style="fill: #1f77b4; stroke: #1f77b4"/>
     <use xlink:href="#m3381fee607" x="125.568" y="112.5864" style="fill: #1f77b4; stroke: #1f77b4"/>
     <use xlink:href="#m3381fee607" x="274.6656" y="138.96" style="fill: #1f77b4; stroke: #1f77b4"/>
     <use xlink:href="#m3381fee607" x="227.3472" y="59.76" style="fill: #1f77b4; stroke: #1f77b4"/>
     <use xlink:href="#m3381fee607" x="281.808" y="270.9864" style="fill: #1f77b4; stroke: #1f77b4"/>
     <use xlink:href="#m3381fee607" x="379.1232" y="112.5864" style="fill: #1f77b4; stroke: #1f77b4"/>
     <use xlink:href="#m3381fee607" x="331.8048" y="218.16" style="fill: #1f77b4; stroke: #1f77b4"/>
     <use xlink:href="#m3381fee607" x="192.528" y="191.7864" style="fill: #1f77b4; stroke: #1f77b4"/>
     <use xlink:href="#m3381fee607" x="309.4848" y="191.7864" style="fill: #1f77b4; stroke: #1f77b4"/>
     <use xlink:href="#m3381fee607" x="278.2368" y="218.16" style="fill: #1f77b4; stroke: #1f77b4"/>
     <use xlink:href="#m3381fee607" x="307.6992" y="165.3336" style="fill: #1f77b4; stroke: #1f77b4"/>
     <use xlink:href="#m3381fee607" x="271.0944" y="138.96" style="fill: #1f77b4; stroke: #1f77b4"/>
     <use xlink:href="#m3381fee607" x="282.7008" y="59.76" style="fill: #1f77b4; stroke: #1f77b4"/>
     <use xlink:href="#m3381fee607" x="286.272" y="191.7864" style="fill: #1f77b4; stroke: #1f77b4"/>
     <use xlink:href="#m3381fee607" x="299.664" y="59.76" style="fill: #1f77b4; stroke: #1f77b4"/>
     <use xlink:href="#m3381fee607" x="246.096" y="138.96" style="fill: #1f77b4; stroke: #1f77b4"/>
     <use xlink:href="#m3381fee607" x="317.52" y="86.1336" style="fill: #1f77b4; stroke: #1f77b4"/>
     <use xlink:href="#m3381fee607" x="146.9952" y="59.76" style="fill: #1f77b4; stroke: #1f77b4"/>
     <use xlink:href="#m3381fee607" x="217.5264" y="138.96" style="fill: #1f77b4; stroke: #1f77b4"/>
     <use xlink:href="#m3381fee607" x="84.4992" y="218.16" style="fill: #1f77b4; stroke: #1f77b4"/>
    </g>
   </g>
   <g id="matplotlib.axis_1">
    <g id="xtick_1">
     <g id="line2d_1">
      <defs>
       <path id="m9a9b95d9bb" d="M 0 0 
L 0 3.5 
" style="stroke: #000000; stroke-width: 0.8"/>
      </defs>
      <g>
       <use xlink:href="#m9a9b95d9bb" x="72" y="384.48" style="stroke: #000000; stroke-width: 0.8"/>
      </g>
     </g>
     <g id="text_1">
      <!-- 0.3 -->
      <g transform="translate(56.096875 406.676875) scale(0.2 -0.2)">
       <defs>
        <path id="DejaVuSans-30" d="M 2034 4250 
Q 1547 4250 1301 3770 
Q 1056 3291 1056 2328 
Q 1056 1369 1301 889 
Q 1547 409 2034 409 
Q 2525 409 2770 889 
Q 3016 1369 3016 2328 
Q 3016 3291 2770 3770 
Q 2525 4250 2034 4250 
z
M 2034 4750 
Q 2819 4750 3233 4129 
Q 3647 3509 3647 2328 
Q 3647 1150 3233 529 
Q 2819 -91 2034 -91 
Q 1250 -91 836 529 
Q 422 1150 422 2328 
Q 422 3509 836 4129 
Q 1250 4750 2034 4750 
z
" transform="scale(0.015625)"/>
        <path id="DejaVuSans-2e" d="M 684 794 
L 1344 794 
L 1344 0 
L 684 0 
L 684 794 
z
" transform="scale(0.015625)"/>
        <path id="DejaVuSans-33" d="M 2597 2516 
Q 3050 2419 3304 2112 
Q 3559 1806 3559 1356 
Q 3559 666 3084 287 
Q 2609 -91 1734 -91 
Q 1441 -91 1130 -33 
Q 819 25 488 141 
L 488 750 
Q 750 597 1062 519 
Q 1375 441 1716 441 
Q 2309 441 2620 675 
Q 2931 909 2931 1356 
Q 2931 1769 2642 2001 
Q 2353 2234 1838 2234 
L 1294 2234 
L 1294 2753 
L 1863 2753 
Q 2328 2753 2575 2939 
Q 2822 3125 2822 3475 
Q 2822 3834 2567 4026 
Q 2313 4219 1838 4219 
Q 1578 4219 1281 4162 
Q 984 4106 628 3988 
L 628 4550 
Q 988 4650 1302 4700 
Q 1616 4750 1894 4750 
Q 2613 4750 3031 4423 
Q 3450 4097 3450 3541 
Q 3450 3153 3228 2886 
Q 3006 2619 2597 2516 
z
" transform="scale(0.015625)"/>
       </defs>
       <use xlink:href="#DejaVuSans-30"/>
       <use xlink:href="#DejaVuSans-2e" x="63.623047"/>
       <use xlink:href="#DejaVuSans-33" x="95.410156"/>
      </g>
     </g>
    </g>
    <g id="xtick_2">
     <g id="line2d_2">
      <g>
       <use xlink:href="#m9a9b95d9bb" x="161.28" y="384.48" style="stroke: #000000; stroke-width: 0.8"/>
      </g>
     </g>
     <g id="text_2">
      <!-- 0.4 -->
      <g transform="translate(145.376875 406.676875) scale(0.2 -0.2)">
       <defs>
        <path id="DejaVuSans-34" d="M 2419 4116 
L 825 1625 
L 2419 1625 
L 2419 4116 
z
M 2253 4666 
L 3047 4666 
L 3047 1625 
L 3713 1625 
L 3713 1100 
L 3047 1100 
L 3047 0 
L 2419 0 
L 2419 1100 
L 313 1100 
L 313 1709 
L 2253 4666 
z
" transform="scale(0.015625)"/>
       </defs>
       <use xlink:href="#DejaVuSans-30"/>
       <use xlink:href="#DejaVuSans-2e" x="63.623047"/>
       <use xlink:href="#DejaVuSans-34" x="95.410156"/>
      </g>
     </g>
    </g>
    <g id="xtick_3">
     <g id="line2d_3">
      <g>
       <use xlink:href="#m9a9b95d9bb" x="250.56" y="384.48" style="stroke: #000000; stroke-width: 0.8"/>
      </g>
     </g>
     <g id="text_3">
      <!-- 0.5 -->
      <g transform="translate(234.656875 406.676875) scale(0.2 -0.2)">
       <defs>
        <path id="DejaVuSans-35" d="M 691 4666 
L 3169 4666 
L 3169 4134 
L 1269 4134 
L 1269 2991 
Q 1406 3038 1543 3061 
Q 1681 3084 1819 3084 
Q 2600 3084 3056 2656 
Q 3513 2228 3513 1497 
Q 3513 744 3044 326 
Q 2575 -91 1722 -91 
Q 1428 -91 1123 -41 
Q 819 9 494 109 
L 494 744 
Q 775 591 1075 516 
Q 1375 441 1709 441 
Q 2250 441 2565 725 
Q 2881 1009 2881 1497 
Q 2881 1984 2565 2268 
Q 2250 2553 1709 2553 
Q 1456 2553 1204 2497 
Q 953 2441 691 2322 
L 691 4666 
z
" transform="scale(0.015625)"/>
       </defs>
       <use xlink:href="#DejaVuSans-30"/>
       <use xlink:href="#DejaVuSans-2e" x="63.623047"/>
       <use xlink:href="#DejaVuSans-35" x="95.410156"/>
      </g>
     </g>
    </g>
    <g id="xtick_4">
     <g id="line2d_4">
      <g>
       <use xlink:href="#m9a9b95d9bb" x="339.84" y="384.48" style="stroke: #000000; stroke-width: 0.8"/>
      </g>
     </g>
     <g id="text_4">
      <!-- 0.6 -->
      <g transform="translate(323.936875 406.676875) scale(0.2 -0.2)">
       <defs>
        <path id="DejaVuSans-36" d="M 2113 2584 
Q 1688 2584 1439 2293 
Q 1191 2003 1191 1497 
Q 1191 994 1439 701 
Q 1688 409 2113 409 
Q 2538 409 2786 701 
Q 3034 994 3034 1497 
Q 3034 2003 2786 2293 
Q 2538 2584 2113 2584 
z
M 3366 4563 
L 3366 3988 
Q 3128 4100 2886 4159 
Q 2644 4219 2406 4219 
Q 1781 4219 1451 3797 
Q 1122 3375 1075 2522 
Q 1259 2794 1537 2939 
Q 1816 3084 2150 3084 
Q 2853 3084 3261 2657 
Q 3669 2231 3669 1497 
Q 3669 778 3244 343 
Q 2819 -91 2113 -91 
Q 1303 -91 875 529 
Q 447 1150 447 2328 
Q 447 3434 972 4092 
Q 1497 4750 2381 4750 
Q 2619 4750 2861 4703 
Q 3103 4656 3366 4563 
z
" transform="scale(0.015625)"/>
       </defs>
       <use xlink:href="#DejaVuSans-30"/>
       <use xlink:href="#DejaVuSans-2e" x="63.623047"/>
       <use xlink:href="#DejaVuSans-36" x="95.410156"/>
      </g>
     </g>
    </g>
    <g id="xtick_5">
     <g id="line2d_5">
      <g>
       <use xlink:href="#m9a9b95d9bb" x="429.12" y="384.48" style="stroke: #000000; stroke-width: 0.8"/>
      </g>
     </g>
     <g id="text_5">
      <!-- 0.7 -->
      <g transform="translate(413.216875 406.676875) scale(0.2 -0.2)">
       <defs>
        <path id="DejaVuSans-37" d="M 525 4666 
L 3525 4666 
L 3525 4397 
L 1831 0 
L 1172 0 
L 2766 4134 
L 525 4134 
L 525 4666 
z
" transform="scale(0.015625)"/>
       </defs>
       <use xlink:href="#DejaVuSans-30"/>
       <use xlink:href="#DejaVuSans-2e" x="63.623047"/>
       <use xlink:href="#DejaVuSans-37" x="95.410156"/>
      </g>
     </g>
    </g>
    <g id="xtick_6">
     <g id="line2d_6">
      <g>
       <use xlink:href="#m9a9b95d9bb" x="518.4" y="384.48" style="stroke: #000000; stroke-width: 0.8"/>
      </g>
     </g>
     <g id="text_6">
      <!-- 0.8 -->
      <g transform="translate(502.496875 406.676875) scale(0.2 -0.2)">
       <defs>
        <path id="DejaVuSans-38" d="M 2034 2216 
Q 1584 2216 1326 1975 
Q 1069 1734 1069 1313 
Q 1069 891 1326 650 
Q 1584 409 2034 409 
Q 2484 409 2743 651 
Q 3003 894 3003 1313 
Q 3003 1734 2745 1975 
Q 2488 2216 2034 2216 
z
M 1403 2484 
Q 997 2584 770 2862 
Q 544 3141 544 3541 
Q 544 4100 942 4425 
Q 1341 4750 2034 4750 
Q 2731 4750 3128 4425 
Q 3525 4100 3525 3541 
Q 3525 3141 3298 2862 
Q 3072 2584 2669 2484 
Q 3125 2378 3379 2068 
Q 3634 1759 3634 1313 
Q 3634 634 3220 271 
Q 2806 -91 2034 -91 
Q 1263 -91 848 271 
Q 434 634 434 1313 
Q 434 1759 690 2068 
Q 947 2378 1403 2484 
z
M 1172 3481 
Q 1172 3119 1398 2916 
Q 1625 2713 2034 2713 
Q 2441 2713 2670 2916 
Q 2900 3119 2900 3481 
Q 2900 3844 2670 4047 
Q 2441 4250 2034 4250 
Q 1625 4250 1398 4047 
Q 1172 3844 1172 3481 
z
" transform="scale(0.015625)"/>
       </defs>
       <use xlink:href="#DejaVuSans-30"/>
       <use xlink:href="#DejaVuSans-2e" x="63.623047"/>
       <use xlink:href="#DejaVuSans-38" x="95.410156"/>
      </g>
     </g>
    </g>
   </g>
   <g id="matplotlib.axis_2">
    <g id="ytick_1">
     <g id="line2d_7">
      <defs>
       <path id="m69a6e0b83a" d="M 0 0 
L -3.5 0 
" style="stroke: #000000; stroke-width: 0.8"/>
      </defs>
      <g>
       <use xlink:href="#m69a6e0b83a" x="72" y="376.56" style="stroke: #000000; stroke-width: 0.8"/>
      </g>
     </g>
     <g id="text_7">
      <!-- 1 -->
      <g transform="translate(52.275 384.158437) scale(0.2 -0.2)">
       <defs>
        <path id="DejaVuSans-31" d="M 794 531 
L 1825 531 
L 1825 4091 
L 703 3866 
L 703 4441 
L 1819 4666 
L 2450 4666 
L 2450 531 
L 3481 531 
L 3481 0 
L 794 0 
L 794 531 
z
" transform="scale(0.015625)"/>
       </defs>
       <use xlink:href="#DejaVuSans-31"/>
      </g>
     </g>
    </g>
    <g id="ytick_2">
     <g id="line2d_8">
      <g>
       <use xlink:href="#m69a6e0b83a" x="72" y="297.36" style="stroke: #000000; stroke-width: 0.8"/>
      </g>
     </g>
     <g id="text_8">
      <!-- 2 -->
      <g transform="translate(52.275 304.958437) scale(0.2 -0.2)">
       <defs>
        <path id="DejaVuSans-32" d="M 1228 531 
L 3431 531 
L 3431 0 
L 469 0 
L 469 531 
Q 828 903 1448 1529 
Q 2069 2156 2228 2338 
Q 2531 2678 2651 2914 
Q 2772 3150 2772 3378 
Q 2772 3750 2511 3984 
Q 2250 4219 1831 4219 
Q 1534 4219 1204 4116 
Q 875 4013 500 3803 
L 500 4441 
Q 881 4594 1212 4672 
Q 1544 4750 1819 4750 
Q 2544 4750 2975 4387 
Q 3406 4025 3406 3419 
Q 3406 3131 3298 2873 
Q 3191 2616 2906 2266 
Q 2828 2175 2409 1742 
Q 1991 1309 1228 531 
z
" transform="scale(0.015625)"/>
       </defs>
       <use xlink:href="#DejaVuSans-32"/>
      </g>
     </g>
    </g>
    <g id="ytick_3">
     <g id="line2d_9">
      <g>
       <use xlink:href="#m69a6e0b83a" x="72" y="218.16" style="stroke: #000000; stroke-width: 0.8"/>
      </g>
     </g>
     <g id="text_9">
      <!-- 3 -->
      <g transform="translate(52.275 225.758437) scale(0.2 -0.2)">
       <use xlink:href="#DejaVuSans-33"/>
      </g>
     </g>
    </g>
    <g id="ytick_4">
     <g id="line2d_10">
      <g>
       <use xlink:href="#m69a6e0b83a" x="72" y="138.96" style="stroke: #000000; stroke-width: 0.8"/>
      </g>
     </g>
     <g id="text_10">
      <!-- 4 -->
      <g transform="translate(52.275 146.558437) scale(0.2 -0.2)">
       <use xlink:href="#DejaVuSans-34"/>
      </g>
     </g>
    </g>
    <g id="ytick_5">
     <g id="line2d_11">
      <g>
       <use xlink:href="#m69a6e0b83a" x="72" y="59.76" style="stroke: #000000; stroke-width: 0.8"/>
      </g>
     </g>
     <g id="text_11">
      <!-- 5 -->
      <g transform="translate(52.275 67.358437) scale(0.2 -0.2)">
       <use xlink:href="#DejaVuSans-35"/>
      </g>
     </g>
    </g>
   </g>
   <g id="line2d_12">
    <path d="M 357.696 134.979683 
L 287.1648 138.47111 
L 294.3072 138.117548 
L 409.4784 132.416357 
L 420.192 131.886013 
L 343.4112 135.686807 
L 302.3424 137.71979 
L 363.9456 134.670316 
L 263.952 139.620187 
L 312.1632 137.233642 
L 334.4832 136.12876 
L 282.7008 138.692086 
L 395.1936 133.123481 
L 397.872 132.990895 
L 317.52 136.96847 
L 403.2288 132.725724 
L 313.9488 137.145252 
L 333.5904 136.172955 
L 325.5552 136.570713 
L 360.3744 134.847097 
L 309.4848 137.366228 
L 382.6944 133.742215 
L 293.4144 138.161743 
L 300.5568 137.808181 
L 418.4064 131.974404 
L 409.4784 132.416357 
L 307.6992 137.454618 
L 236.2752 140.990241 
L 280.9152 138.780477 
L 346.9824 135.510026 
L 341.6256 135.775198 
L 358.5888 134.935488 
L 340.7328 135.819393 
L 271.0944 139.266625 
L 362.16 134.758707 
L 248.7744 140.371507 
L 233.5968 141.122827 
L 377.3376 134.007387 
L 265.7376 139.531797 
L 335.376 136.084565 
L 286.272 138.515305 
L 443.4048 130.736936 
L 351.4464 135.28905 
L 448.7616 130.471765 
L 393.408 133.211872 
L 295.2 138.073352 
L 282.7008 138.692086 
L 254.1312 140.106335 
L 413.9424 132.19538 
L 379.1232 133.918996 
L 221.9904 141.697365 
L 446.976 130.560155 
L 383.5872 133.69802 
L 392.5152 133.256067 
L 212.1696 142.183513 
L 401.4432 132.814114 
L 406.8 132.548943 
L 406.8 132.548943 
L 438.9408 130.957913 
L 335.376 136.084565 
L 346.0896 135.554222 
L 372.8736 134.228363 
L 226.4544 141.476389 
L 372.8736 134.228363 
L 311.2704 137.277837 
L 322.8768 136.703299 
L 316.6272 137.012666 
L 283.5936 138.647891 
L 237.168 140.946045 
L 327.3408 136.482322 
L 364.8384 134.626121 
L 185.3856 143.509372 
L 253.2384 140.15053 
L 264.8448 139.575992 
L 125.568 146.470455 
L 274.6656 139.089844 
L 227.3472 141.432193 
L 281.808 138.736282 
L 379.1232 133.918996 
L 331.8048 136.261346 
L 192.528 143.155809 
L 309.4848 137.366228 
L 278.2368 138.913063 
L 307.6992 137.454618 
L 271.0944 139.266625 
L 282.7008 138.692086 
L 286.272 138.515305 
L 299.664 137.852376 
L 246.096 140.504093 
L 317.52 136.96847 
L 146.9952 145.409768 
L 217.5264 141.918342 
L 84.4992 148.503438 
" clip-path="url(#pb48e928c36)" style="fill: none; stroke: #ff0000; stroke-width: 1.5; stroke-linecap: square"/>
   </g>
   <g id="patch_3">
    <path d="M 72 384.48 
L 72 51.84 
" style="fill: none; stroke: #000000; stroke-width: 0.8; stroke-linejoin: miter; stroke-linecap: square"/>
   </g>
   <g id="patch_4">
    <path d="M 518.4 384.48 
L 518.4 51.84 
" style="fill: none; stroke: #000000; stroke-width: 0.8; stroke-linejoin: miter; stroke-linecap: square"/>
   </g>
   <g id="patch_5">
    <path d="M 72 384.48 
L 518.4 384.48 
" style="fill: none; stroke: #000000; stroke-width: 0.8; stroke-linejoin: miter; stroke-linecap: square"/>
   </g>
   <g id="patch_6">
    <path d="M 72 51.84 
L 518.4 51.84 
" style="fill: none; stroke: #000000; stroke-width: 0.8; stroke-linejoin: miter; stroke-linecap: square"/>
   </g>
   <g id="legend_1">
    <g id="patch_7">
     <path d="M 507.4 64.84 
L 511.4 64.84 
Q 513.4 64.84 513.4 62.84 
L 513.4 58.84 
Q 513.4 56.84 511.4 56.84 
L 507.4 56.84 
Q 505.4 56.84 505.4 58.84 
L 505.4 62.84 
Q 505.4 64.84 507.4 64.84 
z
" style="fill: #ffffff; opacity: 0.8; stroke: #cccccc; stroke-linejoin: miter"/>
    </g>
   </g>
  </g>
 </g>
 <defs>
  <clipPath id="pb48e928c36">
   <rect x="72" y="51.84" width="446.4" height="332.64"/>
  </clipPath>
 </defs>
</svg>
