<?xml version="1.0" encoding="utf-8" standalone="no"?>
<!DOCTYPE svg PUBLIC "-//W3C//DTD SVG 1.1//EN"
  "http://www.w3.org/Graphics/SVG/1.1/DTD/svg11.dtd">
<svg xmlns:xlink="http://www.w3.org/1999/xlink" width="576pt" height="432pt" viewBox="0 0 576 432" xmlns="http://www.w3.org/2000/svg" version="1.1">
 <metadata>
  <rdf:RDF xmlns:dc="http://purl.org/dc/elements/1.1/" xmlns:cc="http://creativecommons.org/ns#" xmlns:rdf="http://www.w3.org/1999/02/22-rdf-syntax-ns#">
   <cc:Work>
    <dc:type rdf:resource="http://purl.org/dc/dcmitype/StillImage"/>
    <dc:date>2024-12-04T04:33:36.293195</dc:date>
    <dc:format>image/svg+xml</dc:format>
    <dc:creator>
     <cc:Agent>
      <dc:title>Matplotlib v3.8.1, https://matplotlib.org/</dc:title>
     </cc:Agent>
    </dc:creator>
   </cc:Work>
  </rdf:RDF>
 </metadata>
 <defs>
  <style type="text/css">*{stroke-linejoin: round; stroke-linecap: butt}</style>
 </defs>
 <g id="figure_1">
  <g id="patch_1">
   <path d="M 0 432 
L 576 432 
L 576 0 
L 0 0 
z
" style="fill: #ffffff"/>
  </g>
  <g id="axes_1">
   <g id="patch_2">
    <path d="M 72 384.48 
L 518.4 384.48 
L 518.4 51.84 
L 72 51.84 
z
" style="fill: #ffffff"/>
   </g>
   <g id="PathCollection_1">
    <defs>
     <path id="m26848e059e" d="M 0 3 
C 0.795609 3 1.55874 2.683901 2.12132 2.12132 
C 2.683901 1.55874 3 0.795609 3 0 
C 3 -0.795609 2.683901 -1.55874 2.12132 -2.12132 
C 1.55874 -2.683901 0.795609 -3 0 -3 
C -0.795609 -3 -1.55874 -2.683901 -2.12132 -2.12132 
C -2.683901 -1.55874 -3 -0.795609 -3 0 
C -3 0.795609 -2.683901 1.55874 -2.12132 2.12132 
C -1.55874 2.683901 -0.795609 3 0 3 
z
" style="stroke: #1f77b4"/>
    </defs>
    <g clip-path="url(#peeac01662b)">
     <use xlink:href="#m26848e059e" x="166.430769" y="200.5776" style="fill: #1f77b4; stroke: #1f77b4"/>
     <use xlink:href="#m26848e059e" x="284.98022" y="103.7952" style="fill: #1f77b4; stroke: #1f77b4"/>
     <use xlink:href="#m26848e059e" x="341.855518" y="147.7512" style="fill: #1f77b4; stroke: #1f77b4"/>
     <use xlink:href="#m26848e059e" x="423.969231" y="112.5864" style="fill: #1f77b4; stroke: #1f77b4"/>
     <use xlink:href="#m26848e059e" x="410.76213" y="191.7864" style="fill: #1f77b4; stroke: #1f77b4"/>
     <use xlink:href="#m26848e059e" x="470.794406" y="156.5424" style="fill: #1f77b4; stroke: #1f77b4"/>
     <use xlink:href="#m26848e059e" x="351.677733" y="200.5776" style="fill: #1f77b4; stroke: #1f77b4"/>
     <use xlink:href="#m26848e059e" x="80.584615" y="112.5072" style="fill: #1f77b4; stroke: #1f77b4"/>
     <use xlink:href="#m26848e059e" x="313.595604" y="138.96" style="fill: #1f77b4; stroke: #1f77b4"/>
     <use xlink:href="#m26848e059e" x="184.192042" y="138.96" style="fill: #1f77b4; stroke: #1f77b4"/>
     <use xlink:href="#m26848e059e" x="423.969231" y="182.9952" style="fill: #1f77b4; stroke: #1f77b4"/>
     <use xlink:href="#m26848e059e" x="244.702262" y="68.5512" style="fill: #1f77b4; stroke: #1f77b4"/>
     <use xlink:href="#m26848e059e" x="347.661538" y="218.16" style="fill: #1f77b4; stroke: #1f77b4"/>
     <use xlink:href="#m26848e059e" x="325.859341" y="165.3336" style="fill: #1f77b4; stroke: #1f77b4"/>
     <use xlink:href="#m26848e059e" x="487.224291" y="86.1336" style="fill: #1f77b4; stroke: #1f77b4"/>
     <use xlink:href="#m26848e059e" x="374.914286" y="235.7424" style="fill: #1f77b4; stroke: #1f77b4"/>
     <use xlink:href="#m26848e059e" x="305.41978" y="86.1336" style="fill: #1f77b4; stroke: #1f77b4"/>
     <use xlink:href="#m26848e059e" x="429.334615" y="147.7512" style="fill: #1f77b4; stroke: #1f77b4"/>
     <use xlink:href="#m26848e059e" x="309.507692" y="130.1688" style="fill: #1f77b4; stroke: #1f77b4"/>
     <use xlink:href="#m26848e059e" x="416.165035" y="68.5512" style="fill: #1f77b4; stroke: #1f77b4"/>
     <use xlink:href="#m26848e059e" x="406.207958" y="165.3336" style="fill: #1f77b4; stroke: #1f77b4"/>
     <use xlink:href="#m26848e059e" x="343.661538" y="103.7952" style="fill: #1f77b4; stroke: #1f77b4"/>
     <use xlink:href="#m26848e059e" x="282.575566" y="165.3336" style="fill: #1f77b4; stroke: #1f77b4"/>
     <use xlink:href="#m26848e059e" x="236.668531" y="182.9952" style="fill: #1f77b4; stroke: #1f77b4"/>
     <use xlink:href="#m26848e059e" x="427.271006" y="138.96" style="fill: #1f77b4; stroke: #1f77b4"/>
     <use xlink:href="#m26848e059e" x="338.123077" y="244.5336" style="fill: #1f77b4; stroke: #1f77b4"/>
     <use xlink:href="#m26848e059e" x="451.283916" y="112.5864" style="fill: #1f77b4; stroke: #1f77b4"/>
     <use xlink:href="#m26848e059e" x="356.518681" y="270.9864" style="fill: #1f77b4; stroke: #1f77b4"/>
     <use xlink:href="#m26848e059e" x="431.773427" y="103.7952" style="fill: #1f77b4; stroke: #1f77b4"/>
     <use xlink:href="#m26848e059e" x="257.326697" y="156.5424" style="fill: #1f77b4; stroke: #1f77b4"/>
     <use xlink:href="#m26848e059e" x="389.630769" y="121.3776" style="fill: #1f77b4; stroke: #1f77b4"/>
     <use xlink:href="#m26848e059e" x="303.784615" y="94.9248" style="fill: #1f77b4; stroke: #1f77b4"/>
     <use xlink:href="#m26848e059e" x="348.853846" y="262.1952" style="fill: #1f77b4; stroke: #1f77b4"/>
     <use xlink:href="#m26848e059e" x="278.691124" y="156.5424" style="fill: #1f77b4; stroke: #1f77b4"/>
     <use xlink:href="#m26848e059e" x="273.738462" y="121.3776" style="fill: #1f77b4; stroke: #1f77b4"/>
     <use xlink:href="#m26848e059e" x="412.262937" y="279.7776" style="fill: #1f77b4; stroke: #1f77b4"/>
     <use xlink:href="#m26848e059e" x="407.617582" y="86.1336" style="fill: #1f77b4; stroke: #1f77b4"/>
     <use xlink:href="#m26848e059e" x="427.271006" y="121.3776" style="fill: #1f77b4; stroke: #1f77b4"/>
     <use xlink:href="#m26848e059e" x="339.742816" y="59.76" style="fill: #1f77b4; stroke: #1f77b4"/>
     <use xlink:href="#m26848e059e" x="295.2" y="165.3336" style="fill: #1f77b4; stroke: #1f77b4"/>
     <use xlink:href="#m26848e059e" x="342.892308" y="103.7952" style="fill: #1f77b4; stroke: #1f77b4"/>
     <use xlink:href="#m26848e059e" x="245.673373" y="59.76" style="fill: #1f77b4; stroke: #1f77b4"/>
     <use xlink:href="#m26848e059e" x="239.558974" y="165.3336" style="fill: #1f77b4; stroke: #1f77b4"/>
     <use xlink:href="#m26848e059e" x="187.892308" y="138.96" style="fill: #1f77b4; stroke: #1f77b4"/>
     <use xlink:href="#m26848e059e" x="119.605594" y="156.5424" style="fill: #1f77b4; stroke: #1f77b4"/>
    </g>
   </g>
   <g id="matplotlib.axis_1">
    <g id="xtick_1">
     <g id="line2d_1">
      <defs>
       <path id="mb3f23291be" d="M 0 0 
L 0 3.5 
" style="stroke: #000000; stroke-width: 0.8"/>
      </defs>
      <g>
       <use xlink:href="#mb3f23291be" x="80.584615" y="384.48" style="stroke: #000000; stroke-width: 0.8"/>
      </g>
     </g>
     <g id="text_1">
      <!-- 0.0 -->
      <g transform="translate(64.68149 406.676875) scale(0.2 -0.2)">
       <defs>
        <path id="DejaVuSans-30" d="M 2034 4250 
Q 1547 4250 1301 3770 
Q 1056 3291 1056 2328 
Q 1056 1369 1301 889 
Q 1547 409 2034 409 
Q 2525 409 2770 889 
Q 3016 1369 3016 2328 
Q 3016 3291 2770 3770 
Q 2525 4250 2034 4250 
z
M 2034 4750 
Q 2819 4750 3233 4129 
Q 3647 3509 3647 2328 
Q 3647 1150 3233 529 
Q 2819 -91 2034 -91 
Q 1250 -91 836 529 
Q 422 1150 422 2328 
Q 422 3509 836 4129 
Q 1250 4750 2034 4750 
z
" transform="scale(0.015625)"/>
        <path id="DejaVuSans-2e" d="M 684 794 
L 1344 794 
L 1344 0 
L 684 0 
L 684 794 
z
" transform="scale(0.015625)"/>
       </defs>
       <use xlink:href="#DejaVuSans-30"/>
       <use xlink:href="#DejaVuSans-2e" x="63.623047"/>
       <use xlink:href="#DejaVuSans-30" x="95.410156"/>
      </g>
     </g>
    </g>
    <g id="xtick_2">
     <g id="line2d_2">
      <g>
       <use xlink:href="#mb3f23291be" x="166.430769" y="384.48" style="stroke: #000000; stroke-width: 0.8"/>
      </g>
     </g>
     <g id="text_2">
      <!-- 0.2 -->
      <g transform="translate(150.527644 406.676875) scale(0.2 -0.2)">
       <defs>
        <path id="DejaVuSans-32" d="M 1228 531 
L 3431 531 
L 3431 0 
L 469 0 
L 469 531 
Q 828 903 1448 1529 
Q 2069 2156 2228 2338 
Q 2531 2678 2651 2914 
Q 2772 3150 2772 3378 
Q 2772 3750 2511 3984 
Q 2250 4219 1831 4219 
Q 1534 4219 1204 4116 
Q 875 4013 500 3803 
L 500 4441 
Q 881 4594 1212 4672 
Q 1544 4750 1819 4750 
Q 2544 4750 2975 4387 
Q 3406 4025 3406 3419 
Q 3406 3131 3298 2873 
Q 3191 2616 2906 2266 
Q 2828 2175 2409 1742 
Q 1991 1309 1228 531 
z
" transform="scale(0.015625)"/>
       </defs>
       <use xlink:href="#DejaVuSans-30"/>
       <use xlink:href="#DejaVuSans-2e" x="63.623047"/>
       <use xlink:href="#DejaVuSans-32" x="95.410156"/>
      </g>
     </g>
    </g>
    <g id="xtick_3">
     <g id="line2d_3">
      <g>
       <use xlink:href="#mb3f23291be" x="252.276923" y="384.48" style="stroke: #000000; stroke-width: 0.8"/>
      </g>
     </g>
     <g id="text_3">
      <!-- 0.4 -->
      <g transform="translate(236.373798 406.676875) scale(0.2 -0.2)">
       <defs>
        <path id="DejaVuSans-34" d="M 2419 4116 
L 825 1625 
L 2419 1625 
L 2419 4116 
z
M 2253 4666 
L 3047 4666 
L 3047 1625 
L 3713 1625 
L 3713 1100 
L 3047 1100 
L 3047 0 
L 2419 0 
L 2419 1100 
L 313 1100 
L 313 1709 
L 2253 4666 
z
" transform="scale(0.015625)"/>
       </defs>
       <use xlink:href="#DejaVuSans-30"/>
       <use xlink:href="#DejaVuSans-2e" x="63.623047"/>
       <use xlink:href="#DejaVuSans-34" x="95.410156"/>
      </g>
     </g>
    </g>
    <g id="xtick_4">
     <g id="line2d_4">
      <g>
       <use xlink:href="#mb3f23291be" x="338.123077" y="384.48" style="stroke: #000000; stroke-width: 0.8"/>
      </g>
     </g>
     <g id="text_4">
      <!-- 0.6 -->
      <g transform="translate(322.219952 406.676875) scale(0.2 -0.2)">
       <defs>
        <path id="DejaVuSans-36" d="M 2113 2584 
Q 1688 2584 1439 2293 
Q 1191 2003 1191 1497 
Q 1191 994 1439 701 
Q 1688 409 2113 409 
Q 2538 409 2786 701 
Q 3034 994 3034 1497 
Q 3034 2003 2786 2293 
Q 2538 2584 2113 2584 
z
M 3366 4563 
L 3366 3988 
Q 3128 4100 2886 4159 
Q 2644 4219 2406 4219 
Q 1781 4219 1451 3797 
Q 1122 3375 1075 2522 
Q 1259 2794 1537 2939 
Q 1816 3084 2150 3084 
Q 2853 3084 3261 2657 
Q 3669 2231 3669 1497 
Q 3669 778 3244 343 
Q 2819 -91 2113 -91 
Q 1303 -91 875 529 
Q 447 1150 447 2328 
Q 447 3434 972 4092 
Q 1497 4750 2381 4750 
Q 2619 4750 2861 4703 
Q 3103 4656 3366 4563 
z
" transform="scale(0.015625)"/>
       </defs>
       <use xlink:href="#DejaVuSans-30"/>
       <use xlink:href="#DejaVuSans-2e" x="63.623047"/>
       <use xlink:href="#DejaVuSans-36" x="95.410156"/>
      </g>
     </g>
    </g>
    <g id="xtick_5">
     <g id="line2d_5">
      <g>
       <use xlink:href="#mb3f23291be" x="423.969231" y="384.48" style="stroke: #000000; stroke-width: 0.8"/>
      </g>
     </g>
     <g id="text_5">
      <!-- 0.8 -->
      <g transform="translate(408.066106 406.676875) scale(0.2 -0.2)">
       <defs>
        <path id="DejaVuSans-38" d="M 2034 2216 
Q 1584 2216 1326 1975 
Q 1069 1734 1069 1313 
Q 1069 891 1326 650 
Q 1584 409 2034 409 
Q 2484 409 2743 651 
Q 3003 894 3003 1313 
Q 3003 1734 2745 1975 
Q 2488 2216 2034 2216 
z
M 1403 2484 
Q 997 2584 770 2862 
Q 544 3141 544 3541 
Q 544 4100 942 4425 
Q 1341 4750 2034 4750 
Q 2731 4750 3128 4425 
Q 3525 4100 3525 3541 
Q 3525 3141 3298 2862 
Q 3072 2584 2669 2484 
Q 3125 2378 3379 2068 
Q 3634 1759 3634 1313 
Q 3634 634 3220 271 
Q 2806 -91 2034 -91 
Q 1263 -91 848 271 
Q 434 634 434 1313 
Q 434 1759 690 2068 
Q 947 2378 1403 2484 
z
M 1172 3481 
Q 1172 3119 1398 2916 
Q 1625 2713 2034 2713 
Q 2441 2713 2670 2916 
Q 2900 3119 2900 3481 
Q 2900 3844 2670 4047 
Q 2441 4250 2034 4250 
Q 1625 4250 1398 4047 
Q 1172 3844 1172 3481 
z
" transform="scale(0.015625)"/>
       </defs>
       <use xlink:href="#DejaVuSans-30"/>
       <use xlink:href="#DejaVuSans-2e" x="63.623047"/>
       <use xlink:href="#DejaVuSans-38" x="95.410156"/>
      </g>
     </g>
    </g>
    <g id="xtick_6">
     <g id="line2d_6">
      <g>
       <use xlink:href="#mb3f23291be" x="509.815385" y="384.48" style="stroke: #000000; stroke-width: 0.8"/>
      </g>
     </g>
     <g id="text_6">
      <!-- 1.0 -->
      <g transform="translate(493.91226 406.676875) scale(0.2 -0.2)">
       <defs>
        <path id="DejaVuSans-31" d="M 794 531 
L 1825 531 
L 1825 4091 
L 703 3866 
L 703 4441 
L 1819 4666 
L 2450 4666 
L 2450 531 
L 3481 531 
L 3481 0 
L 794 0 
L 794 531 
z
" transform="scale(0.015625)"/>
       </defs>
       <use xlink:href="#DejaVuSans-31"/>
       <use xlink:href="#DejaVuSans-2e" x="63.623047"/>
       <use xlink:href="#DejaVuSans-30" x="95.410156"/>
      </g>
     </g>
    </g>
   </g>
   <g id="matplotlib.axis_2">
    <g id="ytick_1">
     <g id="line2d_7">
      <defs>
       <path id="m19b3cc270a" d="M 0 0 
L -3.5 0 
" style="stroke: #000000; stroke-width: 0.8"/>
      </defs>
      <g>
       <use xlink:href="#m19b3cc270a" x="72" y="376.56" style="stroke: #000000; stroke-width: 0.8"/>
      </g>
     </g>
     <g id="text_7">
      <!-- 1 -->
      <g transform="translate(52.275 384.158437) scale(0.2 -0.2)">
       <use xlink:href="#DejaVuSans-31"/>
      </g>
     </g>
    </g>
    <g id="ytick_2">
     <g id="line2d_8">
      <g>
       <use xlink:href="#m19b3cc270a" x="72" y="297.36" style="stroke: #000000; stroke-width: 0.8"/>
      </g>
     </g>
     <g id="text_8">
      <!-- 2 -->
      <g transform="translate(52.275 304.958437) scale(0.2 -0.2)">
       <use xlink:href="#DejaVuSans-32"/>
      </g>
     </g>
    </g>
    <g id="ytick_3">
     <g id="line2d_9">
      <g>
       <use xlink:href="#m19b3cc270a" x="72" y="218.16" style="stroke: #000000; stroke-width: 0.8"/>
      </g>
     </g>
     <g id="text_9">
      <!-- 3 -->
      <g transform="translate(52.275 225.758437) scale(0.2 -0.2)">
       <defs>
        <path id="DejaVuSans-33" d="M 2597 2516 
Q 3050 2419 3304 2112 
Q 3559 1806 3559 1356 
Q 3559 666 3084 287 
Q 2609 -91 1734 -91 
Q 1441 -91 1130 -33 
Q 819 25 488 141 
L 488 750 
Q 750 597 1062 519 
Q 1375 441 1716 441 
Q 2309 441 2620 675 
Q 2931 909 2931 1356 
Q 2931 1769 2642 2001 
Q 2353 2234 1838 2234 
L 1294 2234 
L 1294 2753 
L 1863 2753 
Q 2328 2753 2575 2939 
Q 2822 3125 2822 3475 
Q 2822 3834 2567 4026 
Q 2313 4219 1838 4219 
Q 1578 4219 1281 4162 
Q 984 4106 628 3988 
L 628 4550 
Q 988 4650 1302 4700 
Q 1616 4750 1894 4750 
Q 2613 4750 3031 4423 
Q 3450 4097 3450 3541 
Q 3450 3153 3228 2886 
Q 3006 2619 2597 2516 
z
" transform="scale(0.015625)"/>
       </defs>
       <use xlink:href="#DejaVuSans-33"/>
      </g>
     </g>
    </g>
    <g id="ytick_4">
     <g id="line2d_10">
      <g>
       <use xlink:href="#m19b3cc270a" x="72" y="138.96" style="stroke: #000000; stroke-width: 0.8"/>
      </g>
     </g>
     <g id="text_10">
      <!-- 4 -->
      <g transform="translate(52.275 146.558437) scale(0.2 -0.2)">
       <use xlink:href="#DejaVuSans-34"/>
      </g>
     </g>
    </g>
    <g id="ytick_5">
     <g id="line2d_11">
      <g>
       <use xlink:href="#m19b3cc270a" x="72" y="59.76" style="stroke: #000000; stroke-width: 0.8"/>
      </g>
     </g>
     <g id="text_11">
      <!-- 5 -->
      <g transform="translate(52.275 67.358437) scale(0.2 -0.2)">
       <defs>
        <path id="DejaVuSans-35" d="M 691 4666 
L 3169 4666 
L 3169 4134 
L 1269 4134 
L 1269 2991 
Q 1406 3038 1543 3061 
Q 1681 3084 1819 3084 
Q 2600 3084 3056 2656 
Q 3513 2228 3513 1497 
Q 3513 744 3044 326 
Q 2575 -91 1722 -91 
Q 1428 -91 1123 -41 
Q 819 9 494 109 
L 494 744 
Q 775 591 1075 516 
Q 1375 441 1709 441 
Q 2250 441 2565 725 
Q 2881 1009 2881 1497 
Q 2881 1984 2565 2268 
Q 2250 2553 1709 2553 
Q 1456 2553 1204 2497 
Q 953 2441 691 2322 
L 691 4666 
z
" transform="scale(0.015625)"/>
       </defs>
       <use xlink:href="#DejaVuSans-35"/>
      </g>
     </g>
    </g>
   </g>
   <g id="line2d_12">
    <path d="M 166.430769 145.367081 
L 284.98022 142.55351 
L 341.855518 141.203671 
L 423.969231 139.254841 
L 410.76213 139.568289 
L 470.794406 138.143525 
L 351.677733 140.970557 
L 80.584615 147.404494 
L 313.595604 141.874372 
L 184.192042 144.945547 
L 423.969231 139.254841 
L 244.702262 143.509439 
L 347.661538 141.065875 
L 325.859341 141.583313 
L 487.224291 137.753589 
L 374.914286 140.419077 
L 305.41978 142.068412 
L 429.334615 139.127503 
L 309.507692 141.971392 
L 416.165035 139.44006 
L 406.207958 139.676375 
L 343.661538 141.160808 
L 282.575566 142.610581 
L 236.668531 143.700106 
L 427.271006 139.176479 
L 338.123077 141.292254 
L 451.283916 138.606573 
L 356.518681 140.855666 
L 431.773427 139.069622 
L 257.326697 143.20982 
L 389.630769 140.069806 
L 303.784615 142.10722 
L 348.853846 141.037578 
L 278.691124 142.702771 
L 273.738462 142.820314 
L 412.262937 139.53267 
L 407.617582 139.64292 
L 427.271006 139.176479 
L 339.742816 141.253813 
L 295.2 142.310961 
L 342.892308 141.179065 
L 245.673373 143.486392 
L 239.558974 143.631507 
L 187.892308 144.857728 
L 119.605594 146.478397 
" clip-path="url(#peeac01662b)" style="fill: none; stroke: #008000; stroke-width: 1.5; stroke-linecap: square"/>
   </g>
   <g id="patch_3">
    <path d="M 72 384.48 
L 72 51.84 
" style="fill: none; stroke: #000000; stroke-width: 0.8; stroke-linejoin: miter; stroke-linecap: square"/>
   </g>
   <g id="patch_4">
    <path d="M 518.4 384.48 
L 518.4 51.84 
" style="fill: none; stroke: #000000; stroke-width: 0.8; stroke-linejoin: miter; stroke-linecap: square"/>
   </g>
   <g id="patch_5">
    <path d="M 72 384.48 
L 518.4 384.48 
" style="fill: none; stroke: #000000; stroke-width: 0.8; stroke-linejoin: miter; stroke-linecap: square"/>
   </g>
   <g id="patch_6">
    <path d="M 72 51.84 
L 518.4 51.84 
" style="fill: none; stroke: #000000; stroke-width: 0.8; stroke-linejoin: miter; stroke-linecap: square"/>
   </g>
   <g id="legend_1">
    <g id="patch_7">
     <path d="M 507.4 64.84 
L 511.4 64.84 
Q 513.4 64.84 513.4 62.84 
L 513.4 58.84 
Q 513.4 56.84 511.4 56.84 
L 507.4 56.84 
Q 505.4 56.84 505.4 58.84 
L 505.4 62.84 
Q 505.4 64.84 507.4 64.84 
z
" style="fill: #ffffff; opacity: 0.8; stroke: #cccccc; stroke-linejoin: miter"/>
    </g>
   </g>
  </g>
 </g>
 <defs>
  <clipPath id="peeac01662b">
   <rect x="72" y="51.84" width="446.4" height="332.64"/>
  </clipPath>
 </defs>
</svg>
