<?xml version="1.0" encoding="utf-8" standalone="no"?>
<!DOCTYPE svg PUBLIC "-//W3C//DTD SVG 1.1//EN"
  "http://www.w3.org/Graphics/SVG/1.1/DTD/svg11.dtd">
<svg xmlns:xlink="http://www.w3.org/1999/xlink" width="576pt" height="432pt" viewBox="0 0 576 432" xmlns="http://www.w3.org/2000/svg" version="1.1">
 <metadata>
  <rdf:RDF xmlns:dc="http://purl.org/dc/elements/1.1/" xmlns:cc="http://creativecommons.org/ns#" xmlns:rdf="http://www.w3.org/1999/02/22-rdf-syntax-ns#">
   <cc:Work>
    <dc:type rdf:resource="http://purl.org/dc/dcmitype/StillImage"/>
    <dc:date>2024-12-25T18:30:30.200877</dc:date>
    <dc:format>image/svg+xml</dc:format>
    <dc:creator>
     <cc:Agent>
      <dc:title>Matplotlib v3.8.1, https://matplotlib.org/</dc:title>
     </cc:Agent>
    </dc:creator>
   </cc:Work>
  </rdf:RDF>
 </metadata>
 <defs>
  <style type="text/css">*{stroke-linejoin: round; stroke-linecap: butt}</style>
 </defs>
 <g id="figure_1">
  <g id="patch_1">
   <path d="M 0 432 
L 576 432 
L 576 0 
L 0 0 
z
" style="fill: #ffffff"/>
  </g>
  <g id="axes_1">
   <g id="patch_2">
    <path d="M 72 384.48 
L 518.4 384.48 
L 518.4 51.84 
L 72 51.84 
z
" style="fill: #ffffff"/>
   </g>
   <g id="PathCollection_1">
    <defs>
     <path id="mf2b391c80e" d="M 0 3 
C 0.795609 3 1.55874 2.683901 2.12132 2.12132 
C 2.683901 1.55874 3 0.795609 3 0 
C 3 -0.795609 2.683901 -1.55874 2.12132 -2.12132 
C 1.55874 -2.683901 0.795609 -3 0 -3 
C -0.795609 -3 -1.55874 -2.683901 -2.12132 -2.12132 
C -2.683901 -1.55874 -3 -0.795609 -3 0 
C -3 0.795609 -2.683901 1.55874 -2.12132 2.12132 
C -1.55874 2.683901 -0.795609 3 0 3 
z
" style="stroke: #1f77b4"/>
    </defs>
    <g clip-path="url(#p3b32062efa)">
     <use xlink:href="#mf2b391c80e" x="451.005836" y="228.842862" style="fill: #1f77b4; stroke: #1f77b4"/>
     <use xlink:href="#mf2b391c80e" x="-1" y="237.219607" style="fill: #1f77b4; stroke: #1f77b4"/>
     <use xlink:href="#mf2b391c80e" x="-1" y="207.477138" style="fill: #1f77b4; stroke: #1f77b4"/>
     <use xlink:href="#mf2b391c80e" x="168.406878" y="207.477138" style="fill: #1f77b4; stroke: #1f77b4"/>
     <use xlink:href="#mf2b391c80e" x="574.159488" y="164.873631" style="fill: #1f77b4; stroke: #1f77b4"/>
     <use xlink:href="#mf2b391c80e" x="193.845913" y="122.206154" style="fill: #1f77b4; stroke: #1f77b4"/>
     <use xlink:href="#mf2b391c80e" x="508.898578" y="207.477138" style="fill: #1f77b4; stroke: #1f77b4"/>
     <use xlink:href="#mf2b391c80e" x="805.539075" y="143.507908" style="fill: #1f77b4; stroke: #1f77b4"/>
     <use xlink:href="#mf2b391c80e" x="216.941879" y="292.812092" style="fill: #1f77b4; stroke: #1f77b4"/>
     <use xlink:href="#mf2b391c80e" x="-1" y="268.520916" style="fill: #1f77b4; stroke: #1f77b4"/>
     <use xlink:href="#mf2b391c80e" x="-1" y="226.636853" style="fill: #1f77b4; stroke: #1f77b4"/>
     <use xlink:href="#mf2b391c80e" x="28.764746" y="228.842862" style="fill: #1f77b4; stroke: #1f77b4"/>
     <use xlink:href="#mf2b391c80e" x="-1" y="229.800726" style="fill: #1f77b4; stroke: #1f77b4"/>
     <use xlink:href="#mf2b391c80e" x="-1" y="198.94004" style="fill: #1f77b4; stroke: #1f77b4"/>
     <use xlink:href="#mf2b391c80e" x="658.99867" y="143.507908" style="fill: #1f77b4; stroke: #1f77b4"/>
     <use xlink:href="#mf2b391c80e" x="574.159488" y="207.477138" style="fill: #1f77b4; stroke: #1f77b4"/>
     <use xlink:href="#mf2b391c80e" x="-1" y="179.814873" style="fill: #1f77b4; stroke: #1f77b4"/>
     <use xlink:href="#mf2b391c80e" x="-1" y="263.186958" style="fill: #1f77b4; stroke: #1f77b4"/>
     <use xlink:href="#mf2b391c80e" x="362.061533" y="378.083077" style="fill: #1f77b4; stroke: #1f77b4"/>
     <use xlink:href="#mf2b391c80e" x="13.614892" y="186.175385" style="fill: #1f77b4; stroke: #1f77b4"/>
     <use xlink:href="#mf2b391c80e" x="355.634322" y="143.507908" style="fill: #1f77b4; stroke: #1f77b4"/>
     <use xlink:href="#mf2b391c80e" x="197.096456" y="250.144615" style="fill: #1f77b4; stroke: #1f77b4"/>
     <use xlink:href="#mf2b391c80e" x="89.364162" y="250.144615" style="fill: #1f77b4; stroke: #1f77b4"/>
     <use xlink:href="#mf2b391c80e" x="-1" y="231.085866" style="fill: #1f77b4; stroke: #1f77b4"/>
     <use xlink:href="#mf2b391c80e" x="-1" y="227.720012" style="fill: #1f77b4; stroke: #1f77b4"/>
     <use xlink:href="#mf2b391c80e" x="998.355398" y="122.206154" style="fill: #1f77b4; stroke: #1f77b4"/>
     <use xlink:href="#mf2b391c80e" x="173.530017" y="228.842862" style="fill: #1f77b4; stroke: #1f77b4"/>
     <use xlink:href="#mf2b391c80e" x="886.724895" y="186.175385" style="fill: #1f77b4; stroke: #1f77b4"/>
     <use xlink:href="#mf2b391c80e" x="331.761825" y="250.144615" style="fill: #1f77b4; stroke: #1f77b4"/>
     <use xlink:href="#mf2b391c80e" x="-1" y="146.810406" style="fill: #1f77b4; stroke: #1f77b4"/>
     <use xlink:href="#mf2b391c80e" x="-1" y="145.36003" style="fill: #1f77b4; stroke: #1f77b4"/>
     <use xlink:href="#mf2b391c80e" x="600.671732" y="250.144615" style="fill: #1f77b4; stroke: #1f77b4"/>
     <use xlink:href="#mf2b391c80e" x="8.564941" y="186.175385" style="fill: #1f77b4; stroke: #1f77b4"/>
     <use xlink:href="#mf2b391c80e" x="535.596223" y="207.477138" style="fill: #1f77b4; stroke: #1f77b4"/>
     <use xlink:href="#mf2b391c80e" x="486.394817" y="228.842862" style="fill: #1f77b4; stroke: #1f77b4"/>
     <use xlink:href="#mf2b391c80e" x="177.331055" y="122.206154" style="fill: #1f77b4; stroke: #1f77b4"/>
     <use xlink:href="#mf2b391c80e" x="70.426844" y="164.873631" style="fill: #1f77b4; stroke: #1f77b4"/>
     <use xlink:href="#mf2b391c80e" x="556.484658" y="122.206154" style="fill: #1f77b4; stroke: #1f77b4"/>
     <use xlink:href="#mf2b391c80e" x="76.190376" y="122.206154" style="fill: #1f77b4; stroke: #1f77b4"/>
     <use xlink:href="#mf2b391c80e" x="440.202884" y="186.175385" style="fill: #1f77b4; stroke: #1f77b4"/>
     <use xlink:href="#mf2b391c80e" x="-1" y="142.121877" style="fill: #1f77b4; stroke: #1f77b4"/>
     <use xlink:href="#mf2b391c80e" x="-1" y="135.285136" style="fill: #1f77b4; stroke: #1f77b4"/>
     <use xlink:href="#mf2b391c80e" x="775.094393" y="186.175385" style="fill: #1f77b4; stroke: #1f77b4"/>
     <use xlink:href="#mf2b391c80e" x="-1" y="186.175385" style="fill: #1f77b4; stroke: #1f77b4"/>
     <use xlink:href="#mf2b391c80e" x="-1" y="186.175385" style="fill: #1f77b4; stroke: #1f77b4"/>
     <use xlink:href="#mf2b391c80e" x="316.611971" y="186.175385" style="fill: #1f77b4; stroke: #1f77b4"/>
     <use xlink:href="#mf2b391c80e" x="-1" y="236.879836" style="fill: #1f77b4; stroke: #1f77b4"/>
     <use xlink:href="#mf2b391c80e" x="-1" y="182.693832" style="fill: #1f77b4; stroke: #1f77b4"/>
     <use xlink:href="#mf2b391c80e" x="55.69782" y="164.873631" style="fill: #1f77b4; stroke: #1f77b4"/>
     <use xlink:href="#mf2b391c80e" x="590.474715" y="207.477138" style="fill: #1f77b4; stroke: #1f77b4"/>
     <use xlink:href="#mf2b391c80e" x="149.963577" y="378.083077" style="fill: #1f77b4; stroke: #1f77b4"/>
     <use xlink:href="#mf2b391c80e" x="709.130914" y="122.206154" style="fill: #1f77b4; stroke: #1f77b4"/>
     <use xlink:href="#mf2b391c80e" x="240.862701" y="378.083077" style="fill: #1f77b4; stroke: #1f77b4"/>
     <use xlink:href="#mf2b391c80e" x="612.722752" y="186.175385" style="fill: #1f77b4; stroke: #1f77b4"/>
     <use xlink:href="#mf2b391c80e" x="-1" y="186.175385" style="fill: #1f77b4; stroke: #1f77b4"/>
     <use xlink:href="#mf2b391c80e" x="-1" y="179.417886" style="fill: #1f77b4; stroke: #1f77b4"/>
     <use xlink:href="#mf2b391c80e" x="404.481124" y="164.873631" style="fill: #1f77b4; stroke: #1f77b4"/>
     <use xlink:href="#mf2b391c80e" x="-1" y="164.873631" style="fill: #1f77b4; stroke: #1f77b4"/>
     <use xlink:href="#mf2b391c80e" x="-1" y="175.624912" style="fill: #1f77b4; stroke: #1f77b4"/>
     <use xlink:href="#mf2b391c80e" x="202.988066" y="292.812092" style="fill: #1f77b4; stroke: #1f77b4"/>
     <use xlink:href="#mf2b391c80e" x="-1" y="251.190263" style="fill: #1f77b4; stroke: #1f77b4"/>
     <use xlink:href="#mf2b391c80e" x="-1" y="190.379885" style="fill: #1f77b4; stroke: #1f77b4"/>
     <use xlink:href="#mf2b391c80e" x="516.314591" y="335.4156" style="fill: #1f77b4; stroke: #1f77b4"/>
     <use xlink:href="#mf2b391c80e" x="493.360267" y="143.507908" style="fill: #1f77b4; stroke: #1f77b4"/>
     <use xlink:href="#mf2b391c80e" x="590.474715" y="314.113846" style="fill: #1f77b4; stroke: #1f77b4"/>
     <use xlink:href="#mf2b391c80e" x="157.967274" y="122.206154" style="fill: #1f77b4; stroke: #1f77b4"/>
     <use xlink:href="#mf2b391c80e" x="-1" y="199.223962" style="fill: #1f77b4; stroke: #1f77b4"/>
     <use xlink:href="#mf2b391c80e" x="-1" y="223.300318" style="fill: #1f77b4; stroke: #1f77b4"/>
     <use xlink:href="#mf2b391c80e" x="173.530017" y="207.477138" style="fill: #1f77b4; stroke: #1f77b4"/>
     <use xlink:href="#mf2b391c80e" x="-1" y="176.497602" style="fill: #1f77b4; stroke: #1f77b4"/>
     <use xlink:href="#mf2b391c80e" x="-1" y="236.91568" style="fill: #1f77b4; stroke: #1f77b4"/>
     <use xlink:href="#mf2b391c80e" x="34.273784" y="250.144615" style="fill: #1f77b4; stroke: #1f77b4"/>
     <use xlink:href="#mf2b391c80e" x="-1" y="234.533454" style="fill: #1f77b4; stroke: #1f77b4"/>
     <use xlink:href="#mf2b391c80e" x="-1" y="186.175385" style="fill: #1f77b4; stroke: #1f77b4"/>
     <use xlink:href="#mf2b391c80e" x="314.168446" y="186.175385" style="fill: #1f77b4; stroke: #1f77b4"/>
     <use xlink:href="#mf2b391c80e" x="-1" y="206.824219" style="fill: #1f77b4; stroke: #1f77b4"/>
     <use xlink:href="#mf2b391c80e" x="-1" y="180.246254" style="fill: #1f77b4; stroke: #1f77b4"/>
     <use xlink:href="#mf2b391c80e" x="105.311376" y="164.873631" style="fill: #1f77b4; stroke: #1f77b4"/>
     <use xlink:href="#mf2b391c80e" x="-1" y="161.618005" style="fill: #1f77b4; stroke: #1f77b4"/>
     <use xlink:href="#mf2b391c80e" x="-1" y="234.743772" style="fill: #1f77b4; stroke: #1f77b4"/>
     <use xlink:href="#mf2b391c80e" x="499.301386" y="164.873631" style="fill: #1f77b4; stroke: #1f77b4"/>
     <use xlink:href="#mf2b391c80e" x="-1" y="155.779477" style="fill: #1f77b4; stroke: #1f77b4"/>
     <use xlink:href="#mf2b391c80e" x="-1" y="133.219757" style="fill: #1f77b4; stroke: #1f77b4"/>
     <use xlink:href="#mf2b391c80e" x="721.705891" y="122.206154" style="fill: #1f77b4; stroke: #1f77b4"/>
     <use xlink:href="#mf2b391c80e" x="-1" y="176.838318" style="fill: #1f77b4; stroke: #1f77b4"/>
     <use xlink:href="#mf2b391c80e" x="-1" y="186.175385" style="fill: #1f77b4; stroke: #1f77b4"/>
     <use xlink:href="#mf2b391c80e" x="173.530017" y="186.175385" style="fill: #1f77b4; stroke: #1f77b4"/>
     <use xlink:href="#mf2b391c80e" x="427.322442" y="164.873631" style="fill: #1f77b4; stroke: #1f77b4"/>
     <use xlink:href="#mf2b391c80e" x="362.061533" y="314.113846" style="fill: #1f77b4; stroke: #1f77b4"/>
     <use xlink:href="#mf2b391c80e" x="-1" y="248.573585" style="fill: #1f77b4; stroke: #1f77b4"/>
     <use xlink:href="#mf2b391c80e" x="-1" y="172.362569" style="fill: #1f77b4; stroke: #1f77b4"/>
     <use xlink:href="#mf2b391c80e" x="796.357346" y="186.175385" style="fill: #1f77b4; stroke: #1f77b4"/>
     <use xlink:href="#mf2b391c80e" x="-1" y="186.175385" style="fill: #1f77b4; stroke: #1f77b4"/>
     <use xlink:href="#mf2b391c80e" x="-1" y="246.483128" style="fill: #1f77b4; stroke: #1f77b4"/>
     <use xlink:href="#mf2b391c80e" x="8.564941" y="250.144615" style="fill: #1f77b4; stroke: #1f77b4"/>
     <use xlink:href="#mf2b391c80e" x="-1" y="232.835767" style="fill: #1f77b4; stroke: #1f77b4"/>
     <use xlink:href="#mf2b391c80e" x="-1" y="122.206154" style="fill: #1f77b4; stroke: #1f77b4"/>
     <use xlink:href="#mf2b391c80e" x="8.564941" y="122.206154" style="fill: #1f77b4; stroke: #1f77b4"/>
     <use xlink:href="#mf2b391c80e" x="165.113431" y="292.812092" style="fill: #1f77b4; stroke: #1f77b4"/>
     <use xlink:href="#mf2b391c80e" x="-1" y="283.107149" style="fill: #1f77b4; stroke: #1f77b4"/>
    </g>
   </g>
   <g id="matplotlib.axis_1">
    <g id="xtick_1">
     <g id="line2d_1">
      <defs>
       <path id="m95dca7d62b" d="M 0 0 
L 0 3.5 
" style="stroke: #000000; stroke-width: 0.8"/>
      </defs>
      <g>
       <use xlink:href="#m95dca7d62b" x="80.584615" y="384.48" style="stroke: #000000; stroke-width: 0.8"/>
      </g>
     </g>
     <g id="text_1">
      <!-- 0.0 -->
      <g transform="translate(64.68149 406.676875) scale(0.2 -0.2)">
       <defs>
        <path id="DejaVuSans-30" d="M 2034 4250 
Q 1547 4250 1301 3770 
Q 1056 3291 1056 2328 
Q 1056 1369 1301 889 
Q 1547 409 2034 409 
Q 2525 409 2770 889 
Q 3016 1369 3016 2328 
Q 3016 3291 2770 3770 
Q 2525 4250 2034 4250 
z
M 2034 4750 
Q 2819 4750 3233 4129 
Q 3647 3509 3647 2328 
Q 3647 1150 3233 529 
Q 2819 -91 2034 -91 
Q 1250 -91 836 529 
Q 422 1150 422 2328 
Q 422 3509 836 4129 
Q 1250 4750 2034 4750 
z
" transform="scale(0.015625)"/>
        <path id="DejaVuSans-2e" d="M 684 794 
L 1344 794 
L 1344 0 
L 684 0 
L 684 794 
z
" transform="scale(0.015625)"/>
       </defs>
       <use xlink:href="#DejaVuSans-30"/>
       <use xlink:href="#DejaVuSans-2e" x="63.623047"/>
       <use xlink:href="#DejaVuSans-30" x="95.410156"/>
      </g>
     </g>
    </g>
    <g id="xtick_2">
     <g id="line2d_2">
      <g>
       <use xlink:href="#m95dca7d62b" x="166.430769" y="384.48" style="stroke: #000000; stroke-width: 0.8"/>
      </g>
     </g>
     <g id="text_2">
      <!-- 0.2 -->
      <g transform="translate(150.527644 406.676875) scale(0.2 -0.2)">
       <defs>
        <path id="DejaVuSans-32" d="M 1228 531 
L 3431 531 
L 3431 0 
L 469 0 
L 469 531 
Q 828 903 1448 1529 
Q 2069 2156 2228 2338 
Q 2531 2678 2651 2914 
Q 2772 3150 2772 3378 
Q 2772 3750 2511 3984 
Q 2250 4219 1831 4219 
Q 1534 4219 1204 4116 
Q 875 4013 500 3803 
L 500 4441 
Q 881 4594 1212 4672 
Q 1544 4750 1819 4750 
Q 2544 4750 2975 4387 
Q 3406 4025 3406 3419 
Q 3406 3131 3298 2873 
Q 3191 2616 2906 2266 
Q 2828 2175 2409 1742 
Q 1991 1309 1228 531 
z
" transform="scale(0.015625)"/>
       </defs>
       <use xlink:href="#DejaVuSans-30"/>
       <use xlink:href="#DejaVuSans-2e" x="63.623047"/>
       <use xlink:href="#DejaVuSans-32" x="95.410156"/>
      </g>
     </g>
    </g>
    <g id="xtick_3">
     <g id="line2d_3">
      <g>
       <use xlink:href="#m95dca7d62b" x="252.276923" y="384.48" style="stroke: #000000; stroke-width: 0.8"/>
      </g>
     </g>
     <g id="text_3">
      <!-- 0.4 -->
      <g transform="translate(236.373798 406.676875) scale(0.2 -0.2)">
       <defs>
        <path id="DejaVuSans-34" d="M 2419 4116 
L 825 1625 
L 2419 1625 
L 2419 4116 
z
M 2253 4666 
L 3047 4666 
L 3047 1625 
L 3713 1625 
L 3713 1100 
L 3047 1100 
L 3047 0 
L 2419 0 
L 2419 1100 
L 313 1100 
L 313 1709 
L 2253 4666 
z
" transform="scale(0.015625)"/>
       </defs>
       <use xlink:href="#DejaVuSans-30"/>
       <use xlink:href="#DejaVuSans-2e" x="63.623047"/>
       <use xlink:href="#DejaVuSans-34" x="95.410156"/>
      </g>
     </g>
    </g>
    <g id="xtick_4">
     <g id="line2d_4">
      <g>
       <use xlink:href="#m95dca7d62b" x="338.123077" y="384.48" style="stroke: #000000; stroke-width: 0.8"/>
      </g>
     </g>
     <g id="text_4">
      <!-- 0.6 -->
      <g transform="translate(322.219952 406.676875) scale(0.2 -0.2)">
       <defs>
        <path id="DejaVuSans-36" d="M 2113 2584 
Q 1688 2584 1439 2293 
Q 1191 2003 1191 1497 
Q 1191 994 1439 701 
Q 1688 409 2113 409 
Q 2538 409 2786 701 
Q 3034 994 3034 1497 
Q 3034 2003 2786 2293 
Q 2538 2584 2113 2584 
z
M 3366 4563 
L 3366 3988 
Q 3128 4100 2886 4159 
Q 2644 4219 2406 4219 
Q 1781 4219 1451 3797 
Q 1122 3375 1075 2522 
Q 1259 2794 1537 2939 
Q 1816 3084 2150 3084 
Q 2853 3084 3261 2657 
Q 3669 2231 3669 1497 
Q 3669 778 3244 343 
Q 2819 -91 2113 -91 
Q 1303 -91 875 529 
Q 447 1150 447 2328 
Q 447 3434 972 4092 
Q 1497 4750 2381 4750 
Q 2619 4750 2861 4703 
Q 3103 4656 3366 4563 
z
" transform="scale(0.015625)"/>
       </defs>
       <use xlink:href="#DejaVuSans-30"/>
       <use xlink:href="#DejaVuSans-2e" x="63.623047"/>
       <use xlink:href="#DejaVuSans-36" x="95.410156"/>
      </g>
     </g>
    </g>
    <g id="xtick_5">
     <g id="line2d_5">
      <g>
       <use xlink:href="#m95dca7d62b" x="423.969231" y="384.48" style="stroke: #000000; stroke-width: 0.8"/>
      </g>
     </g>
     <g id="text_5">
      <!-- 0.8 -->
      <g transform="translate(408.066106 406.676875) scale(0.2 -0.2)">
       <defs>
        <path id="DejaVuSans-38" d="M 2034 2216 
Q 1584 2216 1326 1975 
Q 1069 1734 1069 1313 
Q 1069 891 1326 650 
Q 1584 409 2034 409 
Q 2484 409 2743 651 
Q 3003 894 3003 1313 
Q 3003 1734 2745 1975 
Q 2488 2216 2034 2216 
z
M 1403 2484 
Q 997 2584 770 2862 
Q 544 3141 544 3541 
Q 544 4100 942 4425 
Q 1341 4750 2034 4750 
Q 2731 4750 3128 4425 
Q 3525 4100 3525 3541 
Q 3525 3141 3298 2862 
Q 3072 2584 2669 2484 
Q 3125 2378 3379 2068 
Q 3634 1759 3634 1313 
Q 3634 634 3220 271 
Q 2806 -91 2034 -91 
Q 1263 -91 848 271 
Q 434 634 434 1313 
Q 434 1759 690 2068 
Q 947 2378 1403 2484 
z
M 1172 3481 
Q 1172 3119 1398 2916 
Q 1625 2713 2034 2713 
Q 2441 2713 2670 2916 
Q 2900 3119 2900 3481 
Q 2900 3844 2670 4047 
Q 2441 4250 2034 4250 
Q 1625 4250 1398 4047 
Q 1172 3844 1172 3481 
z
" transform="scale(0.015625)"/>
       </defs>
       <use xlink:href="#DejaVuSans-30"/>
       <use xlink:href="#DejaVuSans-2e" x="63.623047"/>
       <use xlink:href="#DejaVuSans-38" x="95.410156"/>
      </g>
     </g>
    </g>
    <g id="xtick_6">
     <g id="line2d_6">
      <g>
       <use xlink:href="#m95dca7d62b" x="509.815385" y="384.48" style="stroke: #000000; stroke-width: 0.8"/>
      </g>
     </g>
     <g id="text_6">
      <!-- 1.0 -->
      <g transform="translate(493.91226 406.676875) scale(0.2 -0.2)">
       <defs>
        <path id="DejaVuSans-31" d="M 794 531 
L 1825 531 
L 1825 4091 
L 703 3866 
L 703 4441 
L 1819 4666 
L 2450 4666 
L 2450 531 
L 3481 531 
L 3481 0 
L 794 0 
L 794 531 
z
" transform="scale(0.015625)"/>
       </defs>
       <use xlink:href="#DejaVuSans-31"/>
       <use xlink:href="#DejaVuSans-2e" x="63.623047"/>
       <use xlink:href="#DejaVuSans-30" x="95.410156"/>
      </g>
     </g>
    </g>
    <g id="text_7">
     <!-- Standardized stan_topic_count -->
     <g transform="translate(218.363281 422.434687) scale(0.1 -0.1)">
      <defs>
       <path id="DejaVuSans-53" d="M 3425 4513 
L 3425 3897 
Q 3066 4069 2747 4153 
Q 2428 4238 2131 4238 
Q 1616 4238 1336 4038 
Q 1056 3838 1056 3469 
Q 1056 3159 1242 3001 
Q 1428 2844 1947 2747 
L 2328 2669 
Q 3034 2534 3370 2195 
Q 3706 1856 3706 1288 
Q 3706 609 3251 259 
Q 2797 -91 1919 -91 
Q 1588 -91 1214 -16 
Q 841 59 441 206 
L 441 856 
Q 825 641 1194 531 
Q 1563 422 1919 422 
Q 2459 422 2753 634 
Q 3047 847 3047 1241 
Q 3047 1584 2836 1778 
Q 2625 1972 2144 2069 
L 1759 2144 
Q 1053 2284 737 2584 
Q 422 2884 422 3419 
Q 422 4038 858 4394 
Q 1294 4750 2059 4750 
Q 2388 4750 2728 4690 
Q 3069 4631 3425 4513 
z
" transform="scale(0.015625)"/>
       <path id="DejaVuSans-74" d="M 1172 4494 
L 1172 3500 
L 2356 3500 
L 2356 3053 
L 1172 3053 
L 1172 1153 
Q 1172 725 1289 603 
Q 1406 481 1766 481 
L 2356 481 
L 2356 0 
L 1766 0 
Q 1100 0 847 248 
Q 594 497 594 1153 
L 594 3053 
L 172 3053 
L 172 3500 
L 594 3500 
L 594 4494 
L 1172 4494 
z
" transform="scale(0.015625)"/>
       <path id="DejaVuSans-61" d="M 2194 1759 
Q 1497 1759 1228 1600 
Q 959 1441 959 1056 
Q 959 750 1161 570 
Q 1363 391 1709 391 
Q 2188 391 2477 730 
Q 2766 1069 2766 1631 
L 2766 1759 
L 2194 1759 
z
M 3341 1997 
L 3341 0 
L 2766 0 
L 2766 531 
Q 2569 213 2275 61 
Q 1981 -91 1556 -91 
Q 1019 -91 701 211 
Q 384 513 384 1019 
Q 384 1609 779 1909 
Q 1175 2209 1959 2209 
L 2766 2209 
L 2766 2266 
Q 2766 2663 2505 2880 
Q 2244 3097 1772 3097 
Q 1472 3097 1187 3025 
Q 903 2953 641 2809 
L 641 3341 
Q 956 3463 1253 3523 
Q 1550 3584 1831 3584 
Q 2591 3584 2966 3190 
Q 3341 2797 3341 1997 
z
" transform="scale(0.015625)"/>
       <path id="DejaVuSans-6e" d="M 3513 2113 
L 3513 0 
L 2938 0 
L 2938 2094 
Q 2938 2591 2744 2837 
Q 2550 3084 2163 3084 
Q 1697 3084 1428 2787 
Q 1159 2491 1159 1978 
L 1159 0 
L 581 0 
L 581 3500 
L 1159 3500 
L 1159 2956 
Q 1366 3272 1645 3428 
Q 1925 3584 2291 3584 
Q 2894 3584 3203 3211 
Q 3513 2838 3513 2113 
z
" transform="scale(0.015625)"/>
       <path id="DejaVuSans-64" d="M 2906 2969 
L 2906 4863 
L 3481 4863 
L 3481 0 
L 2906 0 
L 2906 525 
Q 2725 213 2448 61 
Q 2172 -91 1784 -91 
Q 1150 -91 751 415 
Q 353 922 353 1747 
Q 353 2572 751 3078 
Q 1150 3584 1784 3584 
Q 2172 3584 2448 3432 
Q 2725 3281 2906 2969 
z
M 947 1747 
Q 947 1113 1208 752 
Q 1469 391 1925 391 
Q 2381 391 2643 752 
Q 2906 1113 2906 1747 
Q 2906 2381 2643 2742 
Q 2381 3103 1925 3103 
Q 1469 3103 1208 2742 
Q 947 2381 947 1747 
z
" transform="scale(0.015625)"/>
       <path id="DejaVuSans-72" d="M 2631 2963 
Q 2534 3019 2420 3045 
Q 2306 3072 2169 3072 
Q 1681 3072 1420 2755 
Q 1159 2438 1159 1844 
L 1159 0 
L 581 0 
L 581 3500 
L 1159 3500 
L 1159 2956 
Q 1341 3275 1631 3429 
Q 1922 3584 2338 3584 
Q 2397 3584 2469 3576 
Q 2541 3569 2628 3553 
L 2631 2963 
z
" transform="scale(0.015625)"/>
       <path id="DejaVuSans-69" d="M 603 3500 
L 1178 3500 
L 1178 0 
L 603 0 
L 603 3500 
z
M 603 4863 
L 1178 4863 
L 1178 4134 
L 603 4134 
L 603 4863 
z
" transform="scale(0.015625)"/>
       <path id="DejaVuSans-7a" d="M 353 3500 
L 3084 3500 
L 3084 2975 
L 922 459 
L 3084 459 
L 3084 0 
L 275 0 
L 275 525 
L 2438 3041 
L 353 3041 
L 353 3500 
z
" transform="scale(0.015625)"/>
       <path id="DejaVuSans-65" d="M 3597 1894 
L 3597 1613 
L 953 1613 
Q 991 1019 1311 708 
Q 1631 397 2203 397 
Q 2534 397 2845 478 
Q 3156 559 3463 722 
L 3463 178 
Q 3153 47 2828 -22 
Q 2503 -91 2169 -91 
Q 1331 -91 842 396 
Q 353 884 353 1716 
Q 353 2575 817 3079 
Q 1281 3584 2069 3584 
Q 2775 3584 3186 3129 
Q 3597 2675 3597 1894 
z
M 3022 2063 
Q 3016 2534 2758 2815 
Q 2500 3097 2075 3097 
Q 1594 3097 1305 2825 
Q 1016 2553 972 2059 
L 3022 2063 
z
" transform="scale(0.015625)"/>
       <path id="DejaVuSans-20" transform="scale(0.015625)"/>
       <path id="DejaVuSans-73" d="M 2834 3397 
L 2834 2853 
Q 2591 2978 2328 3040 
Q 2066 3103 1784 3103 
Q 1356 3103 1142 2972 
Q 928 2841 928 2578 
Q 928 2378 1081 2264 
Q 1234 2150 1697 2047 
L 1894 2003 
Q 2506 1872 2764 1633 
Q 3022 1394 3022 966 
Q 3022 478 2636 193 
Q 2250 -91 1575 -91 
Q 1294 -91 989 -36 
Q 684 19 347 128 
L 347 722 
Q 666 556 975 473 
Q 1284 391 1588 391 
Q 1994 391 2212 530 
Q 2431 669 2431 922 
Q 2431 1156 2273 1281 
Q 2116 1406 1581 1522 
L 1381 1569 
Q 847 1681 609 1914 
Q 372 2147 372 2553 
Q 372 3047 722 3315 
Q 1072 3584 1716 3584 
Q 2034 3584 2315 3537 
Q 2597 3491 2834 3397 
z
" transform="scale(0.015625)"/>
       <path id="DejaVuSans-5f" d="M 3263 -1063 
L 3263 -1509 
L -63 -1509 
L -63 -1063 
L 3263 -1063 
z
" transform="scale(0.015625)"/>
       <path id="DejaVuSans-6f" d="M 1959 3097 
Q 1497 3097 1228 2736 
Q 959 2375 959 1747 
Q 959 1119 1226 758 
Q 1494 397 1959 397 
Q 2419 397 2687 759 
Q 2956 1122 2956 1747 
Q 2956 2369 2687 2733 
Q 2419 3097 1959 3097 
z
M 1959 3584 
Q 2709 3584 3137 3096 
Q 3566 2609 3566 1747 
Q 3566 888 3137 398 
Q 2709 -91 1959 -91 
Q 1206 -91 779 398 
Q 353 888 353 1747 
Q 353 2609 779 3096 
Q 1206 3584 1959 3584 
z
" transform="scale(0.015625)"/>
       <path id="DejaVuSans-70" d="M 1159 525 
L 1159 -1331 
L 581 -1331 
L 581 3500 
L 1159 3500 
L 1159 2969 
Q 1341 3281 1617 3432 
Q 1894 3584 2278 3584 
Q 2916 3584 3314 3078 
Q 3713 2572 3713 1747 
Q 3713 922 3314 415 
Q 2916 -91 2278 -91 
Q 1894 -91 1617 61 
Q 1341 213 1159 525 
z
M 3116 1747 
Q 3116 2381 2855 2742 
Q 2594 3103 2138 3103 
Q 1681 3103 1420 2742 
Q 1159 2381 1159 1747 
Q 1159 1113 1420 752 
Q 1681 391 2138 391 
Q 2594 391 2855 752 
Q 3116 1113 3116 1747 
z
" transform="scale(0.015625)"/>
       <path id="DejaVuSans-63" d="M 3122 3366 
L 3122 2828 
Q 2878 2963 2633 3030 
Q 2388 3097 2138 3097 
Q 1578 3097 1268 2742 
Q 959 2388 959 1747 
Q 959 1106 1268 751 
Q 1578 397 2138 397 
Q 2388 397 2633 464 
Q 2878 531 3122 666 
L 3122 134 
Q 2881 22 2623 -34 
Q 2366 -91 2075 -91 
Q 1284 -91 818 406 
Q 353 903 353 1747 
Q 353 2603 823 3093 
Q 1294 3584 2113 3584 
Q 2378 3584 2631 3529 
Q 2884 3475 3122 3366 
z
" transform="scale(0.015625)"/>
       <path id="DejaVuSans-75" d="M 544 1381 
L 544 3500 
L 1119 3500 
L 1119 1403 
Q 1119 906 1312 657 
Q 1506 409 1894 409 
Q 2359 409 2629 706 
Q 2900 1003 2900 1516 
L 2900 3500 
L 3475 3500 
L 3475 0 
L 2900 0 
L 2900 538 
Q 2691 219 2414 64 
Q 2138 -91 1772 -91 
Q 1169 -91 856 284 
Q 544 659 544 1381 
z
M 1991 3584 
L 1991 3584 
z
" transform="scale(0.015625)"/>
      </defs>
      <use xlink:href="#DejaVuSans-53"/>
      <use xlink:href="#DejaVuSans-74" x="63.476562"/>
      <use xlink:href="#DejaVuSans-61" x="102.685547"/>
      <use xlink:href="#DejaVuSans-6e" x="163.964844"/>
      <use xlink:href="#DejaVuSans-64" x="227.34375"/>
      <use xlink:href="#DejaVuSans-61" x="290.820312"/>
      <use xlink:href="#DejaVuSans-72" x="352.099609"/>
      <use xlink:href="#DejaVuSans-64" x="391.462891"/>
      <use xlink:href="#DejaVuSans-69" x="454.939453"/>
      <use xlink:href="#DejaVuSans-7a" x="482.722656"/>
      <use xlink:href="#DejaVuSans-65" x="535.212891"/>
      <use xlink:href="#DejaVuSans-64" x="596.736328"/>
      <use xlink:href="#DejaVuSans-20" x="660.212891"/>
      <use xlink:href="#DejaVuSans-73" x="692"/>
      <use xlink:href="#DejaVuSans-74" x="744.099609"/>
      <use xlink:href="#DejaVuSans-61" x="783.308594"/>
      <use xlink:href="#DejaVuSans-6e" x="844.587891"/>
      <use xlink:href="#DejaVuSans-5f" x="907.966797"/>
      <use xlink:href="#DejaVuSans-74" x="957.966797"/>
      <use xlink:href="#DejaVuSans-6f" x="997.175781"/>
      <use xlink:href="#DejaVuSans-70" x="1058.357422"/>
      <use xlink:href="#DejaVuSans-69" x="1121.833984"/>
      <use xlink:href="#DejaVuSans-63" x="1149.617188"/>
      <use xlink:href="#DejaVuSans-5f" x="1204.597656"/>
      <use xlink:href="#DejaVuSans-63" x="1254.597656"/>
      <use xlink:href="#DejaVuSans-6f" x="1309.578125"/>
      <use xlink:href="#DejaVuSans-75" x="1370.759766"/>
      <use xlink:href="#DejaVuSans-6e" x="1434.138672"/>
      <use xlink:href="#DejaVuSans-74" x="1497.517578"/>
     </g>
    </g>
   </g>
   <g id="matplotlib.axis_2">
    <g id="ytick_1">
     <g id="line2d_7">
      <defs>
       <path id="mae73765b93" d="M 0 0 
L -3.5 0 
" style="stroke: #000000; stroke-width: 0.8"/>
      </defs>
      <g>
       <use xlink:href="#mae73765b93" x="72" y="378.083077" style="stroke: #000000; stroke-width: 0.8"/>
      </g>
     </g>
     <g id="text_8">
      <!-- 1 -->
      <g transform="translate(52.275 385.681514) scale(0.2 -0.2)">
       <use xlink:href="#DejaVuSans-31"/>
      </g>
     </g>
    </g>
    <g id="ytick_2">
     <g id="line2d_8">
      <g>
       <use xlink:href="#mae73765b93" x="72" y="314.113846" style="stroke: #000000; stroke-width: 0.8"/>
      </g>
     </g>
     <g id="text_9">
      <!-- 2 -->
      <g transform="translate(52.275 321.712284) scale(0.2 -0.2)">
       <use xlink:href="#DejaVuSans-32"/>
      </g>
     </g>
    </g>
    <g id="ytick_3">
     <g id="line2d_9">
      <g>
       <use xlink:href="#mae73765b93" x="72" y="250.144615" style="stroke: #000000; stroke-width: 0.8"/>
      </g>
     </g>
     <g id="text_10">
      <!-- 3 -->
      <g transform="translate(52.275 257.743053) scale(0.2 -0.2)">
       <defs>
        <path id="DejaVuSans-33" d="M 2597 2516 
Q 3050 2419 3304 2112 
Q 3559 1806 3559 1356 
Q 3559 666 3084 287 
Q 2609 -91 1734 -91 
Q 1441 -91 1130 -33 
Q 819 25 488 141 
L 488 750 
Q 750 597 1062 519 
Q 1375 441 1716 441 
Q 2309 441 2620 675 
Q 2931 909 2931 1356 
Q 2931 1769 2642 2001 
Q 2353 2234 1838 2234 
L 1294 2234 
L 1294 2753 
L 1863 2753 
Q 2328 2753 2575 2939 
Q 2822 3125 2822 3475 
Q 2822 3834 2567 4026 
Q 2313 4219 1838 4219 
Q 1578 4219 1281 4162 
Q 984 4106 628 3988 
L 628 4550 
Q 988 4650 1302 4700 
Q 1616 4750 1894 4750 
Q 2613 4750 3031 4423 
Q 3450 4097 3450 3541 
Q 3450 3153 3228 2886 
Q 3006 2619 2597 2516 
z
" transform="scale(0.015625)"/>
       </defs>
       <use xlink:href="#DejaVuSans-33"/>
      </g>
     </g>
    </g>
    <g id="ytick_4">
     <g id="line2d_10">
      <g>
       <use xlink:href="#mae73765b93" x="72" y="186.175385" style="stroke: #000000; stroke-width: 0.8"/>
      </g>
     </g>
     <g id="text_11">
      <!-- 4 -->
      <g transform="translate(52.275 193.773822) scale(0.2 -0.2)">
       <use xlink:href="#DejaVuSans-34"/>
      </g>
     </g>
    </g>
    <g id="ytick_5">
     <g id="line2d_11">
      <g>
       <use xlink:href="#mae73765b93" x="72" y="122.206154" style="stroke: #000000; stroke-width: 0.8"/>
      </g>
     </g>
     <g id="text_12">
      <!-- 5 -->
      <g transform="translate(52.275 129.804591) scale(0.2 -0.2)">
       <defs>
        <path id="DejaVuSans-35" d="M 691 4666 
L 3169 4666 
L 3169 4134 
L 1269 4134 
L 1269 2991 
Q 1406 3038 1543 3061 
Q 1681 3084 1819 3084 
Q 2600 3084 3056 2656 
Q 3513 2228 3513 1497 
Q 3513 744 3044 326 
Q 2575 -91 1722 -91 
Q 1428 -91 1123 -41 
Q 819 9 494 109 
L 494 744 
Q 775 591 1075 516 
Q 1375 441 1709 441 
Q 2250 441 2565 725 
Q 2881 1009 2881 1497 
Q 2881 1984 2565 2268 
Q 2250 2553 1709 2553 
Q 1456 2553 1204 2497 
Q 953 2441 691 2322 
L 691 4666 
z
" transform="scale(0.015625)"/>
       </defs>
       <use xlink:href="#DejaVuSans-35"/>
      </g>
     </g>
    </g>
    <g id="ytick_6">
     <g id="line2d_12">
      <g>
       <use xlink:href="#mae73765b93" x="72" y="58.236923" style="stroke: #000000; stroke-width: 0.8"/>
      </g>
     </g>
     <g id="text_13">
      <!-- 6 -->
      <g transform="translate(52.275 65.835361) scale(0.2 -0.2)">
       <use xlink:href="#DejaVuSans-36"/>
      </g>
     </g>
    </g>
    <g id="text_14">
     <!-- ave_willingness -->
     <g transform="translate(45.917187 257.202969) rotate(-90) scale(0.1 -0.1)">
      <defs>
       <path id="DejaVuSans-76" d="M 191 3500 
L 800 3500 
L 1894 563 
L 2988 3500 
L 3597 3500 
L 2284 0 
L 1503 0 
L 191 3500 
z
" transform="scale(0.015625)"/>
       <path id="DejaVuSans-77" d="M 269 3500 
L 844 3500 
L 1563 769 
L 2278 3500 
L 2956 3500 
L 3675 769 
L 4391 3500 
L 4966 3500 
L 4050 0 
L 3372 0 
L 2619 2869 
L 1863 0 
L 1184 0 
L 269 3500 
z
" transform="scale(0.015625)"/>
       <path id="DejaVuSans-6c" d="M 603 4863 
L 1178 4863 
L 1178 0 
L 603 0 
L 603 4863 
z
" transform="scale(0.015625)"/>
       <path id="DejaVuSans-67" d="M 2906 1791 
Q 2906 2416 2648 2759 
Q 2391 3103 1925 3103 
Q 1463 3103 1205 2759 
Q 947 2416 947 1791 
Q 947 1169 1205 825 
Q 1463 481 1925 481 
Q 2391 481 2648 825 
Q 2906 1169 2906 1791 
z
M 3481 434 
Q 3481 -459 3084 -895 
Q 2688 -1331 1869 -1331 
Q 1566 -1331 1297 -1286 
Q 1028 -1241 775 -1147 
L 775 -588 
Q 1028 -725 1275 -790 
Q 1522 -856 1778 -856 
Q 2344 -856 2625 -561 
Q 2906 -266 2906 331 
L 2906 616 
Q 2728 306 2450 153 
Q 2172 0 1784 0 
Q 1141 0 747 490 
Q 353 981 353 1791 
Q 353 2603 747 3093 
Q 1141 3584 1784 3584 
Q 2172 3584 2450 3431 
Q 2728 3278 2906 2969 
L 2906 3500 
L 3481 3500 
L 3481 434 
z
" transform="scale(0.015625)"/>
      </defs>
      <use xlink:href="#DejaVuSans-61"/>
      <use xlink:href="#DejaVuSans-76" x="61.279297"/>
      <use xlink:href="#DejaVuSans-65" x="120.458984"/>
      <use xlink:href="#DejaVuSans-5f" x="181.982422"/>
      <use xlink:href="#DejaVuSans-77" x="231.982422"/>
      <use xlink:href="#DejaVuSans-69" x="313.769531"/>
      <use xlink:href="#DejaVuSans-6c" x="341.552734"/>
      <use xlink:href="#DejaVuSans-6c" x="369.335938"/>
      <use xlink:href="#DejaVuSans-69" x="397.119141"/>
      <use xlink:href="#DejaVuSans-6e" x="424.902344"/>
      <use xlink:href="#DejaVuSans-67" x="488.28125"/>
      <use xlink:href="#DejaVuSans-6e" x="551.757812"/>
      <use xlink:href="#DejaVuSans-65" x="615.136719"/>
      <use xlink:href="#DejaVuSans-73" x="676.660156"/>
      <use xlink:href="#DejaVuSans-73" x="728.759766"/>
     </g>
    </g>
   </g>
   <g id="line2d_13">
    <path d="M 451.005836 173.612365 
L -1 184.887486 
M -1 205.27945 
L 168.406878 206.006911 
L 574.159488 207.749279 
L 193.845913 181.460352 
L 508.898578 207.469038 
L 577 207.761477 
M 577 207.761477 
L 216.941879 206.215328 
L -1 205.27945 
M -1 205.27945 
L 28.764746 205.407265 
L -1 205.465353 
M -1 185.664795 
L 577 169.550876 
M 577 206.393815 
L 574.159488 207.749279 
L -1 205.27945 
M -1 191.210138 
L 362.061533 176.326761 
L 13.614892 186.960629 
L 355.634322 176.522906 
L 197.096456 206.130109 
L 89.364162 205.667489 
L -1 189.619831 
M -1 187.406645 
L 577 169.767285 
M 577 169.767285 
L 173.530017 182.080351 
L 577 197.361143 
M 577 207.761477 
L 331.761825 206.708384 
L -1 205.27945 
M -1 205.27945 
L 577 207.761477 
M 577 207.761477 
L 8.564941 205.320524 
L 535.596223 207.583682 
L 486.394817 207.372403 
L 177.331055 206.045233 
L 70.426844 185.226846 
L 556.484658 170.39337 
L 76.190376 185.050955 
L 440.202884 173.942049 
L -1 187.406645 
M -1 187.406645 
L 577 169.767285 
M 577 172.756051 
L -1 199.116036 
M -1 197.179162 
L 316.611971 177.713787 
L -1 190.105552 
M -1 188.197251 
L 55.69782 185.676345 
L 577 207.261405 
M 577 207.761477 
L 149.963577 205.927713 
L 577 207.761477 
M 577 207.761477 
L 240.862701 206.318048 
L 577 207.761477 
M 577 207.761477 
L -1 205.27945 
M -1 197.554255 
L 404.481124 207.020653 
L -1 205.27945 
M -1 205.27945 
L 202.988066 206.155408 
L -1 205.418633 
M -1 205.27945 
L 516.314591 207.500884 
L 493.360267 207.402314 
L 577 207.761477 
M 577 207.761477 
L 157.967274 205.962082 
L -1 205.27945 
M -1 205.27945 
L 173.530017 206.028911 
L -1 205.27945 
M -1 188.153724 
L 34.273784 186.330162 
L -1 187.406645 
M -1 187.406645 
L 314.168446 177.788358 
L -1 190.394196 
M -1 188.890166 
L 105.311376 184.162242 
L -1 186.993044 
M -1 187.406645 
L 499.301386 172.138485 
L -1 187.406645 
M -1 187.406645 
L 577 169.767285 
M 577 169.767285 
L -1 187.406645 
M -1 187.406645 
L 173.530017 182.080351 
L 427.322442 174.335133 
L 362.061533 176.326761 
L -1 187.406645 
M -1 187.406645 
L 577 169.767285 
M 577 169.767285 
L -1 187.406645 
M -1 187.406645 
L 8.564941 187.114743 
L -1 187.406645 
M -1 187.406645 
L 8.564941 187.114743 
L 165.113431 182.337208 
L -1 185.212738 
" clip-path="url(#p3b32062efa)" style="fill: none; stroke: #ff0000; stroke-width: 1.5; stroke-linecap: square"/>
   </g>
   <g id="patch_3">
    <path d="M 72 384.48 
L 72 51.84 
" style="fill: none; stroke: #000000; stroke-width: 0.8; stroke-linejoin: miter; stroke-linecap: square"/>
   </g>
   <g id="patch_4">
    <path d="M 518.4 384.48 
L 518.4 51.84 
" style="fill: none; stroke: #000000; stroke-width: 0.8; stroke-linejoin: miter; stroke-linecap: square"/>
   </g>
   <g id="patch_5">
    <path d="M 72 384.48 
L 518.4 384.48 
" style="fill: none; stroke: #000000; stroke-width: 0.8; stroke-linejoin: miter; stroke-linecap: square"/>
   </g>
   <g id="patch_6">
    <path d="M 72 51.84 
L 518.4 51.84 
" style="fill: none; stroke: #000000; stroke-width: 0.8; stroke-linejoin: miter; stroke-linecap: square"/>
   </g>
   <g id="text_15">
    <!-- Robust Regression: ave_willingness ~ stan_topic_count + group_c + interaction -->
    <g transform="translate(55.659375 45.84) scale(0.12 -0.12)">
     <defs>
      <path id="DejaVuSans-52" d="M 2841 2188 
Q 3044 2119 3236 1894 
Q 3428 1669 3622 1275 
L 4263 0 
L 3584 0 
L 2988 1197 
Q 2756 1666 2539 1819 
Q 2322 1972 1947 1972 
L 1259 1972 
L 1259 0 
L 628 0 
L 628 4666 
L 2053 4666 
Q 2853 4666 3247 4331 
Q 3641 3997 3641 3322 
Q 3641 2881 3436 2590 
Q 3231 2300 2841 2188 
z
M 1259 4147 
L 1259 2491 
L 2053 2491 
Q 2509 2491 2742 2702 
Q 2975 2913 2975 3322 
Q 2975 3731 2742 3939 
Q 2509 4147 2053 4147 
L 1259 4147 
z
" transform="scale(0.015625)"/>
      <path id="DejaVuSans-62" d="M 3116 1747 
Q 3116 2381 2855 2742 
Q 2594 3103 2138 3103 
Q 1681 3103 1420 2742 
Q 1159 2381 1159 1747 
Q 1159 1113 1420 752 
Q 1681 391 2138 391 
Q 2594 391 2855 752 
Q 3116 1113 3116 1747 
z
M 1159 2969 
Q 1341 3281 1617 3432 
Q 1894 3584 2278 3584 
Q 2916 3584 3314 3078 
Q 3713 2572 3713 1747 
Q 3713 922 3314 415 
Q 2916 -91 2278 -91 
Q 1894 -91 1617 61 
Q 1341 213 1159 525 
L 1159 0 
L 581 0 
L 581 4863 
L 1159 4863 
L 1159 2969 
z
" transform="scale(0.015625)"/>
      <path id="DejaVuSans-3a" d="M 750 794 
L 1409 794 
L 1409 0 
L 750 0 
L 750 794 
z
M 750 3309 
L 1409 3309 
L 1409 2516 
L 750 2516 
L 750 3309 
z
" transform="scale(0.015625)"/>
      <path id="DejaVuSans-7e" d="M 4684 2553 
L 4684 1997 
Q 4356 1750 4076 1644 
Q 3797 1538 3494 1538 
Q 3150 1538 2694 1722 
Q 2659 1734 2644 1741 
Q 2622 1750 2575 1766 
Q 2091 1959 1797 1959 
Q 1522 1959 1253 1839 
Q 984 1719 678 1459 
L 678 2016 
Q 1006 2263 1286 2370 
Q 1566 2478 1869 2478 
Q 2213 2478 2672 2291 
Q 2703 2278 2719 2272 
Q 2744 2263 2788 2247 
Q 3272 2053 3566 2053 
Q 3834 2053 4098 2172 
Q 4363 2291 4684 2553 
z
" transform="scale(0.015625)"/>
      <path id="DejaVuSans-2b" d="M 2944 4013 
L 2944 2272 
L 4684 2272 
L 4684 1741 
L 2944 1741 
L 2944 0 
L 2419 0 
L 2419 1741 
L 678 1741 
L 678 2272 
L 2419 2272 
L 2419 4013 
L 2944 4013 
z
" transform="scale(0.015625)"/>
     </defs>
     <use xlink:href="#DejaVuSans-52"/>
     <use xlink:href="#DejaVuSans-6f" x="64.982422"/>
     <use xlink:href="#DejaVuSans-62" x="126.164062"/>
     <use xlink:href="#DejaVuSans-75" x="189.640625"/>
     <use xlink:href="#DejaVuSans-73" x="253.019531"/>
     <use xlink:href="#DejaVuSans-74" x="305.119141"/>
     <use xlink:href="#DejaVuSans-20" x="344.328125"/>
     <use xlink:href="#DejaVuSans-52" x="376.115234"/>
     <use xlink:href="#DejaVuSans-65" x="441.097656"/>
     <use xlink:href="#DejaVuSans-67" x="502.621094"/>
     <use xlink:href="#DejaVuSans-72" x="566.097656"/>
     <use xlink:href="#DejaVuSans-65" x="604.960938"/>
     <use xlink:href="#DejaVuSans-73" x="666.484375"/>
     <use xlink:href="#DejaVuSans-73" x="718.583984"/>
     <use xlink:href="#DejaVuSans-69" x="770.683594"/>
     <use xlink:href="#DejaVuSans-6f" x="798.466797"/>
     <use xlink:href="#DejaVuSans-6e" x="859.648438"/>
     <use xlink:href="#DejaVuSans-3a" x="923.027344"/>
     <use xlink:href="#DejaVuSans-20" x="956.71875"/>
     <use xlink:href="#DejaVuSans-61" x="988.505859"/>
     <use xlink:href="#DejaVuSans-76" x="1049.785156"/>
     <use xlink:href="#DejaVuSans-65" x="1108.964844"/>
     <use xlink:href="#DejaVuSans-5f" x="1170.488281"/>
     <use xlink:href="#DejaVuSans-77" x="1220.488281"/>
     <use xlink:href="#DejaVuSans-69" x="1302.275391"/>
     <use xlink:href="#DejaVuSans-6c" x="1330.058594"/>
     <use xlink:href="#DejaVuSans-6c" x="1357.841797"/>
     <use xlink:href="#DejaVuSans-69" x="1385.625"/>
     <use xlink:href="#DejaVuSans-6e" x="1413.408203"/>
     <use xlink:href="#DejaVuSans-67" x="1476.787109"/>
     <use xlink:href="#DejaVuSans-6e" x="1540.263672"/>
     <use xlink:href="#DejaVuSans-65" x="1603.642578"/>
     <use xlink:href="#DejaVuSans-73" x="1665.166016"/>
     <use xlink:href="#DejaVuSans-73" x="1717.265625"/>
     <use xlink:href="#DejaVuSans-20" x="1769.365234"/>
     <use xlink:href="#DejaVuSans-7e" x="1801.152344"/>
     <use xlink:href="#DejaVuSans-20" x="1884.941406"/>
     <use xlink:href="#DejaVuSans-73" x="1916.728516"/>
     <use xlink:href="#DejaVuSans-74" x="1968.828125"/>
     <use xlink:href="#DejaVuSans-61" x="2008.037109"/>
     <use xlink:href="#DejaVuSans-6e" x="2069.316406"/>
     <use xlink:href="#DejaVuSans-5f" x="2132.695312"/>
     <use xlink:href="#DejaVuSans-74" x="2182.695312"/>
     <use xlink:href="#DejaVuSans-6f" x="2221.904297"/>
     <use xlink:href="#DejaVuSans-70" x="2283.085938"/>
     <use xlink:href="#DejaVuSans-69" x="2346.5625"/>
     <use xlink:href="#DejaVuSans-63" x="2374.345703"/>
     <use xlink:href="#DejaVuSans-5f" x="2429.326172"/>
     <use xlink:href="#DejaVuSans-63" x="2479.326172"/>
     <use xlink:href="#DejaVuSans-6f" x="2534.306641"/>
     <use xlink:href="#DejaVuSans-75" x="2595.488281"/>
     <use xlink:href="#DejaVuSans-6e" x="2658.867188"/>
     <use xlink:href="#DejaVuSans-74" x="2722.246094"/>
     <use xlink:href="#DejaVuSans-20" x="2761.455078"/>
     <use xlink:href="#DejaVuSans-2b" x="2793.242188"/>
     <use xlink:href="#DejaVuSans-20" x="2877.03125"/>
     <use xlink:href="#DejaVuSans-67" x="2908.818359"/>
     <use xlink:href="#DejaVuSans-72" x="2972.294922"/>
     <use xlink:href="#DejaVuSans-6f" x="3011.158203"/>
     <use xlink:href="#DejaVuSans-75" x="3072.339844"/>
     <use xlink:href="#DejaVuSans-70" x="3135.71875"/>
     <use xlink:href="#DejaVuSans-5f" x="3199.195312"/>
     <use xlink:href="#DejaVuSans-63" x="3249.195312"/>
     <use xlink:href="#DejaVuSans-20" x="3304.175781"/>
     <use xlink:href="#DejaVuSans-2b" x="3335.962891"/>
     <use xlink:href="#DejaVuSans-20" x="3419.751953"/>
     <use xlink:href="#DejaVuSans-69" x="3451.539062"/>
     <use xlink:href="#DejaVuSans-6e" x="3479.322266"/>
     <use xlink:href="#DejaVuSans-74" x="3542.701172"/>
     <use xlink:href="#DejaVuSans-65" x="3581.910156"/>
     <use xlink:href="#DejaVuSans-72" x="3643.433594"/>
     <use xlink:href="#DejaVuSans-61" x="3684.546875"/>
     <use xlink:href="#DejaVuSans-63" x="3745.826172"/>
     <use xlink:href="#DejaVuSans-74" x="3800.806641"/>
     <use xlink:href="#DejaVuSans-69" x="3840.015625"/>
     <use xlink:href="#DejaVuSans-6f" x="3867.798828"/>
     <use xlink:href="#DejaVuSans-6e" x="3928.980469"/>
    </g>
   </g>
   <g id="legend_1">
    <g id="patch_7">
     <path d="M 455.523438 89.19625 
L 511.4 89.19625 
Q 513.4 89.19625 513.4 87.19625 
L 513.4 58.84 
Q 513.4 56.84 511.4 56.84 
L 455.523438 56.84 
Q 453.523438 56.84 453.523438 58.84 
L 453.523438 87.19625 
Q 453.523438 89.19625 455.523438 89.19625 
z
" style="fill: #ffffff; opacity: 0.8; stroke: #cccccc; stroke-linejoin: miter"/>
    </g>
    <g id="PathCollection_2">
     <g>
      <use xlink:href="#mf2b391c80e" x="467.523438" y="65.813437" style="fill: #1f77b4; stroke: #1f77b4"/>
     </g>
    </g>
    <g id="text_16">
     <!-- Data -->
     <g transform="translate(485.523438 68.438437) scale(0.1 -0.1)">
      <defs>
       <path id="DejaVuSans-44" d="M 1259 4147 
L 1259 519 
L 2022 519 
Q 2988 519 3436 956 
Q 3884 1394 3884 2338 
Q 3884 3275 3436 3711 
Q 2988 4147 2022 4147 
L 1259 4147 
z
M 628 4666 
L 1925 4666 
Q 3281 4666 3915 4102 
Q 4550 3538 4550 2338 
Q 4550 1131 3912 565 
Q 3275 0 1925 0 
L 628 0 
L 628 4666 
z
" transform="scale(0.015625)"/>
      </defs>
      <use xlink:href="#DejaVuSans-44"/>
      <use xlink:href="#DejaVuSans-61" x="77.001953"/>
      <use xlink:href="#DejaVuSans-74" x="138.28125"/>
      <use xlink:href="#DejaVuSans-61" x="177.490234"/>
     </g>
    </g>
    <g id="line2d_14">
     <path d="M 457.523438 79.616562 
L 467.523438 79.616562 
L 477.523438 79.616562 
" style="fill: none; stroke: #ff0000; stroke-width: 1.5; stroke-linecap: square"/>
    </g>
    <g id="text_17">
     <!-- Fit -->
     <g transform="translate(485.523438 83.116562) scale(0.1 -0.1)">
      <defs>
       <path id="DejaVuSans-46" d="M 628 4666 
L 3309 4666 
L 3309 4134 
L 1259 4134 
L 1259 2759 
L 3109 2759 
L 3109 2228 
L 1259 2228 
L 1259 0 
L 628 0 
L 628 4666 
z
" transform="scale(0.015625)"/>
      </defs>
      <use xlink:href="#DejaVuSans-46"/>
      <use xlink:href="#DejaVuSans-69" x="50.269531"/>
      <use xlink:href="#DejaVuSans-74" x="78.052734"/>
     </g>
    </g>
   </g>
  </g>
 </g>
 <defs>
  <clipPath id="p3b32062efa">
   <rect x="72" y="51.84" width="446.4" height="332.64"/>
  </clipPath>
 </defs>
</svg>
