<?xml version="1.0" encoding="utf-8" standalone="no"?>
<!DOCTYPE svg PUBLIC "-//W3C//DTD SVG 1.1//EN"
  "http://www.w3.org/Graphics/SVG/1.1/DTD/svg11.dtd">
<svg xmlns:xlink="http://www.w3.org/1999/xlink" width="576pt" height="432pt" viewBox="0 0 576 432" xmlns="http://www.w3.org/2000/svg" version="1.1">
 <metadata>
  <rdf:RDF xmlns:dc="http://purl.org/dc/elements/1.1/" xmlns:cc="http://creativecommons.org/ns#" xmlns:rdf="http://www.w3.org/1999/02/22-rdf-syntax-ns#">
   <cc:Work>
    <dc:type rdf:resource="http://purl.org/dc/dcmitype/StillImage"/>
    <dc:date>2024-12-12T16:32:52.682371</dc:date>
    <dc:format>image/svg+xml</dc:format>
    <dc:creator>
     <cc:Agent>
      <dc:title>Matplotlib v3.8.2, https://matplotlib.org/</dc:title>
     </cc:Agent>
    </dc:creator>
   </cc:Work>
  </rdf:RDF>
 </metadata>
 <defs>
  <style type="text/css">*{stroke-linejoin: round; stroke-linecap: butt}</style>
 </defs>
 <g id="figure_1">
  <g id="patch_1">
   <path d="M 0 432 
L 576 432 
L 576 0 
L 0 0 
z
" style="fill: #ffffff"/>
  </g>
  <g id="axes_1">
   <g id="patch_2">
    <path d="M 72 384.48 
L 518.4 384.48 
L 518.4 51.84 
L 72 51.84 
z
" style="fill: #ffffff"/>
   </g>
   <g id="PathCollection_1">
    <defs>
     <path id="m51e1e88a17" d="M 0 3 
C 0.795609 3 1.55874 2.683901 2.12132 2.12132 
C 2.683901 1.55874 3 0.795609 3 0 
C 3 -0.795609 2.683901 -1.55874 2.12132 -2.12132 
C 1.55874 -2.683901 0.795609 -3 0 -3 
C -0.795609 -3 -1.55874 -2.683901 -2.12132 -2.12132 
C -2.683901 -1.55874 -3 -0.795609 -3 0 
C -3 0.795609 -2.683901 1.55874 -2.12132 2.12132 
C -1.55874 2.683901 -0.795609 3 0 3 
z
" style="stroke: #1f77b4"/>
    </defs>
    <g clip-path="url(#pec3d70af22)">
     <use xlink:href="#m51e1e88a17" x="324.61018" y="122.206154" style="fill: #1f77b4; stroke: #1f77b4"/>
     <use xlink:href="#m51e1e88a17" x="-1" y="176.9205" style="fill: #1f77b4; stroke: #1f77b4"/>
     <use xlink:href="#m51e1e88a17" x="-1" y="123.326886" style="fill: #1f77b4; stroke: #1f77b4"/>
     <use xlink:href="#m51e1e88a17" x="635.12537" y="136.407323" style="fill: #1f77b4; stroke: #1f77b4"/>
     <use xlink:href="#m51e1e88a17" x="699.369893" y="164.873631" style="fill: #1f77b4; stroke: #1f77b4"/>
     <use xlink:href="#m51e1e88a17" x="238.950817" y="136.407323" style="fill: #1f77b4; stroke: #1f77b4"/>
     <use xlink:href="#m51e1e88a17" x="-1" y="171.06149" style="fill: #1f77b4; stroke: #1f77b4"/>
     <use xlink:href="#m51e1e88a17" x="-1" y="171.122776" style="fill: #1f77b4; stroke: #1f77b4"/>
     <use xlink:href="#m51e1e88a17" x="362.086151" y="122.206154" style="fill: #1f77b4; stroke: #1f77b4"/>
     <use xlink:href="#m51e1e88a17" x="-1" y="173.840429" style="fill: #1f77b4; stroke: #1f77b4"/>
     <use xlink:href="#m51e1e88a17" x="-1" y="195.858357" style="fill: #1f77b4; stroke: #1f77b4"/>
     <use xlink:href="#m51e1e88a17" x="51.57096" y="193.275969" style="fill: #1f77b4; stroke: #1f77b4"/>
     <use xlink:href="#m51e1e88a17" x="185.413715" y="157.709077" style="fill: #1f77b4; stroke: #1f77b4"/>
     <use xlink:href="#m51e1e88a17" x="-1" y="136.395364" style="fill: #1f77b4; stroke: #1f77b4"/>
     <use xlink:href="#m51e1e88a17" x="-1" y="123.512462" style="fill: #1f77b4; stroke: #1f77b4"/>
     <use xlink:href="#m51e1e88a17" x="549.466007" y="129.306738" style="fill: #1f77b4; stroke: #1f77b4"/>
     <use xlink:href="#m51e1e88a17" x="565.527138" y="143.507908" style="fill: #1f77b4; stroke: #1f77b4"/>
     <use xlink:href="#m51e1e88a17" x="83.693221" y="122.206154" style="fill: #1f77b4; stroke: #1f77b4"/>
     <use xlink:href="#m51e1e88a17" x="597.649399" y="122.206154" style="fill: #1f77b4; stroke: #1f77b4"/>
     <use xlink:href="#m51e1e88a17" x="62.278381" y="214.577723" style="fill: #1f77b4; stroke: #1f77b4"/>
     <use xlink:href="#m51e1e88a17" x="180.060005" y="186.175385" style="fill: #1f77b4; stroke: #1f77b4"/>
     <use xlink:href="#m51e1e88a17" x="131.876613" y="122.206154" style="fill: #1f77b4; stroke: #1f77b4"/>
     <use xlink:href="#m51e1e88a17" x="340.67131" y="157.709077" style="fill: #1f77b4; stroke: #1f77b4"/>
     <use xlink:href="#m51e1e88a17" x="35.50983" y="143.507908" style="fill: #1f77b4; stroke: #1f77b4"/>
     <use xlink:href="#m51e1e88a17" x="474.514065" y="122.206154" style="fill: #1f77b4; stroke: #1f77b4"/>
     <use xlink:href="#m51e1e88a17" x="-1" y="128.51286" style="fill: #1f77b4; stroke: #1f77b4"/>
     <use xlink:href="#m51e1e88a17" x="-1" y="191.905753" style="fill: #1f77b4; stroke: #1f77b4"/>
     <use xlink:href="#m51e1e88a17" x="688.662472" y="136.407323" style="fill: #1f77b4; stroke: #1f77b4"/>
     <use xlink:href="#m51e1e88a17" x="635.12537" y="164.873631" style="fill: #1f77b4; stroke: #1f77b4"/>
     <use xlink:href="#m51e1e88a17" x="24.802409" y="136.407323" style="fill: #1f77b4; stroke: #1f77b4"/>
     <use xlink:href="#m51e1e88a17" x="-1" y="138.122254" style="fill: #1f77b4; stroke: #1f77b4"/>
     <use xlink:href="#m51e1e88a17" x="-1" y="127.038478" style="fill: #1f77b4; stroke: #1f77b4"/>
     <use xlink:href="#m51e1e88a17" x="260.365657" y="136.407323" style="fill: #1f77b4; stroke: #1f77b4"/>
     <use xlink:href="#m51e1e88a17" x="228.243396" y="136.407323" style="fill: #1f77b4; stroke: #1f77b4"/>
     <use xlink:href="#m51e1e88a17" x="329.96389" y="136.407323" style="fill: #1f77b4; stroke: #1f77b4"/>
     <use xlink:href="#m51e1e88a17" x="222.889686" y="122.206154" style="fill: #1f77b4; stroke: #1f77b4"/>
     <use xlink:href="#m51e1e88a17" x="-1" y="122.206154" style="fill: #1f77b4; stroke: #1f77b4"/>
     <use xlink:href="#m51e1e88a17" x="-1" y="129.762108" style="fill: #1f77b4; stroke: #1f77b4"/>
     <use xlink:href="#m51e1e88a17" x="351.378731" y="143.507908" style="fill: #1f77b4; stroke: #1f77b4"/>
     <use xlink:href="#m51e1e88a17" x="-1" y="136.147952" style="fill: #1f77b4; stroke: #1f77b4"/>
     <use xlink:href="#m51e1e88a17" x="-1" y="156.921751" style="fill: #1f77b4; stroke: #1f77b4"/>
     <use xlink:href="#m51e1e88a17" x="442.391804" y="186.175385" style="fill: #1f77b4; stroke: #1f77b4"/>
     <use xlink:href="#m51e1e88a17" x="-1" y="167.314853" style="fill: #1f77b4; stroke: #1f77b4"/>
     <use xlink:href="#m51e1e88a17" x="-1" y="142.349798" style="fill: #1f77b4; stroke: #1f77b4"/>
     <use xlink:href="#m51e1e88a17" x="190.767425" y="129.306738" style="fill: #1f77b4; stroke: #1f77b4"/>
     <use xlink:href="#m51e1e88a17" x="-1" y="175.591974" style="fill: #1f77b4; stroke: #1f77b4"/>
     <use xlink:href="#m51e1e88a17" x="-1" y="192.631373" style="fill: #1f77b4; stroke: #1f77b4"/>
     <use xlink:href="#m51e1e88a17" x="838.566358" y="129.306738" style="fill: #1f77b4; stroke: #1f77b4"/>
     <use xlink:href="#m51e1e88a17" x="287.134208" y="129.306738" style="fill: #1f77b4; stroke: #1f77b4"/>
     <use xlink:href="#m51e1e88a17" x="870.688619" y="150.672462" style="fill: #1f77b4; stroke: #1f77b4"/>
     <use xlink:href="#m51e1e88a17" x="538.758587" y="122.206154" style="fill: #1f77b4; stroke: #1f77b4"/>
     <use xlink:href="#m51e1e88a17" x="-1" y="174.328614" style="fill: #1f77b4; stroke: #1f77b4"/>
     <use xlink:href="#m51e1e88a17" x="-1" y="168.644445" style="fill: #1f77b4; stroke: #1f77b4"/>
     <use xlink:href="#m51e1e88a17" x="661.893921" y="129.306738" style="fill: #1f77b4; stroke: #1f77b4"/>
     <use xlink:href="#m51e1e88a17" x="453.099224" y="122.206154" style="fill: #1f77b4; stroke: #1f77b4"/>
     <use xlink:href="#m51e1e88a17" x="-1" y="142.768857" style="fill: #1f77b4; stroke: #1f77b4"/>
     <use xlink:href="#m51e1e88a17" x="-1" y="154.573745" style="fill: #1f77b4; stroke: #1f77b4"/>
     <use xlink:href="#m51e1e88a17" x="859.981198" y="136.407323" style="fill: #1f77b4; stroke: #1f77b4"/>
     <use xlink:href="#m51e1e88a17" x="479.867775" y="150.608492" style="fill: #1f77b4; stroke: #1f77b4"/>
     <use xlink:href="#m51e1e88a17" x="533.404877" y="186.175385" style="fill: #1f77b4; stroke: #1f77b4"/>
     <use xlink:href="#m51e1e88a17" x="-1" y="154.564597" style="fill: #1f77b4; stroke: #1f77b4"/>
     <use xlink:href="#m51e1e88a17" x="-1" y="180.447994" style="fill: #1f77b4; stroke: #1f77b4"/>
     <use xlink:href="#m51e1e88a17" x="586.941979" y="243.044031" style="fill: #1f77b4; stroke: #1f77b4"/>
     <use xlink:href="#m51e1e88a17" x="619.06424" y="136.407323" style="fill: #1f77b4; stroke: #1f77b4"/>
     <use xlink:href="#m51e1e88a17" x="619.06424" y="150.608492" style="fill: #1f77b4; stroke: #1f77b4"/>
     <use xlink:href="#m51e1e88a17" x="811.797807" y="122.206154" style="fill: #1f77b4; stroke: #1f77b4"/>
     <use xlink:href="#m51e1e88a17" x="190.767425" y="136.407323" style="fill: #1f77b4; stroke: #1f77b4"/>
     <use xlink:href="#m51e1e88a17" x="255.011947" y="164.873631" style="fill: #1f77b4; stroke: #1f77b4"/>
     <use xlink:href="#m51e1e88a17" x="415.623253" y="122.206154" style="fill: #1f77b4; stroke: #1f77b4"/>
     <use xlink:href="#m51e1e88a17" x="-1" y="155.929448" style="fill: #1f77b4; stroke: #1f77b4"/>
     <use xlink:href="#m51e1e88a17" x="-1" y="155.929448" style="fill: #1f77b4; stroke: #1f77b4"/>
     <use xlink:href="#m51e1e88a17" x="415.623253" y="122.206154" style="fill: #1f77b4; stroke: #1f77b4"/>
     <use xlink:href="#m51e1e88a17" x="46.21725" y="186.175385" style="fill: #1f77b4; stroke: #1f77b4"/>
     <use xlink:href="#m51e1e88a17" x="115.815482" y="150.608492" style="fill: #1f77b4; stroke: #1f77b4"/>
     <use xlink:href="#m51e1e88a17" x="78.339511" y="129.306738" style="fill: #1f77b4; stroke: #1f77b4"/>
     <use xlink:href="#m51e1e88a17" x="-1" y="132.150722" style="fill: #1f77b4; stroke: #1f77b4"/>
     <use xlink:href="#m51e1e88a17" x="-1" y="218.957058" style="fill: #1f77b4; stroke: #1f77b4"/>
     <use xlink:href="#m51e1e88a17" x="142.584033" y="235.943446" style="fill: #1f77b4; stroke: #1f77b4"/>
     <use xlink:href="#m51e1e88a17" x="367.439861" y="143.507908" style="fill: #1f77b4; stroke: #1f77b4"/>
     <use xlink:href="#m51e1e88a17" x="-1" y="136.21449" style="fill: #1f77b4; stroke: #1f77b4"/>
     <use xlink:href="#m51e1e88a17" x="-1" y="241.468843" style="fill: #1f77b4; stroke: #1f77b4"/>
     <use xlink:href="#m51e1e88a17" x="453.099224" y="235.943446" style="fill: #1f77b4; stroke: #1f77b4"/>
     <use xlink:href="#m51e1e88a17" x="169.352584" y="164.873631" style="fill: #1f77b4; stroke: #1f77b4"/>
     <use xlink:href="#m51e1e88a17" x="-1" y="169.218579" style="fill: #1f77b4; stroke: #1f77b4"/>
     <use xlink:href="#m51e1e88a17" x="-1" y="186.175385" style="fill: #1f77b4; stroke: #1f77b4"/>
     <use xlink:href="#m51e1e88a17" x="35.50983" y="186.175385" style="fill: #1f77b4; stroke: #1f77b4"/>
     <use xlink:href="#m51e1e88a17" x="-1" y="173.711368" style="fill: #1f77b4; stroke: #1f77b4"/>
     <use xlink:href="#m51e1e88a17" x="-1" y="140.396859" style="fill: #1f77b4; stroke: #1f77b4"/>
     <use xlink:href="#m51e1e88a17" x="24.802409" y="143.507908" style="fill: #1f77b4; stroke: #1f77b4"/>
     <use xlink:href="#m51e1e88a17" x="-1" y="151.869663" style="fill: #1f77b4; stroke: #1f77b4"/>
     <use xlink:href="#m51e1e88a17" x="-1" y="144.84457" style="fill: #1f77b4; stroke: #1f77b4"/>
     <use xlink:href="#m51e1e88a17" x="83.693221" y="136.407323" style="fill: #1f77b4; stroke: #1f77b4"/>
     <use xlink:href="#m51e1e88a17" x="-1" y="139.941249" style="fill: #1f77b4; stroke: #1f77b4"/>
    </g>
   </g>
   <g id="matplotlib.axis_1">
    <g id="xtick_1">
     <g id="line2d_1">
      <defs>
       <path id="mbc668359f5" d="M 0 0 
L 0 3.5 
" style="stroke: #000000; stroke-width: 0.8"/>
      </defs>
      <g>
       <use xlink:href="#mbc668359f5" x="80.584615" y="384.48" style="stroke: #000000; stroke-width: 0.8"/>
      </g>
     </g>
     <g id="text_1">
      <!-- 0.0 -->
      <g transform="translate(64.68149 406.676875) scale(0.2 -0.2)">
       <defs>
        <path id="DejaVuSans-30" d="M 2034 4250 
Q 1547 4250 1301 3770 
Q 1056 3291 1056 2328 
Q 1056 1369 1301 889 
Q 1547 409 2034 409 
Q 2525 409 2770 889 
Q 3016 1369 3016 2328 
Q 3016 3291 2770 3770 
Q 2525 4250 2034 4250 
z
M 2034 4750 
Q 2819 4750 3233 4129 
Q 3647 3509 3647 2328 
Q 3647 1150 3233 529 
Q 2819 -91 2034 -91 
Q 1250 -91 836 529 
Q 422 1150 422 2328 
Q 422 3509 836 4129 
Q 1250 4750 2034 4750 
z
" transform="scale(0.015625)"/>
        <path id="DejaVuSans-2e" d="M 684 794 
L 1344 794 
L 1344 0 
L 684 0 
L 684 794 
z
" transform="scale(0.015625)"/>
       </defs>
       <use xlink:href="#DejaVuSans-30"/>
       <use xlink:href="#DejaVuSans-2e" x="63.623047"/>
       <use xlink:href="#DejaVuSans-30" x="95.410156"/>
      </g>
     </g>
    </g>
    <g id="xtick_2">
     <g id="line2d_2">
      <g>
       <use xlink:href="#mbc668359f5" x="166.430769" y="384.48" style="stroke: #000000; stroke-width: 0.8"/>
      </g>
     </g>
     <g id="text_2">
      <!-- 0.2 -->
      <g transform="translate(150.527644 406.676875) scale(0.2 -0.2)">
       <defs>
        <path id="DejaVuSans-32" d="M 1228 531 
L 3431 531 
L 3431 0 
L 469 0 
L 469 531 
Q 828 903 1448 1529 
Q 2069 2156 2228 2338 
Q 2531 2678 2651 2914 
Q 2772 3150 2772 3378 
Q 2772 3750 2511 3984 
Q 2250 4219 1831 4219 
Q 1534 4219 1204 4116 
Q 875 4013 500 3803 
L 500 4441 
Q 881 4594 1212 4672 
Q 1544 4750 1819 4750 
Q 2544 4750 2975 4387 
Q 3406 4025 3406 3419 
Q 3406 3131 3298 2873 
Q 3191 2616 2906 2266 
Q 2828 2175 2409 1742 
Q 1991 1309 1228 531 
z
" transform="scale(0.015625)"/>
       </defs>
       <use xlink:href="#DejaVuSans-30"/>
       <use xlink:href="#DejaVuSans-2e" x="63.623047"/>
       <use xlink:href="#DejaVuSans-32" x="95.410156"/>
      </g>
     </g>
    </g>
    <g id="xtick_3">
     <g id="line2d_3">
      <g>
       <use xlink:href="#mbc668359f5" x="252.276923" y="384.48" style="stroke: #000000; stroke-width: 0.8"/>
      </g>
     </g>
     <g id="text_3">
      <!-- 0.4 -->
      <g transform="translate(236.373798 406.676875) scale(0.2 -0.2)">
       <defs>
        <path id="DejaVuSans-34" d="M 2419 4116 
L 825 1625 
L 2419 1625 
L 2419 4116 
z
M 2253 4666 
L 3047 4666 
L 3047 1625 
L 3713 1625 
L 3713 1100 
L 3047 1100 
L 3047 0 
L 2419 0 
L 2419 1100 
L 313 1100 
L 313 1709 
L 2253 4666 
z
" transform="scale(0.015625)"/>
       </defs>
       <use xlink:href="#DejaVuSans-30"/>
       <use xlink:href="#DejaVuSans-2e" x="63.623047"/>
       <use xlink:href="#DejaVuSans-34" x="95.410156"/>
      </g>
     </g>
    </g>
    <g id="xtick_4">
     <g id="line2d_4">
      <g>
       <use xlink:href="#mbc668359f5" x="338.123077" y="384.48" style="stroke: #000000; stroke-width: 0.8"/>
      </g>
     </g>
     <g id="text_4">
      <!-- 0.6 -->
      <g transform="translate(322.219952 406.676875) scale(0.2 -0.2)">
       <defs>
        <path id="DejaVuSans-36" d="M 2113 2584 
Q 1688 2584 1439 2293 
Q 1191 2003 1191 1497 
Q 1191 994 1439 701 
Q 1688 409 2113 409 
Q 2538 409 2786 701 
Q 3034 994 3034 1497 
Q 3034 2003 2786 2293 
Q 2538 2584 2113 2584 
z
M 3366 4563 
L 3366 3988 
Q 3128 4100 2886 4159 
Q 2644 4219 2406 4219 
Q 1781 4219 1451 3797 
Q 1122 3375 1075 2522 
Q 1259 2794 1537 2939 
Q 1816 3084 2150 3084 
Q 2853 3084 3261 2657 
Q 3669 2231 3669 1497 
Q 3669 778 3244 343 
Q 2819 -91 2113 -91 
Q 1303 -91 875 529 
Q 447 1150 447 2328 
Q 447 3434 972 4092 
Q 1497 4750 2381 4750 
Q 2619 4750 2861 4703 
Q 3103 4656 3366 4563 
z
" transform="scale(0.015625)"/>
       </defs>
       <use xlink:href="#DejaVuSans-30"/>
       <use xlink:href="#DejaVuSans-2e" x="63.623047"/>
       <use xlink:href="#DejaVuSans-36" x="95.410156"/>
      </g>
     </g>
    </g>
    <g id="xtick_5">
     <g id="line2d_5">
      <g>
       <use xlink:href="#mbc668359f5" x="423.969231" y="384.48" style="stroke: #000000; stroke-width: 0.8"/>
      </g>
     </g>
     <g id="text_5">
      <!-- 0.8 -->
      <g transform="translate(408.066106 406.676875) scale(0.2 -0.2)">
       <defs>
        <path id="DejaVuSans-38" d="M 2034 2216 
Q 1584 2216 1326 1975 
Q 1069 1734 1069 1313 
Q 1069 891 1326 650 
Q 1584 409 2034 409 
Q 2484 409 2743 651 
Q 3003 894 3003 1313 
Q 3003 1734 2745 1975 
Q 2488 2216 2034 2216 
z
M 1403 2484 
Q 997 2584 770 2862 
Q 544 3141 544 3541 
Q 544 4100 942 4425 
Q 1341 4750 2034 4750 
Q 2731 4750 3128 4425 
Q 3525 4100 3525 3541 
Q 3525 3141 3298 2862 
Q 3072 2584 2669 2484 
Q 3125 2378 3379 2068 
Q 3634 1759 3634 1313 
Q 3634 634 3220 271 
Q 2806 -91 2034 -91 
Q 1263 -91 848 271 
Q 434 634 434 1313 
Q 434 1759 690 2068 
Q 947 2378 1403 2484 
z
M 1172 3481 
Q 1172 3119 1398 2916 
Q 1625 2713 2034 2713 
Q 2441 2713 2670 2916 
Q 2900 3119 2900 3481 
Q 2900 3844 2670 4047 
Q 2441 4250 2034 4250 
Q 1625 4250 1398 4047 
Q 1172 3844 1172 3481 
z
" transform="scale(0.015625)"/>
       </defs>
       <use xlink:href="#DejaVuSans-30"/>
       <use xlink:href="#DejaVuSans-2e" x="63.623047"/>
       <use xlink:href="#DejaVuSans-38" x="95.410156"/>
      </g>
     </g>
    </g>
    <g id="xtick_6">
     <g id="line2d_6">
      <g>
       <use xlink:href="#mbc668359f5" x="509.815385" y="384.48" style="stroke: #000000; stroke-width: 0.8"/>
      </g>
     </g>
     <g id="text_6">
      <!-- 1.0 -->
      <g transform="translate(493.91226 406.676875) scale(0.2 -0.2)">
       <defs>
        <path id="DejaVuSans-31" d="M 794 531 
L 1825 531 
L 1825 4091 
L 703 3866 
L 703 4441 
L 1819 4666 
L 2450 4666 
L 2450 531 
L 3481 531 
L 3481 0 
L 794 0 
L 794 531 
z
" transform="scale(0.015625)"/>
       </defs>
       <use xlink:href="#DejaVuSans-31"/>
       <use xlink:href="#DejaVuSans-2e" x="63.623047"/>
       <use xlink:href="#DejaVuSans-30" x="95.410156"/>
      </g>
     </g>
    </g>
    <g id="text_7">
     <!-- Standardized ave_cos_BERT_diary_Human -->
     <g transform="translate(189.65625 422.434687) scale(0.1 -0.1)">
      <defs>
       <path id="DejaVuSans-53" d="M 3425 4513 
L 3425 3897 
Q 3066 4069 2747 4153 
Q 2428 4238 2131 4238 
Q 1616 4238 1336 4038 
Q 1056 3838 1056 3469 
Q 1056 3159 1242 3001 
Q 1428 2844 1947 2747 
L 2328 2669 
Q 3034 2534 3370 2195 
Q 3706 1856 3706 1288 
Q 3706 609 3251 259 
Q 2797 -91 1919 -91 
Q 1588 -91 1214 -16 
Q 841 59 441 206 
L 441 856 
Q 825 641 1194 531 
Q 1563 422 1919 422 
Q 2459 422 2753 634 
Q 3047 847 3047 1241 
Q 3047 1584 2836 1778 
Q 2625 1972 2144 2069 
L 1759 2144 
Q 1053 2284 737 2584 
Q 422 2884 422 3419 
Q 422 4038 858 4394 
Q 1294 4750 2059 4750 
Q 2388 4750 2728 4690 
Q 3069 4631 3425 4513 
z
" transform="scale(0.015625)"/>
       <path id="DejaVuSans-74" d="M 1172 4494 
L 1172 3500 
L 2356 3500 
L 2356 3053 
L 1172 3053 
L 1172 1153 
Q 1172 725 1289 603 
Q 1406 481 1766 481 
L 2356 481 
L 2356 0 
L 1766 0 
Q 1100 0 847 248 
Q 594 497 594 1153 
L 594 3053 
L 172 3053 
L 172 3500 
L 594 3500 
L 594 4494 
L 1172 4494 
z
" transform="scale(0.015625)"/>
       <path id="DejaVuSans-61" d="M 2194 1759 
Q 1497 1759 1228 1600 
Q 959 1441 959 1056 
Q 959 750 1161 570 
Q 1363 391 1709 391 
Q 2188 391 2477 730 
Q 2766 1069 2766 1631 
L 2766 1759 
L 2194 1759 
z
M 3341 1997 
L 3341 0 
L 2766 0 
L 2766 531 
Q 2569 213 2275 61 
Q 1981 -91 1556 -91 
Q 1019 -91 701 211 
Q 384 513 384 1019 
Q 384 1609 779 1909 
Q 1175 2209 1959 2209 
L 2766 2209 
L 2766 2266 
Q 2766 2663 2505 2880 
Q 2244 3097 1772 3097 
Q 1472 3097 1187 3025 
Q 903 2953 641 2809 
L 641 3341 
Q 956 3463 1253 3523 
Q 1550 3584 1831 3584 
Q 2591 3584 2966 3190 
Q 3341 2797 3341 1997 
z
" transform="scale(0.015625)"/>
       <path id="DejaVuSans-6e" d="M 3513 2113 
L 3513 0 
L 2938 0 
L 2938 2094 
Q 2938 2591 2744 2837 
Q 2550 3084 2163 3084 
Q 1697 3084 1428 2787 
Q 1159 2491 1159 1978 
L 1159 0 
L 581 0 
L 581 3500 
L 1159 3500 
L 1159 2956 
Q 1366 3272 1645 3428 
Q 1925 3584 2291 3584 
Q 2894 3584 3203 3211 
Q 3513 2838 3513 2113 
z
" transform="scale(0.015625)"/>
       <path id="DejaVuSans-64" d="M 2906 2969 
L 2906 4863 
L 3481 4863 
L 3481 0 
L 2906 0 
L 2906 525 
Q 2725 213 2448 61 
Q 2172 -91 1784 -91 
Q 1150 -91 751 415 
Q 353 922 353 1747 
Q 353 2572 751 3078 
Q 1150 3584 1784 3584 
Q 2172 3584 2448 3432 
Q 2725 3281 2906 2969 
z
M 947 1747 
Q 947 1113 1208 752 
Q 1469 391 1925 391 
Q 2381 391 2643 752 
Q 2906 1113 2906 1747 
Q 2906 2381 2643 2742 
Q 2381 3103 1925 3103 
Q 1469 3103 1208 2742 
Q 947 2381 947 1747 
z
" transform="scale(0.015625)"/>
       <path id="DejaVuSans-72" d="M 2631 2963 
Q 2534 3019 2420 3045 
Q 2306 3072 2169 3072 
Q 1681 3072 1420 2755 
Q 1159 2438 1159 1844 
L 1159 0 
L 581 0 
L 581 3500 
L 1159 3500 
L 1159 2956 
Q 1341 3275 1631 3429 
Q 1922 3584 2338 3584 
Q 2397 3584 2469 3576 
Q 2541 3569 2628 3553 
L 2631 2963 
z
" transform="scale(0.015625)"/>
       <path id="DejaVuSans-69" d="M 603 3500 
L 1178 3500 
L 1178 0 
L 603 0 
L 603 3500 
z
M 603 4863 
L 1178 4863 
L 1178 4134 
L 603 4134 
L 603 4863 
z
" transform="scale(0.015625)"/>
       <path id="DejaVuSans-7a" d="M 353 3500 
L 3084 3500 
L 3084 2975 
L 922 459 
L 3084 459 
L 3084 0 
L 275 0 
L 275 525 
L 2438 3041 
L 353 3041 
L 353 3500 
z
" transform="scale(0.015625)"/>
       <path id="DejaVuSans-65" d="M 3597 1894 
L 3597 1613 
L 953 1613 
Q 991 1019 1311 708 
Q 1631 397 2203 397 
Q 2534 397 2845 478 
Q 3156 559 3463 722 
L 3463 178 
Q 3153 47 2828 -22 
Q 2503 -91 2169 -91 
Q 1331 -91 842 396 
Q 353 884 353 1716 
Q 353 2575 817 3079 
Q 1281 3584 2069 3584 
Q 2775 3584 3186 3129 
Q 3597 2675 3597 1894 
z
M 3022 2063 
Q 3016 2534 2758 2815 
Q 2500 3097 2075 3097 
Q 1594 3097 1305 2825 
Q 1016 2553 972 2059 
L 3022 2063 
z
" transform="scale(0.015625)"/>
       <path id="DejaVuSans-20" transform="scale(0.015625)"/>
       <path id="DejaVuSans-76" d="M 191 3500 
L 800 3500 
L 1894 563 
L 2988 3500 
L 3597 3500 
L 2284 0 
L 1503 0 
L 191 3500 
z
" transform="scale(0.015625)"/>
       <path id="DejaVuSans-5f" d="M 3263 -1063 
L 3263 -1509 
L -63 -1509 
L -63 -1063 
L 3263 -1063 
z
" transform="scale(0.015625)"/>
       <path id="DejaVuSans-63" d="M 3122 3366 
L 3122 2828 
Q 2878 2963 2633 3030 
Q 2388 3097 2138 3097 
Q 1578 3097 1268 2742 
Q 959 2388 959 1747 
Q 959 1106 1268 751 
Q 1578 397 2138 397 
Q 2388 397 2633 464 
Q 2878 531 3122 666 
L 3122 134 
Q 2881 22 2623 -34 
Q 2366 -91 2075 -91 
Q 1284 -91 818 406 
Q 353 903 353 1747 
Q 353 2603 823 3093 
Q 1294 3584 2113 3584 
Q 2378 3584 2631 3529 
Q 2884 3475 3122 3366 
z
" transform="scale(0.015625)"/>
       <path id="DejaVuSans-6f" d="M 1959 3097 
Q 1497 3097 1228 2736 
Q 959 2375 959 1747 
Q 959 1119 1226 758 
Q 1494 397 1959 397 
Q 2419 397 2687 759 
Q 2956 1122 2956 1747 
Q 2956 2369 2687 2733 
Q 2419 3097 1959 3097 
z
M 1959 3584 
Q 2709 3584 3137 3096 
Q 3566 2609 3566 1747 
Q 3566 888 3137 398 
Q 2709 -91 1959 -91 
Q 1206 -91 779 398 
Q 353 888 353 1747 
Q 353 2609 779 3096 
Q 1206 3584 1959 3584 
z
" transform="scale(0.015625)"/>
       <path id="DejaVuSans-73" d="M 2834 3397 
L 2834 2853 
Q 2591 2978 2328 3040 
Q 2066 3103 1784 3103 
Q 1356 3103 1142 2972 
Q 928 2841 928 2578 
Q 928 2378 1081 2264 
Q 1234 2150 1697 2047 
L 1894 2003 
Q 2506 1872 2764 1633 
Q 3022 1394 3022 966 
Q 3022 478 2636 193 
Q 2250 -91 1575 -91 
Q 1294 -91 989 -36 
Q 684 19 347 128 
L 347 722 
Q 666 556 975 473 
Q 1284 391 1588 391 
Q 1994 391 2212 530 
Q 2431 669 2431 922 
Q 2431 1156 2273 1281 
Q 2116 1406 1581 1522 
L 1381 1569 
Q 847 1681 609 1914 
Q 372 2147 372 2553 
Q 372 3047 722 3315 
Q 1072 3584 1716 3584 
Q 2034 3584 2315 3537 
Q 2597 3491 2834 3397 
z
" transform="scale(0.015625)"/>
       <path id="DejaVuSans-42" d="M 1259 2228 
L 1259 519 
L 2272 519 
Q 2781 519 3026 730 
Q 3272 941 3272 1375 
Q 3272 1813 3026 2020 
Q 2781 2228 2272 2228 
L 1259 2228 
z
M 1259 4147 
L 1259 2741 
L 2194 2741 
Q 2656 2741 2882 2914 
Q 3109 3088 3109 3444 
Q 3109 3797 2882 3972 
Q 2656 4147 2194 4147 
L 1259 4147 
z
M 628 4666 
L 2241 4666 
Q 2963 4666 3353 4366 
Q 3744 4066 3744 3513 
Q 3744 3084 3544 2831 
Q 3344 2578 2956 2516 
Q 3422 2416 3680 2098 
Q 3938 1781 3938 1306 
Q 3938 681 3513 340 
Q 3088 0 2303 0 
L 628 0 
L 628 4666 
z
" transform="scale(0.015625)"/>
       <path id="DejaVuSans-45" d="M 628 4666 
L 3578 4666 
L 3578 4134 
L 1259 4134 
L 1259 2753 
L 3481 2753 
L 3481 2222 
L 1259 2222 
L 1259 531 
L 3634 531 
L 3634 0 
L 628 0 
L 628 4666 
z
" transform="scale(0.015625)"/>
       <path id="DejaVuSans-52" d="M 2841 2188 
Q 3044 2119 3236 1894 
Q 3428 1669 3622 1275 
L 4263 0 
L 3584 0 
L 2988 1197 
Q 2756 1666 2539 1819 
Q 2322 1972 1947 1972 
L 1259 1972 
L 1259 0 
L 628 0 
L 628 4666 
L 2053 4666 
Q 2853 4666 3247 4331 
Q 3641 3997 3641 3322 
Q 3641 2881 3436 2590 
Q 3231 2300 2841 2188 
z
M 1259 4147 
L 1259 2491 
L 2053 2491 
Q 2509 2491 2742 2702 
Q 2975 2913 2975 3322 
Q 2975 3731 2742 3939 
Q 2509 4147 2053 4147 
L 1259 4147 
z
" transform="scale(0.015625)"/>
       <path id="DejaVuSans-54" d="M -19 4666 
L 3928 4666 
L 3928 4134 
L 2272 4134 
L 2272 0 
L 1638 0 
L 1638 4134 
L -19 4134 
L -19 4666 
z
" transform="scale(0.015625)"/>
       <path id="DejaVuSans-79" d="M 2059 -325 
Q 1816 -950 1584 -1140 
Q 1353 -1331 966 -1331 
L 506 -1331 
L 506 -850 
L 844 -850 
Q 1081 -850 1212 -737 
Q 1344 -625 1503 -206 
L 1606 56 
L 191 3500 
L 800 3500 
L 1894 763 
L 2988 3500 
L 3597 3500 
L 2059 -325 
z
" transform="scale(0.015625)"/>
       <path id="DejaVuSans-48" d="M 628 4666 
L 1259 4666 
L 1259 2753 
L 3553 2753 
L 3553 4666 
L 4184 4666 
L 4184 0 
L 3553 0 
L 3553 2222 
L 1259 2222 
L 1259 0 
L 628 0 
L 628 4666 
z
" transform="scale(0.015625)"/>
       <path id="DejaVuSans-75" d="M 544 1381 
L 544 3500 
L 1119 3500 
L 1119 1403 
Q 1119 906 1312 657 
Q 1506 409 1894 409 
Q 2359 409 2629 706 
Q 2900 1003 2900 1516 
L 2900 3500 
L 3475 3500 
L 3475 0 
L 2900 0 
L 2900 538 
Q 2691 219 2414 64 
Q 2138 -91 1772 -91 
Q 1169 -91 856 284 
Q 544 659 544 1381 
z
M 1991 3584 
L 1991 3584 
z
" transform="scale(0.015625)"/>
       <path id="DejaVuSans-6d" d="M 3328 2828 
Q 3544 3216 3844 3400 
Q 4144 3584 4550 3584 
Q 5097 3584 5394 3201 
Q 5691 2819 5691 2113 
L 5691 0 
L 5113 0 
L 5113 2094 
Q 5113 2597 4934 2840 
Q 4756 3084 4391 3084 
Q 3944 3084 3684 2787 
Q 3425 2491 3425 1978 
L 3425 0 
L 2847 0 
L 2847 2094 
Q 2847 2600 2669 2842 
Q 2491 3084 2119 3084 
Q 1678 3084 1418 2786 
Q 1159 2488 1159 1978 
L 1159 0 
L 581 0 
L 581 3500 
L 1159 3500 
L 1159 2956 
Q 1356 3278 1631 3431 
Q 1906 3584 2284 3584 
Q 2666 3584 2933 3390 
Q 3200 3197 3328 2828 
z
" transform="scale(0.015625)"/>
      </defs>
      <use xlink:href="#DejaVuSans-53"/>
      <use xlink:href="#DejaVuSans-74" x="63.476562"/>
      <use xlink:href="#DejaVuSans-61" x="102.685547"/>
      <use xlink:href="#DejaVuSans-6e" x="163.964844"/>
      <use xlink:href="#DejaVuSans-64" x="227.34375"/>
      <use xlink:href="#DejaVuSans-61" x="290.820312"/>
      <use xlink:href="#DejaVuSans-72" x="352.099609"/>
      <use xlink:href="#DejaVuSans-64" x="391.462891"/>
      <use xlink:href="#DejaVuSans-69" x="454.939453"/>
      <use xlink:href="#DejaVuSans-7a" x="482.722656"/>
      <use xlink:href="#DejaVuSans-65" x="535.212891"/>
      <use xlink:href="#DejaVuSans-64" x="596.736328"/>
      <use xlink:href="#DejaVuSans-20" x="660.212891"/>
      <use xlink:href="#DejaVuSans-61" x="692"/>
      <use xlink:href="#DejaVuSans-76" x="753.279297"/>
      <use xlink:href="#DejaVuSans-65" x="812.458984"/>
      <use xlink:href="#DejaVuSans-5f" x="873.982422"/>
      <use xlink:href="#DejaVuSans-63" x="923.982422"/>
      <use xlink:href="#DejaVuSans-6f" x="978.962891"/>
      <use xlink:href="#DejaVuSans-73" x="1040.144531"/>
      <use xlink:href="#DejaVuSans-5f" x="1092.244141"/>
      <use xlink:href="#DejaVuSans-42" x="1142.244141"/>
      <use xlink:href="#DejaVuSans-45" x="1210.847656"/>
      <use xlink:href="#DejaVuSans-52" x="1274.03125"/>
      <use xlink:href="#DejaVuSans-54" x="1336.263672"/>
      <use xlink:href="#DejaVuSans-5f" x="1397.347656"/>
      <use xlink:href="#DejaVuSans-64" x="1447.347656"/>
      <use xlink:href="#DejaVuSans-69" x="1510.824219"/>
      <use xlink:href="#DejaVuSans-61" x="1538.607422"/>
      <use xlink:href="#DejaVuSans-72" x="1599.886719"/>
      <use xlink:href="#DejaVuSans-79" x="1641"/>
      <use xlink:href="#DejaVuSans-5f" x="1700.179688"/>
      <use xlink:href="#DejaVuSans-48" x="1750.179688"/>
      <use xlink:href="#DejaVuSans-75" x="1825.375"/>
      <use xlink:href="#DejaVuSans-6d" x="1888.753906"/>
      <use xlink:href="#DejaVuSans-61" x="1986.166016"/>
      <use xlink:href="#DejaVuSans-6e" x="2047.445312"/>
     </g>
    </g>
   </g>
   <g id="matplotlib.axis_2">
    <g id="ytick_1">
     <g id="line2d_7">
      <defs>
       <path id="m0189326432" d="M 0 0 
L -3.5 0 
" style="stroke: #000000; stroke-width: 0.8"/>
      </defs>
      <g>
       <use xlink:href="#m0189326432" x="72" y="378.083077" style="stroke: #000000; stroke-width: 0.8"/>
      </g>
     </g>
     <g id="text_8">
      <!-- 1 -->
      <g transform="translate(52.275 385.681514) scale(0.2 -0.2)">
       <use xlink:href="#DejaVuSans-31"/>
      </g>
     </g>
    </g>
    <g id="ytick_2">
     <g id="line2d_8">
      <g>
       <use xlink:href="#m0189326432" x="72" y="314.113846" style="stroke: #000000; stroke-width: 0.8"/>
      </g>
     </g>
     <g id="text_9">
      <!-- 2 -->
      <g transform="translate(52.275 321.712284) scale(0.2 -0.2)">
       <use xlink:href="#DejaVuSans-32"/>
      </g>
     </g>
    </g>
    <g id="ytick_3">
     <g id="line2d_9">
      <g>
       <use xlink:href="#m0189326432" x="72" y="250.144615" style="stroke: #000000; stroke-width: 0.8"/>
      </g>
     </g>
     <g id="text_10">
      <!-- 3 -->
      <g transform="translate(52.275 257.743053) scale(0.2 -0.2)">
       <defs>
        <path id="DejaVuSans-33" d="M 2597 2516 
Q 3050 2419 3304 2112 
Q 3559 1806 3559 1356 
Q 3559 666 3084 287 
Q 2609 -91 1734 -91 
Q 1441 -91 1130 -33 
Q 819 25 488 141 
L 488 750 
Q 750 597 1062 519 
Q 1375 441 1716 441 
Q 2309 441 2620 675 
Q 2931 909 2931 1356 
Q 2931 1769 2642 2001 
Q 2353 2234 1838 2234 
L 1294 2234 
L 1294 2753 
L 1863 2753 
Q 2328 2753 2575 2939 
Q 2822 3125 2822 3475 
Q 2822 3834 2567 4026 
Q 2313 4219 1838 4219 
Q 1578 4219 1281 4162 
Q 984 4106 628 3988 
L 628 4550 
Q 988 4650 1302 4700 
Q 1616 4750 1894 4750 
Q 2613 4750 3031 4423 
Q 3450 4097 3450 3541 
Q 3450 3153 3228 2886 
Q 3006 2619 2597 2516 
z
" transform="scale(0.015625)"/>
       </defs>
       <use xlink:href="#DejaVuSans-33"/>
      </g>
     </g>
    </g>
    <g id="ytick_4">
     <g id="line2d_10">
      <g>
       <use xlink:href="#m0189326432" x="72" y="186.175385" style="stroke: #000000; stroke-width: 0.8"/>
      </g>
     </g>
     <g id="text_11">
      <!-- 4 -->
      <g transform="translate(52.275 193.773822) scale(0.2 -0.2)">
       <use xlink:href="#DejaVuSans-34"/>
      </g>
     </g>
    </g>
    <g id="ytick_5">
     <g id="line2d_11">
      <g>
       <use xlink:href="#m0189326432" x="72" y="122.206154" style="stroke: #000000; stroke-width: 0.8"/>
      </g>
     </g>
     <g id="text_12">
      <!-- 5 -->
      <g transform="translate(52.275 129.804591) scale(0.2 -0.2)">
       <defs>
        <path id="DejaVuSans-35" d="M 691 4666 
L 3169 4666 
L 3169 4134 
L 1269 4134 
L 1269 2991 
Q 1406 3038 1543 3061 
Q 1681 3084 1819 3084 
Q 2600 3084 3056 2656 
Q 3513 2228 3513 1497 
Q 3513 744 3044 326 
Q 2575 -91 1722 -91 
Q 1428 -91 1123 -41 
Q 819 9 494 109 
L 494 744 
Q 775 591 1075 516 
Q 1375 441 1709 441 
Q 2250 441 2565 725 
Q 2881 1009 2881 1497 
Q 2881 1984 2565 2268 
Q 2250 2553 1709 2553 
Q 1456 2553 1204 2497 
Q 953 2441 691 2322 
L 691 4666 
z
" transform="scale(0.015625)"/>
       </defs>
       <use xlink:href="#DejaVuSans-35"/>
      </g>
     </g>
    </g>
    <g id="ytick_6">
     <g id="line2d_12">
      <g>
       <use xlink:href="#m0189326432" x="72" y="58.236923" style="stroke: #000000; stroke-width: 0.8"/>
      </g>
     </g>
     <g id="text_13">
      <!-- 6 -->
      <g transform="translate(52.275 65.835361) scale(0.2 -0.2)">
       <use xlink:href="#DejaVuSans-36"/>
      </g>
     </g>
    </g>
    <g id="text_14">
     <!-- ave_warmth -->
     <g transform="translate(45.917187 248.880312) rotate(-90) scale(0.1 -0.1)">
      <defs>
       <path id="DejaVuSans-77" d="M 269 3500 
L 844 3500 
L 1563 769 
L 2278 3500 
L 2956 3500 
L 3675 769 
L 4391 3500 
L 4966 3500 
L 4050 0 
L 3372 0 
L 2619 2869 
L 1863 0 
L 1184 0 
L 269 3500 
z
" transform="scale(0.015625)"/>
       <path id="DejaVuSans-68" d="M 3513 2113 
L 3513 0 
L 2938 0 
L 2938 2094 
Q 2938 2591 2744 2837 
Q 2550 3084 2163 3084 
Q 1697 3084 1428 2787 
Q 1159 2491 1159 1978 
L 1159 0 
L 581 0 
L 581 4863 
L 1159 4863 
L 1159 2956 
Q 1366 3272 1645 3428 
Q 1925 3584 2291 3584 
Q 2894 3584 3203 3211 
Q 3513 2838 3513 2113 
z
" transform="scale(0.015625)"/>
      </defs>
      <use xlink:href="#DejaVuSans-61"/>
      <use xlink:href="#DejaVuSans-76" x="61.279297"/>
      <use xlink:href="#DejaVuSans-65" x="120.458984"/>
      <use xlink:href="#DejaVuSans-5f" x="181.982422"/>
      <use xlink:href="#DejaVuSans-77" x="231.982422"/>
      <use xlink:href="#DejaVuSans-61" x="313.769531"/>
      <use xlink:href="#DejaVuSans-72" x="375.048828"/>
      <use xlink:href="#DejaVuSans-6d" x="414.412109"/>
      <use xlink:href="#DejaVuSans-74" x="511.824219"/>
      <use xlink:href="#DejaVuSans-68" x="551.033203"/>
     </g>
    </g>
   </g>
   <g id="line2d_13">
    <path d="M 324.61018 141.099913 
L -1 149.733691 
M -1 150.539217 
L 577 139.996674 
M 577 139.197054 
L 238.950817 143.154004 
L -1 150.46201 
M -1 150.539217 
L 362.086151 143.916637 
L -1 150.539217 
M -1 150.539217 
L 51.57096 149.580339 
L 185.413715 147.139088 
L -1 149.987566 
M -1 149.789367 
L 549.466007 140.498886 
L 565.527138 135.322784 
L 83.693221 148.994439 
L 577 139.996674 
M 577 139.919747 
L 62.278381 147.390565 
L 180.060005 144.566191 
L 131.876613 145.721617 
L 340.67131 144.307237 
L 35.50983 149.873289 
L 474.514065 137.505255 
L -1 148.907965 
M -1 149.042652 
L 577 139.754367 
M 577 139.996674 
L 24.802409 150.068589 
L -1 150.539217 
M -1 150.539217 
L 260.365657 145.771988 
L 228.243396 146.357888 
L 329.96389 144.502537 
L 222.889686 143.539146 
L -1 148.907965 
M -1 148.907965 
L 351.378731 140.45801 
L -1 148.907965 
M -1 148.907965 
L 442.391804 138.275539 
L -1 149.129935 
M -1 149.061815 
L 190.767425 144.30943 
L -1 149.586468 
M -1 149.836252 
L 577 135.336875 
M 577 136.605951 
L 287.134208 145.283737 
L 577 139.996674 
M 577 139.996674 
L 538.758587 140.694186 
L -1 150.539217 
M -1 148.863364 
L 577 135.041956 
M 577 136.77072 
L 453.099224 142.256586 
L -1 150.539217 
M -1 150.539217 
L 577 139.996674 
M 577 136.727384 
L 479.867775 137.376875 
L 533.404877 140.791836 
L -1 150.539217 
M -1 150.539217 
L 577 139.996674 
M 577 139.996674 
L 190.767425 147.041438 
L 255.011947 145.869638 
L 415.623253 142.940136 
L -1 151.021853 
M -1 148.907965 
L 415.623253 138.917442 
L 46.21725 147.775707 
L 115.815482 146.106759 
L 78.339511 149.092089 
L -1 150.158863 
M -1 148.7358 
L 142.584033 145.464856 
L 367.439861 140.072868 
L -1 148.907965 
M -1 148.907965 
L 453.099224 138.018778 
L 169.352584 144.822952 
L -1 148.907965 
M -1 148.907965 
L 35.50983 148.032468 
L -1 148.907965 
M -1 148.907965 
L 24.802409 148.28923 
L -1 148.907965 
M -1 148.907965 
L 83.693221 146.877043 
L -1 148.907965 
" clip-path="url(#pec3d70af22)" style="fill: none; stroke: #ff0000; stroke-width: 1.5; stroke-linecap: square"/>
   </g>
   <g id="patch_3">
    <path d="M 72 384.48 
L 72 51.84 
" style="fill: none; stroke: #000000; stroke-width: 0.8; stroke-linejoin: miter; stroke-linecap: square"/>
   </g>
   <g id="patch_4">
    <path d="M 518.4 384.48 
L 518.4 51.84 
" style="fill: none; stroke: #000000; stroke-width: 0.8; stroke-linejoin: miter; stroke-linecap: square"/>
   </g>
   <g id="patch_5">
    <path d="M 72 384.48 
L 518.4 384.48 
" style="fill: none; stroke: #000000; stroke-width: 0.8; stroke-linejoin: miter; stroke-linecap: square"/>
   </g>
   <g id="patch_6">
    <path d="M 72 51.84 
L 518.4 51.84 
" style="fill: none; stroke: #000000; stroke-width: 0.8; stroke-linejoin: miter; stroke-linecap: square"/>
   </g>
   <g id="text_15">
    <!-- Robust Regression: ave_warmth ~ ave_cos_BERT_diary_Human + group_c + interaction -->
    <g transform="translate(31.198125 45.84) scale(0.12 -0.12)">
     <defs>
      <path id="DejaVuSans-62" d="M 3116 1747 
Q 3116 2381 2855 2742 
Q 2594 3103 2138 3103 
Q 1681 3103 1420 2742 
Q 1159 2381 1159 1747 
Q 1159 1113 1420 752 
Q 1681 391 2138 391 
Q 2594 391 2855 752 
Q 3116 1113 3116 1747 
z
M 1159 2969 
Q 1341 3281 1617 3432 
Q 1894 3584 2278 3584 
Q 2916 3584 3314 3078 
Q 3713 2572 3713 1747 
Q 3713 922 3314 415 
Q 2916 -91 2278 -91 
Q 1894 -91 1617 61 
Q 1341 213 1159 525 
L 1159 0 
L 581 0 
L 581 4863 
L 1159 4863 
L 1159 2969 
z
" transform="scale(0.015625)"/>
      <path id="DejaVuSans-67" d="M 2906 1791 
Q 2906 2416 2648 2759 
Q 2391 3103 1925 3103 
Q 1463 3103 1205 2759 
Q 947 2416 947 1791 
Q 947 1169 1205 825 
Q 1463 481 1925 481 
Q 2391 481 2648 825 
Q 2906 1169 2906 1791 
z
M 3481 434 
Q 3481 -459 3084 -895 
Q 2688 -1331 1869 -1331 
Q 1566 -1331 1297 -1286 
Q 1028 -1241 775 -1147 
L 775 -588 
Q 1028 -725 1275 -790 
Q 1522 -856 1778 -856 
Q 2344 -856 2625 -561 
Q 2906 -266 2906 331 
L 2906 616 
Q 2728 306 2450 153 
Q 2172 0 1784 0 
Q 1141 0 747 490 
Q 353 981 353 1791 
Q 353 2603 747 3093 
Q 1141 3584 1784 3584 
Q 2172 3584 2450 3431 
Q 2728 3278 2906 2969 
L 2906 3500 
L 3481 3500 
L 3481 434 
z
" transform="scale(0.015625)"/>
      <path id="DejaVuSans-3a" d="M 750 794 
L 1409 794 
L 1409 0 
L 750 0 
L 750 794 
z
M 750 3309 
L 1409 3309 
L 1409 2516 
L 750 2516 
L 750 3309 
z
" transform="scale(0.015625)"/>
      <path id="DejaVuSans-7e" d="M 4684 2553 
L 4684 1997 
Q 4356 1750 4076 1644 
Q 3797 1538 3494 1538 
Q 3150 1538 2694 1722 
Q 2659 1734 2644 1741 
Q 2622 1750 2575 1766 
Q 2091 1959 1797 1959 
Q 1522 1959 1253 1839 
Q 984 1719 678 1459 
L 678 2016 
Q 1006 2263 1286 2370 
Q 1566 2478 1869 2478 
Q 2213 2478 2672 2291 
Q 2703 2278 2719 2272 
Q 2744 2263 2788 2247 
Q 3272 2053 3566 2053 
Q 3834 2053 4098 2172 
Q 4363 2291 4684 2553 
z
" transform="scale(0.015625)"/>
      <path id="DejaVuSans-2b" d="M 2944 4013 
L 2944 2272 
L 4684 2272 
L 4684 1741 
L 2944 1741 
L 2944 0 
L 2419 0 
L 2419 1741 
L 678 1741 
L 678 2272 
L 2419 2272 
L 2419 4013 
L 2944 4013 
z
" transform="scale(0.015625)"/>
      <path id="DejaVuSans-70" d="M 1159 525 
L 1159 -1331 
L 581 -1331 
L 581 3500 
L 1159 3500 
L 1159 2969 
Q 1341 3281 1617 3432 
Q 1894 3584 2278 3584 
Q 2916 3584 3314 3078 
Q 3713 2572 3713 1747 
Q 3713 922 3314 415 
Q 2916 -91 2278 -91 
Q 1894 -91 1617 61 
Q 1341 213 1159 525 
z
M 3116 1747 
Q 3116 2381 2855 2742 
Q 2594 3103 2138 3103 
Q 1681 3103 1420 2742 
Q 1159 2381 1159 1747 
Q 1159 1113 1420 752 
Q 1681 391 2138 391 
Q 2594 391 2855 752 
Q 3116 1113 3116 1747 
z
" transform="scale(0.015625)"/>
     </defs>
     <use xlink:href="#DejaVuSans-52"/>
     <use xlink:href="#DejaVuSans-6f" x="64.982422"/>
     <use xlink:href="#DejaVuSans-62" x="126.164062"/>
     <use xlink:href="#DejaVuSans-75" x="189.640625"/>
     <use xlink:href="#DejaVuSans-73" x="253.019531"/>
     <use xlink:href="#DejaVuSans-74" x="305.119141"/>
     <use xlink:href="#DejaVuSans-20" x="344.328125"/>
     <use xlink:href="#DejaVuSans-52" x="376.115234"/>
     <use xlink:href="#DejaVuSans-65" x="441.097656"/>
     <use xlink:href="#DejaVuSans-67" x="502.621094"/>
     <use xlink:href="#DejaVuSans-72" x="566.097656"/>
     <use xlink:href="#DejaVuSans-65" x="604.960938"/>
     <use xlink:href="#DejaVuSans-73" x="666.484375"/>
     <use xlink:href="#DejaVuSans-73" x="718.583984"/>
     <use xlink:href="#DejaVuSans-69" x="770.683594"/>
     <use xlink:href="#DejaVuSans-6f" x="798.466797"/>
     <use xlink:href="#DejaVuSans-6e" x="859.648438"/>
     <use xlink:href="#DejaVuSans-3a" x="923.027344"/>
     <use xlink:href="#DejaVuSans-20" x="956.71875"/>
     <use xlink:href="#DejaVuSans-61" x="988.505859"/>
     <use xlink:href="#DejaVuSans-76" x="1049.785156"/>
     <use xlink:href="#DejaVuSans-65" x="1108.964844"/>
     <use xlink:href="#DejaVuSans-5f" x="1170.488281"/>
     <use xlink:href="#DejaVuSans-77" x="1220.488281"/>
     <use xlink:href="#DejaVuSans-61" x="1302.275391"/>
     <use xlink:href="#DejaVuSans-72" x="1363.554688"/>
     <use xlink:href="#DejaVuSans-6d" x="1402.917969"/>
     <use xlink:href="#DejaVuSans-74" x="1500.330078"/>
     <use xlink:href="#DejaVuSans-68" x="1539.539062"/>
     <use xlink:href="#DejaVuSans-20" x="1602.917969"/>
     <use xlink:href="#DejaVuSans-7e" x="1634.705078"/>
     <use xlink:href="#DejaVuSans-20" x="1718.494141"/>
     <use xlink:href="#DejaVuSans-61" x="1750.28125"/>
     <use xlink:href="#DejaVuSans-76" x="1811.560547"/>
     <use xlink:href="#DejaVuSans-65" x="1870.740234"/>
     <use xlink:href="#DejaVuSans-5f" x="1932.263672"/>
     <use xlink:href="#DejaVuSans-63" x="1982.263672"/>
     <use xlink:href="#DejaVuSans-6f" x="2037.244141"/>
     <use xlink:href="#DejaVuSans-73" x="2098.425781"/>
     <use xlink:href="#DejaVuSans-5f" x="2150.525391"/>
     <use xlink:href="#DejaVuSans-42" x="2200.525391"/>
     <use xlink:href="#DejaVuSans-45" x="2269.128906"/>
     <use xlink:href="#DejaVuSans-52" x="2332.3125"/>
     <use xlink:href="#DejaVuSans-54" x="2394.544922"/>
     <use xlink:href="#DejaVuSans-5f" x="2455.628906"/>
     <use xlink:href="#DejaVuSans-64" x="2505.628906"/>
     <use xlink:href="#DejaVuSans-69" x="2569.105469"/>
     <use xlink:href="#DejaVuSans-61" x="2596.888672"/>
     <use xlink:href="#DejaVuSans-72" x="2658.167969"/>
     <use xlink:href="#DejaVuSans-79" x="2699.28125"/>
     <use xlink:href="#DejaVuSans-5f" x="2758.460938"/>
     <use xlink:href="#DejaVuSans-48" x="2808.460938"/>
     <use xlink:href="#DejaVuSans-75" x="2883.65625"/>
     <use xlink:href="#DejaVuSans-6d" x="2947.035156"/>
     <use xlink:href="#DejaVuSans-61" x="3044.447266"/>
     <use xlink:href="#DejaVuSans-6e" x="3105.726562"/>
     <use xlink:href="#DejaVuSans-20" x="3169.105469"/>
     <use xlink:href="#DejaVuSans-2b" x="3200.892578"/>
     <use xlink:href="#DejaVuSans-20" x="3284.681641"/>
     <use xlink:href="#DejaVuSans-67" x="3316.46875"/>
     <use xlink:href="#DejaVuSans-72" x="3379.945312"/>
     <use xlink:href="#DejaVuSans-6f" x="3418.808594"/>
     <use xlink:href="#DejaVuSans-75" x="3479.990234"/>
     <use xlink:href="#DejaVuSans-70" x="3543.369141"/>
     <use xlink:href="#DejaVuSans-5f" x="3606.845703"/>
     <use xlink:href="#DejaVuSans-63" x="3656.845703"/>
     <use xlink:href="#DejaVuSans-20" x="3711.826172"/>
     <use xlink:href="#DejaVuSans-2b" x="3743.613281"/>
     <use xlink:href="#DejaVuSans-20" x="3827.402344"/>
     <use xlink:href="#DejaVuSans-69" x="3859.189453"/>
     <use xlink:href="#DejaVuSans-6e" x="3886.972656"/>
     <use xlink:href="#DejaVuSans-74" x="3950.351562"/>
     <use xlink:href="#DejaVuSans-65" x="3989.560547"/>
     <use xlink:href="#DejaVuSans-72" x="4051.083984"/>
     <use xlink:href="#DejaVuSans-61" x="4092.197266"/>
     <use xlink:href="#DejaVuSans-63" x="4153.476562"/>
     <use xlink:href="#DejaVuSans-74" x="4208.457031"/>
     <use xlink:href="#DejaVuSans-69" x="4247.666016"/>
     <use xlink:href="#DejaVuSans-6f" x="4275.449219"/>
     <use xlink:href="#DejaVuSans-6e" x="4336.630859"/>
    </g>
   </g>
   <g id="legend_1">
    <g id="patch_7">
     <path d="M 455.523438 89.19625 
L 511.4 89.19625 
Q 513.4 89.19625 513.4 87.19625 
L 513.4 58.84 
Q 513.4 56.84 511.4 56.84 
L 455.523438 56.84 
Q 453.523438 56.84 453.523438 58.84 
L 453.523438 87.19625 
Q 453.523438 89.19625 455.523438 89.19625 
z
" style="fill: #ffffff; opacity: 0.8; stroke: #cccccc; stroke-linejoin: miter"/>
    </g>
    <g id="PathCollection_2">
     <g>
      <use xlink:href="#m51e1e88a17" x="467.523438" y="65.813437" style="fill: #1f77b4; stroke: #1f77b4"/>
     </g>
    </g>
    <g id="text_16">
     <!-- Data -->
     <g transform="translate(485.523438 68.438437) scale(0.1 -0.1)">
      <defs>
       <path id="DejaVuSans-44" d="M 1259 4147 
L 1259 519 
L 2022 519 
Q 2988 519 3436 956 
Q 3884 1394 3884 2338 
Q 3884 3275 3436 3711 
Q 2988 4147 2022 4147 
L 1259 4147 
z
M 628 4666 
L 1925 4666 
Q 3281 4666 3915 4102 
Q 4550 3538 4550 2338 
Q 4550 1131 3912 565 
Q 3275 0 1925 0 
L 628 0 
L 628 4666 
z
" transform="scale(0.015625)"/>
      </defs>
      <use xlink:href="#DejaVuSans-44"/>
      <use xlink:href="#DejaVuSans-61" x="77.001953"/>
      <use xlink:href="#DejaVuSans-74" x="138.28125"/>
      <use xlink:href="#DejaVuSans-61" x="177.490234"/>
     </g>
    </g>
    <g id="line2d_14">
     <path d="M 457.523438 79.616562 
L 467.523438 79.616562 
L 477.523438 79.616562 
" style="fill: none; stroke: #ff0000; stroke-width: 1.5; stroke-linecap: square"/>
    </g>
    <g id="text_17">
     <!-- Fit -->
     <g transform="translate(485.523438 83.116562) scale(0.1 -0.1)">
      <defs>
       <path id="DejaVuSans-46" d="M 628 4666 
L 3309 4666 
L 3309 4134 
L 1259 4134 
L 1259 2759 
L 3109 2759 
L 3109 2228 
L 1259 2228 
L 1259 0 
L 628 0 
L 628 4666 
z
" transform="scale(0.015625)"/>
      </defs>
      <use xlink:href="#DejaVuSans-46"/>
      <use xlink:href="#DejaVuSans-69" x="50.269531"/>
      <use xlink:href="#DejaVuSans-74" x="78.052734"/>
     </g>
    </g>
   </g>
  </g>
 </g>
 <defs>
  <clipPath id="pec3d70af22">
   <rect x="72" y="51.84" width="446.4" height="332.64"/>
  </clipPath>
 </defs>
</svg>
